%TF.GenerationSoftware,KiCad,Pcbnew,(6.0.8-1)-1*%
%TF.CreationDate,2022-11-20T20:32:36+00:00*%
%TF.ProjectId,esp32-network-dac,65737033-322d-46e6-9574-776f726b2d64,0.1*%
%TF.SameCoordinates,Original*%
%TF.FileFunction,Copper,L1,Top*%
%TF.FilePolarity,Positive*%
%FSLAX46Y46*%
G04 Gerber Fmt 4.6, Leading zero omitted, Abs format (unit mm)*
G04 Created by KiCad (PCBNEW (6.0.8-1)-1) date 2022-11-20 20:32:36*
%MOMM*%
%LPD*%
G01*
G04 APERTURE LIST*
G04 Aperture macros list*
%AMRoundRect*
0 Rectangle with rounded corners*
0 $1 Rounding radius*
0 $2 $3 $4 $5 $6 $7 $8 $9 X,Y pos of 4 corners*
0 Add a 4 corners polygon primitive as box body*
4,1,4,$2,$3,$4,$5,$6,$7,$8,$9,$2,$3,0*
0 Add four circle primitives for the rounded corners*
1,1,$1+$1,$2,$3*
1,1,$1+$1,$4,$5*
1,1,$1+$1,$6,$7*
1,1,$1+$1,$8,$9*
0 Add four rect primitives between the rounded corners*
20,1,$1+$1,$2,$3,$4,$5,0*
20,1,$1+$1,$4,$5,$6,$7,0*
20,1,$1+$1,$6,$7,$8,$9,0*
20,1,$1+$1,$8,$9,$2,$3,0*%
G04 Aperture macros list end*
%TA.AperFunction,SMDPad,CuDef*%
%ADD10RoundRect,0.200000X0.200000X0.275000X-0.200000X0.275000X-0.200000X-0.275000X0.200000X-0.275000X0*%
%TD*%
%TA.AperFunction,SMDPad,CuDef*%
%ADD11RoundRect,0.200000X-0.275000X0.200000X-0.275000X-0.200000X0.275000X-0.200000X0.275000X0.200000X0*%
%TD*%
%TA.AperFunction,ComponentPad*%
%ADD12O,3.200000X1.600000*%
%TD*%
%TA.AperFunction,ComponentPad*%
%ADD13O,1.600000X3.200000*%
%TD*%
%TA.AperFunction,SMDPad,CuDef*%
%ADD14R,2.500000X1.600000*%
%TD*%
%TA.AperFunction,ComponentPad*%
%ADD15R,1.700000X1.700000*%
%TD*%
%TA.AperFunction,ComponentPad*%
%ADD16O,1.700000X1.700000*%
%TD*%
%TA.AperFunction,SMDPad,CuDef*%
%ADD17R,1.500000X2.000000*%
%TD*%
%TA.AperFunction,SMDPad,CuDef*%
%ADD18R,3.800000X2.000000*%
%TD*%
%TA.AperFunction,SMDPad,CuDef*%
%ADD19RoundRect,0.250000X-0.475000X0.250000X-0.475000X-0.250000X0.475000X-0.250000X0.475000X0.250000X0*%
%TD*%
%TA.AperFunction,SMDPad,CuDef*%
%ADD20RoundRect,0.250000X0.475000X-0.250000X0.475000X0.250000X-0.475000X0.250000X-0.475000X-0.250000X0*%
%TD*%
%TA.AperFunction,SMDPad,CuDef*%
%ADD21RoundRect,0.200000X-0.200000X-0.275000X0.200000X-0.275000X0.200000X0.275000X-0.200000X0.275000X0*%
%TD*%
%TA.AperFunction,SMDPad,CuDef*%
%ADD22RoundRect,0.225000X-0.250000X0.225000X-0.250000X-0.225000X0.250000X-0.225000X0.250000X0.225000X0*%
%TD*%
%TA.AperFunction,SMDPad,CuDef*%
%ADD23RoundRect,0.225000X0.225000X0.250000X-0.225000X0.250000X-0.225000X-0.250000X0.225000X-0.250000X0*%
%TD*%
%TA.AperFunction,SMDPad,CuDef*%
%ADD24RoundRect,0.225000X-0.225000X-0.250000X0.225000X-0.250000X0.225000X0.250000X-0.225000X0.250000X0*%
%TD*%
%TA.AperFunction,SMDPad,CuDef*%
%ADD25R,1.400000X1.600000*%
%TD*%
%TA.AperFunction,SMDPad,CuDef*%
%ADD26R,0.889000X1.498600*%
%TD*%
%TA.AperFunction,SMDPad,CuDef*%
%ADD27R,0.889000X0.889000*%
%TD*%
%TA.AperFunction,SMDPad,CuDef*%
%ADD28RoundRect,0.250000X0.250000X0.475000X-0.250000X0.475000X-0.250000X-0.475000X0.250000X-0.475000X0*%
%TD*%
%TA.AperFunction,SMDPad,CuDef*%
%ADD29RoundRect,0.250000X-0.250000X-0.475000X0.250000X-0.475000X0.250000X0.475000X-0.250000X0.475000X0*%
%TD*%
%TA.AperFunction,SMDPad,CuDef*%
%ADD30RoundRect,0.250000X-0.325000X-0.650000X0.325000X-0.650000X0.325000X0.650000X-0.325000X0.650000X0*%
%TD*%
%TA.AperFunction,SMDPad,CuDef*%
%ADD31RoundRect,0.225000X0.250000X-0.225000X0.250000X0.225000X-0.250000X0.225000X-0.250000X-0.225000X0*%
%TD*%
%TA.AperFunction,SMDPad,CuDef*%
%ADD32R,1.150000X0.700000*%
%TD*%
%TA.AperFunction,SMDPad,CuDef*%
%ADD33R,1.150000X0.800000*%
%TD*%
%TA.AperFunction,SMDPad,CuDef*%
%ADD34R,1.150000X0.900000*%
%TD*%
%TA.AperFunction,ComponentPad*%
%ADD35O,2.000000X1.000000*%
%TD*%
%TA.AperFunction,SMDPad,CuDef*%
%ADD36R,0.600000X0.450000*%
%TD*%
%TA.AperFunction,SMDPad,CuDef*%
%ADD37RoundRect,0.250000X0.325000X0.650000X-0.325000X0.650000X-0.325000X-0.650000X0.325000X-0.650000X0*%
%TD*%
%TA.AperFunction,SMDPad,CuDef*%
%ADD38RoundRect,0.218750X0.218750X0.256250X-0.218750X0.256250X-0.218750X-0.256250X0.218750X-0.256250X0*%
%TD*%
%TA.AperFunction,SMDPad,CuDef*%
%ADD39R,2.000000X1.500000*%
%TD*%
%TA.AperFunction,SMDPad,CuDef*%
%ADD40R,2.000000X3.800000*%
%TD*%
%TA.AperFunction,SMDPad,CuDef*%
%ADD41R,1.212799X2.406599*%
%TD*%
%TA.AperFunction,SMDPad,CuDef*%
%ADD42RoundRect,0.100000X0.637500X0.100000X-0.637500X0.100000X-0.637500X-0.100000X0.637500X-0.100000X0*%
%TD*%
%TA.AperFunction,SMDPad,CuDef*%
%ADD43RoundRect,0.250000X-0.650000X0.325000X-0.650000X-0.325000X0.650000X-0.325000X0.650000X0.325000X0*%
%TD*%
%TA.AperFunction,ViaPad*%
%ADD44C,0.700000*%
%TD*%
%TA.AperFunction,Conductor*%
%ADD45C,0.500000*%
%TD*%
%TA.AperFunction,Conductor*%
%ADD46C,0.300000*%
%TD*%
G04 APERTURE END LIST*
D10*
%TO.P,R4,1*%
%TO.N,/JACKL*%
X149825000Y-108500000D03*
%TO.P,R4,2*%
%TO.N,/OUTL*%
X148175000Y-108500000D03*
%TD*%
%TO.P,R3,1*%
%TO.N,GND*%
X107325000Y-114000000D03*
%TO.P,R3,2*%
%TO.N,/CC2*%
X105675000Y-114000000D03*
%TD*%
D11*
%TO.P,RV1,1*%
%TO.N,VBUS*%
X105500000Y-115675000D03*
%TO.P,RV1,2*%
%TO.N,GND*%
X105500000Y-117325000D03*
%TD*%
D12*
%TO.P,J2,1*%
%TO.N,GND*%
X162357500Y-114675000D03*
%TO.P,J2,2*%
%TO.N,/JACKL*%
X160357500Y-112275000D03*
%TO.P,J2,3*%
%TO.N,/JACKR*%
X160357500Y-106775000D03*
D13*
%TO.P,J2,S1,SHIELD*%
%TO.N,GND*%
X166507500Y-113675000D03*
%TO.P,J2,S2,SHIELD*%
X166507500Y-104775000D03*
%TO.P,J2,S3,SHIELD*%
X157907500Y-104775000D03*
%TD*%
D10*
%TO.P,R2,2*%
%TO.N,/CC1*%
X105675000Y-112000000D03*
%TO.P,R2,1*%
%TO.N,GND*%
X107325000Y-112000000D03*
%TD*%
D14*
%TO.P,C9,1*%
%TO.N,+3.3VA*%
X142720000Y-93540000D03*
%TO.P,C9,2*%
%TO.N,GND*%
X139220000Y-93540000D03*
%TD*%
D15*
%TO.P,J3,1,Pin_1*%
%TO.N,VBUS*%
X113300000Y-102000000D03*
D16*
%TO.P,J3,2,Pin_2*%
%TO.N,ESP32_Rx*%
X110760000Y-102000000D03*
%TO.P,J3,3,Pin_3*%
%TO.N,ESP32_Tx*%
X108220000Y-102000000D03*
%TO.P,J3,4,Pin_4*%
%TO.N,GND*%
X105680000Y-102000000D03*
%TD*%
D17*
%TO.P,U3,1,VI*%
%TO.N,VBUS_FILT*%
X120417000Y-115650000D03*
%TO.P,U3,2,GND*%
%TO.N,GND*%
X122717000Y-115650000D03*
D18*
X122717000Y-109350000D03*
D17*
%TO.P,U3,3,VO*%
%TO.N,+3V3*%
X125017000Y-115650000D03*
%TD*%
D19*
%TO.P,C12,1*%
%TO.N,+3.3VA*%
X145500000Y-113000000D03*
%TO.P,C12,2*%
%TO.N,GND*%
X145500000Y-114900000D03*
%TD*%
D20*
%TO.P,C21,1*%
%TO.N,VBUS_FILT*%
X117500000Y-116500000D03*
%TO.P,C21,2*%
%TO.N,GND*%
X117500000Y-114600000D03*
%TD*%
D21*
%TO.P,R10,1*%
%TO.N,+3V3*%
X112567000Y-95500000D03*
%TO.P,R10,2*%
%TO.N,RESET*%
X114217000Y-95500000D03*
%TD*%
D20*
%TO.P,C8,1*%
%TO.N,/LDO0*%
X136500000Y-109400000D03*
%TO.P,C8,2*%
%TO.N,GND*%
X136500000Y-107500000D03*
%TD*%
D22*
%TO.P,C14,1*%
%TO.N,+3.3VA*%
X143500000Y-113225000D03*
%TO.P,C14,2*%
%TO.N,GND*%
X143500000Y-114775000D03*
%TD*%
D23*
%TO.P,C19,1*%
%TO.N,RESET*%
X114267000Y-97500000D03*
%TO.P,C19,2*%
%TO.N,GND*%
X112717000Y-97500000D03*
%TD*%
D24*
%TO.P,C16,1*%
%TO.N,+3V3*%
X125167000Y-118000000D03*
%TO.P,C16,2*%
%TO.N,GND*%
X126717000Y-118000000D03*
%TD*%
D19*
%TO.P,C23,1*%
%TO.N,+3V3*%
X102717000Y-95550000D03*
%TO.P,C23,2*%
%TO.N,GND*%
X102717000Y-97450000D03*
%TD*%
D21*
%TO.P,R7,1*%
%TO.N,+3V3*%
X138175000Y-101000000D03*
%TO.P,R7,2*%
%TO.N,/XSMT*%
X139825000Y-101000000D03*
%TD*%
D25*
%TO.P,S1,1*%
%TO.N,RESET*%
X129250000Y-95700000D03*
%TO.P,S1,2*%
%TO.N,GND*%
X133750000Y-95700000D03*
%TO.P,S1,3*%
%TO.N,RESET*%
X129250000Y-87300000D03*
%TO.P,S1,4*%
%TO.N,GND*%
X133750000Y-87300000D03*
%TD*%
D21*
%TO.P,R8,1*%
%TO.N,+3V3*%
X110892000Y-108500000D03*
%TO.P,R8,2*%
%TO.N,/D2_PWR*%
X112542000Y-108500000D03*
%TD*%
D26*
%TO.P,U2,1,GND*%
%TO.N,GND*%
X101737202Y-92250000D03*
%TO.P,U2,2,3V3*%
%TO.N,+3V3*%
X103007202Y-92250000D03*
%TO.P,U2,3,EN*%
%TO.N,RESET*%
X104277202Y-92250000D03*
%TO.P,U2,4,SENSOR_VP*%
%TO.N,unconnected-(U2-Pad4)*%
X105547202Y-92250000D03*
%TO.P,U2,5,SENSOR_VN*%
%TO.N,unconnected-(U2-Pad5)*%
X106817202Y-92250000D03*
%TO.P,U2,6,IO34*%
%TO.N,unconnected-(U2-Pad6)*%
X108087202Y-92250000D03*
%TO.P,U2,7,IO35*%
%TO.N,unconnected-(U2-Pad7)*%
X109357202Y-92250000D03*
%TO.P,U2,8,IO32*%
%TO.N,unconnected-(U2-Pad8)*%
X110627202Y-92250000D03*
%TO.P,U2,9,IO33*%
%TO.N,unconnected-(U2-Pad9)*%
X111897202Y-92250000D03*
%TO.P,U2,10,IO25*%
%TO.N,PCM_LRCK*%
X113167202Y-92250000D03*
%TO.P,U2,11,IO26*%
%TO.N,PCM_DIN*%
X114437202Y-92250000D03*
%TO.P,U2,12,IO27*%
%TO.N,unconnected-(U2-Pad12)*%
X115707202Y-92250000D03*
%TO.P,U2,13,IO14*%
%TO.N,unconnected-(U2-Pad13)*%
X116977202Y-92250000D03*
%TO.P,U2,14,IO12*%
%TO.N,/GPIO12*%
X118247202Y-92250000D03*
%TO.P,U2,15,GND*%
%TO.N,GND*%
X119517202Y-92250000D03*
%TO.P,U2,16,IO13*%
%TO.N,unconnected-(U2-Pad16)*%
X120787202Y-92250000D03*
%TO.P,U2,17,NC*%
%TO.N,unconnected-(U2-Pad17)*%
X122057202Y-92250000D03*
%TO.P,U2,18,NC*%
%TO.N,unconnected-(U2-Pad18)*%
X123327202Y-92250000D03*
%TO.P,U2,19,NC*%
%TO.N,unconnected-(U2-Pad19)*%
X124597202Y-92250000D03*
%TO.P,U2,20,NC*%
%TO.N,unconnected-(U2-Pad20)*%
X124597202Y-74750000D03*
%TO.P,U2,21,NC*%
%TO.N,unconnected-(U2-Pad21)*%
X123327202Y-74750000D03*
%TO.P,U2,22,NC*%
%TO.N,unconnected-(U2-Pad22)*%
X122057202Y-74750000D03*
%TO.P,U2,23,IO15*%
%TO.N,unconnected-(U2-Pad23)*%
X120787202Y-74750000D03*
%TO.P,U2,24,IO2*%
%TO.N,unconnected-(U2-Pad24)*%
X119517202Y-74750000D03*
%TO.P,U2,25,IO0*%
%TO.N,GPIO0*%
X118247202Y-74750000D03*
%TO.P,U2,26,IO4*%
%TO.N,unconnected-(U2-Pad26)*%
X116977202Y-74750000D03*
%TO.P,U2,27,NC*%
%TO.N,unconnected-(U2-Pad27)*%
X115707202Y-74750000D03*
%TO.P,U2,28,NC*%
%TO.N,unconnected-(U2-Pad28)*%
X114437202Y-74750000D03*
%TO.P,U2,29,IO5*%
%TO.N,PCM_BCK*%
X113167202Y-74750000D03*
%TO.P,U2,30,IO18*%
%TO.N,unconnected-(U2-Pad30)*%
X111897202Y-74750000D03*
%TO.P,U2,31,IO19*%
%TO.N,unconnected-(U2-Pad31)*%
X110627202Y-74750000D03*
%TO.P,U2,32,NC*%
%TO.N,unconnected-(U2-Pad32)*%
X109357202Y-74750000D03*
%TO.P,U2,33,IO21*%
%TO.N,unconnected-(U2-Pad33)*%
X108087202Y-74750000D03*
%TO.P,U2,34,RXD0*%
%TO.N,ESP32_Rx*%
X106817202Y-74750000D03*
%TO.P,U2,35,TXD0*%
%TO.N,ESP32_Tx*%
X105547202Y-74750000D03*
%TO.P,U2,36,IO22*%
%TO.N,unconnected-(U2-Pad36)*%
X104277202Y-74750000D03*
%TO.P,U2,37,IO23*%
%TO.N,unconnected-(U2-Pad37)*%
X103007202Y-74750000D03*
%TO.P,U2,38,GND*%
%TO.N,GND*%
X101737202Y-74750000D03*
D27*
%TO.P,U2,39,GND*%
X109537212Y-85004290D03*
%TO.P,U2,40,GND*%
X109537212Y-83604290D03*
%TO.P,U2,41,GND*%
X108137215Y-83604140D03*
%TO.P,U2,42,GND*%
X108137215Y-85004188D03*
%TO.P,U2,43,GND*%
X108137215Y-86404236D03*
%TO.P,U2,44,GND*%
X109537212Y-86404289D03*
%TO.P,U2,45,GND*%
X110937336Y-86404236D03*
%TO.P,U2,46,GND*%
X110937336Y-85004188D03*
%TO.P,U2,47,GND*%
X110937336Y-83604140D03*
%TD*%
D28*
%TO.P,C6,1*%
%TO.N,+3V3*%
X136450000Y-112000000D03*
%TO.P,C6,2*%
%TO.N,GND*%
X134550000Y-112000000D03*
%TD*%
D21*
%TO.P,R6,1*%
%TO.N,/DEMP*%
X141675000Y-101000000D03*
%TO.P,R6,2*%
%TO.N,GND*%
X143325000Y-101000000D03*
%TD*%
D29*
%TO.P,C10,1*%
%TO.N,+3.3VA*%
X147020000Y-97040000D03*
%TO.P,C10,2*%
%TO.N,GND*%
X148920000Y-97040000D03*
%TD*%
D21*
%TO.P,R5,1*%
%TO.N,/OUTR*%
X148175000Y-106500000D03*
%TO.P,R5,2*%
%TO.N,/JACKR*%
X149825000Y-106500000D03*
%TD*%
D30*
%TO.P,C11,1*%
%TO.N,+3.3VA*%
X146525000Y-104500000D03*
%TO.P,C11,2*%
%TO.N,GND*%
X149475000Y-104500000D03*
%TD*%
D31*
%TO.P,C15,1*%
%TO.N,VBUS_FILT*%
X115500000Y-116500000D03*
%TO.P,C15,2*%
%TO.N,GND*%
X115500000Y-114950000D03*
%TD*%
D32*
%TO.P,J1,A5,CC1*%
%TO.N,/CC1*%
X100705000Y-113000000D03*
D33*
%TO.P,J1,A9,V-BUS*%
%TO.N,VBUS*%
X100705000Y-115020000D03*
D34*
%TO.P,J1,A12,GND*%
%TO.N,GND*%
X100705000Y-116250000D03*
D32*
%TO.P,J1,B5,CC2*%
%TO.N,/CC2*%
X100705000Y-114000000D03*
D33*
%TO.P,J1,B9,V-BUS*%
%TO.N,VBUS*%
X100705000Y-111980000D03*
D34*
%TO.P,J1,B12,GND*%
%TO.N,GND*%
X100705000Y-110750000D03*
D35*
%TO.P,J1,S1,SHIELD*%
%TO.N,unconnected-(J1-PadS1)*%
X100700000Y-109180000D03*
%TO.P,J1,S2,SHIELD*%
X100700000Y-117820000D03*
%TO.P,J1,S3,SHIELD*%
X96900000Y-109180000D03*
%TO.P,J1,S4,SHIELD*%
X96900000Y-117820000D03*
%TD*%
D29*
%TO.P,C13,1*%
%TO.N,+3.3VA*%
X146600000Y-102000000D03*
%TO.P,C13,2*%
%TO.N,GND*%
X148500000Y-102000000D03*
%TD*%
D36*
%TO.P,D3,1,K*%
%TO.N,/VBUS_RP*%
X110550000Y-117500000D03*
%TO.P,D3,2,A*%
%TO.N,VBUS*%
X108450000Y-117500000D03*
%TD*%
D20*
%TO.P,C2,1*%
%TO.N,/JACKR*%
X154500000Y-105950000D03*
%TO.P,C2,2*%
%TO.N,GND*%
X154500000Y-104050000D03*
%TD*%
%TO.P,C1,1*%
%TO.N,GND*%
X154500000Y-110450000D03*
%TO.P,C1,2*%
%TO.N,/JACKL*%
X154500000Y-108550000D03*
%TD*%
%TO.P,C20,1*%
%TO.N,/VBUS_RP*%
X112717000Y-116400000D03*
%TO.P,C20,2*%
%TO.N,GND*%
X112717000Y-114500000D03*
%TD*%
D21*
%TO.P,R1,1*%
%TO.N,/GPIO12*%
X116175000Y-95000000D03*
%TO.P,R1,2*%
%TO.N,/D1_PWR*%
X117825000Y-95000000D03*
%TD*%
D37*
%TO.P,C5,1*%
%TO.N,+3V3*%
X136475000Y-114500000D03*
%TO.P,C5,2*%
%TO.N,GND*%
X133525000Y-114500000D03*
%TD*%
D23*
%TO.P,C17,1*%
%TO.N,VBUS_FILT*%
X146775000Y-87500000D03*
%TO.P,C17,2*%
%TO.N,GND*%
X145225000Y-87500000D03*
%TD*%
D25*
%TO.P,S2,1*%
%TO.N,GPIO0*%
X129250000Y-83700000D03*
%TO.P,S2,2*%
%TO.N,GND*%
X133750000Y-83700000D03*
%TO.P,S2,3*%
%TO.N,GPIO0*%
X129250000Y-75300000D03*
%TO.P,S2,4*%
%TO.N,GND*%
X133750000Y-75300000D03*
%TD*%
D38*
%TO.P,D2,1,K*%
%TO.N,GND*%
X116504500Y-108500000D03*
%TO.P,D2,2,A*%
%TO.N,/D2_PWR*%
X114929500Y-108500000D03*
%TD*%
D21*
%TO.P,FB1,1*%
%TO.N,/VBUS_RP*%
X112392000Y-119000000D03*
%TO.P,FB1,2*%
%TO.N,VBUS_FILT*%
X114042000Y-119000000D03*
%TD*%
D39*
%TO.P,U4,1,VI*%
%TO.N,VBUS_FILT*%
X146350000Y-89700000D03*
%TO.P,U4,2,GND*%
%TO.N,GND*%
X146350000Y-92000000D03*
D40*
X152650000Y-92000000D03*
D39*
%TO.P,U4,3,VO*%
%TO.N,+3.3VA*%
X146350000Y-94300000D03*
%TD*%
D20*
%TO.P,C7,1*%
%TO.N,/LDO0*%
X134500000Y-109400000D03*
%TO.P,C7,2*%
%TO.N,GND*%
X134500000Y-107500000D03*
%TD*%
D23*
%TO.P,C18,1*%
%TO.N,+3.3VA*%
X145275000Y-97000000D03*
%TO.P,C18,2*%
%TO.N,GND*%
X143725000Y-97000000D03*
%TD*%
D41*
%TO.P,C3,1,1*%
%TO.N,/CAPP*%
X150730000Y-115298599D03*
%TO.P,C3,2,2*%
%TO.N,/CAPM*%
X150730000Y-111701401D03*
%TD*%
%TO.P,C4,1,1*%
%TO.N,GND*%
X140230000Y-119226399D03*
%TO.P,C4,2,2*%
%TO.N,/VNEG*%
X140230000Y-115629201D03*
%TD*%
D42*
%TO.P,U1,1,CPVDD*%
%TO.N,+3.3VA*%
X144362500Y-111225000D03*
%TO.P,U1,2,CAPP*%
%TO.N,/CAPP*%
X144362500Y-110575000D03*
%TO.P,U1,3,CPGND*%
%TO.N,GND*%
X144362500Y-109925000D03*
%TO.P,U1,4,CAPM*%
%TO.N,/CAPM*%
X144362500Y-109275000D03*
%TO.P,U1,5,VNEG*%
%TO.N,/VNEG*%
X144362500Y-108625000D03*
%TO.P,U1,6,OUTL*%
%TO.N,/OUTL*%
X144362500Y-107975000D03*
%TO.P,U1,7,OUTR*%
%TO.N,/OUTR*%
X144362500Y-107325000D03*
%TO.P,U1,8,AVDD*%
%TO.N,+3.3VA*%
X144362500Y-106675000D03*
%TO.P,U1,9,AGND*%
%TO.N,GND*%
X144362500Y-106025000D03*
%TO.P,U1,10,VCOM/DEMP*%
%TO.N,/DEMP*%
X144362500Y-105375000D03*
%TO.P,U1,11,SDA/MOSI/ATT2*%
%TO.N,GND*%
X144362500Y-104725000D03*
%TO.P,U1,12,SCL/MC/ATT1*%
X144362500Y-104075000D03*
%TO.P,U1,13,GPIO5/ATT0*%
X144362500Y-103425000D03*
%TO.P,U1,14,GPIO4/MAST*%
X144362500Y-102775000D03*
%TO.P,U1,15,GPIO3/AGNS*%
X138637500Y-102775000D03*
%TO.P,U1,16,ADR2/GPIO2/DOUT*%
%TO.N,unconnected-(U1-Pad16)*%
X138637500Y-103425000D03*
%TO.P,U1,17,MODE1*%
%TO.N,GND*%
X138637500Y-104075000D03*
%TO.P,U1,18,MODE2/MS*%
X138637500Y-104725000D03*
%TO.P,U1,19,GPIO6/FLT*%
X138637500Y-105375000D03*
%TO.P,U1,20,SCK*%
X138637500Y-106025000D03*
%TO.P,U1,21,BCK*%
%TO.N,PCM_BCK*%
X138637500Y-106675000D03*
%TO.P,U1,22,DIN*%
%TO.N,PCM_DIN*%
X138637500Y-107325000D03*
%TO.P,U1,23,LRCK*%
%TO.N,PCM_LRCK*%
X138637500Y-107975000D03*
%TO.P,U1,24,ADR1/MISO/FMT*%
%TO.N,GND*%
X138637500Y-108625000D03*
%TO.P,U1,25,XSMT*%
%TO.N,/XSMT*%
X138637500Y-109275000D03*
%TO.P,U1,26,LDOO*%
%TO.N,/LDO0*%
X138637500Y-109925000D03*
%TO.P,U1,27,DGND*%
%TO.N,GND*%
X138637500Y-110575000D03*
%TO.P,U1,28,DVDD*%
%TO.N,+3V3*%
X138637500Y-111225000D03*
%TD*%
D38*
%TO.P,D1,1,K*%
%TO.N,GND*%
X121287500Y-95000000D03*
%TO.P,D1,2,A*%
%TO.N,/D1_PWR*%
X119712500Y-95000000D03*
%TD*%
D43*
%TO.P,C22,1*%
%TO.N,+3V3*%
X105217000Y-95525000D03*
%TO.P,C22,2*%
%TO.N,GND*%
X105217000Y-98475000D03*
%TD*%
D44*
%TO.N,GND*%
X102500000Y-99000000D03*
X121500000Y-118000000D03*
X119000000Y-109500000D03*
X119000000Y-107500000D03*
X121000000Y-112000000D03*
X138500000Y-97500000D03*
X137000000Y-103500000D03*
X153000000Y-87000000D03*
X142500000Y-111000000D03*
X147500000Y-117500000D03*
X139000000Y-87000000D03*
X106000000Y-83500000D03*
X123000000Y-95000000D03*
X107000000Y-117500000D03*
X121000000Y-82000000D03*
X131500000Y-99000000D03*
X142000000Y-107500000D03*
X130000000Y-112000000D03*
X139000000Y-76500000D03*
X150500000Y-99000000D03*
X104000000Y-108500000D03*
X154000000Y-99000000D03*
X154500000Y-117500000D03*
X109000000Y-113000000D03*
%TO.N,+3V3*%
X103007202Y-93992798D03*
X123500000Y-118000000D03*
X136500000Y-116500000D03*
X109000000Y-108500000D03*
%TO.N,+3.3VA*%
X147020000Y-99480000D03*
X147500000Y-114500000D03*
%TO.N,ESP32_Tx*%
X105500000Y-76500000D03*
%TO.N,ESP32_Rx*%
X107000000Y-76500000D03*
%TO.N,PCM_BCK*%
X113000000Y-76500000D03*
X140300500Y-106500000D03*
%TO.N,PCM_DIN*%
X136500000Y-106000000D03*
X114500000Y-89500000D03*
%TO.N,PCM_LRCK*%
X140000000Y-107500000D03*
X113000000Y-90000000D03*
%TD*%
D45*
%TO.N,VBUS*%
X102675000Y-115675000D02*
X105500000Y-115675000D01*
X105650000Y-109650000D02*
X113300000Y-102000000D01*
X103320000Y-111980000D02*
X105650000Y-109650000D01*
X110500000Y-114000000D02*
X110500000Y-112000000D01*
X106717000Y-115675000D02*
X107392000Y-115000000D01*
X107392000Y-115000000D02*
X109500000Y-115000000D01*
X109500000Y-115000000D02*
X110500000Y-114000000D01*
X108150000Y-109650000D02*
X105650000Y-109650000D01*
X110500000Y-112000000D02*
X108150000Y-109650000D01*
D46*
%TO.N,GND*%
X107325000Y-114000000D02*
X108000000Y-114000000D01*
X108000000Y-114000000D02*
X109000000Y-113000000D01*
X107325000Y-112000000D02*
X108000000Y-112000000D01*
X108000000Y-112000000D02*
X109000000Y-113000000D01*
%TO.N,/CC1*%
X100705000Y-113000000D02*
X104675000Y-113000000D01*
X104675000Y-113000000D02*
X105675000Y-112000000D01*
%TO.N,/CC2*%
X100705000Y-114000000D02*
X105675000Y-114000000D01*
D45*
%TO.N,VBUS*%
X100705000Y-115020000D02*
X102020000Y-115020000D01*
X102020000Y-115020000D02*
X102675000Y-115675000D01*
%TO.N,GND*%
X101250000Y-116250000D02*
X102500000Y-117500000D01*
X100705000Y-116250000D02*
X101250000Y-116250000D01*
X102500000Y-117500000D02*
X105325000Y-117500000D01*
X105325000Y-117500000D02*
X105500000Y-117325000D01*
%TO.N,VBUS*%
X100705000Y-111980000D02*
X103320000Y-111980000D01*
%TO.N,GND*%
X100705000Y-110750000D02*
X101750000Y-110750000D01*
X101750000Y-110750000D02*
X104000000Y-108500000D01*
X117500000Y-111000000D02*
X119000000Y-109500000D01*
X108137215Y-86404236D02*
X108137215Y-83604140D01*
D46*
X142000000Y-107500000D02*
X143475000Y-106025000D01*
X137575000Y-104075000D02*
X137000000Y-103500000D01*
D45*
X105680000Y-102000000D02*
X105500000Y-102000000D01*
X118000000Y-108500000D02*
X119000000Y-109500000D01*
X106825000Y-117325000D02*
X107000000Y-117500000D01*
X102717000Y-98783000D02*
X102500000Y-99000000D01*
X117150000Y-114950000D02*
X117500000Y-114600000D01*
X122717000Y-109350000D02*
X119150000Y-109350000D01*
D46*
X144362500Y-109925000D02*
X143575000Y-109925000D01*
X138637500Y-108625000D02*
X137625000Y-108625000D01*
X138637500Y-102775000D02*
X137725000Y-102775000D01*
D45*
X106000000Y-83500000D02*
X110833196Y-83500000D01*
X117500000Y-114600000D02*
X117500000Y-111000000D01*
X102717000Y-97450000D02*
X102717000Y-98783000D01*
X101737202Y-92250000D02*
X101737202Y-87762798D01*
X108137215Y-85004188D02*
X110937336Y-85004188D01*
X112717000Y-114500000D02*
X115050000Y-114500000D01*
X110937336Y-86404236D02*
X108137215Y-86404236D01*
X121500000Y-118000000D02*
X121500000Y-117217000D01*
D46*
X139425000Y-110575000D02*
X138637500Y-110575000D01*
X121287500Y-95000000D02*
X123000000Y-95000000D01*
D45*
X110937336Y-83604140D02*
X110937336Y-86404236D01*
X105217000Y-98475000D02*
X103742000Y-98475000D01*
X101737202Y-79237202D02*
X101737202Y-74750000D01*
D46*
X143575000Y-109925000D02*
X142500000Y-111000000D01*
D45*
X116504500Y-108500000D02*
X118000000Y-108500000D01*
X105500000Y-117325000D02*
X106825000Y-117325000D01*
D46*
X119517202Y-92250000D02*
X119517202Y-93229702D01*
X111742000Y-98475000D02*
X105217000Y-98475000D01*
X112717000Y-97500000D02*
X111742000Y-98475000D01*
D45*
X115500000Y-114950000D02*
X117150000Y-114950000D01*
X106000000Y-83500000D02*
X101737202Y-79237202D01*
D46*
X119517202Y-93229702D02*
X121287500Y-95000000D01*
D45*
X119150000Y-109350000D02*
X119000000Y-109500000D01*
X101737202Y-87762798D02*
X106000000Y-83500000D01*
X115050000Y-114500000D02*
X115500000Y-114950000D01*
X122717000Y-116000000D02*
X122717000Y-115650000D01*
D46*
X143475000Y-106025000D02*
X144362500Y-106025000D01*
X142000000Y-108000000D02*
X139425000Y-110575000D01*
X137625000Y-108625000D02*
X136500000Y-107500000D01*
X142000000Y-107500000D02*
X142000000Y-108000000D01*
D45*
X103742000Y-98475000D02*
X102717000Y-97450000D01*
X121500000Y-117217000D02*
X122717000Y-116000000D01*
X110833196Y-83500000D02*
X110937336Y-83604140D01*
D46*
X137725000Y-102775000D02*
X137000000Y-103500000D01*
D45*
X105500000Y-102000000D02*
X102500000Y-99000000D01*
D46*
X138637500Y-104075000D02*
X137575000Y-104075000D01*
D45*
%TO.N,+3V3*%
X125167000Y-115800000D02*
X125017000Y-115650000D01*
D46*
X105217000Y-95525000D02*
X105242000Y-95500000D01*
X138637500Y-111225000D02*
X137862500Y-112000000D01*
D45*
X125167000Y-118000000D02*
X125167000Y-115800000D01*
X105217000Y-95525000D02*
X102742000Y-95525000D01*
X123500000Y-118000000D02*
X125167000Y-118000000D01*
X136500000Y-116500000D02*
X136500000Y-114525000D01*
D46*
X105242000Y-95500000D02*
X112567000Y-95500000D01*
D45*
X136500000Y-114525000D02*
X136475000Y-114500000D01*
X136475000Y-112025000D02*
X136450000Y-112000000D01*
X136475000Y-114500000D02*
X136475000Y-112025000D01*
X103007202Y-93992798D02*
X103007202Y-95259798D01*
X103007202Y-92250000D02*
X103007202Y-93992798D01*
D46*
X125017000Y-113983000D02*
X125017000Y-115650000D01*
D45*
X109000000Y-108500000D02*
X110892000Y-108500000D01*
D46*
X138000000Y-101000000D02*
X125017000Y-113983000D01*
D45*
X103007202Y-95259798D02*
X102717000Y-95550000D01*
X136450000Y-112000000D02*
X137862500Y-112000000D01*
X102742000Y-95525000D02*
X102717000Y-95550000D01*
D46*
X138175000Y-101000000D02*
X138000000Y-101000000D01*
D45*
%TO.N,+3.3VA*%
X146525000Y-104500000D02*
X146525000Y-105975000D01*
X146350000Y-94300000D02*
X145300000Y-94300000D01*
X145500000Y-113000000D02*
X143725000Y-113000000D01*
X147020000Y-99480000D02*
X147020000Y-101580000D01*
D46*
X145825000Y-106675000D02*
X146525000Y-105975000D01*
D45*
X146600000Y-102000000D02*
X146600000Y-104425000D01*
X146350000Y-96370000D02*
X147020000Y-97040000D01*
X144500000Y-93500000D02*
X142760000Y-93500000D01*
X143725000Y-113000000D02*
X143500000Y-113225000D01*
X145300000Y-94300000D02*
X144500000Y-93500000D01*
D46*
X144362500Y-106675000D02*
X145825000Y-106675000D01*
D45*
X145500000Y-113000000D02*
X146000000Y-113000000D01*
X147020000Y-97040000D02*
X147020000Y-99480000D01*
X142760000Y-93500000D02*
X142720000Y-93540000D01*
X146000000Y-113000000D02*
X147500000Y-114500000D01*
X146980000Y-97000000D02*
X147020000Y-97040000D01*
X145275000Y-97000000D02*
X146980000Y-97000000D01*
D46*
X144362500Y-111225000D02*
X143500000Y-112087500D01*
D45*
X146350000Y-94300000D02*
X146350000Y-96370000D01*
X147020000Y-101580000D02*
X146600000Y-102000000D01*
X143500000Y-113225000D02*
X143500000Y-112087500D01*
X146600000Y-104425000D02*
X146525000Y-104500000D01*
%TO.N,VBUS_FILT*%
X114042000Y-117958000D02*
X115500000Y-116500000D01*
X120417000Y-115650000D02*
X120417000Y-115300000D01*
X146775000Y-87500000D02*
X146775000Y-89275000D01*
X117500000Y-116500000D02*
X119567000Y-116500000D01*
X136000000Y-93500000D02*
X139800000Y-89700000D01*
X114042000Y-119000000D02*
X114042000Y-117958000D01*
X119567000Y-116500000D02*
X120417000Y-115650000D01*
X120417000Y-115300000D02*
X136000000Y-99717000D01*
X136000000Y-99717000D02*
X136000000Y-93500000D01*
X139800000Y-89700000D02*
X146350000Y-89700000D01*
X146775000Y-89275000D02*
X146350000Y-89700000D01*
X115500000Y-116500000D02*
X117500000Y-116500000D01*
D46*
%TO.N,RESET*%
X128450000Y-96500000D02*
X129250000Y-95700000D01*
X114217000Y-95500000D02*
X112717000Y-94000000D01*
X114217000Y-97450000D02*
X114267000Y-97500000D01*
X129250000Y-95700000D02*
X129250000Y-87300000D01*
X115217000Y-96500000D02*
X128450000Y-96500000D01*
X112717000Y-94000000D02*
X105000000Y-94000000D01*
X105000000Y-94000000D02*
X104277202Y-93277202D01*
X114217000Y-95500000D02*
X115217000Y-96500000D01*
X104277202Y-93277202D02*
X104277202Y-92250000D01*
X114217000Y-95500000D02*
X114217000Y-97450000D01*
D45*
%TO.N,/VBUS_RP*%
X110550000Y-117500000D02*
X112000000Y-117500000D01*
X112392000Y-116725000D02*
X112717000Y-116400000D01*
X112392000Y-117892000D02*
X112392000Y-116725000D01*
X112392000Y-119000000D02*
X112392000Y-117892000D01*
X112000000Y-117500000D02*
X112392000Y-117892000D01*
%TO.N,VBUS*%
X105500000Y-115675000D02*
X106717000Y-115675000D01*
X106717000Y-115767000D02*
X108450000Y-117500000D01*
X106717000Y-115675000D02*
X106717000Y-115767000D01*
D46*
%TO.N,ESP32_Tx*%
X105547202Y-74750000D02*
X105547202Y-76452798D01*
X105547202Y-76452798D02*
X105500000Y-76500000D01*
%TO.N,ESP32_Rx*%
X106817202Y-74750000D02*
X106817202Y-76317202D01*
X106817202Y-76317202D02*
X107000000Y-76500000D01*
%TO.N,/GPIO12*%
X118247202Y-92250000D02*
X118247202Y-92927798D01*
X118247202Y-92927798D02*
X116175000Y-95000000D01*
%TO.N,/OUTL*%
X145611396Y-108500000D02*
X148175000Y-108500000D01*
X145086396Y-107975000D02*
X145611396Y-108500000D01*
X144362500Y-107975000D02*
X145086396Y-107975000D01*
%TO.N,/OUTR*%
X146675000Y-107325000D02*
X147000000Y-107000000D01*
X147000000Y-107000000D02*
X147675000Y-107000000D01*
X144362500Y-107325000D02*
X146675000Y-107325000D01*
X147675000Y-107000000D02*
X148175000Y-106500000D01*
D45*
%TO.N,/CAPP*%
X150730000Y-115298599D02*
X150087500Y-115298599D01*
X150087500Y-115298599D02*
X145363901Y-110575000D01*
D46*
X144362500Y-110575000D02*
X145363901Y-110575000D01*
%TO.N,GPIO0*%
X118247202Y-75799300D02*
X126147902Y-83700000D01*
X129250000Y-75300000D02*
X129250000Y-83700000D01*
X118247202Y-74750000D02*
X118247202Y-75799300D01*
X126147902Y-83700000D02*
X129250000Y-83700000D01*
%TO.N,PCM_BCK*%
X138637500Y-106675000D02*
X140125500Y-106675000D01*
X113000000Y-76500000D02*
X113000000Y-74917202D01*
X140125500Y-106675000D02*
X140300500Y-106500000D01*
X113000000Y-74917202D02*
X113167202Y-74750000D01*
%TO.N,PCM_DIN*%
X136573528Y-106000000D02*
X136500000Y-106000000D01*
X137898528Y-107325000D02*
X136573528Y-106000000D01*
X114500000Y-89500000D02*
X114500000Y-92187202D01*
X138637500Y-107325000D02*
X137898528Y-107325000D01*
X114500000Y-92187202D02*
X114437202Y-92250000D01*
%TO.N,PCM_LRCK*%
X139500000Y-108000000D02*
X138662500Y-108000000D01*
X138662500Y-108000000D02*
X138637500Y-107975000D01*
X113000000Y-90000000D02*
X113000000Y-92082798D01*
X113000000Y-92082798D02*
X113167202Y-92250000D01*
X140000000Y-107500000D02*
X139500000Y-108000000D01*
%TO.N,/CAPM*%
X144362500Y-109275000D02*
X146573599Y-109275000D01*
D45*
X150730000Y-111701401D02*
X149000000Y-111701401D01*
X149000000Y-111701401D02*
X146573599Y-109275000D01*
D46*
%TO.N,/VNEG*%
X140230000Y-111770000D02*
X140230000Y-115629201D01*
X144362500Y-108625000D02*
X143375000Y-108625000D01*
X143375000Y-108625000D02*
X140230000Y-111770000D01*
%TO.N,/LDO0*%
X136500000Y-109400000D02*
X134500000Y-109400000D01*
X137025000Y-109925000D02*
X136500000Y-109400000D01*
X138637500Y-109925000D02*
X137025000Y-109925000D01*
%TO.N,/DEMP*%
X141675000Y-103411396D02*
X141675000Y-101000000D01*
X143638604Y-105375000D02*
X141675000Y-103411396D01*
X144362500Y-105375000D02*
X143638604Y-105375000D01*
%TO.N,/JACKL*%
X154500000Y-108550000D02*
X158225000Y-112275000D01*
X154450000Y-108500000D02*
X154500000Y-108550000D01*
X149825000Y-108500000D02*
X154450000Y-108500000D01*
X158225000Y-112275000D02*
X160357500Y-112275000D01*
%TO.N,/JACKR*%
X150375000Y-105950000D02*
X154500000Y-105950000D01*
X149825000Y-106500000D02*
X150375000Y-105950000D01*
X154500000Y-105950000D02*
X155325000Y-106775000D01*
X155325000Y-106775000D02*
X160357500Y-106775000D01*
%TO.N,/XSMT*%
X141000000Y-102175000D02*
X139825000Y-101000000D01*
X139361396Y-109275000D02*
X141000000Y-107636396D01*
X138637500Y-109275000D02*
X139361396Y-109275000D01*
X141000000Y-107636396D02*
X141000000Y-102175000D01*
D45*
%TO.N,/D2_PWR*%
X112542000Y-108500000D02*
X114929500Y-108500000D01*
D46*
%TO.N,/D1_PWR*%
X117825000Y-95000000D02*
X119712500Y-95000000D01*
%TD*%
%TA.AperFunction,Conductor*%
%TO.N,GND*%
G36*
X167958691Y-73518907D02*
G01*
X167994655Y-73568407D01*
X167999500Y-73599000D01*
X167999500Y-103753552D01*
X167980593Y-103811743D01*
X167931093Y-103847707D01*
X167869907Y-103847707D01*
X167820407Y-103811743D01*
X167801877Y-103762180D01*
X167800926Y-103751312D01*
X167799430Y-103742824D01*
X167742431Y-103530102D01*
X167739485Y-103522009D01*
X167646418Y-103322427D01*
X167642106Y-103314957D01*
X167515792Y-103134563D01*
X167510259Y-103127968D01*
X167354532Y-102972241D01*
X167347937Y-102966708D01*
X167167543Y-102840394D01*
X167160073Y-102836082D01*
X166960491Y-102743015D01*
X166952398Y-102740069D01*
X166776645Y-102692976D01*
X166764359Y-102693620D01*
X166761500Y-102703273D01*
X166761500Y-106845402D01*
X166765302Y-106857104D01*
X166775364Y-106857367D01*
X166952398Y-106809931D01*
X166960491Y-106806985D01*
X167160073Y-106713918D01*
X167167543Y-106709606D01*
X167347937Y-106583292D01*
X167354532Y-106577759D01*
X167510259Y-106422032D01*
X167515792Y-106415437D01*
X167642106Y-106235043D01*
X167646418Y-106227573D01*
X167739485Y-106027991D01*
X167742431Y-106019898D01*
X167799430Y-105807176D01*
X167800926Y-105798688D01*
X167801877Y-105787820D01*
X167825784Y-105731498D01*
X167878230Y-105699985D01*
X167939182Y-105705318D01*
X167985360Y-105745459D01*
X167999500Y-105796448D01*
X167999500Y-112653552D01*
X167980593Y-112711743D01*
X167931093Y-112747707D01*
X167869907Y-112747707D01*
X167820407Y-112711743D01*
X167801877Y-112662180D01*
X167800926Y-112651312D01*
X167799430Y-112642824D01*
X167742431Y-112430102D01*
X167739485Y-112422009D01*
X167646418Y-112222427D01*
X167642106Y-112214957D01*
X167515792Y-112034563D01*
X167510259Y-112027968D01*
X167354532Y-111872241D01*
X167347937Y-111866708D01*
X167167543Y-111740394D01*
X167160073Y-111736082D01*
X166960491Y-111643015D01*
X166952398Y-111640069D01*
X166776645Y-111592976D01*
X166764359Y-111593620D01*
X166761500Y-111603273D01*
X166761500Y-115745402D01*
X166765302Y-115757104D01*
X166775364Y-115757367D01*
X166952398Y-115709931D01*
X166960491Y-115706985D01*
X167160073Y-115613918D01*
X167167543Y-115609606D01*
X167347937Y-115483292D01*
X167354532Y-115477759D01*
X167510259Y-115322032D01*
X167515792Y-115315437D01*
X167642106Y-115135043D01*
X167646418Y-115127573D01*
X167739485Y-114927991D01*
X167742431Y-114919898D01*
X167799430Y-114707176D01*
X167800926Y-114698688D01*
X167801877Y-114687820D01*
X167825784Y-114631498D01*
X167878230Y-114599985D01*
X167939182Y-114605318D01*
X167985360Y-114645459D01*
X167999500Y-114696448D01*
X167999500Y-120901000D01*
X167980593Y-120959191D01*
X167931093Y-120995155D01*
X167900500Y-121000000D01*
X141219744Y-121000000D01*
X141161553Y-120981093D01*
X141125589Y-120931593D01*
X141125589Y-120870407D01*
X141160372Y-120821779D01*
X141193655Y-120796835D01*
X141203536Y-120786954D01*
X141282340Y-120681806D01*
X141289048Y-120669553D01*
X141335471Y-120545720D01*
X141338322Y-120533731D01*
X141344110Y-120480446D01*
X141344399Y-120475112D01*
X141344399Y-119496079D01*
X141340277Y-119483394D01*
X141336156Y-119480399D01*
X139131282Y-119480399D01*
X139118597Y-119484521D01*
X139115602Y-119488642D01*
X139115602Y-120475109D01*
X139115891Y-120480449D01*
X139121679Y-120533733D01*
X139124528Y-120545718D01*
X139170952Y-120669553D01*
X139177660Y-120681806D01*
X139256464Y-120786954D01*
X139266345Y-120796835D01*
X139299628Y-120821779D01*
X139334854Y-120871807D01*
X139333946Y-120932986D01*
X139297252Y-120981947D01*
X139240256Y-121000000D01*
X114599000Y-121000000D01*
X114540809Y-120981093D01*
X114504845Y-120931593D01*
X114500000Y-120901000D01*
X114500000Y-119993523D01*
X114518907Y-119935332D01*
X114547715Y-119908842D01*
X114672304Y-119833388D01*
X114677408Y-119830297D01*
X114797297Y-119710408D01*
X114885127Y-119565383D01*
X114935829Y-119403594D01*
X114942500Y-119330993D01*
X114942499Y-118669008D01*
X114935829Y-118596406D01*
X114885127Y-118434617D01*
X114827883Y-118340095D01*
X114813911Y-118280527D01*
X114837621Y-118224122D01*
X114842560Y-118218807D01*
X115581872Y-117479495D01*
X115636389Y-117451718D01*
X115651876Y-117450499D01*
X115798206Y-117450499D01*
X115899372Y-117440003D01*
X115909501Y-117436624D01*
X116054394Y-117388284D01*
X116054395Y-117388284D01*
X116059852Y-117386463D01*
X116064739Y-117383439D01*
X116064743Y-117383437D01*
X116198822Y-117300466D01*
X116198825Y-117300463D01*
X116203711Y-117297440D01*
X116221563Y-117279557D01*
X116276055Y-117251732D01*
X116291627Y-117250500D01*
X116423087Y-117250500D01*
X116481278Y-117269407D01*
X116493027Y-117279433D01*
X116556689Y-117342984D01*
X116561581Y-117346000D01*
X116561583Y-117346001D01*
X116597803Y-117368327D01*
X116705666Y-117434814D01*
X116711120Y-117436623D01*
X116711122Y-117436624D01*
X116828177Y-117475450D01*
X116871772Y-117489910D01*
X116975134Y-117500500D01*
X118024866Y-117500500D01*
X118027416Y-117500235D01*
X118027424Y-117500235D01*
X118124127Y-117490201D01*
X118124132Y-117490200D01*
X118129519Y-117489641D01*
X118152246Y-117482059D01*
X118290071Y-117436077D01*
X118290072Y-117436077D01*
X118295529Y-117434256D01*
X118300416Y-117431232D01*
X118300420Y-117431230D01*
X118402069Y-117368327D01*
X118444345Y-117342166D01*
X118506845Y-117279556D01*
X118561337Y-117251732D01*
X118576909Y-117250500D01*
X119502589Y-117250500D01*
X119517478Y-117251626D01*
X119534941Y-117254283D01*
X119534945Y-117254283D01*
X119540630Y-117255148D01*
X119593769Y-117250826D01*
X119601795Y-117250500D01*
X119610822Y-117250500D01*
X119639219Y-117247189D01*
X119642643Y-117246851D01*
X119659349Y-117245492D01*
X119709322Y-117241428D01*
X119709325Y-117241427D01*
X119715059Y-117240961D01*
X119720530Y-117239189D01*
X119726174Y-117238061D01*
X119726199Y-117238185D01*
X119729546Y-117237455D01*
X119729517Y-117237332D01*
X119735110Y-117236010D01*
X119740828Y-117235343D01*
X119746242Y-117233378D01*
X119809150Y-117210544D01*
X119812417Y-117209422D01*
X119876076Y-117188799D01*
X119881546Y-117187027D01*
X119886461Y-117184044D01*
X119891695Y-117181648D01*
X119891747Y-117181762D01*
X119894835Y-117180283D01*
X119894779Y-117180170D01*
X119899924Y-117177594D01*
X119905331Y-117175631D01*
X119918943Y-117166706D01*
X119973222Y-117150500D01*
X121108854Y-117150499D01*
X121214376Y-117150499D01*
X121217035Y-117150210D01*
X121217038Y-117150210D01*
X121269405Y-117144522D01*
X121269407Y-117144522D01*
X121275580Y-117143851D01*
X121334678Y-117121697D01*
X121403215Y-117096004D01*
X121403218Y-117096003D01*
X121409824Y-117093526D01*
X121501374Y-117024913D01*
X121559277Y-117005144D01*
X121620118Y-117024912D01*
X121714892Y-117095941D01*
X121727145Y-117102649D01*
X121850978Y-117149072D01*
X121862967Y-117151923D01*
X121916252Y-117157711D01*
X121921586Y-117158000D01*
X122447320Y-117158000D01*
X122460005Y-117153878D01*
X122463000Y-117149757D01*
X122463000Y-115495000D01*
X122481907Y-115436809D01*
X122531407Y-115400845D01*
X122562000Y-115396000D01*
X122872000Y-115396000D01*
X122930191Y-115414907D01*
X122966155Y-115464407D01*
X122971000Y-115495000D01*
X122971000Y-117142319D01*
X122975122Y-117155005D01*
X122985363Y-117162446D01*
X123021326Y-117211946D01*
X123021325Y-117273132D01*
X122985362Y-117322631D01*
X122927770Y-117364474D01*
X122924304Y-117368324D01*
X122924300Y-117368327D01*
X122859260Y-117440562D01*
X122808141Y-117497335D01*
X122805549Y-117501825D01*
X122805548Y-117501826D01*
X122752363Y-117593946D01*
X122718750Y-117652165D01*
X122717149Y-117657094D01*
X122717148Y-117657095D01*
X122665105Y-117817265D01*
X122665104Y-117817270D01*
X122663503Y-117822197D01*
X122644815Y-118000000D01*
X122663503Y-118177803D01*
X122665104Y-118182730D01*
X122665105Y-118182735D01*
X122716235Y-118340096D01*
X122718750Y-118347835D01*
X122721341Y-118352323D01*
X122721342Y-118352325D01*
X122805548Y-118498174D01*
X122808141Y-118502665D01*
X122927770Y-118635526D01*
X123072407Y-118740612D01*
X123154070Y-118776970D01*
X123230995Y-118811220D01*
X123230999Y-118811221D01*
X123235733Y-118813329D01*
X123240803Y-118814407D01*
X123240804Y-118814407D01*
X123259454Y-118818371D01*
X123410609Y-118850500D01*
X123589391Y-118850500D01*
X123740546Y-118818371D01*
X123759196Y-118814407D01*
X123759197Y-118814407D01*
X123764267Y-118813329D01*
X123769001Y-118811221D01*
X123769005Y-118811220D01*
X123886160Y-118759059D01*
X123926427Y-118750500D01*
X124375475Y-118750500D01*
X124433666Y-118769407D01*
X124445418Y-118779436D01*
X124485215Y-118819165D01*
X124485219Y-118819168D01*
X124489289Y-118823231D01*
X124494189Y-118826251D01*
X124494191Y-118826253D01*
X124533527Y-118850500D01*
X124633303Y-118912003D01*
X124793876Y-118965263D01*
X124893793Y-118975500D01*
X125164965Y-118975500D01*
X125440206Y-118975499D01*
X125541372Y-118965003D01*
X125566203Y-118956719D01*
X125696394Y-118913284D01*
X125696395Y-118913284D01*
X125701852Y-118911463D01*
X125706739Y-118908439D01*
X125706743Y-118908437D01*
X125840822Y-118825466D01*
X125840825Y-118825463D01*
X125845711Y-118822440D01*
X125866695Y-118801420D01*
X125921186Y-118773595D01*
X125981626Y-118783113D01*
X126006702Y-118801298D01*
X126030539Y-118825094D01*
X126039504Y-118832174D01*
X126175218Y-118915830D01*
X126185568Y-118920656D01*
X126337217Y-118970956D01*
X126347723Y-118973208D01*
X126440771Y-118982741D01*
X126445829Y-118983000D01*
X126447320Y-118983000D01*
X126460005Y-118978878D01*
X126463000Y-118974757D01*
X126463000Y-118967320D01*
X126971000Y-118967320D01*
X126975122Y-118980005D01*
X126979243Y-118983000D01*
X126988135Y-118983000D01*
X126993262Y-118982735D01*
X127087525Y-118972953D01*
X127098054Y-118970680D01*
X127249600Y-118920121D01*
X127259947Y-118915274D01*
X127395512Y-118831384D01*
X127404463Y-118824289D01*
X127517095Y-118711461D01*
X127524174Y-118702497D01*
X127607830Y-118566782D01*
X127612656Y-118556432D01*
X127662956Y-118404783D01*
X127665208Y-118394277D01*
X127674741Y-118301229D01*
X127675000Y-118296171D01*
X127675000Y-118269680D01*
X127670878Y-118256995D01*
X127666757Y-118254000D01*
X126986680Y-118254000D01*
X126973995Y-118258122D01*
X126971000Y-118262243D01*
X126971000Y-118967320D01*
X126463000Y-118967320D01*
X126463000Y-117730320D01*
X126971000Y-117730320D01*
X126975122Y-117743005D01*
X126979243Y-117746000D01*
X127659320Y-117746000D01*
X127672005Y-117741878D01*
X127675000Y-117737757D01*
X127675000Y-117703865D01*
X127674735Y-117698738D01*
X127664953Y-117604475D01*
X127662680Y-117593946D01*
X127612121Y-117442400D01*
X127607274Y-117432053D01*
X127523384Y-117296488D01*
X127516289Y-117287537D01*
X127403461Y-117174905D01*
X127394497Y-117167826D01*
X127258782Y-117084170D01*
X127248432Y-117079344D01*
X127096783Y-117029044D01*
X127086277Y-117026792D01*
X126993229Y-117017259D01*
X126988171Y-117017000D01*
X126986680Y-117017000D01*
X126973995Y-117021122D01*
X126971000Y-117025243D01*
X126971000Y-117730320D01*
X126463000Y-117730320D01*
X126463000Y-117032680D01*
X126458878Y-117019995D01*
X126454757Y-117017000D01*
X126445865Y-117017000D01*
X126440738Y-117017265D01*
X126346475Y-117027047D01*
X126335942Y-117029321D01*
X126329004Y-117031636D01*
X126267820Y-117032119D01*
X126218038Y-116996547D01*
X126198672Y-116938507D01*
X126209985Y-116893546D01*
X126210526Y-116892824D01*
X126216383Y-116877202D01*
X126229239Y-116842905D01*
X126260851Y-116758580D01*
X126267500Y-116697377D01*
X126267499Y-115197792D01*
X132442001Y-115197792D01*
X132442267Y-115202922D01*
X132452409Y-115300673D01*
X132454682Y-115311200D01*
X132507086Y-115468277D01*
X132511933Y-115478624D01*
X132598891Y-115619145D01*
X132605987Y-115628098D01*
X132722939Y-115744847D01*
X132731904Y-115751927D01*
X132872580Y-115838641D01*
X132882934Y-115843469D01*
X133040110Y-115895602D01*
X133050621Y-115897855D01*
X133147112Y-115907741D01*
X133152170Y-115908000D01*
X133255320Y-115908000D01*
X133268005Y-115903878D01*
X133271000Y-115899757D01*
X133271000Y-115892319D01*
X133779000Y-115892319D01*
X133783122Y-115905004D01*
X133787243Y-115907999D01*
X133897792Y-115907999D01*
X133902922Y-115907733D01*
X134000673Y-115897591D01*
X134011200Y-115895318D01*
X134168277Y-115842914D01*
X134178624Y-115838067D01*
X134319145Y-115751109D01*
X134328098Y-115744013D01*
X134444847Y-115627061D01*
X134451927Y-115618096D01*
X134538641Y-115477420D01*
X134543469Y-115467066D01*
X134595602Y-115309890D01*
X134597855Y-115299379D01*
X134607741Y-115202888D01*
X134608000Y-115197830D01*
X134608000Y-114769680D01*
X134603878Y-114756995D01*
X134599757Y-114754000D01*
X133794680Y-114754000D01*
X133781995Y-114758122D01*
X133779000Y-114762243D01*
X133779000Y-115892319D01*
X133271000Y-115892319D01*
X133271000Y-114769680D01*
X133266878Y-114756995D01*
X133262757Y-114754000D01*
X132457681Y-114754000D01*
X132444996Y-114758122D01*
X132442001Y-114762243D01*
X132442001Y-115197792D01*
X126267499Y-115197792D01*
X126267499Y-114602624D01*
X126267210Y-114599962D01*
X126261522Y-114547595D01*
X126261522Y-114547593D01*
X126260851Y-114541420D01*
X126238697Y-114482322D01*
X126213004Y-114413785D01*
X126213003Y-114413782D01*
X126210526Y-114407176D01*
X126124546Y-114292454D01*
X126041641Y-114230320D01*
X132442000Y-114230320D01*
X132446122Y-114243005D01*
X132450243Y-114246000D01*
X133255320Y-114246000D01*
X133268005Y-114241878D01*
X133271000Y-114237757D01*
X133271000Y-113107681D01*
X133266878Y-113094996D01*
X133262757Y-113092001D01*
X133152208Y-113092001D01*
X133147078Y-113092267D01*
X133049327Y-113102409D01*
X133038800Y-113104682D01*
X132881723Y-113157086D01*
X132871376Y-113161933D01*
X132730855Y-113248891D01*
X132721902Y-113255987D01*
X132605153Y-113372939D01*
X132598073Y-113381904D01*
X132511359Y-113522580D01*
X132506531Y-113532934D01*
X132454398Y-113690110D01*
X132452145Y-113700621D01*
X132442259Y-113797112D01*
X132442000Y-113802171D01*
X132442000Y-114230320D01*
X126041641Y-114230320D01*
X126009824Y-114206474D01*
X125962678Y-114188800D01*
X125938257Y-114179645D01*
X125890406Y-114141514D01*
X125874107Y-114082540D01*
X125895585Y-114025248D01*
X125903005Y-114016941D01*
X127397154Y-112522792D01*
X133542001Y-112522792D01*
X133542267Y-112527922D01*
X133552409Y-112625673D01*
X133554682Y-112636200D01*
X133607086Y-112793277D01*
X133611933Y-112803624D01*
X133698891Y-112944145D01*
X133705987Y-112953098D01*
X133753356Y-113000385D01*
X133781181Y-113054877D01*
X133781194Y-113085934D01*
X133779000Y-113099788D01*
X133779000Y-114230320D01*
X133783122Y-114243005D01*
X133787243Y-114246000D01*
X134592319Y-114246000D01*
X134605004Y-114241878D01*
X134607999Y-114237757D01*
X134607999Y-113802208D01*
X134607733Y-113797078D01*
X134597591Y-113699327D01*
X134595318Y-113688800D01*
X134542914Y-113531723D01*
X134538067Y-113521376D01*
X134451109Y-113380855D01*
X134444013Y-113371902D01*
X134356036Y-113284078D01*
X134350130Y-113281075D01*
X134306829Y-113237847D01*
X134296000Y-113192827D01*
X134296000Y-112269680D01*
X134291878Y-112256995D01*
X134287757Y-112254000D01*
X133557681Y-112254000D01*
X133544996Y-112258122D01*
X133542001Y-112262243D01*
X133542001Y-112522792D01*
X127397154Y-112522792D01*
X128189626Y-111730320D01*
X133542000Y-111730320D01*
X133546122Y-111743005D01*
X133550243Y-111746000D01*
X134280320Y-111746000D01*
X134293005Y-111741878D01*
X134296000Y-111737757D01*
X134296000Y-110782681D01*
X134291878Y-110769996D01*
X134287757Y-110767001D01*
X134252208Y-110767001D01*
X134247078Y-110767267D01*
X134149327Y-110777409D01*
X134138800Y-110779682D01*
X133981723Y-110832086D01*
X133971376Y-110836933D01*
X133830855Y-110923891D01*
X133821902Y-110930987D01*
X133705153Y-111047939D01*
X133698073Y-111056904D01*
X133611359Y-111197580D01*
X133606531Y-111207934D01*
X133554398Y-111365110D01*
X133552145Y-111375621D01*
X133542259Y-111472112D01*
X133542000Y-111477171D01*
X133542000Y-111730320D01*
X128189626Y-111730320D01*
X132689626Y-107230320D01*
X133267000Y-107230320D01*
X133271122Y-107243005D01*
X133275243Y-107246000D01*
X134230320Y-107246000D01*
X134243005Y-107241878D01*
X134246000Y-107237757D01*
X134246000Y-106507681D01*
X134241878Y-106494996D01*
X134237757Y-106492001D01*
X133977208Y-106492001D01*
X133972078Y-106492267D01*
X133874327Y-106502409D01*
X133863800Y-106504682D01*
X133706723Y-106557086D01*
X133696376Y-106561933D01*
X133555855Y-106648891D01*
X133546902Y-106655987D01*
X133430153Y-106772939D01*
X133423073Y-106781904D01*
X133336359Y-106922580D01*
X133331531Y-106932934D01*
X133279398Y-107090110D01*
X133277145Y-107100621D01*
X133267259Y-107197112D01*
X133267000Y-107202171D01*
X133267000Y-107230320D01*
X132689626Y-107230320D01*
X134983979Y-104935967D01*
X137401364Y-104935967D01*
X137406803Y-104977285D01*
X137410134Y-104989719D01*
X137419411Y-105012115D01*
X137424211Y-105073112D01*
X137419411Y-105087885D01*
X137410133Y-105110285D01*
X137406804Y-105122709D01*
X137401966Y-105159455D01*
X137404396Y-105172569D01*
X137405699Y-105173805D01*
X137410980Y-105175000D01*
X138421820Y-105175000D01*
X138434505Y-105170878D01*
X138437500Y-105166757D01*
X138437500Y-105159320D01*
X138837500Y-105159320D01*
X138841622Y-105172005D01*
X138845743Y-105175000D01*
X139859400Y-105175000D01*
X139872085Y-105170878D01*
X139873141Y-105169426D01*
X139873636Y-105164033D01*
X139868197Y-105122715D01*
X139864866Y-105110281D01*
X139855589Y-105087885D01*
X139850789Y-105026888D01*
X139855589Y-105012115D01*
X139864867Y-104989715D01*
X139868196Y-104977291D01*
X139873034Y-104940545D01*
X139870604Y-104927431D01*
X139869301Y-104926195D01*
X139864020Y-104925000D01*
X138853180Y-104925000D01*
X138840495Y-104929122D01*
X138837500Y-104933243D01*
X138837500Y-105159320D01*
X138437500Y-105159320D01*
X138437500Y-104940680D01*
X138433378Y-104927995D01*
X138429257Y-104925000D01*
X137415600Y-104925000D01*
X137402915Y-104929122D01*
X137401859Y-104930574D01*
X137401364Y-104935967D01*
X134983979Y-104935967D01*
X137318527Y-102601419D01*
X137373044Y-102573642D01*
X137410381Y-102574864D01*
X137410982Y-102575000D01*
X137743770Y-102575000D01*
X137801961Y-102593907D01*
X137837925Y-102643407D01*
X137837925Y-102704593D01*
X137801961Y-102754093D01*
X137781656Y-102765464D01*
X137697159Y-102800464D01*
X137571718Y-102896718D01*
X137567764Y-102901871D01*
X137541371Y-102936267D01*
X137490947Y-102970923D01*
X137462829Y-102975000D01*
X137415600Y-102975000D01*
X137402915Y-102979122D01*
X137401859Y-102980574D01*
X137401364Y-102985967D01*
X137406803Y-103027283D01*
X137410134Y-103039716D01*
X137423470Y-103071912D01*
X137428271Y-103132909D01*
X137423470Y-103147683D01*
X137414956Y-103168238D01*
X137414110Y-103174666D01*
X137414109Y-103174669D01*
X137400171Y-103280540D01*
X137399500Y-103285639D01*
X137399501Y-103564360D01*
X137414956Y-103681762D01*
X137417441Y-103687761D01*
X137423470Y-103702317D01*
X137428270Y-103763314D01*
X137423470Y-103778088D01*
X137410132Y-103810288D01*
X137406803Y-103822712D01*
X137401966Y-103859455D01*
X137404396Y-103872569D01*
X137405699Y-103873805D01*
X137410980Y-103875000D01*
X137462829Y-103875000D01*
X137521020Y-103893907D01*
X137541371Y-103913733D01*
X137560680Y-103938897D01*
X137571718Y-103953282D01*
X137697159Y-104049536D01*
X137750568Y-104071659D01*
X137781656Y-104084536D01*
X137828181Y-104124273D01*
X137842465Y-104183768D01*
X137819050Y-104240296D01*
X137766881Y-104272265D01*
X137743770Y-104275000D01*
X137415600Y-104275000D01*
X137402915Y-104279122D01*
X137401859Y-104280574D01*
X137401364Y-104285967D01*
X137406803Y-104327285D01*
X137410134Y-104339719D01*
X137419411Y-104362115D01*
X137424211Y-104423112D01*
X137419411Y-104437885D01*
X137410133Y-104460285D01*
X137406804Y-104472709D01*
X137401966Y-104509455D01*
X137404396Y-104522569D01*
X137405699Y-104523805D01*
X137410980Y-104525000D01*
X138421820Y-104525000D01*
X138434505Y-104520878D01*
X138437500Y-104516757D01*
X138437500Y-104290680D01*
X138425937Y-104255092D01*
X138425938Y-104193907D01*
X138461902Y-104144407D01*
X138520092Y-104125500D01*
X138639260Y-104125499D01*
X138757810Y-104125499D01*
X138815999Y-104144406D01*
X138851963Y-104193906D01*
X138851964Y-104255091D01*
X138837902Y-104282690D01*
X138837500Y-104283243D01*
X138837500Y-104509320D01*
X138841622Y-104522005D01*
X138845743Y-104525000D01*
X139859400Y-104525000D01*
X139872085Y-104520878D01*
X139873141Y-104519426D01*
X139873636Y-104514033D01*
X139868197Y-104472715D01*
X139864866Y-104460281D01*
X139855589Y-104437885D01*
X139850789Y-104376888D01*
X139855589Y-104362115D01*
X139864867Y-104339715D01*
X139868196Y-104327291D01*
X139873034Y-104290545D01*
X139870604Y-104277431D01*
X139869301Y-104276195D01*
X139864020Y-104275000D01*
X139531230Y-104275000D01*
X139473039Y-104256093D01*
X139437075Y-104206593D01*
X139437075Y-104145407D01*
X139473039Y-104095907D01*
X139493344Y-104084536D01*
X139524432Y-104071659D01*
X139577841Y-104049536D01*
X139703282Y-103953282D01*
X139714320Y-103938897D01*
X139733629Y-103913733D01*
X139784053Y-103879077D01*
X139812171Y-103875000D01*
X139859400Y-103875000D01*
X139872085Y-103870878D01*
X139873141Y-103869426D01*
X139873636Y-103864033D01*
X139868197Y-103822717D01*
X139864866Y-103810284D01*
X139851530Y-103778088D01*
X139846729Y-103717091D01*
X139851530Y-103702317D01*
X139857561Y-103687756D01*
X139860044Y-103681762D01*
X139860892Y-103675325D01*
X139875077Y-103567574D01*
X139875500Y-103564361D01*
X139875499Y-103285640D01*
X139873198Y-103268155D01*
X139865470Y-103209455D01*
X139860044Y-103168238D01*
X139851530Y-103147683D01*
X139846730Y-103086686D01*
X139851530Y-103071912D01*
X139864868Y-103039712D01*
X139868197Y-103027288D01*
X139873034Y-102990545D01*
X139870604Y-102977431D01*
X139869301Y-102976195D01*
X139864020Y-102975000D01*
X139812171Y-102975000D01*
X139753980Y-102956093D01*
X139733629Y-102936267D01*
X139707236Y-102901871D01*
X139703282Y-102896718D01*
X139577841Y-102800464D01*
X139493344Y-102765464D01*
X139446819Y-102725727D01*
X139432535Y-102666232D01*
X139455950Y-102609704D01*
X139508119Y-102577735D01*
X139531230Y-102575000D01*
X139859400Y-102575000D01*
X139872085Y-102570878D01*
X139873141Y-102569426D01*
X139873636Y-102564033D01*
X139868197Y-102522717D01*
X139864865Y-102510281D01*
X139808572Y-102374375D01*
X139802136Y-102363228D01*
X139712581Y-102246519D01*
X139703481Y-102237419D01*
X139593520Y-102153042D01*
X139558865Y-102102617D01*
X139560467Y-102041453D01*
X139597714Y-101992911D01*
X139653787Y-101975500D01*
X139778985Y-101975499D01*
X139839544Y-101975499D01*
X139897735Y-101994406D01*
X139909549Y-102004495D01*
X140320504Y-102415450D01*
X140348281Y-102469967D01*
X140349500Y-102485454D01*
X140349500Y-105550500D01*
X140330593Y-105608691D01*
X140281093Y-105644655D01*
X140250500Y-105649500D01*
X140211109Y-105649500D01*
X140097064Y-105673741D01*
X140041304Y-105685593D01*
X140041303Y-105685593D01*
X140036233Y-105686671D01*
X140031493Y-105688781D01*
X140031491Y-105688782D01*
X140010923Y-105697939D01*
X139950073Y-105704334D01*
X139897085Y-105673741D01*
X139872199Y-105617845D01*
X139872504Y-105594576D01*
X139873035Y-105590546D01*
X139870604Y-105577431D01*
X139869301Y-105576195D01*
X139864020Y-105575000D01*
X138853180Y-105575000D01*
X138840495Y-105579122D01*
X138837500Y-105583243D01*
X138837500Y-105875500D01*
X138818593Y-105933691D01*
X138769093Y-105969655D01*
X138738500Y-105974500D01*
X138637500Y-105974501D01*
X138536499Y-105974501D01*
X138478310Y-105955594D01*
X138442346Y-105906094D01*
X138437500Y-105875501D01*
X138437500Y-105590680D01*
X138433378Y-105577995D01*
X138429257Y-105575000D01*
X137415600Y-105575000D01*
X137402914Y-105579122D01*
X137401230Y-105581440D01*
X137351731Y-105617404D01*
X137290545Y-105617405D01*
X137241045Y-105581441D01*
X137235401Y-105572750D01*
X137194457Y-105501833D01*
X137194452Y-105501826D01*
X137191859Y-105497335D01*
X137072230Y-105364474D01*
X136927593Y-105259388D01*
X136800768Y-105202922D01*
X136769005Y-105188780D01*
X136769001Y-105188779D01*
X136764267Y-105186671D01*
X136759197Y-105185593D01*
X136759196Y-105185593D01*
X136697922Y-105172569D01*
X136589391Y-105149500D01*
X136410609Y-105149500D01*
X136302078Y-105172569D01*
X136240804Y-105185593D01*
X136240803Y-105185593D01*
X136235733Y-105186671D01*
X136230999Y-105188779D01*
X136230995Y-105188780D01*
X136077142Y-105257280D01*
X136077140Y-105257281D01*
X136072408Y-105259388D01*
X135927770Y-105364474D01*
X135924304Y-105368324D01*
X135924300Y-105368327D01*
X135828702Y-105474500D01*
X135808141Y-105497335D01*
X135805549Y-105501825D01*
X135805548Y-105501826D01*
X135721782Y-105646914D01*
X135718750Y-105652165D01*
X135717149Y-105657094D01*
X135717148Y-105657095D01*
X135665105Y-105817265D01*
X135665104Y-105817270D01*
X135663503Y-105822197D01*
X135644815Y-106000000D01*
X135663503Y-106177803D01*
X135665104Y-106182730D01*
X135665105Y-106182735D01*
X135712469Y-106328504D01*
X135718750Y-106347835D01*
X135721341Y-106352323D01*
X135721342Y-106352325D01*
X135757468Y-106414897D01*
X135770189Y-106474746D01*
X135745302Y-106530641D01*
X135711159Y-106552999D01*
X135711931Y-106554647D01*
X135696382Y-106561930D01*
X135552217Y-106651143D01*
X135492785Y-106665686D01*
X135449417Y-106648777D01*
X135447991Y-106651090D01*
X135302420Y-106561359D01*
X135292066Y-106556531D01*
X135134890Y-106504398D01*
X135124379Y-106502145D01*
X135027888Y-106492259D01*
X135022830Y-106492000D01*
X134769680Y-106492000D01*
X134756995Y-106496122D01*
X134754000Y-106500243D01*
X134754000Y-107230320D01*
X134758122Y-107243005D01*
X134762243Y-107246000D01*
X136655000Y-107246000D01*
X136713191Y-107264907D01*
X136749155Y-107314407D01*
X136754000Y-107345000D01*
X136754000Y-107655000D01*
X136735093Y-107713191D01*
X136685593Y-107749155D01*
X136655000Y-107754000D01*
X133282681Y-107754000D01*
X133269996Y-107758122D01*
X133267001Y-107762243D01*
X133267001Y-107797792D01*
X133267267Y-107802922D01*
X133277409Y-107900673D01*
X133279682Y-107911200D01*
X133332086Y-108068277D01*
X133336933Y-108078624D01*
X133423891Y-108219145D01*
X133430987Y-108228098D01*
X133547939Y-108344847D01*
X133556901Y-108351925D01*
X133586519Y-108370181D01*
X133626134Y-108416810D01*
X133630776Y-108477819D01*
X133598671Y-108529905D01*
X133586672Y-108538640D01*
X133555655Y-108557834D01*
X133551593Y-108561903D01*
X133436078Y-108677619D01*
X133436075Y-108677623D01*
X133432016Y-108681689D01*
X133429000Y-108686581D01*
X133428999Y-108686583D01*
X133387443Y-108754000D01*
X133340186Y-108830666D01*
X133338377Y-108836120D01*
X133338376Y-108836122D01*
X133298435Y-108956539D01*
X133285090Y-108996772D01*
X133274500Y-109100134D01*
X133274500Y-109699866D01*
X133274765Y-109702416D01*
X133274765Y-109702424D01*
X133284799Y-109799127D01*
X133284800Y-109799132D01*
X133285359Y-109804519D01*
X133340744Y-109970529D01*
X133343768Y-109975416D01*
X133343770Y-109975420D01*
X133362960Y-110006430D01*
X133432834Y-110119345D01*
X133436903Y-110123407D01*
X133552619Y-110238922D01*
X133552623Y-110238925D01*
X133556689Y-110242984D01*
X133561581Y-110246000D01*
X133561583Y-110246001D01*
X133591444Y-110264407D01*
X133705666Y-110334814D01*
X133711120Y-110336623D01*
X133711122Y-110336624D01*
X133793757Y-110364033D01*
X133871772Y-110389910D01*
X133975134Y-110400500D01*
X135024866Y-110400500D01*
X135027416Y-110400235D01*
X135027424Y-110400235D01*
X135124127Y-110390201D01*
X135124132Y-110390200D01*
X135129519Y-110389641D01*
X135147294Y-110383711D01*
X135290071Y-110336077D01*
X135290072Y-110336077D01*
X135295529Y-110334256D01*
X135300416Y-110331232D01*
X135300420Y-110331230D01*
X135444345Y-110242166D01*
X135445150Y-110243466D01*
X135495876Y-110224609D01*
X135554760Y-110241058D01*
X135556689Y-110242984D01*
X135705666Y-110334814D01*
X135711120Y-110336623D01*
X135711122Y-110336624D01*
X135793757Y-110364033D01*
X135871772Y-110389910D01*
X135975134Y-110400500D01*
X136541896Y-110400500D01*
X136600087Y-110419407D01*
X136609666Y-110427332D01*
X136639607Y-110455448D01*
X136645064Y-110458448D01*
X136659925Y-110466618D01*
X136672912Y-110475149D01*
X136686312Y-110485543D01*
X136686315Y-110485545D01*
X136691236Y-110489362D01*
X136696951Y-110491835D01*
X136734212Y-110507959D01*
X136742586Y-110512062D01*
X136783632Y-110534627D01*
X136789663Y-110536175D01*
X136789667Y-110536177D01*
X136806094Y-110540394D01*
X136820795Y-110545427D01*
X136836354Y-110552160D01*
X136836356Y-110552161D01*
X136842074Y-110554635D01*
X136848226Y-110555609D01*
X136848228Y-110555610D01*
X136888316Y-110561959D01*
X136897449Y-110563850D01*
X136942823Y-110575500D01*
X136966018Y-110575500D01*
X136981505Y-110576719D01*
X136998254Y-110579372D01*
X136998256Y-110579372D01*
X137004405Y-110580346D01*
X137051026Y-110575939D01*
X137060343Y-110575500D01*
X137293001Y-110575500D01*
X137351192Y-110594407D01*
X137387156Y-110643907D01*
X137392001Y-110674500D01*
X137392001Y-110711604D01*
X137392424Y-110718061D01*
X137406803Y-110827282D01*
X137410134Y-110839716D01*
X137423470Y-110871912D01*
X137428271Y-110932909D01*
X137423470Y-110947683D01*
X137414956Y-110968238D01*
X137414645Y-110970598D01*
X137382266Y-111020457D01*
X137325144Y-111042383D01*
X137266044Y-111026547D01*
X137250022Y-111013584D01*
X137174190Y-110937885D01*
X137168311Y-110932016D01*
X137163419Y-110929000D01*
X137163417Y-110928999D01*
X137078905Y-110876906D01*
X137019334Y-110840186D01*
X137013880Y-110838377D01*
X137013878Y-110838376D01*
X136858356Y-110786791D01*
X136858357Y-110786791D01*
X136853228Y-110785090D01*
X136749866Y-110774500D01*
X136150134Y-110774500D01*
X136147584Y-110774765D01*
X136147576Y-110774765D01*
X136050873Y-110784799D01*
X136050868Y-110784800D01*
X136045481Y-110785359D01*
X136040338Y-110787075D01*
X136040337Y-110787075D01*
X135892339Y-110836451D01*
X135879471Y-110840744D01*
X135874584Y-110843768D01*
X135874580Y-110843770D01*
X135807923Y-110885019D01*
X135730655Y-110932834D01*
X135726593Y-110936903D01*
X135611078Y-111052619D01*
X135611075Y-111052623D01*
X135607016Y-111056689D01*
X135588632Y-111086514D01*
X135542005Y-111126127D01*
X135480996Y-111130769D01*
X135428910Y-111098664D01*
X135420172Y-111086661D01*
X135401106Y-111055852D01*
X135394013Y-111046902D01*
X135277061Y-110930153D01*
X135268096Y-110923073D01*
X135127420Y-110836359D01*
X135117066Y-110831531D01*
X134959890Y-110779398D01*
X134949379Y-110777145D01*
X134852888Y-110767259D01*
X134847830Y-110767000D01*
X134819680Y-110767000D01*
X134806995Y-110771122D01*
X134804000Y-110775243D01*
X134804000Y-113217319D01*
X134808122Y-113230004D01*
X134812243Y-113232999D01*
X134847792Y-113232999D01*
X134852922Y-113232733D01*
X134950673Y-113222591D01*
X134961200Y-113220318D01*
X135118277Y-113167914D01*
X135128624Y-113163067D01*
X135269145Y-113076109D01*
X135278098Y-113069013D01*
X135394847Y-112952061D01*
X135401925Y-112943099D01*
X135420181Y-112913481D01*
X135466810Y-112873866D01*
X135527819Y-112869224D01*
X135579905Y-112901329D01*
X135588640Y-112913328D01*
X135607834Y-112944345D01*
X135611898Y-112948402D01*
X135611902Y-112948407D01*
X135695443Y-113031803D01*
X135723268Y-113086295D01*
X135724500Y-113101867D01*
X135724500Y-113176074D01*
X135705593Y-113234265D01*
X135686995Y-113253658D01*
X135685541Y-113254810D01*
X135680655Y-113257834D01*
X135676594Y-113261902D01*
X135561078Y-113377619D01*
X135561075Y-113377623D01*
X135557016Y-113381689D01*
X135554000Y-113386581D01*
X135553999Y-113386583D01*
X135529296Y-113426660D01*
X135465186Y-113530666D01*
X135463377Y-113536120D01*
X135463376Y-113536122D01*
X135440635Y-113604682D01*
X135410090Y-113696772D01*
X135399500Y-113800134D01*
X135399500Y-115199866D01*
X135399765Y-115202416D01*
X135399765Y-115202424D01*
X135409799Y-115299127D01*
X135409800Y-115299132D01*
X135410359Y-115304519D01*
X135412075Y-115309662D01*
X135412075Y-115309663D01*
X135463923Y-115465071D01*
X135465744Y-115470529D01*
X135468768Y-115475416D01*
X135468770Y-115475420D01*
X135521108Y-115559997D01*
X135557834Y-115619345D01*
X135561903Y-115623407D01*
X135677619Y-115738922D01*
X135677623Y-115738925D01*
X135681689Y-115742984D01*
X135686581Y-115746000D01*
X135686583Y-115746001D01*
X135702448Y-115755780D01*
X135742063Y-115802410D01*
X135749500Y-115840056D01*
X135749500Y-116072376D01*
X135736237Y-116121875D01*
X135721344Y-116147671D01*
X135721342Y-116147675D01*
X135718750Y-116152165D01*
X135717149Y-116157094D01*
X135717148Y-116157095D01*
X135665105Y-116317265D01*
X135665104Y-116317270D01*
X135663503Y-116322197D01*
X135644815Y-116500000D01*
X135663503Y-116677803D01*
X135665104Y-116682730D01*
X135665105Y-116682735D01*
X135687745Y-116752412D01*
X135718750Y-116847835D01*
X135721341Y-116852323D01*
X135721342Y-116852325D01*
X135802889Y-116993568D01*
X135808141Y-117002665D01*
X135927770Y-117135526D01*
X135931968Y-117138576D01*
X135931969Y-117138577D01*
X135948378Y-117150499D01*
X136072407Y-117240612D01*
X136103113Y-117254283D01*
X136230995Y-117311220D01*
X136230999Y-117311221D01*
X136235733Y-117313329D01*
X136240803Y-117314407D01*
X136240804Y-117314407D01*
X136274728Y-117321618D01*
X136410609Y-117350500D01*
X136589391Y-117350500D01*
X136725272Y-117321618D01*
X136759196Y-117314407D01*
X136759197Y-117314407D01*
X136764267Y-117313329D01*
X136769001Y-117311221D01*
X136769005Y-117311220D01*
X136896887Y-117254283D01*
X136927593Y-117240612D01*
X137051622Y-117150499D01*
X137068031Y-117138577D01*
X137068032Y-117138576D01*
X137072230Y-117135526D01*
X137191859Y-117002665D01*
X137197111Y-116993568D01*
X137278658Y-116852325D01*
X137278659Y-116852323D01*
X137281250Y-116847835D01*
X137312255Y-116752412D01*
X137334895Y-116682735D01*
X137334896Y-116682730D01*
X137336497Y-116677803D01*
X137355185Y-116500000D01*
X137336497Y-116322197D01*
X137334896Y-116317270D01*
X137334895Y-116317265D01*
X137282852Y-116157095D01*
X137282851Y-116157094D01*
X137281250Y-116152165D01*
X137278658Y-116147675D01*
X137278656Y-116147671D01*
X137263763Y-116121875D01*
X137250500Y-116072376D01*
X137250500Y-115802000D01*
X137269407Y-115743809D01*
X137279427Y-115732066D01*
X137392984Y-115618311D01*
X137425731Y-115565186D01*
X137459692Y-115510090D01*
X137484814Y-115469334D01*
X137495603Y-115436809D01*
X137537700Y-115309890D01*
X137539910Y-115303228D01*
X137550500Y-115199866D01*
X137550500Y-113800134D01*
X137550235Y-113797576D01*
X137540201Y-113700873D01*
X137540200Y-113700868D01*
X137539641Y-113695481D01*
X137526832Y-113657086D01*
X137486077Y-113534929D01*
X137486077Y-113534928D01*
X137484256Y-113529471D01*
X137481232Y-113524584D01*
X137481230Y-113524580D01*
X137408715Y-113407398D01*
X137392166Y-113380655D01*
X137378677Y-113367189D01*
X137288857Y-113277526D01*
X137268311Y-113257016D01*
X137263420Y-113254001D01*
X137263140Y-113253780D01*
X137229193Y-113202876D01*
X137225500Y-113176089D01*
X137225500Y-113051869D01*
X137244407Y-112993678D01*
X137254436Y-112981926D01*
X137268622Y-112967716D01*
X137292984Y-112943311D01*
X137301337Y-112929761D01*
X137335790Y-112873866D01*
X137382831Y-112797551D01*
X137429459Y-112757937D01*
X137467106Y-112750500D01*
X137906322Y-112750500D01*
X138036328Y-112735343D01*
X138041734Y-112733381D01*
X138041737Y-112733380D01*
X138195423Y-112677594D01*
X138200831Y-112675631D01*
X138205640Y-112672478D01*
X138205644Y-112672476D01*
X138342377Y-112582829D01*
X138347185Y-112579677D01*
X138351134Y-112575508D01*
X138351138Y-112575505D01*
X138463584Y-112456804D01*
X138467540Y-112452628D01*
X138486754Y-112419550D01*
X138552550Y-112306272D01*
X138552550Y-112306271D01*
X138555439Y-112301298D01*
X138580520Y-112218487D01*
X138605266Y-112177180D01*
X138827951Y-111954495D01*
X138882468Y-111926718D01*
X138897955Y-111925499D01*
X139314360Y-111925499D01*
X139317571Y-111925076D01*
X139317576Y-111925076D01*
X139399329Y-111914314D01*
X139431762Y-111910044D01*
X139437755Y-111907562D01*
X139437761Y-111907560D01*
X139442615Y-111905549D01*
X139503611Y-111900748D01*
X139555780Y-111932718D01*
X139579195Y-111989246D01*
X139579500Y-111997013D01*
X139579500Y-113839296D01*
X139560593Y-113897487D01*
X139514593Y-113930908D01*
X139515021Y-113932051D01*
X139387386Y-113979898D01*
X139387383Y-113979899D01*
X139380777Y-113982376D01*
X139266055Y-114068356D01*
X139180075Y-114183078D01*
X139177598Y-114189684D01*
X139177597Y-114189687D01*
X139162447Y-114230102D01*
X139129750Y-114317322D01*
X139123101Y-114378525D01*
X139123102Y-116879876D01*
X139129750Y-116941080D01*
X139149427Y-116993568D01*
X139162830Y-117029321D01*
X139180075Y-117075324D01*
X139266055Y-117190046D01*
X139380777Y-117276026D01*
X139387383Y-117278503D01*
X139387386Y-117278504D01*
X139445972Y-117300466D01*
X139515021Y-117326351D01*
X139521197Y-117327022D01*
X139523590Y-117327591D01*
X139575828Y-117359447D01*
X139599366Y-117415924D01*
X139585212Y-117475450D01*
X139538772Y-117515287D01*
X139523589Y-117520221D01*
X139507580Y-117524027D01*
X139383746Y-117570451D01*
X139371493Y-117577159D01*
X139266345Y-117655963D01*
X139256464Y-117665844D01*
X139177660Y-117770992D01*
X139170952Y-117783245D01*
X139124529Y-117907078D01*
X139121678Y-117919067D01*
X139115890Y-117972352D01*
X139115601Y-117977686D01*
X139115601Y-118956719D01*
X139119723Y-118969404D01*
X139123844Y-118972399D01*
X141328718Y-118972399D01*
X141341403Y-118968277D01*
X141344398Y-118964156D01*
X141344398Y-117977689D01*
X141344109Y-117972349D01*
X141338321Y-117919065D01*
X141335472Y-117907080D01*
X141289048Y-117783245D01*
X141282340Y-117770992D01*
X141203536Y-117665844D01*
X141193655Y-117655963D01*
X141088507Y-117577159D01*
X141076254Y-117570451D01*
X140952420Y-117524027D01*
X140936411Y-117520221D01*
X140884172Y-117488365D01*
X140860634Y-117431888D01*
X140874788Y-117372363D01*
X140921227Y-117332525D01*
X140936410Y-117327591D01*
X140938804Y-117327022D01*
X140944979Y-117326351D01*
X141014028Y-117300466D01*
X141072614Y-117278504D01*
X141072617Y-117278503D01*
X141079223Y-117276026D01*
X141193945Y-117190046D01*
X141279925Y-117075324D01*
X141297171Y-117029321D01*
X141310573Y-116993568D01*
X141330250Y-116941080D01*
X141336899Y-116879877D01*
X141336898Y-115046135D01*
X142517000Y-115046135D01*
X142517265Y-115051262D01*
X142527047Y-115145525D01*
X142529320Y-115156054D01*
X142579879Y-115307600D01*
X142584726Y-115317947D01*
X142668616Y-115453512D01*
X142675711Y-115462463D01*
X142788539Y-115575095D01*
X142797503Y-115582174D01*
X142933218Y-115665830D01*
X142943568Y-115670656D01*
X143095217Y-115720956D01*
X143105723Y-115723208D01*
X143198771Y-115732741D01*
X143203829Y-115733000D01*
X143230320Y-115733000D01*
X143243005Y-115728878D01*
X143246000Y-115724757D01*
X143246000Y-115717320D01*
X143754000Y-115717320D01*
X143758122Y-115730005D01*
X143762243Y-115733000D01*
X143796135Y-115733000D01*
X143801262Y-115732735D01*
X143895525Y-115722953D01*
X143906054Y-115720680D01*
X144057600Y-115670121D01*
X144067947Y-115665274D01*
X144203512Y-115581384D01*
X144212463Y-115574289D01*
X144237442Y-115549266D01*
X144291934Y-115521440D01*
X144352375Y-115530959D01*
X144391691Y-115567112D01*
X144423889Y-115619142D01*
X144430987Y-115628098D01*
X144547939Y-115744847D01*
X144556904Y-115751927D01*
X144697580Y-115838641D01*
X144707934Y-115843469D01*
X144865110Y-115895602D01*
X144875621Y-115897855D01*
X144972112Y-115907741D01*
X144977170Y-115908000D01*
X145230320Y-115908000D01*
X145243005Y-115903878D01*
X145246000Y-115899757D01*
X145246000Y-115169680D01*
X145241878Y-115156995D01*
X145237757Y-115154000D01*
X144326000Y-115154000D01*
X144267809Y-115135093D01*
X144231845Y-115085593D01*
X144227000Y-115055000D01*
X144227000Y-115044680D01*
X144222878Y-115031995D01*
X144218757Y-115029000D01*
X143769680Y-115029000D01*
X143756995Y-115033122D01*
X143754000Y-115037243D01*
X143754000Y-115717320D01*
X143246000Y-115717320D01*
X143246000Y-115044680D01*
X143241878Y-115031995D01*
X143237757Y-115029000D01*
X142532680Y-115029000D01*
X142519995Y-115033122D01*
X142517000Y-115037243D01*
X142517000Y-115046135D01*
X141336898Y-115046135D01*
X141336898Y-114378526D01*
X141333040Y-114343005D01*
X141330921Y-114323497D01*
X141330921Y-114323495D01*
X141330250Y-114317322D01*
X141297553Y-114230102D01*
X141282403Y-114189687D01*
X141282402Y-114189684D01*
X141279925Y-114183078D01*
X141193945Y-114068356D01*
X141079223Y-113982376D01*
X141072617Y-113979899D01*
X141072614Y-113979898D01*
X140944979Y-113932051D01*
X140946047Y-113929203D01*
X140904278Y-113903659D01*
X140880812Y-113847152D01*
X140880500Y-113839296D01*
X140880500Y-112080454D01*
X140899407Y-112022263D01*
X140909496Y-112010450D01*
X142947997Y-109971949D01*
X143002514Y-109944172D01*
X143062946Y-109953743D01*
X143106211Y-109997008D01*
X143117001Y-110041953D01*
X143117001Y-110061604D01*
X143117424Y-110068061D01*
X143131803Y-110177282D01*
X143135134Y-110189716D01*
X143148470Y-110221912D01*
X143153271Y-110282909D01*
X143148470Y-110297683D01*
X143139956Y-110318238D01*
X143139110Y-110324666D01*
X143139109Y-110324669D01*
X143126637Y-110419407D01*
X143124500Y-110435639D01*
X143124501Y-110714360D01*
X143124924Y-110717571D01*
X143124924Y-110717576D01*
X143131431Y-110767001D01*
X143139956Y-110831762D01*
X143142438Y-110837755D01*
X143142440Y-110837761D01*
X143152528Y-110862115D01*
X143157328Y-110923112D01*
X143152528Y-110937885D01*
X143149144Y-110946056D01*
X143139956Y-110968238D01*
X143124500Y-111085639D01*
X143124501Y-111364360D01*
X143124924Y-111367571D01*
X143124983Y-111368019D01*
X143124961Y-111368137D01*
X143125136Y-111370805D01*
X143124458Y-111370849D01*
X143113833Y-111428180D01*
X143085510Y-111460677D01*
X142984676Y-111534883D01*
X142980953Y-111539265D01*
X142980951Y-111539267D01*
X142907104Y-111626191D01*
X142871368Y-111668255D01*
X142791781Y-111824116D01*
X142790414Y-111829701D01*
X142790414Y-111829702D01*
X142759878Y-111954495D01*
X142750185Y-111994106D01*
X142749500Y-112005148D01*
X142749500Y-112433475D01*
X142730593Y-112491666D01*
X142720564Y-112503418D01*
X142680835Y-112543215D01*
X142680832Y-112543219D01*
X142676769Y-112547289D01*
X142673749Y-112552189D01*
X142673747Y-112552191D01*
X142628452Y-112625673D01*
X142587997Y-112691303D01*
X142534737Y-112851876D01*
X142524500Y-112951793D01*
X142524501Y-113498206D01*
X142534997Y-113599372D01*
X142536712Y-113604512D01*
X142536712Y-113604513D01*
X142584472Y-113747667D01*
X142588537Y-113759852D01*
X142591561Y-113764739D01*
X142591563Y-113764743D01*
X142674534Y-113898822D01*
X142674537Y-113898825D01*
X142677560Y-113903711D01*
X142697897Y-113924012D01*
X142698580Y-113924694D01*
X142726405Y-113979186D01*
X142716887Y-114039626D01*
X142698702Y-114064702D01*
X142674906Y-114088539D01*
X142667826Y-114097504D01*
X142584170Y-114233218D01*
X142579344Y-114243568D01*
X142529044Y-114395217D01*
X142526792Y-114405723D01*
X142517259Y-114498771D01*
X142517000Y-114503830D01*
X142517000Y-114505320D01*
X142521122Y-114518005D01*
X142525243Y-114521000D01*
X144424000Y-114521000D01*
X144482191Y-114539907D01*
X144518155Y-114589407D01*
X144523000Y-114620000D01*
X144523000Y-114630320D01*
X144527122Y-114643005D01*
X144531243Y-114646000D01*
X145655000Y-114646000D01*
X145713191Y-114664907D01*
X145749155Y-114714407D01*
X145754000Y-114745000D01*
X145754000Y-115892319D01*
X145758122Y-115905004D01*
X145762243Y-115907999D01*
X146022792Y-115907999D01*
X146027922Y-115907733D01*
X146125673Y-115897591D01*
X146136200Y-115895318D01*
X146293277Y-115842914D01*
X146303624Y-115838067D01*
X146444145Y-115751109D01*
X146453098Y-115744013D01*
X146569847Y-115627061D01*
X146576927Y-115618096D01*
X146663641Y-115477420D01*
X146668469Y-115467066D01*
X146720602Y-115309890D01*
X146722855Y-115299379D01*
X146732741Y-115202888D01*
X146733000Y-115197830D01*
X146733000Y-115177116D01*
X146751907Y-115118925D01*
X146801407Y-115082961D01*
X146862593Y-115082961D01*
X146905570Y-115110870D01*
X146927770Y-115135526D01*
X147072407Y-115240612D01*
X147154070Y-115276971D01*
X147230995Y-115311220D01*
X147230999Y-115311221D01*
X147235733Y-115313329D01*
X147240803Y-115314407D01*
X147240804Y-115314407D01*
X147245650Y-115315437D01*
X147410609Y-115350500D01*
X147589391Y-115350500D01*
X147754350Y-115315437D01*
X147759196Y-115314407D01*
X147759197Y-115314407D01*
X147764267Y-115313329D01*
X147769001Y-115311221D01*
X147769005Y-115311220D01*
X147845930Y-115276970D01*
X147927593Y-115240612D01*
X148072230Y-115135526D01*
X148191859Y-115002665D01*
X148225337Y-114944680D01*
X148278658Y-114852325D01*
X148278659Y-114852323D01*
X148281250Y-114847835D01*
X148282852Y-114842906D01*
X148282856Y-114842896D01*
X148303457Y-114779493D01*
X148339421Y-114729993D01*
X148397611Y-114711086D01*
X148455802Y-114729994D01*
X148467615Y-114740082D01*
X149511273Y-115783740D01*
X149521005Y-115795065D01*
X149534883Y-115813923D01*
X149539265Y-115817646D01*
X149539267Y-115817648D01*
X149575505Y-115848434D01*
X149581411Y-115853878D01*
X149587803Y-115860270D01*
X149589937Y-115861958D01*
X149620819Y-115914745D01*
X149623102Y-115935884D01*
X149623102Y-116549274D01*
X149629750Y-116610478D01*
X149631931Y-116616295D01*
X149661324Y-116694702D01*
X149680075Y-116744722D01*
X149766055Y-116859444D01*
X149771703Y-116863677D01*
X149823416Y-116902434D01*
X149880777Y-116945424D01*
X149887383Y-116947901D01*
X149887386Y-116947902D01*
X149939284Y-116967357D01*
X150015021Y-116995749D01*
X150076224Y-117002398D01*
X150729755Y-117002398D01*
X151383775Y-117002397D01*
X151386434Y-117002108D01*
X151386437Y-117002108D01*
X151438804Y-116996420D01*
X151438806Y-116996420D01*
X151444979Y-116995749D01*
X151504077Y-116973595D01*
X151572614Y-116947902D01*
X151572617Y-116947901D01*
X151579223Y-116945424D01*
X151636584Y-116902434D01*
X151688297Y-116863677D01*
X151693945Y-116859444D01*
X151779925Y-116744722D01*
X151830250Y-116610478D01*
X151836899Y-116549275D01*
X151836898Y-114942864D01*
X160275133Y-114942864D01*
X160322569Y-115119898D01*
X160325515Y-115127991D01*
X160418582Y-115327573D01*
X160422894Y-115335043D01*
X160549208Y-115515437D01*
X160554741Y-115522032D01*
X160710468Y-115677759D01*
X160717063Y-115683292D01*
X160897457Y-115809606D01*
X160904927Y-115813918D01*
X161104509Y-115906985D01*
X161112602Y-115909931D01*
X161325324Y-115966930D01*
X161333812Y-115968426D01*
X161498229Y-115982811D01*
X161502566Y-115983000D01*
X162087820Y-115983000D01*
X162100505Y-115978878D01*
X162103500Y-115974757D01*
X162103500Y-115967320D01*
X162611500Y-115967320D01*
X162615622Y-115980005D01*
X162619743Y-115983000D01*
X163212434Y-115983000D01*
X163216771Y-115982811D01*
X163381188Y-115968426D01*
X163389676Y-115966930D01*
X163602398Y-115909931D01*
X163610491Y-115906985D01*
X163810073Y-115813918D01*
X163817543Y-115809606D01*
X163997937Y-115683292D01*
X164004532Y-115677759D01*
X164160259Y-115522032D01*
X164165792Y-115515437D01*
X164292106Y-115335043D01*
X164296418Y-115327573D01*
X164389485Y-115127991D01*
X164392431Y-115119898D01*
X164439524Y-114944145D01*
X164438880Y-114931859D01*
X164429227Y-114929000D01*
X162627180Y-114929000D01*
X162614495Y-114933122D01*
X162611500Y-114937243D01*
X162611500Y-115967320D01*
X162103500Y-115967320D01*
X162103500Y-114944680D01*
X162099378Y-114931995D01*
X162095257Y-114929000D01*
X160287098Y-114929000D01*
X160275396Y-114932802D01*
X160275133Y-114942864D01*
X151836898Y-114942864D01*
X151836898Y-114529934D01*
X165199500Y-114529934D01*
X165199689Y-114534271D01*
X165214074Y-114698688D01*
X165215570Y-114707176D01*
X165272569Y-114919898D01*
X165275515Y-114927991D01*
X165368582Y-115127573D01*
X165372894Y-115135043D01*
X165499208Y-115315437D01*
X165504741Y-115322032D01*
X165660468Y-115477759D01*
X165667063Y-115483292D01*
X165847457Y-115609606D01*
X165854927Y-115613918D01*
X166054509Y-115706985D01*
X166062602Y-115709931D01*
X166238355Y-115757024D01*
X166250641Y-115756380D01*
X166253500Y-115746727D01*
X166253500Y-113944680D01*
X166249378Y-113931995D01*
X166245257Y-113929000D01*
X165215180Y-113929000D01*
X165202495Y-113933122D01*
X165199500Y-113937243D01*
X165199500Y-114529934D01*
X151836898Y-114529934D01*
X151836898Y-114047924D01*
X151835138Y-114031723D01*
X151830921Y-113992895D01*
X151830921Y-113992893D01*
X151830250Y-113986720D01*
X151806998Y-113924694D01*
X151782403Y-113859085D01*
X151782402Y-113859082D01*
X151779925Y-113852476D01*
X151693945Y-113737754D01*
X151579223Y-113651774D01*
X151572617Y-113649297D01*
X151572614Y-113649296D01*
X151488929Y-113617925D01*
X151444979Y-113601449D01*
X151417104Y-113598421D01*
X151361296Y-113573340D01*
X151330888Y-113520246D01*
X151337496Y-113459418D01*
X151378595Y-113414092D01*
X151417104Y-113401579D01*
X151438804Y-113399222D01*
X151438806Y-113399222D01*
X151444979Y-113398551D01*
X151513300Y-113372939D01*
X151572614Y-113350704D01*
X151572617Y-113350703D01*
X151579223Y-113348226D01*
X151693945Y-113262246D01*
X151779925Y-113147524D01*
X151791296Y-113117193D01*
X151828069Y-113019097D01*
X151830250Y-113013280D01*
X151836899Y-112952077D01*
X151836898Y-110747792D01*
X153267001Y-110747792D01*
X153267267Y-110752922D01*
X153277409Y-110850673D01*
X153279682Y-110861200D01*
X153332086Y-111018277D01*
X153336933Y-111028624D01*
X153423891Y-111169145D01*
X153430987Y-111178098D01*
X153547939Y-111294847D01*
X153556904Y-111301927D01*
X153697580Y-111388641D01*
X153707934Y-111393469D01*
X153865110Y-111445602D01*
X153875621Y-111447855D01*
X153972112Y-111457741D01*
X153977170Y-111458000D01*
X154230320Y-111458000D01*
X154243005Y-111453878D01*
X154246000Y-111449757D01*
X154246000Y-110719680D01*
X154241878Y-110706995D01*
X154237757Y-110704000D01*
X153282681Y-110704000D01*
X153269996Y-110708122D01*
X153267001Y-110712243D01*
X153267001Y-110747792D01*
X151836898Y-110747792D01*
X151836898Y-110450726D01*
X151831470Y-110400751D01*
X151830921Y-110395697D01*
X151830921Y-110395695D01*
X151830250Y-110389522D01*
X151801280Y-110312244D01*
X151782403Y-110261887D01*
X151782402Y-110261884D01*
X151779925Y-110255278D01*
X151702650Y-110152171D01*
X151698178Y-110146204D01*
X151693945Y-110140556D01*
X151579223Y-110054576D01*
X151572617Y-110052099D01*
X151572614Y-110052098D01*
X151520716Y-110032643D01*
X151444979Y-110004251D01*
X151383776Y-109997602D01*
X150730245Y-109997602D01*
X150076225Y-109997603D01*
X150073566Y-109997892D01*
X150073563Y-109997892D01*
X150021196Y-110003580D01*
X150021194Y-110003580D01*
X150015021Y-110004251D01*
X149955923Y-110026405D01*
X149887386Y-110052098D01*
X149887383Y-110052099D01*
X149880777Y-110054576D01*
X149766055Y-110140556D01*
X149761822Y-110146204D01*
X149757350Y-110152171D01*
X149680075Y-110255278D01*
X149677598Y-110261884D01*
X149677597Y-110261887D01*
X149658720Y-110312244D01*
X149629750Y-110389522D01*
X149623101Y-110450725D01*
X149623101Y-110851901D01*
X149604194Y-110910092D01*
X149554694Y-110946056D01*
X149524101Y-110950901D01*
X149351875Y-110950901D01*
X149293684Y-110931994D01*
X149281871Y-110921905D01*
X148004470Y-109644504D01*
X147976693Y-109589987D01*
X147986264Y-109529555D01*
X148029529Y-109486290D01*
X148074474Y-109475500D01*
X148423650Y-109475499D01*
X148430992Y-109475499D01*
X148479506Y-109471042D01*
X148498360Y-109469310D01*
X148498361Y-109469310D01*
X148503594Y-109468829D01*
X148595631Y-109439986D01*
X148659688Y-109419912D01*
X148659690Y-109419911D01*
X148665383Y-109418127D01*
X148810408Y-109330297D01*
X148929996Y-109210709D01*
X148984513Y-109182932D01*
X149044945Y-109192503D01*
X149070004Y-109210709D01*
X149189592Y-109330297D01*
X149334617Y-109418127D01*
X149340310Y-109419911D01*
X149340312Y-109419912D01*
X149418487Y-109444411D01*
X149496406Y-109468829D01*
X149569007Y-109475500D01*
X149824943Y-109475500D01*
X150080992Y-109475499D01*
X150129506Y-109471042D01*
X150148360Y-109469310D01*
X150148361Y-109469310D01*
X150153594Y-109468829D01*
X150245631Y-109439986D01*
X150309688Y-109419912D01*
X150309690Y-109419911D01*
X150315383Y-109418127D01*
X150460408Y-109330297D01*
X150580297Y-109210408D01*
X150587682Y-109198214D01*
X150633999Y-109158235D01*
X150672362Y-109150500D01*
X153304131Y-109150500D01*
X153362322Y-109169407D01*
X153388316Y-109197405D01*
X153429808Y-109264456D01*
X153429811Y-109264460D01*
X153432834Y-109269345D01*
X153436903Y-109273407D01*
X153552619Y-109388922D01*
X153552623Y-109388925D01*
X153556689Y-109392984D01*
X153586514Y-109411368D01*
X153626127Y-109457995D01*
X153630769Y-109519004D01*
X153598664Y-109571090D01*
X153586661Y-109579828D01*
X153555852Y-109598894D01*
X153546902Y-109605987D01*
X153430153Y-109722939D01*
X153423073Y-109731904D01*
X153336359Y-109872580D01*
X153331531Y-109882934D01*
X153279398Y-110040110D01*
X153277145Y-110050621D01*
X153267259Y-110147112D01*
X153267000Y-110152171D01*
X153267000Y-110180320D01*
X153271122Y-110193005D01*
X153275243Y-110196000D01*
X154655000Y-110196000D01*
X154713191Y-110214907D01*
X154749155Y-110264407D01*
X154754000Y-110295000D01*
X154754000Y-111442319D01*
X154758122Y-111455004D01*
X154762243Y-111457999D01*
X155022792Y-111457999D01*
X155027922Y-111457733D01*
X155125673Y-111447591D01*
X155136200Y-111445318D01*
X155293277Y-111392914D01*
X155303624Y-111388067D01*
X155444145Y-111301109D01*
X155453098Y-111294013D01*
X155569847Y-111177061D01*
X155576927Y-111168096D01*
X155663641Y-111027420D01*
X155668468Y-111017068D01*
X155712267Y-110885019D01*
X155748533Y-110835740D01*
X155806838Y-110817189D01*
X155864912Y-110836451D01*
X155876237Y-110846183D01*
X157707056Y-112677002D01*
X157713331Y-112683899D01*
X157716463Y-112687685D01*
X157719798Y-112692940D01*
X157724335Y-112697200D01*
X157724337Y-112697203D01*
X157771095Y-112741111D01*
X157773329Y-112743275D01*
X157793966Y-112763912D01*
X157796426Y-112765820D01*
X157798379Y-112767335D01*
X157805471Y-112773392D01*
X157831199Y-112797552D01*
X157839607Y-112805448D01*
X157858308Y-112815729D01*
X157859927Y-112816619D01*
X157872911Y-112825148D01*
X157891237Y-112839363D01*
X157920154Y-112851876D01*
X157934218Y-112857962D01*
X157942584Y-112862060D01*
X157983632Y-112884627D01*
X157989664Y-112886176D01*
X157989667Y-112886177D01*
X158006097Y-112890396D01*
X158020790Y-112895426D01*
X158042074Y-112904636D01*
X158088336Y-112911963D01*
X158097447Y-112913850D01*
X158129292Y-112922026D01*
X158136797Y-112923953D01*
X158136798Y-112923953D01*
X158142823Y-112925500D01*
X158166012Y-112925500D01*
X158181499Y-112926719D01*
X158198254Y-112929373D01*
X158198256Y-112929373D01*
X158204405Y-112930347D01*
X158251037Y-112925939D01*
X158260354Y-112925500D01*
X158373831Y-112925500D01*
X158432022Y-112944407D01*
X158454927Y-112967716D01*
X158485174Y-113010913D01*
X158557453Y-113114139D01*
X158718361Y-113275047D01*
X158721899Y-113277524D01*
X158721901Y-113277526D01*
X158895701Y-113399221D01*
X158904766Y-113405568D01*
X159111004Y-113501739D01*
X159184291Y-113521376D01*
X159326631Y-113559516D01*
X159326633Y-113559516D01*
X159330808Y-113560635D01*
X159375295Y-113564527D01*
X159498550Y-113575311D01*
X159498561Y-113575311D01*
X159500716Y-113575500D01*
X160568201Y-113575500D01*
X160626392Y-113594407D01*
X160662356Y-113643907D01*
X160662356Y-113705093D01*
X160638205Y-113744504D01*
X160554741Y-113827968D01*
X160549208Y-113834563D01*
X160422894Y-114014957D01*
X160418582Y-114022427D01*
X160325515Y-114222009D01*
X160322569Y-114230102D01*
X160275476Y-114405855D01*
X160276120Y-114418141D01*
X160285773Y-114421000D01*
X162087820Y-114421000D01*
X162100505Y-114416878D01*
X162103500Y-114412757D01*
X162103500Y-114405320D01*
X162611500Y-114405320D01*
X162615622Y-114418005D01*
X162619743Y-114421000D01*
X164427902Y-114421000D01*
X164439604Y-114417198D01*
X164439867Y-114407136D01*
X164392431Y-114230102D01*
X164389485Y-114222009D01*
X164296418Y-114022427D01*
X164292106Y-114014957D01*
X164165792Y-113834563D01*
X164160259Y-113827968D01*
X164004532Y-113672241D01*
X163997937Y-113666708D01*
X163817543Y-113540394D01*
X163810073Y-113536082D01*
X163610491Y-113443015D01*
X163602398Y-113440069D01*
X163472714Y-113405320D01*
X165199500Y-113405320D01*
X165203622Y-113418005D01*
X165207743Y-113421000D01*
X166237820Y-113421000D01*
X166250505Y-113416878D01*
X166253500Y-113412757D01*
X166253500Y-111604598D01*
X166249698Y-111592896D01*
X166239636Y-111592633D01*
X166062602Y-111640069D01*
X166054509Y-111643015D01*
X165854927Y-111736082D01*
X165847457Y-111740394D01*
X165667063Y-111866708D01*
X165660468Y-111872241D01*
X165504741Y-112027968D01*
X165499208Y-112034563D01*
X165372894Y-112214957D01*
X165368582Y-112222427D01*
X165275515Y-112422009D01*
X165272569Y-112430102D01*
X165215570Y-112642824D01*
X165214074Y-112651312D01*
X165199689Y-112815729D01*
X165199500Y-112820066D01*
X165199500Y-113405320D01*
X163472714Y-113405320D01*
X163389676Y-113383070D01*
X163381188Y-113381574D01*
X163216771Y-113367189D01*
X163212434Y-113367000D01*
X162627180Y-113367000D01*
X162614495Y-113371122D01*
X162611500Y-113375243D01*
X162611500Y-114405320D01*
X162103500Y-114405320D01*
X162103500Y-113382680D01*
X162099378Y-113369994D01*
X162078656Y-113354938D01*
X162042693Y-113305438D01*
X162042694Y-113244252D01*
X162066844Y-113204842D01*
X162157547Y-113114139D01*
X162160027Y-113110598D01*
X162285586Y-112931279D01*
X162285587Y-112931277D01*
X162288068Y-112927734D01*
X162384239Y-112721496D01*
X162429950Y-112550901D01*
X162442016Y-112505869D01*
X162442016Y-112505867D01*
X162443135Y-112501692D01*
X162462968Y-112275000D01*
X162443135Y-112048308D01*
X162440761Y-112039446D01*
X162385357Y-111832677D01*
X162384239Y-111828504D01*
X162288068Y-111622266D01*
X162229952Y-111539267D01*
X162160026Y-111439401D01*
X162160024Y-111439399D01*
X162157547Y-111435861D01*
X161996639Y-111274953D01*
X161896100Y-111204555D01*
X161813779Y-111146914D01*
X161813777Y-111146913D01*
X161810234Y-111144432D01*
X161603996Y-111048261D01*
X161474579Y-111013584D01*
X161388369Y-110990484D01*
X161388367Y-110990484D01*
X161384192Y-110989365D01*
X161339705Y-110985473D01*
X161216450Y-110974689D01*
X161216439Y-110974689D01*
X161214284Y-110974500D01*
X159500716Y-110974500D01*
X159498561Y-110974689D01*
X159498550Y-110974689D01*
X159375295Y-110985473D01*
X159330808Y-110989365D01*
X159326633Y-110990484D01*
X159326631Y-110990484D01*
X159240421Y-111013584D01*
X159111004Y-111048261D01*
X158904766Y-111144432D01*
X158901223Y-111146913D01*
X158901221Y-111146914D01*
X158818901Y-111204555D01*
X158718361Y-111274953D01*
X158557453Y-111435861D01*
X158521488Y-111487225D01*
X158472627Y-111524046D01*
X158411451Y-111525115D01*
X158370390Y-111500444D01*
X155754496Y-108884550D01*
X155726719Y-108830033D01*
X155725500Y-108814546D01*
X155725500Y-108250134D01*
X155725068Y-108245967D01*
X155715201Y-108150873D01*
X155715200Y-108150868D01*
X155714641Y-108145481D01*
X155693029Y-108080700D01*
X155661077Y-107984929D01*
X155661077Y-107984928D01*
X155659256Y-107979471D01*
X155656232Y-107974584D01*
X155656230Y-107974580D01*
X155579711Y-107850928D01*
X155567166Y-107830655D01*
X155560869Y-107824369D01*
X155447381Y-107711078D01*
X155447377Y-107711075D01*
X155443311Y-107707016D01*
X155438419Y-107704000D01*
X155438417Y-107703999D01*
X155299233Y-107618206D01*
X155294334Y-107615186D01*
X155293926Y-107615051D01*
X155250637Y-107574684D01*
X155238961Y-107514623D01*
X155264817Y-107459170D01*
X155318330Y-107429505D01*
X155327904Y-107428126D01*
X155351024Y-107425940D01*
X155360343Y-107425500D01*
X158373831Y-107425500D01*
X158432022Y-107444407D01*
X158454927Y-107467716D01*
X158489622Y-107517265D01*
X158557453Y-107614139D01*
X158718361Y-107775047D01*
X158721899Y-107777524D01*
X158721901Y-107777526D01*
X158897775Y-107900673D01*
X158904766Y-107905568D01*
X159111004Y-108001739D01*
X159162208Y-108015459D01*
X159326631Y-108059516D01*
X159326633Y-108059516D01*
X159330808Y-108060635D01*
X159375295Y-108064527D01*
X159498550Y-108075311D01*
X159498561Y-108075311D01*
X159500716Y-108075500D01*
X161214284Y-108075500D01*
X161216439Y-108075311D01*
X161216450Y-108075311D01*
X161339705Y-108064527D01*
X161384192Y-108060635D01*
X161388367Y-108059516D01*
X161388369Y-108059516D01*
X161552792Y-108015459D01*
X161603996Y-108001739D01*
X161810234Y-107905568D01*
X161817225Y-107900673D01*
X161993099Y-107777526D01*
X161993101Y-107777524D01*
X161996639Y-107775047D01*
X162157547Y-107614139D01*
X162160027Y-107610598D01*
X162285586Y-107431279D01*
X162285587Y-107431277D01*
X162288068Y-107427734D01*
X162384239Y-107221496D01*
X162443135Y-107001692D01*
X162462968Y-106775000D01*
X162443135Y-106548308D01*
X162439741Y-106535639D01*
X162385357Y-106332677D01*
X162384239Y-106328504D01*
X162288068Y-106122266D01*
X162285586Y-106118721D01*
X162160026Y-105939401D01*
X162160024Y-105939399D01*
X162157547Y-105935861D01*
X161996639Y-105774953D01*
X161950983Y-105742984D01*
X161813779Y-105646914D01*
X161813777Y-105646913D01*
X161810234Y-105644432D01*
X161779143Y-105629934D01*
X165199500Y-105629934D01*
X165199689Y-105634271D01*
X165214074Y-105798688D01*
X165215570Y-105807176D01*
X165272569Y-106019898D01*
X165275515Y-106027991D01*
X165368582Y-106227573D01*
X165372894Y-106235043D01*
X165499208Y-106415437D01*
X165504741Y-106422032D01*
X165660468Y-106577759D01*
X165667063Y-106583292D01*
X165847457Y-106709606D01*
X165854927Y-106713918D01*
X166054509Y-106806985D01*
X166062602Y-106809931D01*
X166238355Y-106857024D01*
X166250641Y-106856380D01*
X166253500Y-106846727D01*
X166253500Y-105044680D01*
X166249378Y-105031995D01*
X166245257Y-105029000D01*
X165215180Y-105029000D01*
X165202495Y-105033122D01*
X165199500Y-105037243D01*
X165199500Y-105629934D01*
X161779143Y-105629934D01*
X161603996Y-105548261D01*
X161507574Y-105522425D01*
X161388369Y-105490484D01*
X161388367Y-105490484D01*
X161384192Y-105489365D01*
X161339705Y-105485473D01*
X161216450Y-105474689D01*
X161216439Y-105474689D01*
X161214284Y-105474500D01*
X159500716Y-105474500D01*
X159498561Y-105474689D01*
X159498550Y-105474689D01*
X159335113Y-105488988D01*
X159335109Y-105488989D01*
X159330808Y-105489365D01*
X159330555Y-105489433D01*
X159271099Y-105481076D01*
X159227087Y-105438572D01*
X159215500Y-105392096D01*
X159215500Y-105044680D01*
X159211378Y-105031995D01*
X159207257Y-105029000D01*
X156615180Y-105029000D01*
X156602495Y-105033122D01*
X156599500Y-105037243D01*
X156599500Y-105629934D01*
X156599689Y-105634271D01*
X156614074Y-105798688D01*
X156615570Y-105807176D01*
X156667204Y-105999877D01*
X156664001Y-106060979D01*
X156625496Y-106108528D01*
X156571577Y-106124500D01*
X155824500Y-106124500D01*
X155766309Y-106105593D01*
X155730345Y-106056093D01*
X155725500Y-106025500D01*
X155725500Y-105650134D01*
X155725166Y-105646914D01*
X155715201Y-105550873D01*
X155715200Y-105550868D01*
X155714641Y-105545481D01*
X155709707Y-105530690D01*
X155661077Y-105384929D01*
X155661077Y-105384928D01*
X155659256Y-105379471D01*
X155656232Y-105374584D01*
X155656230Y-105374580D01*
X155603369Y-105289158D01*
X155567166Y-105230655D01*
X155525218Y-105188780D01*
X155447381Y-105111078D01*
X155447377Y-105111075D01*
X155443311Y-105107016D01*
X155413486Y-105088632D01*
X155373873Y-105042005D01*
X155369231Y-104980996D01*
X155401336Y-104928910D01*
X155413339Y-104920172D01*
X155444148Y-104901106D01*
X155453098Y-104894013D01*
X155569847Y-104777061D01*
X155576927Y-104768096D01*
X155663641Y-104627420D01*
X155668469Y-104617066D01*
X155705534Y-104505320D01*
X156599500Y-104505320D01*
X156603622Y-104518005D01*
X156607743Y-104521000D01*
X157637820Y-104521000D01*
X157650505Y-104516878D01*
X157653500Y-104512757D01*
X157653500Y-104505320D01*
X158161500Y-104505320D01*
X158165622Y-104518005D01*
X158169743Y-104521000D01*
X159199820Y-104521000D01*
X159212505Y-104516878D01*
X159215500Y-104512757D01*
X159215500Y-104505320D01*
X165199500Y-104505320D01*
X165203622Y-104518005D01*
X165207743Y-104521000D01*
X166237820Y-104521000D01*
X166250505Y-104516878D01*
X166253500Y-104512757D01*
X166253500Y-102704598D01*
X166249698Y-102692896D01*
X166239636Y-102692633D01*
X166062602Y-102740069D01*
X166054509Y-102743015D01*
X165854927Y-102836082D01*
X165847457Y-102840394D01*
X165667063Y-102966708D01*
X165660468Y-102972241D01*
X165504741Y-103127968D01*
X165499208Y-103134563D01*
X165372894Y-103314957D01*
X165368582Y-103322427D01*
X165275515Y-103522009D01*
X165272569Y-103530102D01*
X165215570Y-103742824D01*
X165214074Y-103751312D01*
X165199689Y-103915729D01*
X165199500Y-103920066D01*
X165199500Y-104505320D01*
X159215500Y-104505320D01*
X159215500Y-103920066D01*
X159215311Y-103915729D01*
X159200926Y-103751312D01*
X159199430Y-103742824D01*
X159142431Y-103530102D01*
X159139485Y-103522009D01*
X159046418Y-103322427D01*
X159042106Y-103314957D01*
X158915792Y-103134563D01*
X158910259Y-103127968D01*
X158754532Y-102972241D01*
X158747937Y-102966708D01*
X158567543Y-102840394D01*
X158560073Y-102836082D01*
X158360491Y-102743015D01*
X158352398Y-102740069D01*
X158176645Y-102692976D01*
X158164359Y-102693620D01*
X158161500Y-102703273D01*
X158161500Y-104505320D01*
X157653500Y-104505320D01*
X157653500Y-102704598D01*
X157649698Y-102692896D01*
X157639636Y-102692633D01*
X157462602Y-102740069D01*
X157454509Y-102743015D01*
X157254927Y-102836082D01*
X157247457Y-102840394D01*
X157067063Y-102966708D01*
X157060468Y-102972241D01*
X156904741Y-103127968D01*
X156899208Y-103134563D01*
X156772894Y-103314957D01*
X156768582Y-103322427D01*
X156675515Y-103522009D01*
X156672569Y-103530102D01*
X156615570Y-103742824D01*
X156614074Y-103751312D01*
X156599689Y-103915729D01*
X156599500Y-103920066D01*
X156599500Y-104505320D01*
X155705534Y-104505320D01*
X155720602Y-104459890D01*
X155722855Y-104449379D01*
X155732741Y-104352888D01*
X155733000Y-104347830D01*
X155733000Y-104319680D01*
X155728878Y-104306995D01*
X155724757Y-104304000D01*
X153282681Y-104304000D01*
X153269996Y-104308122D01*
X153267001Y-104312243D01*
X153267001Y-104347792D01*
X153267267Y-104352922D01*
X153277409Y-104450673D01*
X153279682Y-104461200D01*
X153332086Y-104618277D01*
X153336933Y-104628624D01*
X153423891Y-104769145D01*
X153430987Y-104778098D01*
X153547939Y-104894847D01*
X153556901Y-104901925D01*
X153586519Y-104920181D01*
X153626134Y-104966810D01*
X153630776Y-105027819D01*
X153598671Y-105079905D01*
X153586672Y-105088640D01*
X153555655Y-105107834D01*
X153551593Y-105111903D01*
X153436078Y-105227619D01*
X153436075Y-105227623D01*
X153432016Y-105231689D01*
X153429000Y-105236581D01*
X153428999Y-105236583D01*
X153419220Y-105252448D01*
X153372590Y-105292063D01*
X153334944Y-105299500D01*
X150656993Y-105299500D01*
X150598802Y-105280593D01*
X150562838Y-105231093D01*
X150558772Y-105200363D01*
X150558000Y-105200363D01*
X150558000Y-104769680D01*
X150553878Y-104756995D01*
X150549757Y-104754000D01*
X148407681Y-104754000D01*
X148394996Y-104758122D01*
X148392001Y-104762243D01*
X148392001Y-105197792D01*
X148392267Y-105202922D01*
X148402409Y-105300673D01*
X148404682Y-105311200D01*
X148432362Y-105394169D01*
X148432842Y-105455353D01*
X148397268Y-105505133D01*
X148338450Y-105524500D01*
X147931224Y-105524501D01*
X147919008Y-105524501D01*
X147879472Y-105528133D01*
X147851640Y-105530690D01*
X147851639Y-105530690D01*
X147846406Y-105531171D01*
X147754369Y-105560014D01*
X147690312Y-105580088D01*
X147690310Y-105580089D01*
X147684617Y-105581873D01*
X147679512Y-105584964D01*
X147674072Y-105587421D01*
X147673471Y-105586090D01*
X147620734Y-105598463D01*
X147564328Y-105574758D01*
X147532628Y-105522425D01*
X147535044Y-105468643D01*
X147588209Y-105308359D01*
X147588211Y-105308351D01*
X147589910Y-105303228D01*
X147600500Y-105199866D01*
X147600500Y-104230320D01*
X148392000Y-104230320D01*
X148396122Y-104243005D01*
X148400243Y-104246000D01*
X149205320Y-104246000D01*
X149218005Y-104241878D01*
X149221000Y-104237757D01*
X149221000Y-104230320D01*
X149729000Y-104230320D01*
X149733122Y-104243005D01*
X149737243Y-104246000D01*
X150542319Y-104246000D01*
X150555004Y-104241878D01*
X150557999Y-104237757D01*
X150557999Y-103802208D01*
X150557733Y-103797078D01*
X150555994Y-103780320D01*
X153267000Y-103780320D01*
X153271122Y-103793005D01*
X153275243Y-103796000D01*
X154230320Y-103796000D01*
X154243005Y-103791878D01*
X154246000Y-103787757D01*
X154246000Y-103780320D01*
X154754000Y-103780320D01*
X154758122Y-103793005D01*
X154762243Y-103796000D01*
X155717319Y-103796000D01*
X155730004Y-103791878D01*
X155732999Y-103787757D01*
X155732999Y-103752208D01*
X155732733Y-103747078D01*
X155722591Y-103649327D01*
X155720318Y-103638800D01*
X155667914Y-103481723D01*
X155663067Y-103471376D01*
X155576109Y-103330855D01*
X155569013Y-103321902D01*
X155452061Y-103205153D01*
X155443096Y-103198073D01*
X155302420Y-103111359D01*
X155292066Y-103106531D01*
X155134890Y-103054398D01*
X155124379Y-103052145D01*
X155027888Y-103042259D01*
X155022830Y-103042000D01*
X154769680Y-103042000D01*
X154756995Y-103046122D01*
X154754000Y-103050243D01*
X154754000Y-103780320D01*
X154246000Y-103780320D01*
X154246000Y-103057681D01*
X154241878Y-103044996D01*
X154237757Y-103042001D01*
X153977208Y-103042001D01*
X153972078Y-103042267D01*
X153874327Y-103052409D01*
X153863800Y-103054682D01*
X153706723Y-103107086D01*
X153696376Y-103111933D01*
X153555855Y-103198891D01*
X153546902Y-103205987D01*
X153430153Y-103322939D01*
X153423073Y-103331904D01*
X153336359Y-103472580D01*
X153331531Y-103482934D01*
X153279398Y-103640110D01*
X153277145Y-103650621D01*
X153267259Y-103747112D01*
X153267000Y-103752171D01*
X153267000Y-103780320D01*
X150555994Y-103780320D01*
X150547591Y-103699327D01*
X150545318Y-103688800D01*
X150492914Y-103531723D01*
X150488067Y-103521376D01*
X150401109Y-103380855D01*
X150394013Y-103371902D01*
X150277061Y-103255153D01*
X150268096Y-103248073D01*
X150127420Y-103161359D01*
X150117066Y-103156531D01*
X149959890Y-103104398D01*
X149949379Y-103102145D01*
X149852888Y-103092259D01*
X149847830Y-103092000D01*
X149744680Y-103092000D01*
X149731995Y-103096122D01*
X149729000Y-103100243D01*
X149729000Y-104230320D01*
X149221000Y-104230320D01*
X149221000Y-103117080D01*
X149239907Y-103058889D01*
X149249936Y-103047137D01*
X149344847Y-102952061D01*
X149351927Y-102943096D01*
X149438641Y-102802420D01*
X149443469Y-102792066D01*
X149495602Y-102634890D01*
X149497855Y-102624379D01*
X149507741Y-102527888D01*
X149508000Y-102522830D01*
X149508000Y-102269680D01*
X149503878Y-102256995D01*
X149499757Y-102254000D01*
X148769680Y-102254000D01*
X148756995Y-102258122D01*
X148754000Y-102262243D01*
X148754000Y-103174000D01*
X148735093Y-103232191D01*
X148685593Y-103268155D01*
X148685433Y-103268180D01*
X148647392Y-103280540D01*
X148555153Y-103372939D01*
X148548073Y-103381904D01*
X148461359Y-103522580D01*
X148456531Y-103532934D01*
X148404398Y-103690110D01*
X148402145Y-103700621D01*
X148392259Y-103797112D01*
X148392000Y-103802171D01*
X148392000Y-104230320D01*
X147600500Y-104230320D01*
X147600500Y-103800134D01*
X147600235Y-103797576D01*
X147590201Y-103700873D01*
X147590200Y-103700868D01*
X147589641Y-103695481D01*
X147587066Y-103687761D01*
X147536077Y-103534929D01*
X147536077Y-103534928D01*
X147534256Y-103529471D01*
X147531232Y-103524584D01*
X147531230Y-103524580D01*
X147445191Y-103385544D01*
X147442166Y-103380655D01*
X147379556Y-103318155D01*
X147351732Y-103263663D01*
X147350500Y-103248091D01*
X147350500Y-103076913D01*
X147369407Y-103018722D01*
X147379435Y-103006971D01*
X147395833Y-102990545D01*
X147442984Y-102943311D01*
X147461368Y-102913486D01*
X147507995Y-102873873D01*
X147569004Y-102869231D01*
X147621090Y-102901336D01*
X147629828Y-102913339D01*
X147648894Y-102944148D01*
X147655987Y-102953098D01*
X147772939Y-103069847D01*
X147781904Y-103076927D01*
X147922580Y-103163641D01*
X147932934Y-103168469D01*
X148090110Y-103220602D01*
X148100621Y-103222855D01*
X148197112Y-103232741D01*
X148202170Y-103233000D01*
X148230320Y-103233000D01*
X148243005Y-103228878D01*
X148246000Y-103224757D01*
X148246000Y-101730320D01*
X148754000Y-101730320D01*
X148758122Y-101743005D01*
X148762243Y-101746000D01*
X149492319Y-101746000D01*
X149505004Y-101741878D01*
X149507999Y-101737757D01*
X149507999Y-101477208D01*
X149507733Y-101472078D01*
X149497591Y-101374327D01*
X149495318Y-101363800D01*
X149442914Y-101206723D01*
X149438067Y-101196376D01*
X149351109Y-101055855D01*
X149344013Y-101046902D01*
X149227061Y-100930153D01*
X149218096Y-100923073D01*
X149077420Y-100836359D01*
X149067066Y-100831531D01*
X148909890Y-100779398D01*
X148899379Y-100777145D01*
X148802888Y-100767259D01*
X148797830Y-100767000D01*
X148769680Y-100767000D01*
X148756995Y-100771122D01*
X148754000Y-100775243D01*
X148754000Y-101730320D01*
X148246000Y-101730320D01*
X148246000Y-100782681D01*
X148241878Y-100769996D01*
X148237757Y-100767001D01*
X148202208Y-100767001D01*
X148197078Y-100767267D01*
X148099327Y-100777409D01*
X148088800Y-100779682D01*
X147931723Y-100832086D01*
X147916170Y-100839372D01*
X147915646Y-100838253D01*
X147862167Y-100851341D01*
X147805537Y-100828176D01*
X147773338Y-100776148D01*
X147770500Y-100752613D01*
X147770500Y-99907624D01*
X147783763Y-99858125D01*
X147798656Y-99832329D01*
X147798658Y-99832325D01*
X147801250Y-99827835D01*
X147815438Y-99784169D01*
X147854895Y-99662735D01*
X147854896Y-99662730D01*
X147856497Y-99657803D01*
X147875185Y-99480000D01*
X147856497Y-99302197D01*
X147854896Y-99297270D01*
X147854895Y-99297265D01*
X147802852Y-99137095D01*
X147802851Y-99137094D01*
X147801250Y-99132165D01*
X147798658Y-99127675D01*
X147798656Y-99127671D01*
X147783763Y-99101875D01*
X147770500Y-99052376D01*
X147770500Y-98116913D01*
X147789407Y-98058722D01*
X147799435Y-98046971D01*
X147858922Y-97987380D01*
X147862984Y-97983311D01*
X147881368Y-97953486D01*
X147927995Y-97913873D01*
X147989004Y-97909231D01*
X148041090Y-97941336D01*
X148049828Y-97953339D01*
X148068894Y-97984148D01*
X148075987Y-97993098D01*
X148192939Y-98109847D01*
X148201904Y-98116927D01*
X148342580Y-98203641D01*
X148352934Y-98208469D01*
X148510110Y-98260602D01*
X148520621Y-98262855D01*
X148617112Y-98272741D01*
X148622170Y-98273000D01*
X148650320Y-98273000D01*
X148663005Y-98268878D01*
X148666000Y-98264757D01*
X148666000Y-98257319D01*
X149174000Y-98257319D01*
X149178122Y-98270004D01*
X149182243Y-98272999D01*
X149217792Y-98272999D01*
X149222922Y-98272733D01*
X149320673Y-98262591D01*
X149331200Y-98260318D01*
X149488277Y-98207914D01*
X149498624Y-98203067D01*
X149639145Y-98116109D01*
X149648098Y-98109013D01*
X149764847Y-97992061D01*
X149771927Y-97983096D01*
X149858641Y-97842420D01*
X149863469Y-97832066D01*
X149915602Y-97674890D01*
X149917855Y-97664379D01*
X149927741Y-97567888D01*
X149928000Y-97562830D01*
X149928000Y-97309680D01*
X149923878Y-97296995D01*
X149919757Y-97294000D01*
X149189680Y-97294000D01*
X149176995Y-97298122D01*
X149174000Y-97302243D01*
X149174000Y-98257319D01*
X148666000Y-98257319D01*
X148666000Y-96770320D01*
X149174000Y-96770320D01*
X149178122Y-96783005D01*
X149182243Y-96786000D01*
X149912319Y-96786000D01*
X149925004Y-96781878D01*
X149927999Y-96777757D01*
X149927999Y-96517208D01*
X149927733Y-96512078D01*
X149917591Y-96414327D01*
X149915318Y-96403800D01*
X149862914Y-96246723D01*
X149858067Y-96236376D01*
X149771109Y-96095855D01*
X149764013Y-96086902D01*
X149647061Y-95970153D01*
X149638096Y-95963073D01*
X149497420Y-95876359D01*
X149487066Y-95871531D01*
X149329890Y-95819398D01*
X149319379Y-95817145D01*
X149222888Y-95807259D01*
X149217830Y-95807000D01*
X149189680Y-95807000D01*
X149176995Y-95811122D01*
X149174000Y-95815243D01*
X149174000Y-96770320D01*
X148666000Y-96770320D01*
X148666000Y-95822681D01*
X148661878Y-95809996D01*
X148657757Y-95807001D01*
X148622208Y-95807001D01*
X148617078Y-95807267D01*
X148519327Y-95817409D01*
X148508800Y-95819682D01*
X148351723Y-95872086D01*
X148341376Y-95876933D01*
X148200855Y-95963891D01*
X148191902Y-95970987D01*
X148075153Y-96087939D01*
X148068075Y-96096901D01*
X148049819Y-96126519D01*
X148003190Y-96166134D01*
X147942181Y-96170776D01*
X147890095Y-96138671D01*
X147881357Y-96126668D01*
X147881265Y-96126519D01*
X147862166Y-96095655D01*
X147853398Y-96086902D01*
X147742381Y-95976078D01*
X147742377Y-95976075D01*
X147738311Y-95972016D01*
X147733419Y-95969000D01*
X147733417Y-95968999D01*
X147627309Y-95903594D01*
X147589334Y-95880186D01*
X147583880Y-95878377D01*
X147583878Y-95878376D01*
X147463461Y-95838435D01*
X147423228Y-95825090D01*
X147319866Y-95814500D01*
X147199500Y-95814500D01*
X147141309Y-95795593D01*
X147105345Y-95746093D01*
X147100500Y-95715500D01*
X147100500Y-95649499D01*
X147119407Y-95591308D01*
X147168907Y-95555344D01*
X147199500Y-95550499D01*
X147397376Y-95550499D01*
X147400035Y-95550210D01*
X147400038Y-95550210D01*
X147452405Y-95544522D01*
X147452407Y-95544522D01*
X147458580Y-95543851D01*
X147523679Y-95519447D01*
X147586215Y-95496004D01*
X147586218Y-95496003D01*
X147592824Y-95493526D01*
X147707546Y-95407546D01*
X147793526Y-95292824D01*
X147843851Y-95158580D01*
X147850500Y-95097377D01*
X147850499Y-93945411D01*
X151142001Y-93945411D01*
X151142290Y-93950751D01*
X151148078Y-94004035D01*
X151150927Y-94016020D01*
X151197351Y-94139855D01*
X151204059Y-94152108D01*
X151282863Y-94257256D01*
X151292744Y-94267137D01*
X151397892Y-94345941D01*
X151410145Y-94352649D01*
X151533978Y-94399072D01*
X151545967Y-94401923D01*
X151599252Y-94407711D01*
X151604586Y-94408000D01*
X152380320Y-94408000D01*
X152393005Y-94403878D01*
X152396000Y-94399757D01*
X152396000Y-94392319D01*
X152904000Y-94392319D01*
X152908122Y-94405004D01*
X152912243Y-94407999D01*
X153695411Y-94407999D01*
X153700751Y-94407710D01*
X153754035Y-94401922D01*
X153766020Y-94399073D01*
X153889855Y-94352649D01*
X153902108Y-94345941D01*
X154007256Y-94267137D01*
X154017137Y-94257256D01*
X154095941Y-94152108D01*
X154102649Y-94139855D01*
X154149072Y-94016022D01*
X154151923Y-94004033D01*
X154157711Y-93950748D01*
X154158000Y-93945414D01*
X154158000Y-92269680D01*
X154153878Y-92256995D01*
X154149757Y-92254000D01*
X152919680Y-92254000D01*
X152906995Y-92258122D01*
X152904000Y-92262243D01*
X152904000Y-94392319D01*
X152396000Y-94392319D01*
X152396000Y-92269680D01*
X152391878Y-92256995D01*
X152387757Y-92254000D01*
X151157681Y-92254000D01*
X151144996Y-92258122D01*
X151142001Y-92262243D01*
X151142001Y-93945411D01*
X147850499Y-93945411D01*
X147850499Y-93502624D01*
X147849470Y-93493151D01*
X147844522Y-93447595D01*
X147844522Y-93447593D01*
X147843851Y-93441420D01*
X147812146Y-93356846D01*
X147796004Y-93313785D01*
X147796003Y-93313782D01*
X147793526Y-93307176D01*
X147724913Y-93215626D01*
X147705144Y-93157723D01*
X147724912Y-93096882D01*
X147795941Y-93002108D01*
X147802649Y-92989855D01*
X147849072Y-92866022D01*
X147851923Y-92854033D01*
X147857711Y-92800748D01*
X147858000Y-92795414D01*
X147858000Y-92269680D01*
X147853878Y-92256995D01*
X147849757Y-92254000D01*
X144857681Y-92254000D01*
X144844996Y-92258122D01*
X144842001Y-92262243D01*
X144842001Y-92682837D01*
X144823094Y-92741028D01*
X144773594Y-92776992D01*
X144722840Y-92779762D01*
X144667374Y-92768225D01*
X144664004Y-92767463D01*
X144597674Y-92751232D01*
X144597671Y-92751232D01*
X144593394Y-92750185D01*
X144588996Y-92749912D01*
X144588995Y-92749912D01*
X144582352Y-92749500D01*
X144582367Y-92749261D01*
X144578550Y-92748815D01*
X144578528Y-92749065D01*
X144572803Y-92748554D01*
X144567169Y-92747382D01*
X144561419Y-92747538D01*
X144556484Y-92747097D01*
X144500205Y-92723090D01*
X144468785Y-92670588D01*
X144466866Y-92659178D01*
X144464522Y-92637596D01*
X144464522Y-92637595D01*
X144463851Y-92631420D01*
X144413526Y-92497176D01*
X144327546Y-92382454D01*
X144212824Y-92296474D01*
X144206218Y-92293997D01*
X144206215Y-92293996D01*
X144121511Y-92262243D01*
X144078580Y-92246149D01*
X144017377Y-92239500D01*
X142720485Y-92239500D01*
X141422624Y-92239501D01*
X141419965Y-92239790D01*
X141419962Y-92239790D01*
X141367595Y-92245478D01*
X141367593Y-92245478D01*
X141361420Y-92246149D01*
X141332488Y-92256995D01*
X141233785Y-92293996D01*
X141233782Y-92293997D01*
X141227176Y-92296474D01*
X141112454Y-92382454D01*
X141053905Y-92460575D01*
X141003879Y-92495798D01*
X140942701Y-92494890D01*
X140895467Y-92460573D01*
X140837138Y-92382745D01*
X140827256Y-92372863D01*
X140722108Y-92294059D01*
X140709855Y-92287351D01*
X140586022Y-92240928D01*
X140574033Y-92238077D01*
X140520748Y-92232289D01*
X140515414Y-92232000D01*
X139489680Y-92232000D01*
X139476995Y-92236122D01*
X139474000Y-92240243D01*
X139474000Y-94832319D01*
X139478122Y-94845004D01*
X139482243Y-94847999D01*
X140515411Y-94847999D01*
X140520751Y-94847710D01*
X140574035Y-94841922D01*
X140586020Y-94839073D01*
X140709855Y-94792649D01*
X140722108Y-94785941D01*
X140827256Y-94707137D01*
X140837138Y-94697255D01*
X140895467Y-94619427D01*
X140945495Y-94584202D01*
X141006673Y-94585110D01*
X141053905Y-94619425D01*
X141112454Y-94697546D01*
X141227176Y-94783526D01*
X141233782Y-94786003D01*
X141233785Y-94786004D01*
X141285683Y-94805459D01*
X141361420Y-94833851D01*
X141422623Y-94840500D01*
X142719515Y-94840500D01*
X144017376Y-94840499D01*
X144020035Y-94840210D01*
X144020038Y-94840210D01*
X144072405Y-94834522D01*
X144072407Y-94834522D01*
X144078580Y-94833851D01*
X144140360Y-94810691D01*
X144206215Y-94786004D01*
X144206218Y-94786003D01*
X144212824Y-94783526D01*
X144327546Y-94697546D01*
X144391282Y-94612504D01*
X144441310Y-94577279D01*
X144502489Y-94578187D01*
X144540505Y-94601872D01*
X144723779Y-94785147D01*
X144733500Y-94796459D01*
X144747383Y-94815324D01*
X144776676Y-94840210D01*
X144788005Y-94849835D01*
X144793911Y-94855279D01*
X144800303Y-94861671D01*
X144811929Y-94870869D01*
X144845831Y-94921803D01*
X144849501Y-94948507D01*
X144849501Y-95097376D01*
X144856149Y-95158580D01*
X144906474Y-95292824D01*
X144992454Y-95407546D01*
X145107176Y-95493526D01*
X145113782Y-95496003D01*
X145113785Y-95496004D01*
X145165683Y-95515459D01*
X145241420Y-95543851D01*
X145302623Y-95550500D01*
X145500500Y-95550500D01*
X145558691Y-95569407D01*
X145594655Y-95618907D01*
X145599500Y-95649500D01*
X145599500Y-95925500D01*
X145580593Y-95983691D01*
X145531093Y-96019655D01*
X145500500Y-96024500D01*
X145029735Y-96024501D01*
X145001794Y-96024501D01*
X144900628Y-96034997D01*
X144895488Y-96036712D01*
X144895487Y-96036712D01*
X144751571Y-96084726D01*
X144740148Y-96088537D01*
X144735261Y-96091561D01*
X144735257Y-96091563D01*
X144601178Y-96174534D01*
X144601175Y-96174537D01*
X144596289Y-96177560D01*
X144592227Y-96181629D01*
X144575306Y-96198580D01*
X144520814Y-96226405D01*
X144460374Y-96216887D01*
X144435298Y-96198702D01*
X144411461Y-96174906D01*
X144402496Y-96167826D01*
X144266782Y-96084170D01*
X144256432Y-96079344D01*
X144104783Y-96029044D01*
X144094277Y-96026792D01*
X144001229Y-96017259D01*
X143996171Y-96017000D01*
X143994680Y-96017000D01*
X143981995Y-96021122D01*
X143979000Y-96025243D01*
X143979000Y-97967320D01*
X143983122Y-97980005D01*
X143987243Y-97983000D01*
X143996135Y-97983000D01*
X144001262Y-97982735D01*
X144095525Y-97972953D01*
X144106054Y-97970680D01*
X144257600Y-97920121D01*
X144267947Y-97915274D01*
X144403515Y-97831381D01*
X144412463Y-97824290D01*
X144435301Y-97801412D01*
X144489794Y-97773586D01*
X144550234Y-97783105D01*
X144575307Y-97801288D01*
X144590513Y-97816467D01*
X144597289Y-97823231D01*
X144741303Y-97912003D01*
X144901876Y-97965263D01*
X145001793Y-97975500D01*
X145272965Y-97975500D01*
X145548206Y-97975499D01*
X145649372Y-97965003D01*
X145796763Y-97915830D01*
X145804394Y-97913284D01*
X145804395Y-97913284D01*
X145809852Y-97911463D01*
X145814739Y-97908439D01*
X145814743Y-97908437D01*
X145948817Y-97825469D01*
X145948820Y-97825467D01*
X145953711Y-97822440D01*
X145954206Y-97823240D01*
X146006698Y-97803718D01*
X146065629Y-97820171D01*
X146095030Y-97850536D01*
X146174808Y-97979456D01*
X146174811Y-97979459D01*
X146177834Y-97984345D01*
X146240444Y-98046845D01*
X146268268Y-98101337D01*
X146269500Y-98116909D01*
X146269500Y-99052376D01*
X146256237Y-99101875D01*
X146241344Y-99127671D01*
X146241342Y-99127675D01*
X146238750Y-99132165D01*
X146237149Y-99137094D01*
X146237148Y-99137095D01*
X146185105Y-99297265D01*
X146185104Y-99297270D01*
X146183503Y-99302197D01*
X146164815Y-99480000D01*
X146183503Y-99657803D01*
X146185104Y-99662730D01*
X146185105Y-99662735D01*
X146224562Y-99784169D01*
X146238750Y-99827835D01*
X146241342Y-99832325D01*
X146241344Y-99832329D01*
X146256237Y-99858125D01*
X146269500Y-99907624D01*
X146269500Y-100690077D01*
X146250593Y-100748268D01*
X146201093Y-100784232D01*
X146197808Y-100785118D01*
X146195481Y-100785359D01*
X146174215Y-100792454D01*
X146042615Y-100836359D01*
X146029471Y-100840744D01*
X146024584Y-100843768D01*
X146024580Y-100843770D01*
X146012346Y-100851341D01*
X145880655Y-100932834D01*
X145876593Y-100936903D01*
X145761078Y-101052619D01*
X145761075Y-101052623D01*
X145757016Y-101056689D01*
X145665186Y-101205666D01*
X145663377Y-101211120D01*
X145663376Y-101211122D01*
X145647787Y-101258122D01*
X145610090Y-101371772D01*
X145599500Y-101475134D01*
X145599500Y-102169430D01*
X145580593Y-102227621D01*
X145531093Y-102263585D01*
X145469907Y-102263585D01*
X145433638Y-102241359D01*
X145433630Y-102241370D01*
X145433530Y-102241293D01*
X145430496Y-102239434D01*
X145428481Y-102237419D01*
X145311772Y-102147864D01*
X145300625Y-102141428D01*
X145164714Y-102085133D01*
X145152289Y-102081803D01*
X145043060Y-102067423D01*
X145036606Y-102067000D01*
X144578180Y-102067000D01*
X144565495Y-102071122D01*
X144562500Y-102075243D01*
X144562500Y-104575500D01*
X144543593Y-104633691D01*
X144494093Y-104669655D01*
X144463500Y-104674500D01*
X144344718Y-104674501D01*
X144261499Y-104674501D01*
X144203310Y-104655594D01*
X144167346Y-104606094D01*
X144162500Y-104575501D01*
X144162500Y-103640680D01*
X144158378Y-103627995D01*
X144154257Y-103625000D01*
X143140600Y-103625000D01*
X143127915Y-103629122D01*
X143126859Y-103630574D01*
X143126364Y-103635967D01*
X143131803Y-103677285D01*
X143135357Y-103690550D01*
X143132154Y-103751652D01*
X143093648Y-103799201D01*
X143034547Y-103815036D01*
X142977426Y-103793109D01*
X142969726Y-103786176D01*
X142354496Y-103170946D01*
X142326719Y-103116429D01*
X142325500Y-103100942D01*
X142325500Y-102985967D01*
X143126364Y-102985967D01*
X143131803Y-103027285D01*
X143135134Y-103039719D01*
X143144411Y-103062115D01*
X143149211Y-103123112D01*
X143144411Y-103137885D01*
X143135133Y-103160285D01*
X143131804Y-103172709D01*
X143126966Y-103209455D01*
X143129396Y-103222569D01*
X143130699Y-103223805D01*
X143135980Y-103225000D01*
X144146820Y-103225000D01*
X144159505Y-103220878D01*
X144162500Y-103216757D01*
X144162500Y-102990680D01*
X144158378Y-102977995D01*
X144154257Y-102975000D01*
X143140600Y-102975000D01*
X143127915Y-102979122D01*
X143126859Y-102980574D01*
X143126364Y-102985967D01*
X142325500Y-102985967D01*
X142325500Y-102559455D01*
X143126966Y-102559455D01*
X143129396Y-102572569D01*
X143130699Y-102573805D01*
X143135980Y-102575000D01*
X144146820Y-102575000D01*
X144159505Y-102570878D01*
X144162500Y-102566757D01*
X144162500Y-102082681D01*
X144158378Y-102069996D01*
X144154257Y-102067001D01*
X143938620Y-102067001D01*
X143880429Y-102048094D01*
X143844465Y-101998594D01*
X143844465Y-101937408D01*
X143880429Y-101887908D01*
X143887335Y-101883320D01*
X143959966Y-101839333D01*
X143969288Y-101832024D01*
X144082024Y-101719288D01*
X144089333Y-101709965D01*
X144171921Y-101573597D01*
X144176798Y-101562797D01*
X144224687Y-101409979D01*
X144226737Y-101399743D01*
X144232793Y-101333837D01*
X144233000Y-101329328D01*
X144233000Y-101269680D01*
X144228878Y-101256995D01*
X144224757Y-101254000D01*
X143594680Y-101254000D01*
X143581995Y-101258122D01*
X143579000Y-101262243D01*
X143579000Y-101967319D01*
X143582240Y-101977291D01*
X143582239Y-102038477D01*
X143546275Y-102087976D01*
X143525970Y-102099347D01*
X143424375Y-102141428D01*
X143413228Y-102147864D01*
X143296519Y-102237419D01*
X143287419Y-102246519D01*
X143197864Y-102363228D01*
X143191428Y-102374375D01*
X143135133Y-102510285D01*
X143131803Y-102522712D01*
X143126966Y-102559455D01*
X142325500Y-102559455D01*
X142325500Y-101856213D01*
X142344407Y-101798022D01*
X142354497Y-101786209D01*
X142424694Y-101716013D01*
X142479211Y-101688236D01*
X142539643Y-101697808D01*
X142564701Y-101716013D01*
X142680712Y-101832024D01*
X142690035Y-101839333D01*
X142826403Y-101921921D01*
X142837203Y-101926798D01*
X142990021Y-101974687D01*
X143000257Y-101976737D01*
X143058206Y-101982062D01*
X143068005Y-101978878D01*
X143071000Y-101974757D01*
X143071000Y-100730320D01*
X143579000Y-100730320D01*
X143583122Y-100743005D01*
X143587243Y-100746000D01*
X144217319Y-100746000D01*
X144230004Y-100741878D01*
X144232999Y-100737757D01*
X144232999Y-100670673D01*
X144232792Y-100666163D01*
X144226737Y-100600256D01*
X144224688Y-100590022D01*
X144176798Y-100437203D01*
X144171921Y-100426403D01*
X144089333Y-100290035D01*
X144082024Y-100280712D01*
X143969288Y-100167976D01*
X143959965Y-100160667D01*
X143823597Y-100078079D01*
X143812797Y-100073202D01*
X143659979Y-100025313D01*
X143649743Y-100023263D01*
X143591794Y-100017938D01*
X143581995Y-100021122D01*
X143579000Y-100025243D01*
X143579000Y-100730320D01*
X143071000Y-100730320D01*
X143071000Y-100032681D01*
X143066878Y-100019996D01*
X143063391Y-100017462D01*
X143000256Y-100023263D01*
X142990022Y-100025312D01*
X142837203Y-100073202D01*
X142826403Y-100078079D01*
X142690035Y-100160667D01*
X142680707Y-100167980D01*
X142564701Y-100283987D01*
X142510184Y-100311765D01*
X142449752Y-100302194D01*
X142424693Y-100283988D01*
X142310408Y-100169703D01*
X142165383Y-100081873D01*
X142159690Y-100080089D01*
X142159688Y-100080088D01*
X142048044Y-100045101D01*
X142003594Y-100031171D01*
X141930993Y-100024500D01*
X141675057Y-100024500D01*
X141419008Y-100024501D01*
X141379472Y-100028133D01*
X141351640Y-100030690D01*
X141351639Y-100030690D01*
X141346406Y-100031171D01*
X141301956Y-100045101D01*
X141190312Y-100080088D01*
X141190310Y-100080089D01*
X141184617Y-100081873D01*
X141039592Y-100169703D01*
X140919703Y-100289592D01*
X140916612Y-100294696D01*
X140834681Y-100429980D01*
X140788364Y-100469959D01*
X140727393Y-100475079D01*
X140675057Y-100443384D01*
X140665319Y-100429980D01*
X140583388Y-100294696D01*
X140580297Y-100289592D01*
X140460408Y-100169703D01*
X140315383Y-100081873D01*
X140309690Y-100080089D01*
X140309688Y-100080088D01*
X140198044Y-100045101D01*
X140153594Y-100031171D01*
X140080993Y-100024500D01*
X139825057Y-100024500D01*
X139569008Y-100024501D01*
X139529472Y-100028133D01*
X139501640Y-100030690D01*
X139501639Y-100030690D01*
X139496406Y-100031171D01*
X139451956Y-100045101D01*
X139340312Y-100080088D01*
X139340310Y-100080089D01*
X139334617Y-100081873D01*
X139189592Y-100169703D01*
X139070004Y-100289291D01*
X139015487Y-100317068D01*
X138955055Y-100307497D01*
X138929996Y-100289291D01*
X138810408Y-100169703D01*
X138665383Y-100081873D01*
X138659690Y-100080089D01*
X138659688Y-100080088D01*
X138548044Y-100045101D01*
X138503594Y-100031171D01*
X138430993Y-100024500D01*
X138175057Y-100024500D01*
X137919008Y-100024501D01*
X137879472Y-100028133D01*
X137851640Y-100030690D01*
X137851639Y-100030690D01*
X137846406Y-100031171D01*
X137801956Y-100045101D01*
X137690312Y-100080088D01*
X137690310Y-100080089D01*
X137684617Y-100081873D01*
X137539592Y-100169703D01*
X137419703Y-100289592D01*
X137331873Y-100434617D01*
X137330089Y-100440310D01*
X137330088Y-100440312D01*
X137320797Y-100469959D01*
X137281171Y-100596406D01*
X137274500Y-100669007D01*
X137274500Y-100764546D01*
X137255593Y-100822737D01*
X137245504Y-100834550D01*
X124614998Y-113465056D01*
X124608101Y-113471331D01*
X124604315Y-113474463D01*
X124599060Y-113477798D01*
X124594800Y-113482335D01*
X124594797Y-113482337D01*
X124550889Y-113529095D01*
X124548725Y-113531329D01*
X124528089Y-113551965D01*
X124524661Y-113556384D01*
X124518618Y-113563460D01*
X124509340Y-113573340D01*
X124491567Y-113592267D01*
X124486552Y-113597607D01*
X124483552Y-113603064D01*
X124475382Y-113617925D01*
X124466851Y-113630912D01*
X124456457Y-113644312D01*
X124456455Y-113644315D01*
X124452638Y-113649236D01*
X124434951Y-113690110D01*
X124434041Y-113692212D01*
X124429938Y-113700586D01*
X124407373Y-113741632D01*
X124405825Y-113747663D01*
X124405823Y-113747667D01*
X124401606Y-113764094D01*
X124396573Y-113778795D01*
X124389837Y-113794359D01*
X124389835Y-113794367D01*
X124387365Y-113800074D01*
X124380569Y-113842984D01*
X124380040Y-113846322D01*
X124378148Y-113855456D01*
X124368048Y-113894790D01*
X124368047Y-113894798D01*
X124366500Y-113900823D01*
X124366500Y-113924012D01*
X124365281Y-113939500D01*
X124364461Y-113944680D01*
X124361653Y-113962405D01*
X124365589Y-114004044D01*
X124366061Y-114009034D01*
X124366500Y-114018351D01*
X124366500Y-114050501D01*
X124347593Y-114108692D01*
X124298093Y-114144656D01*
X124267500Y-114149501D01*
X124219624Y-114149501D01*
X124216965Y-114149790D01*
X124216962Y-114149790D01*
X124164595Y-114155478D01*
X124164593Y-114155478D01*
X124158420Y-114156149D01*
X124101652Y-114177430D01*
X124030785Y-114203996D01*
X124030782Y-114203997D01*
X124024176Y-114206474D01*
X123942605Y-114267609D01*
X123932627Y-114275087D01*
X123874723Y-114294856D01*
X123813882Y-114275088D01*
X123719108Y-114204059D01*
X123706855Y-114197351D01*
X123583022Y-114150928D01*
X123571033Y-114148077D01*
X123517748Y-114142289D01*
X123512414Y-114142000D01*
X122875375Y-114142001D01*
X122817184Y-114123094D01*
X122781220Y-114073594D01*
X122781220Y-114012408D01*
X122805371Y-113972997D01*
X136485141Y-100293227D01*
X136496466Y-100283495D01*
X136510692Y-100273026D01*
X136510693Y-100273025D01*
X136515324Y-100269617D01*
X136519047Y-100265235D01*
X136519049Y-100265233D01*
X136549835Y-100228995D01*
X136555279Y-100223089D01*
X136561671Y-100216697D01*
X136579405Y-100194282D01*
X136581558Y-100191654D01*
X136628632Y-100136245D01*
X136631246Y-100131126D01*
X136634440Y-100126337D01*
X136634544Y-100126406D01*
X136636396Y-100123521D01*
X136636290Y-100123456D01*
X136639315Y-100118559D01*
X136642881Y-100114051D01*
X136658755Y-100080088D01*
X136673655Y-100048206D01*
X136675173Y-100045101D01*
X136705602Y-99985509D01*
X136708219Y-99980384D01*
X136709587Y-99974795D01*
X136711591Y-99969405D01*
X136711709Y-99969449D01*
X136712848Y-99966214D01*
X136712728Y-99966174D01*
X136714542Y-99960721D01*
X136716979Y-99955507D01*
X136731775Y-99884374D01*
X136732537Y-99881004D01*
X136748768Y-99814674D01*
X136748768Y-99814671D01*
X136749815Y-99810394D01*
X136750500Y-99799352D01*
X136750739Y-99799367D01*
X136751185Y-99795550D01*
X136750935Y-99795528D01*
X136751446Y-99789804D01*
X136752618Y-99784169D01*
X136750536Y-99707230D01*
X136750500Y-99704552D01*
X136750500Y-97296135D01*
X142767000Y-97296135D01*
X142767265Y-97301262D01*
X142777047Y-97395525D01*
X142779320Y-97406054D01*
X142829879Y-97557600D01*
X142834726Y-97567947D01*
X142918616Y-97703512D01*
X142925711Y-97712463D01*
X143038539Y-97825095D01*
X143047503Y-97832174D01*
X143183218Y-97915830D01*
X143193568Y-97920656D01*
X143345217Y-97970956D01*
X143355723Y-97973208D01*
X143448771Y-97982741D01*
X143453829Y-97983000D01*
X143455320Y-97983000D01*
X143468005Y-97978878D01*
X143471000Y-97974757D01*
X143471000Y-97269680D01*
X143466878Y-97256995D01*
X143462757Y-97254000D01*
X142782680Y-97254000D01*
X142769995Y-97258122D01*
X142767000Y-97262243D01*
X142767000Y-97296135D01*
X136750500Y-97296135D01*
X136750500Y-96730320D01*
X142767000Y-96730320D01*
X142771122Y-96743005D01*
X142775243Y-96746000D01*
X143455320Y-96746000D01*
X143468005Y-96741878D01*
X143471000Y-96737757D01*
X143471000Y-96032680D01*
X143466878Y-96019995D01*
X143462757Y-96017000D01*
X143453865Y-96017000D01*
X143448738Y-96017265D01*
X143354475Y-96027047D01*
X143343946Y-96029320D01*
X143192400Y-96079879D01*
X143182053Y-96084726D01*
X143046488Y-96168616D01*
X143037537Y-96175711D01*
X142924905Y-96288539D01*
X142917826Y-96297503D01*
X142834170Y-96433218D01*
X142829344Y-96443568D01*
X142779044Y-96595217D01*
X142776792Y-96605723D01*
X142767259Y-96698771D01*
X142767000Y-96703830D01*
X142767000Y-96730320D01*
X136750500Y-96730320D01*
X136750500Y-94385411D01*
X137462001Y-94385411D01*
X137462290Y-94390751D01*
X137468078Y-94444035D01*
X137470927Y-94456020D01*
X137517351Y-94579855D01*
X137524059Y-94592108D01*
X137602863Y-94697256D01*
X137612744Y-94707137D01*
X137717892Y-94785941D01*
X137730145Y-94792649D01*
X137853978Y-94839072D01*
X137865967Y-94841923D01*
X137919252Y-94847711D01*
X137924586Y-94848000D01*
X138950320Y-94848000D01*
X138963005Y-94843878D01*
X138966000Y-94839757D01*
X138966000Y-93809680D01*
X138961878Y-93796995D01*
X138957757Y-93794000D01*
X137477681Y-93794000D01*
X137464996Y-93798122D01*
X137462001Y-93802243D01*
X137462001Y-94385411D01*
X136750500Y-94385411D01*
X136750500Y-93851875D01*
X136769407Y-93793684D01*
X136779496Y-93781871D01*
X137305840Y-93255527D01*
X137360357Y-93227750D01*
X137420789Y-93237321D01*
X137464054Y-93280586D01*
X137464597Y-93281898D01*
X137470243Y-93286000D01*
X138950320Y-93286000D01*
X138963005Y-93281878D01*
X138966000Y-93277757D01*
X138966000Y-92247681D01*
X138961878Y-92234996D01*
X138957757Y-92232001D01*
X138568374Y-92232001D01*
X138510183Y-92213094D01*
X138474219Y-92163594D01*
X138474219Y-92102408D01*
X138498370Y-92062997D01*
X140081871Y-90479496D01*
X140136388Y-90451719D01*
X140151875Y-90450500D01*
X144755580Y-90450500D01*
X144813771Y-90469407D01*
X144849735Y-90518907D01*
X144854001Y-90538807D01*
X144856149Y-90558580D01*
X144906474Y-90692824D01*
X144910707Y-90698472D01*
X144975087Y-90784373D01*
X144994856Y-90842277D01*
X144975088Y-90903118D01*
X144904059Y-90997892D01*
X144897351Y-91010145D01*
X144850928Y-91133978D01*
X144848077Y-91145967D01*
X144842289Y-91199252D01*
X144842000Y-91204586D01*
X144842000Y-91730320D01*
X144846122Y-91743005D01*
X144850243Y-91746000D01*
X147842319Y-91746000D01*
X147855004Y-91741878D01*
X147857999Y-91737757D01*
X147857999Y-91730320D01*
X151142000Y-91730320D01*
X151146122Y-91743005D01*
X151150243Y-91746000D01*
X152380320Y-91746000D01*
X152393005Y-91741878D01*
X152396000Y-91737757D01*
X152396000Y-91730320D01*
X152904000Y-91730320D01*
X152908122Y-91743005D01*
X152912243Y-91746000D01*
X154142319Y-91746000D01*
X154155004Y-91741878D01*
X154157999Y-91737757D01*
X154157999Y-90054589D01*
X154157710Y-90049249D01*
X154151922Y-89995965D01*
X154149073Y-89983980D01*
X154102649Y-89860145D01*
X154095941Y-89847892D01*
X154017137Y-89742744D01*
X154007256Y-89732863D01*
X153902108Y-89654059D01*
X153889855Y-89647351D01*
X153766022Y-89600928D01*
X153754033Y-89598077D01*
X153700748Y-89592289D01*
X153695414Y-89592000D01*
X152919680Y-89592000D01*
X152906995Y-89596122D01*
X152904000Y-89600243D01*
X152904000Y-91730320D01*
X152396000Y-91730320D01*
X152396000Y-89607681D01*
X152391878Y-89594996D01*
X152387757Y-89592001D01*
X151604589Y-89592001D01*
X151599249Y-89592290D01*
X151545965Y-89598078D01*
X151533980Y-89600927D01*
X151410145Y-89647351D01*
X151397892Y-89654059D01*
X151292744Y-89732863D01*
X151282863Y-89742744D01*
X151204059Y-89847892D01*
X151197351Y-89860145D01*
X151150928Y-89983978D01*
X151148077Y-89995967D01*
X151142289Y-90049252D01*
X151142000Y-90054586D01*
X151142000Y-91730320D01*
X147857999Y-91730320D01*
X147857999Y-91204589D01*
X147857710Y-91199249D01*
X147851922Y-91145965D01*
X147849073Y-91133980D01*
X147802649Y-91010145D01*
X147795941Y-90997892D01*
X147724912Y-90903118D01*
X147705144Y-90845214D01*
X147724913Y-90784373D01*
X147789293Y-90698472D01*
X147793526Y-90692824D01*
X147843851Y-90558580D01*
X147850500Y-90497377D01*
X147850499Y-88902624D01*
X147843851Y-88841420D01*
X147793526Y-88707176D01*
X147707546Y-88592454D01*
X147592824Y-88506474D01*
X147586215Y-88503996D01*
X147580033Y-88500612D01*
X147581188Y-88498502D01*
X147541894Y-88467185D01*
X147525500Y-88412621D01*
X147525500Y-88291482D01*
X147544407Y-88233291D01*
X147554435Y-88221540D01*
X147569164Y-88206785D01*
X147573231Y-88202711D01*
X147662003Y-88058697D01*
X147715263Y-87898124D01*
X147725500Y-87798207D01*
X147725499Y-87201794D01*
X147715003Y-87100628D01*
X147661463Y-86940148D01*
X147658439Y-86935261D01*
X147658437Y-86935257D01*
X147575466Y-86801178D01*
X147575463Y-86801175D01*
X147572440Y-86796289D01*
X147564677Y-86788539D01*
X147456785Y-86680836D01*
X147456786Y-86680836D01*
X147452711Y-86676769D01*
X147447811Y-86673749D01*
X147447809Y-86673747D01*
X147313596Y-86591017D01*
X147308697Y-86587997D01*
X147148124Y-86534737D01*
X147048207Y-86524500D01*
X146777035Y-86524500D01*
X146501794Y-86524501D01*
X146400628Y-86534997D01*
X146395488Y-86536712D01*
X146395487Y-86536712D01*
X146251571Y-86584726D01*
X146240148Y-86588537D01*
X146235261Y-86591561D01*
X146235257Y-86591563D01*
X146101178Y-86674534D01*
X146101175Y-86674537D01*
X146096289Y-86677560D01*
X146092227Y-86681629D01*
X146075306Y-86698580D01*
X146020814Y-86726405D01*
X145960374Y-86716887D01*
X145935298Y-86698702D01*
X145911461Y-86674906D01*
X145902496Y-86667826D01*
X145766782Y-86584170D01*
X145756432Y-86579344D01*
X145604783Y-86529044D01*
X145594277Y-86526792D01*
X145501229Y-86517259D01*
X145496171Y-86517000D01*
X145494680Y-86517000D01*
X145481995Y-86521122D01*
X145479000Y-86525243D01*
X145479000Y-87655000D01*
X145460093Y-87713191D01*
X145410593Y-87749155D01*
X145380000Y-87754000D01*
X144282680Y-87754000D01*
X144269995Y-87758122D01*
X144267000Y-87762243D01*
X144267000Y-87796135D01*
X144267265Y-87801262D01*
X144277047Y-87895525D01*
X144279320Y-87906054D01*
X144329879Y-88057600D01*
X144334726Y-88067947D01*
X144418616Y-88203512D01*
X144425711Y-88212463D01*
X144538539Y-88325095D01*
X144547503Y-88332174D01*
X144683218Y-88415830D01*
X144693568Y-88420656D01*
X144845217Y-88470956D01*
X144855722Y-88473208D01*
X144891630Y-88476887D01*
X144947590Y-88501627D01*
X144978321Y-88554535D01*
X144972085Y-88615401D01*
X144960759Y-88634744D01*
X144906474Y-88707176D01*
X144856149Y-88841420D01*
X144855479Y-88847588D01*
X144854001Y-88861192D01*
X144828919Y-88917001D01*
X144775825Y-88947408D01*
X144755580Y-88949500D01*
X139864417Y-88949500D01*
X139849528Y-88948374D01*
X139832058Y-88945716D01*
X139832055Y-88945716D01*
X139826370Y-88944851D01*
X139773223Y-88949174D01*
X139765197Y-88949500D01*
X139756178Y-88949500D01*
X139727797Y-88952809D01*
X139724379Y-88953147D01*
X139651941Y-88959039D01*
X139646476Y-88960809D01*
X139640827Y-88961938D01*
X139640802Y-88961815D01*
X139637454Y-88962545D01*
X139637483Y-88962668D01*
X139631890Y-88963990D01*
X139626172Y-88964657D01*
X139620759Y-88966622D01*
X139620758Y-88966622D01*
X139557850Y-88989456D01*
X139554583Y-88990578D01*
X139533726Y-88997335D01*
X139485454Y-89012973D01*
X139480539Y-89015956D01*
X139475305Y-89018352D01*
X139475253Y-89018238D01*
X139472165Y-89019717D01*
X139472221Y-89019830D01*
X139467075Y-89022407D01*
X139461669Y-89024369D01*
X139456860Y-89027522D01*
X139456856Y-89027524D01*
X139400897Y-89064213D01*
X139397975Y-89066057D01*
X139335841Y-89103761D01*
X139327548Y-89111084D01*
X139327394Y-89110909D01*
X139324377Y-89113291D01*
X139324536Y-89113481D01*
X139320121Y-89117172D01*
X139315315Y-89120323D01*
X139311366Y-89124492D01*
X139311362Y-89124495D01*
X139262419Y-89176161D01*
X139260552Y-89178080D01*
X135514863Y-92923770D01*
X135503538Y-92933501D01*
X135489313Y-92943970D01*
X135489310Y-92943973D01*
X135484676Y-92947383D01*
X135480953Y-92951765D01*
X135480951Y-92951767D01*
X135450159Y-92988012D01*
X135444715Y-92993918D01*
X135438330Y-93000303D01*
X135420585Y-93022732D01*
X135418454Y-93025331D01*
X135371368Y-93080755D01*
X135368755Y-93085873D01*
X135365558Y-93090666D01*
X135365454Y-93090597D01*
X135363605Y-93093476D01*
X135363712Y-93093542D01*
X135360688Y-93098439D01*
X135357119Y-93102949D01*
X135354683Y-93108161D01*
X135326345Y-93168794D01*
X135324827Y-93171899D01*
X135291781Y-93236616D01*
X135290413Y-93242205D01*
X135288409Y-93247595D01*
X135288291Y-93247551D01*
X135287152Y-93250786D01*
X135287272Y-93250826D01*
X135285458Y-93256279D01*
X135283021Y-93261493D01*
X135281849Y-93267126D01*
X135281849Y-93267127D01*
X135268225Y-93332626D01*
X135267463Y-93335996D01*
X135250185Y-93406606D01*
X135249500Y-93417648D01*
X135249261Y-93417633D01*
X135248815Y-93421450D01*
X135249065Y-93421472D01*
X135248554Y-93427196D01*
X135247382Y-93432831D01*
X135249199Y-93499962D01*
X135249464Y-93509759D01*
X135249500Y-93512437D01*
X135249500Y-99365125D01*
X135230593Y-99423316D01*
X135220504Y-99435129D01*
X125080629Y-109575004D01*
X125026112Y-109602781D01*
X125010625Y-109604000D01*
X122986680Y-109604000D01*
X122973995Y-109608122D01*
X122971000Y-109612243D01*
X122971000Y-110842319D01*
X122975122Y-110855004D01*
X122979243Y-110857999D01*
X123558626Y-110857999D01*
X123616817Y-110876906D01*
X123652781Y-110926406D01*
X123652781Y-110987592D01*
X123628630Y-111027003D01*
X120535129Y-114120504D01*
X120480612Y-114148281D01*
X120465125Y-114149500D01*
X119673949Y-114149501D01*
X119619624Y-114149501D01*
X119616965Y-114149790D01*
X119616962Y-114149790D01*
X119564595Y-114155478D01*
X119564593Y-114155478D01*
X119558420Y-114156149D01*
X119501652Y-114177430D01*
X119430785Y-114203996D01*
X119430782Y-114203997D01*
X119424176Y-114206474D01*
X119309454Y-114292454D01*
X119223474Y-114407176D01*
X119220997Y-114413782D01*
X119220996Y-114413785D01*
X119201541Y-114465683D01*
X119173149Y-114541420D01*
X119166500Y-114602623D01*
X119166501Y-115169680D01*
X119166501Y-115650500D01*
X119147594Y-115708691D01*
X119098094Y-115744655D01*
X119067501Y-115749500D01*
X118576913Y-115749500D01*
X118518722Y-115730593D01*
X118506971Y-115720565D01*
X118503721Y-115717320D01*
X118443311Y-115657016D01*
X118413486Y-115638632D01*
X118373873Y-115592005D01*
X118369231Y-115530996D01*
X118401336Y-115478910D01*
X118413339Y-115470172D01*
X118444148Y-115451106D01*
X118453098Y-115444013D01*
X118569847Y-115327061D01*
X118576927Y-115318096D01*
X118663641Y-115177420D01*
X118668469Y-115167066D01*
X118720602Y-115009890D01*
X118722855Y-114999379D01*
X118732741Y-114902888D01*
X118733000Y-114897830D01*
X118733000Y-114869680D01*
X118728878Y-114856995D01*
X118724757Y-114854000D01*
X117345000Y-114854000D01*
X117286809Y-114835093D01*
X117250845Y-114785593D01*
X117246000Y-114755000D01*
X117246000Y-114330320D01*
X117754000Y-114330320D01*
X117758122Y-114343005D01*
X117762243Y-114346000D01*
X118717319Y-114346000D01*
X118730004Y-114341878D01*
X118732999Y-114337757D01*
X118732999Y-114302208D01*
X118732733Y-114297078D01*
X118722591Y-114199327D01*
X118720318Y-114188800D01*
X118667914Y-114031723D01*
X118663067Y-114021376D01*
X118576109Y-113880855D01*
X118569013Y-113871902D01*
X118452061Y-113755153D01*
X118443096Y-113748073D01*
X118302420Y-113661359D01*
X118292066Y-113656531D01*
X118134890Y-113604398D01*
X118124379Y-113602145D01*
X118027888Y-113592259D01*
X118022830Y-113592000D01*
X117769680Y-113592000D01*
X117756995Y-113596122D01*
X117754000Y-113600243D01*
X117754000Y-114330320D01*
X117246000Y-114330320D01*
X117246000Y-113607681D01*
X117241878Y-113594996D01*
X117237757Y-113592001D01*
X116977208Y-113592001D01*
X116972078Y-113592267D01*
X116874327Y-113602409D01*
X116863800Y-113604682D01*
X116706723Y-113657086D01*
X116696376Y-113661933D01*
X116555855Y-113748891D01*
X116546902Y-113755987D01*
X116430153Y-113872939D01*
X116423073Y-113881904D01*
X116336359Y-114022580D01*
X116331532Y-114032932D01*
X116318759Y-114071441D01*
X116282493Y-114120720D01*
X116224187Y-114139271D01*
X116172845Y-114124549D01*
X116066782Y-114059170D01*
X116056432Y-114054344D01*
X115904783Y-114004044D01*
X115894277Y-114001792D01*
X115801229Y-113992259D01*
X115796171Y-113992000D01*
X115769680Y-113992000D01*
X115756995Y-113996122D01*
X115754000Y-114000243D01*
X115754000Y-115105000D01*
X115735093Y-115163191D01*
X115685593Y-115199155D01*
X115655000Y-115204000D01*
X115345000Y-115204000D01*
X115286809Y-115185093D01*
X115250845Y-115135593D01*
X115246000Y-115105000D01*
X115246000Y-114007680D01*
X115241878Y-113994995D01*
X115237757Y-113992000D01*
X115203865Y-113992000D01*
X115198738Y-113992265D01*
X115104475Y-114002047D01*
X115093946Y-114004320D01*
X114942400Y-114054879D01*
X114932053Y-114059726D01*
X114796488Y-114143616D01*
X114787537Y-114150711D01*
X114670843Y-114267609D01*
X114669384Y-114266152D01*
X114625782Y-114295226D01*
X114564647Y-114292766D01*
X114516633Y-114254842D01*
X114500000Y-114199918D01*
X114500000Y-110395411D01*
X120309001Y-110395411D01*
X120309290Y-110400751D01*
X120315078Y-110454035D01*
X120317927Y-110466020D01*
X120364351Y-110589855D01*
X120371059Y-110602108D01*
X120449863Y-110707256D01*
X120459744Y-110717137D01*
X120564892Y-110795941D01*
X120577145Y-110802649D01*
X120700978Y-110849072D01*
X120712967Y-110851923D01*
X120766252Y-110857711D01*
X120771586Y-110858000D01*
X122447320Y-110858000D01*
X122460005Y-110853878D01*
X122463000Y-110849757D01*
X122463000Y-109619680D01*
X122458878Y-109606995D01*
X122454757Y-109604000D01*
X120324681Y-109604000D01*
X120311996Y-109608122D01*
X120309001Y-109612243D01*
X120309001Y-110395411D01*
X114500000Y-110395411D01*
X114500000Y-109568464D01*
X114518907Y-109510273D01*
X114568407Y-109474309D01*
X114609091Y-109469980D01*
X114662965Y-109475500D01*
X114927515Y-109475500D01*
X115196034Y-109475499D01*
X115296335Y-109465093D01*
X115301475Y-109463378D01*
X115301476Y-109463378D01*
X115449974Y-109413835D01*
X115455432Y-109412014D01*
X115460319Y-109408990D01*
X115460323Y-109408988D01*
X115593162Y-109326784D01*
X115598052Y-109323758D01*
X115641655Y-109280079D01*
X115696146Y-109252255D01*
X115756586Y-109261774D01*
X115781660Y-109279958D01*
X115828190Y-109326406D01*
X115837154Y-109333486D01*
X115971626Y-109416376D01*
X115981980Y-109421204D01*
X116132238Y-109471042D01*
X116142752Y-109473295D01*
X116234944Y-109482741D01*
X116235524Y-109482771D01*
X116247505Y-109478878D01*
X116250500Y-109474757D01*
X116250500Y-109467320D01*
X116758500Y-109467320D01*
X116762622Y-109480005D01*
X116766743Y-109483000D01*
X116768963Y-109483000D01*
X116774090Y-109482735D01*
X116867487Y-109473044D01*
X116878023Y-109470768D01*
X117028177Y-109420673D01*
X117038526Y-109415826D01*
X117172853Y-109332701D01*
X117181804Y-109325607D01*
X117293407Y-109213809D01*
X117300486Y-109204846D01*
X117377245Y-109080320D01*
X120309000Y-109080320D01*
X120313122Y-109093005D01*
X120317243Y-109096000D01*
X122447320Y-109096000D01*
X122460005Y-109091878D01*
X122463000Y-109087757D01*
X122463000Y-109080320D01*
X122971000Y-109080320D01*
X122975122Y-109093005D01*
X122979243Y-109096000D01*
X125109319Y-109096000D01*
X125122004Y-109091878D01*
X125124999Y-109087757D01*
X125124999Y-108304589D01*
X125124710Y-108299249D01*
X125118922Y-108245965D01*
X125116073Y-108233980D01*
X125069649Y-108110145D01*
X125062941Y-108097892D01*
X124984137Y-107992744D01*
X124974256Y-107982863D01*
X124869108Y-107904059D01*
X124856855Y-107897351D01*
X124733022Y-107850928D01*
X124721033Y-107848077D01*
X124667748Y-107842289D01*
X124662414Y-107842000D01*
X122986680Y-107842000D01*
X122973995Y-107846122D01*
X122971000Y-107850243D01*
X122971000Y-109080320D01*
X122463000Y-109080320D01*
X122463000Y-107857681D01*
X122458878Y-107844996D01*
X122454757Y-107842001D01*
X120771589Y-107842001D01*
X120766249Y-107842290D01*
X120712965Y-107848078D01*
X120700980Y-107850927D01*
X120577145Y-107897351D01*
X120564892Y-107904059D01*
X120459744Y-107982863D01*
X120449863Y-107992744D01*
X120371059Y-108097892D01*
X120364351Y-108110145D01*
X120317928Y-108233978D01*
X120315077Y-108245967D01*
X120309289Y-108299252D01*
X120309000Y-108304586D01*
X120309000Y-109080320D01*
X117377245Y-109080320D01*
X117383376Y-109070374D01*
X117388204Y-109060020D01*
X117438042Y-108909762D01*
X117440295Y-108899248D01*
X117449741Y-108807056D01*
X117450000Y-108801999D01*
X117450000Y-108769680D01*
X117445878Y-108756995D01*
X117441757Y-108754000D01*
X116774180Y-108754000D01*
X116761495Y-108758122D01*
X116758500Y-108762243D01*
X116758500Y-109467320D01*
X116250500Y-109467320D01*
X116250500Y-108230320D01*
X116758500Y-108230320D01*
X116762622Y-108243005D01*
X116766743Y-108246000D01*
X117434320Y-108246000D01*
X117447005Y-108241878D01*
X117450000Y-108237757D01*
X117450000Y-108198037D01*
X117449735Y-108192910D01*
X117440044Y-108099513D01*
X117437768Y-108088977D01*
X117387673Y-107938823D01*
X117382826Y-107928474D01*
X117299701Y-107794147D01*
X117292607Y-107785196D01*
X117180809Y-107673593D01*
X117171846Y-107666514D01*
X117037374Y-107583624D01*
X117027020Y-107578796D01*
X116876762Y-107528958D01*
X116866248Y-107526705D01*
X116774056Y-107517259D01*
X116773476Y-107517229D01*
X116761495Y-107521122D01*
X116758500Y-107525243D01*
X116758500Y-108230320D01*
X116250500Y-108230320D01*
X116250500Y-107532680D01*
X116246378Y-107519995D01*
X116242257Y-107517000D01*
X116240037Y-107517000D01*
X116234910Y-107517265D01*
X116141513Y-107526956D01*
X116130977Y-107529232D01*
X115980823Y-107579327D01*
X115970474Y-107584174D01*
X115836147Y-107667299D01*
X115827196Y-107674393D01*
X115781740Y-107719929D01*
X115727248Y-107747755D01*
X115666807Y-107738236D01*
X115641734Y-107720052D01*
X115597061Y-107675457D01*
X115592169Y-107672442D01*
X115592167Y-107672440D01*
X115459182Y-107590468D01*
X115459180Y-107590467D01*
X115454287Y-107587451D01*
X115448830Y-107585641D01*
X115448828Y-107585640D01*
X115300231Y-107536352D01*
X115300226Y-107536351D01*
X115295098Y-107534650D01*
X115196035Y-107524500D01*
X114931485Y-107524500D01*
X114662966Y-107524501D01*
X114609214Y-107530078D01*
X114549384Y-107517276D01*
X114508505Y-107471751D01*
X114500000Y-107431606D01*
X114500000Y-106599000D01*
X114518907Y-106540809D01*
X114568407Y-106504845D01*
X114599000Y-106500000D01*
X126000000Y-106500000D01*
X126000000Y-97249500D01*
X126018907Y-97191309D01*
X126068407Y-97155345D01*
X126099000Y-97150500D01*
X128368013Y-97150500D01*
X128377329Y-97150939D01*
X128382215Y-97151401D01*
X128388296Y-97152760D01*
X128458644Y-97150549D01*
X128461754Y-97150500D01*
X128490925Y-97150500D01*
X128496469Y-97149800D01*
X128505761Y-97149068D01*
X128524322Y-97148485D01*
X128546345Y-97147793D01*
X128546348Y-97147793D01*
X128552569Y-97147597D01*
X128558547Y-97145860D01*
X128558554Y-97145859D01*
X128574835Y-97141129D01*
X128590045Y-97137979D01*
X128606873Y-97135853D01*
X128606879Y-97135852D01*
X128613058Y-97135071D01*
X128656618Y-97117824D01*
X128665426Y-97114809D01*
X128669915Y-97113505D01*
X128710398Y-97101744D01*
X128715762Y-97098572D01*
X128715764Y-97098571D01*
X128730358Y-97089940D01*
X128744307Y-97083106D01*
X128765871Y-97074568D01*
X128770909Y-97070908D01*
X128770912Y-97070906D01*
X128803757Y-97047043D01*
X128811554Y-97041921D01*
X128851866Y-97018081D01*
X128852528Y-97019201D01*
X128907153Y-97000500D01*
X129922607Y-97000499D01*
X129997376Y-97000499D01*
X130000035Y-97000210D01*
X130000038Y-97000210D01*
X130052405Y-96994522D01*
X130052407Y-96994522D01*
X130058580Y-96993851D01*
X130117678Y-96971697D01*
X130186215Y-96946004D01*
X130186218Y-96946003D01*
X130192824Y-96943526D01*
X130307546Y-96857546D01*
X130393526Y-96742824D01*
X130398214Y-96730320D01*
X130441061Y-96616022D01*
X130443851Y-96608580D01*
X130450500Y-96547377D01*
X130450500Y-96545411D01*
X132542001Y-96545411D01*
X132542290Y-96550751D01*
X132548078Y-96604035D01*
X132550927Y-96616020D01*
X132597351Y-96739855D01*
X132604059Y-96752108D01*
X132682863Y-96857256D01*
X132692744Y-96867137D01*
X132797892Y-96945941D01*
X132810145Y-96952649D01*
X132933978Y-96999072D01*
X132945967Y-97001923D01*
X132999252Y-97007711D01*
X133004586Y-97008000D01*
X133480320Y-97008000D01*
X133493005Y-97003878D01*
X133496000Y-96999757D01*
X133496000Y-96992319D01*
X134004000Y-96992319D01*
X134008122Y-97005004D01*
X134012243Y-97007999D01*
X134495411Y-97007999D01*
X134500751Y-97007710D01*
X134554035Y-97001922D01*
X134566020Y-96999073D01*
X134689855Y-96952649D01*
X134702108Y-96945941D01*
X134807256Y-96867137D01*
X134817137Y-96857256D01*
X134895941Y-96752108D01*
X134902649Y-96739855D01*
X134949072Y-96616022D01*
X134951923Y-96604033D01*
X134957711Y-96550748D01*
X134958000Y-96545414D01*
X134958000Y-95969680D01*
X134953878Y-95956995D01*
X134949757Y-95954000D01*
X134019680Y-95954000D01*
X134006995Y-95958122D01*
X134004000Y-95962243D01*
X134004000Y-96992319D01*
X133496000Y-96992319D01*
X133496000Y-95969680D01*
X133491878Y-95956995D01*
X133487757Y-95954000D01*
X132557681Y-95954000D01*
X132544996Y-95958122D01*
X132542001Y-95962243D01*
X132542001Y-96545411D01*
X130450500Y-96545411D01*
X130450499Y-95430320D01*
X132542000Y-95430320D01*
X132546122Y-95443005D01*
X132550243Y-95446000D01*
X133480320Y-95446000D01*
X133493005Y-95441878D01*
X133496000Y-95437757D01*
X133496000Y-95430320D01*
X134004000Y-95430320D01*
X134008122Y-95443005D01*
X134012243Y-95446000D01*
X134942319Y-95446000D01*
X134955004Y-95441878D01*
X134957999Y-95437757D01*
X134957999Y-94854589D01*
X134957710Y-94849249D01*
X134951922Y-94795965D01*
X134949073Y-94783980D01*
X134902649Y-94660145D01*
X134895941Y-94647892D01*
X134817137Y-94542744D01*
X134807256Y-94532863D01*
X134702108Y-94454059D01*
X134689855Y-94447351D01*
X134566022Y-94400928D01*
X134554033Y-94398077D01*
X134500748Y-94392289D01*
X134495414Y-94392000D01*
X134019680Y-94392000D01*
X134006995Y-94396122D01*
X134004000Y-94400243D01*
X134004000Y-95430320D01*
X133496000Y-95430320D01*
X133496000Y-94407681D01*
X133491878Y-94394996D01*
X133487757Y-94392001D01*
X133004589Y-94392001D01*
X132999249Y-94392290D01*
X132945965Y-94398078D01*
X132933980Y-94400927D01*
X132810145Y-94447351D01*
X132797892Y-94454059D01*
X132692744Y-94532863D01*
X132682863Y-94542744D01*
X132604059Y-94647892D01*
X132597351Y-94660145D01*
X132550928Y-94783978D01*
X132548077Y-94795967D01*
X132542289Y-94849252D01*
X132542000Y-94854586D01*
X132542000Y-95430320D01*
X130450499Y-95430320D01*
X130450499Y-94852624D01*
X130450133Y-94849252D01*
X130444522Y-94797595D01*
X130444522Y-94797593D01*
X130443851Y-94791420D01*
X130408551Y-94697255D01*
X130396004Y-94663785D01*
X130396003Y-94663782D01*
X130393526Y-94657176D01*
X130307546Y-94542454D01*
X130192824Y-94456474D01*
X130186218Y-94453997D01*
X130186215Y-94453996D01*
X130134317Y-94434541D01*
X130058580Y-94406149D01*
X129997377Y-94399500D01*
X129994701Y-94399500D01*
X129994147Y-94399470D01*
X129937064Y-94377444D01*
X129903829Y-94326072D01*
X129900500Y-94300615D01*
X129900500Y-88699384D01*
X129919407Y-88641193D01*
X129968907Y-88605229D01*
X129994146Y-88600529D01*
X129994700Y-88600499D01*
X129997376Y-88600499D01*
X130000037Y-88600210D01*
X130052405Y-88594522D01*
X130052407Y-88594522D01*
X130058580Y-88593851D01*
X130117678Y-88571697D01*
X130186215Y-88546004D01*
X130186218Y-88546003D01*
X130192824Y-88543526D01*
X130307546Y-88457546D01*
X130393526Y-88342824D01*
X130397519Y-88332174D01*
X130428110Y-88250569D01*
X130443851Y-88208580D01*
X130450500Y-88147377D01*
X130450500Y-88145411D01*
X132542001Y-88145411D01*
X132542290Y-88150751D01*
X132548078Y-88204035D01*
X132550927Y-88216020D01*
X132597351Y-88339855D01*
X132604059Y-88352108D01*
X132682863Y-88457256D01*
X132692744Y-88467137D01*
X132797892Y-88545941D01*
X132810145Y-88552649D01*
X132933978Y-88599072D01*
X132945967Y-88601923D01*
X132999252Y-88607711D01*
X133004586Y-88608000D01*
X133480320Y-88608000D01*
X133493005Y-88603878D01*
X133496000Y-88599757D01*
X133496000Y-88592319D01*
X134004000Y-88592319D01*
X134008122Y-88605004D01*
X134012243Y-88607999D01*
X134495411Y-88607999D01*
X134500751Y-88607710D01*
X134554035Y-88601922D01*
X134566020Y-88599073D01*
X134689855Y-88552649D01*
X134702108Y-88545941D01*
X134807256Y-88467137D01*
X134817137Y-88457256D01*
X134895941Y-88352108D01*
X134902649Y-88339855D01*
X134949072Y-88216022D01*
X134951923Y-88204033D01*
X134957711Y-88150748D01*
X134958000Y-88145414D01*
X134958000Y-87569680D01*
X134953878Y-87556995D01*
X134949757Y-87554000D01*
X134019680Y-87554000D01*
X134006995Y-87558122D01*
X134004000Y-87562243D01*
X134004000Y-88592319D01*
X133496000Y-88592319D01*
X133496000Y-87569680D01*
X133491878Y-87556995D01*
X133487757Y-87554000D01*
X132557681Y-87554000D01*
X132544996Y-87558122D01*
X132542001Y-87562243D01*
X132542001Y-88145411D01*
X130450500Y-88145411D01*
X130450499Y-87230320D01*
X144267000Y-87230320D01*
X144271122Y-87243005D01*
X144275243Y-87246000D01*
X144955320Y-87246000D01*
X144968005Y-87241878D01*
X144971000Y-87237757D01*
X144971000Y-86532680D01*
X144966878Y-86519995D01*
X144962757Y-86517000D01*
X144953865Y-86517000D01*
X144948738Y-86517265D01*
X144854475Y-86527047D01*
X144843946Y-86529320D01*
X144692400Y-86579879D01*
X144682053Y-86584726D01*
X144546488Y-86668616D01*
X144537537Y-86675711D01*
X144424905Y-86788539D01*
X144417826Y-86797503D01*
X144334170Y-86933218D01*
X144329344Y-86943568D01*
X144279044Y-87095217D01*
X144276792Y-87105723D01*
X144267259Y-87198771D01*
X144267000Y-87203830D01*
X144267000Y-87230320D01*
X130450499Y-87230320D01*
X130450499Y-87030320D01*
X132542000Y-87030320D01*
X132546122Y-87043005D01*
X132550243Y-87046000D01*
X133480320Y-87046000D01*
X133493005Y-87041878D01*
X133496000Y-87037757D01*
X133496000Y-87030320D01*
X134004000Y-87030320D01*
X134008122Y-87043005D01*
X134012243Y-87046000D01*
X134942319Y-87046000D01*
X134955004Y-87041878D01*
X134957999Y-87037757D01*
X134957999Y-86454589D01*
X134957710Y-86449249D01*
X134951922Y-86395965D01*
X134949073Y-86383980D01*
X134902649Y-86260145D01*
X134895941Y-86247892D01*
X134817137Y-86142744D01*
X134807256Y-86132863D01*
X134702108Y-86054059D01*
X134689855Y-86047351D01*
X134566022Y-86000928D01*
X134554033Y-85998077D01*
X134500748Y-85992289D01*
X134495414Y-85992000D01*
X134019680Y-85992000D01*
X134006995Y-85996122D01*
X134004000Y-86000243D01*
X134004000Y-87030320D01*
X133496000Y-87030320D01*
X133496000Y-86007681D01*
X133491878Y-85994996D01*
X133487757Y-85992001D01*
X133004589Y-85992001D01*
X132999249Y-85992290D01*
X132945965Y-85998078D01*
X132933980Y-86000927D01*
X132810145Y-86047351D01*
X132797892Y-86054059D01*
X132692744Y-86132863D01*
X132682863Y-86142744D01*
X132604059Y-86247892D01*
X132597351Y-86260145D01*
X132550928Y-86383978D01*
X132548077Y-86395967D01*
X132542289Y-86449252D01*
X132542000Y-86454586D01*
X132542000Y-87030320D01*
X130450499Y-87030320D01*
X130450499Y-86452624D01*
X130450133Y-86449252D01*
X130444522Y-86397595D01*
X130444522Y-86397593D01*
X130443851Y-86391420D01*
X130393526Y-86257176D01*
X130307546Y-86142454D01*
X130192824Y-86056474D01*
X130186218Y-86053997D01*
X130186215Y-86053996D01*
X130134317Y-86034541D01*
X130058580Y-86006149D01*
X129997377Y-85999500D01*
X129250280Y-85999500D01*
X128502624Y-85999501D01*
X128499965Y-85999790D01*
X128499962Y-85999790D01*
X128447595Y-86005478D01*
X128447593Y-86005478D01*
X128441420Y-86006149D01*
X128382322Y-86028303D01*
X128313785Y-86053996D01*
X128313782Y-86053997D01*
X128307176Y-86056474D01*
X128192454Y-86142454D01*
X128106474Y-86257176D01*
X128056149Y-86391420D01*
X128049500Y-86452623D01*
X128049501Y-88147376D01*
X128049790Y-88150035D01*
X128049790Y-88150038D01*
X128049868Y-88150751D01*
X128056149Y-88208580D01*
X128065413Y-88233291D01*
X128102482Y-88332174D01*
X128106474Y-88342824D01*
X128192454Y-88457546D01*
X128307176Y-88543526D01*
X128313782Y-88546003D01*
X128313785Y-88546004D01*
X128365683Y-88565459D01*
X128441420Y-88593851D01*
X128502623Y-88600500D01*
X128505299Y-88600500D01*
X128505853Y-88600530D01*
X128562936Y-88622556D01*
X128596171Y-88673928D01*
X128599500Y-88699385D01*
X128599500Y-94300616D01*
X128580593Y-94358807D01*
X128531093Y-94394771D01*
X128505854Y-94399471D01*
X128505300Y-94399501D01*
X128502624Y-94399501D01*
X128499964Y-94399790D01*
X128499963Y-94399790D01*
X128447595Y-94405478D01*
X128447593Y-94405478D01*
X128441420Y-94406149D01*
X128382322Y-94428303D01*
X128313785Y-94453996D01*
X128313782Y-94453997D01*
X128307176Y-94456474D01*
X128192454Y-94542454D01*
X128106474Y-94657176D01*
X128103997Y-94663782D01*
X128103996Y-94663785D01*
X128091449Y-94697255D01*
X128056149Y-94791420D01*
X128049500Y-94852623D01*
X128049501Y-95330992D01*
X128049501Y-95750500D01*
X128030594Y-95808691D01*
X127981094Y-95844655D01*
X127950501Y-95849500D01*
X126099000Y-95849500D01*
X126040809Y-95830593D01*
X126004845Y-95781093D01*
X126000000Y-95750500D01*
X126000000Y-84451096D01*
X126018907Y-84392905D01*
X126068407Y-84356941D01*
X126114486Y-84353315D01*
X126127307Y-84355346D01*
X126173928Y-84350939D01*
X126183245Y-84350500D01*
X127950501Y-84350500D01*
X128008692Y-84369407D01*
X128044656Y-84418907D01*
X128049501Y-84449500D01*
X128049501Y-84547376D01*
X128049790Y-84550035D01*
X128049790Y-84550038D01*
X128049868Y-84550751D01*
X128056149Y-84608580D01*
X128106474Y-84742824D01*
X128192454Y-84857546D01*
X128307176Y-84943526D01*
X128313782Y-84946003D01*
X128313785Y-84946004D01*
X128365683Y-84965459D01*
X128441420Y-84993851D01*
X128502623Y-85000500D01*
X129249720Y-85000500D01*
X129997376Y-85000499D01*
X130000035Y-85000210D01*
X130000038Y-85000210D01*
X130052405Y-84994522D01*
X130052407Y-84994522D01*
X130058580Y-84993851D01*
X130117678Y-84971697D01*
X130186215Y-84946004D01*
X130186218Y-84946003D01*
X130192824Y-84943526D01*
X130307546Y-84857546D01*
X130393526Y-84742824D01*
X130443851Y-84608580D01*
X130450500Y-84547377D01*
X130450500Y-84545411D01*
X132542001Y-84545411D01*
X132542290Y-84550751D01*
X132548078Y-84604035D01*
X132550927Y-84616020D01*
X132597351Y-84739855D01*
X132604059Y-84752108D01*
X132682863Y-84857256D01*
X132692744Y-84867137D01*
X132797892Y-84945941D01*
X132810145Y-84952649D01*
X132933978Y-84999072D01*
X132945967Y-85001923D01*
X132999252Y-85007711D01*
X133004586Y-85008000D01*
X133480320Y-85008000D01*
X133493005Y-85003878D01*
X133496000Y-84999757D01*
X133496000Y-84992319D01*
X134004000Y-84992319D01*
X134008122Y-85005004D01*
X134012243Y-85007999D01*
X134495411Y-85007999D01*
X134500751Y-85007710D01*
X134554035Y-85001922D01*
X134566020Y-84999073D01*
X134689855Y-84952649D01*
X134702108Y-84945941D01*
X134807256Y-84867137D01*
X134817137Y-84857256D01*
X134895941Y-84752108D01*
X134902649Y-84739855D01*
X134949072Y-84616022D01*
X134951923Y-84604033D01*
X134957711Y-84550748D01*
X134958000Y-84545414D01*
X134958000Y-83969680D01*
X134953878Y-83956995D01*
X134949757Y-83954000D01*
X134019680Y-83954000D01*
X134006995Y-83958122D01*
X134004000Y-83962243D01*
X134004000Y-84992319D01*
X133496000Y-84992319D01*
X133496000Y-83969680D01*
X133491878Y-83956995D01*
X133487757Y-83954000D01*
X132557681Y-83954000D01*
X132544996Y-83958122D01*
X132542001Y-83962243D01*
X132542001Y-84545411D01*
X130450500Y-84545411D01*
X130450499Y-83430320D01*
X132542000Y-83430320D01*
X132546122Y-83443005D01*
X132550243Y-83446000D01*
X133480320Y-83446000D01*
X133493005Y-83441878D01*
X133496000Y-83437757D01*
X133496000Y-83430320D01*
X134004000Y-83430320D01*
X134008122Y-83443005D01*
X134012243Y-83446000D01*
X134942319Y-83446000D01*
X134955004Y-83441878D01*
X134957999Y-83437757D01*
X134957999Y-82854589D01*
X134957710Y-82849249D01*
X134951922Y-82795965D01*
X134949073Y-82783980D01*
X134902649Y-82660145D01*
X134895941Y-82647892D01*
X134817137Y-82542744D01*
X134807256Y-82532863D01*
X134702108Y-82454059D01*
X134689855Y-82447351D01*
X134566022Y-82400928D01*
X134554033Y-82398077D01*
X134500748Y-82392289D01*
X134495414Y-82392000D01*
X134019680Y-82392000D01*
X134006995Y-82396122D01*
X134004000Y-82400243D01*
X134004000Y-83430320D01*
X133496000Y-83430320D01*
X133496000Y-82407681D01*
X133491878Y-82394996D01*
X133487757Y-82392001D01*
X133004589Y-82392001D01*
X132999249Y-82392290D01*
X132945965Y-82398078D01*
X132933980Y-82400927D01*
X132810145Y-82447351D01*
X132797892Y-82454059D01*
X132692744Y-82532863D01*
X132682863Y-82542744D01*
X132604059Y-82647892D01*
X132597351Y-82660145D01*
X132550928Y-82783978D01*
X132548077Y-82795967D01*
X132542289Y-82849252D01*
X132542000Y-82854586D01*
X132542000Y-83430320D01*
X130450499Y-83430320D01*
X130450499Y-82852624D01*
X130450133Y-82849252D01*
X130444522Y-82797595D01*
X130444522Y-82797593D01*
X130443851Y-82791420D01*
X130393526Y-82657176D01*
X130307546Y-82542454D01*
X130192824Y-82456474D01*
X130186218Y-82453997D01*
X130186215Y-82453996D01*
X130134317Y-82434541D01*
X130058580Y-82406149D01*
X129997377Y-82399500D01*
X129994701Y-82399500D01*
X129994147Y-82399470D01*
X129937064Y-82377444D01*
X129903829Y-82326072D01*
X129900500Y-82300615D01*
X129900500Y-76699384D01*
X129919407Y-76641193D01*
X129968907Y-76605229D01*
X129994146Y-76600529D01*
X129994700Y-76600499D01*
X129997376Y-76600499D01*
X130000037Y-76600210D01*
X130052405Y-76594522D01*
X130052407Y-76594522D01*
X130058580Y-76593851D01*
X130117678Y-76571697D01*
X130186215Y-76546004D01*
X130186218Y-76546003D01*
X130192824Y-76543526D01*
X130307546Y-76457546D01*
X130393526Y-76342824D01*
X130443851Y-76208580D01*
X130450500Y-76147377D01*
X130450500Y-76145411D01*
X132542001Y-76145411D01*
X132542290Y-76150751D01*
X132548078Y-76204035D01*
X132550927Y-76216020D01*
X132597351Y-76339855D01*
X132604059Y-76352108D01*
X132682863Y-76457256D01*
X132692744Y-76467137D01*
X132797892Y-76545941D01*
X132810145Y-76552649D01*
X132933978Y-76599072D01*
X132945967Y-76601923D01*
X132999252Y-76607711D01*
X133004586Y-76608000D01*
X133480320Y-76608000D01*
X133493005Y-76603878D01*
X133496000Y-76599757D01*
X133496000Y-76592319D01*
X134004000Y-76592319D01*
X134008122Y-76605004D01*
X134012243Y-76607999D01*
X134495411Y-76607999D01*
X134500751Y-76607710D01*
X134554035Y-76601922D01*
X134566020Y-76599073D01*
X134689855Y-76552649D01*
X134702108Y-76545941D01*
X134807256Y-76467137D01*
X134817137Y-76457256D01*
X134895941Y-76352108D01*
X134902649Y-76339855D01*
X134949072Y-76216022D01*
X134951923Y-76204033D01*
X134957711Y-76150748D01*
X134958000Y-76145414D01*
X134958000Y-75569680D01*
X134953878Y-75556995D01*
X134949757Y-75554000D01*
X134019680Y-75554000D01*
X134006995Y-75558122D01*
X134004000Y-75562243D01*
X134004000Y-76592319D01*
X133496000Y-76592319D01*
X133496000Y-75569680D01*
X133491878Y-75556995D01*
X133487757Y-75554000D01*
X132557681Y-75554000D01*
X132544996Y-75558122D01*
X132542001Y-75562243D01*
X132542001Y-76145411D01*
X130450500Y-76145411D01*
X130450499Y-75030320D01*
X132542000Y-75030320D01*
X132546122Y-75043005D01*
X132550243Y-75046000D01*
X133480320Y-75046000D01*
X133493005Y-75041878D01*
X133496000Y-75037757D01*
X133496000Y-75030320D01*
X134004000Y-75030320D01*
X134008122Y-75043005D01*
X134012243Y-75046000D01*
X134942319Y-75046000D01*
X134955004Y-75041878D01*
X134957999Y-75037757D01*
X134957999Y-74454589D01*
X134957710Y-74449249D01*
X134951922Y-74395965D01*
X134949073Y-74383980D01*
X134902649Y-74260145D01*
X134895941Y-74247892D01*
X134817137Y-74142744D01*
X134807256Y-74132863D01*
X134702108Y-74054059D01*
X134689855Y-74047351D01*
X134566022Y-74000928D01*
X134554033Y-73998077D01*
X134500748Y-73992289D01*
X134495414Y-73992000D01*
X134019680Y-73992000D01*
X134006995Y-73996122D01*
X134004000Y-74000243D01*
X134004000Y-75030320D01*
X133496000Y-75030320D01*
X133496000Y-74007681D01*
X133491878Y-73994996D01*
X133487757Y-73992001D01*
X133004589Y-73992001D01*
X132999249Y-73992290D01*
X132945965Y-73998078D01*
X132933980Y-74000927D01*
X132810145Y-74047351D01*
X132797892Y-74054059D01*
X132692744Y-74132863D01*
X132682863Y-74142744D01*
X132604059Y-74247892D01*
X132597351Y-74260145D01*
X132550928Y-74383978D01*
X132548077Y-74395967D01*
X132542289Y-74449252D01*
X132542000Y-74454586D01*
X132542000Y-75030320D01*
X130450499Y-75030320D01*
X130450499Y-74452624D01*
X130450133Y-74449252D01*
X130444522Y-74397595D01*
X130444522Y-74397593D01*
X130443851Y-74391420D01*
X130393526Y-74257176D01*
X130307546Y-74142454D01*
X130192824Y-74056474D01*
X130186218Y-74053997D01*
X130186215Y-74053996D01*
X130134317Y-74034541D01*
X130058580Y-74006149D01*
X129997377Y-73999500D01*
X129250280Y-73999500D01*
X128502624Y-73999501D01*
X128499965Y-73999790D01*
X128499962Y-73999790D01*
X128447595Y-74005478D01*
X128447593Y-74005478D01*
X128441420Y-74006149D01*
X128382322Y-74028303D01*
X128313785Y-74053996D01*
X128313782Y-74053997D01*
X128307176Y-74056474D01*
X128192454Y-74142454D01*
X128106474Y-74257176D01*
X128056149Y-74391420D01*
X128049500Y-74452623D01*
X128049501Y-76147376D01*
X128049790Y-76150035D01*
X128049790Y-76150038D01*
X128055344Y-76201165D01*
X128056149Y-76208580D01*
X128106474Y-76342824D01*
X128192454Y-76457546D01*
X128307176Y-76543526D01*
X128313782Y-76546003D01*
X128313785Y-76546004D01*
X128365683Y-76565459D01*
X128441420Y-76593851D01*
X128502623Y-76600500D01*
X128505299Y-76600500D01*
X128505853Y-76600530D01*
X128562936Y-76622556D01*
X128596171Y-76673928D01*
X128599500Y-76699385D01*
X128599500Y-82300616D01*
X128580593Y-82358807D01*
X128531093Y-82394771D01*
X128505854Y-82399471D01*
X128505300Y-82399501D01*
X128502624Y-82399501D01*
X128499964Y-82399790D01*
X128499963Y-82399790D01*
X128447595Y-82405478D01*
X128447593Y-82405478D01*
X128441420Y-82406149D01*
X128382322Y-82428303D01*
X128313785Y-82453996D01*
X128313782Y-82453997D01*
X128307176Y-82456474D01*
X128192454Y-82542454D01*
X128106474Y-82657176D01*
X128056149Y-82791420D01*
X128049500Y-82852623D01*
X128049500Y-82950500D01*
X128030593Y-83008691D01*
X127981093Y-83044655D01*
X127950500Y-83049500D01*
X126458356Y-83049500D01*
X126400165Y-83030593D01*
X126388352Y-83020504D01*
X126028996Y-82661148D01*
X126001219Y-82606631D01*
X126000000Y-82591144D01*
X126000000Y-73599000D01*
X126018907Y-73540809D01*
X126068407Y-73504845D01*
X126099000Y-73500000D01*
X167900500Y-73500000D01*
X167958691Y-73518907D01*
G37*
%TD.AperFunction*%
%TA.AperFunction,Conductor*%
G36*
X141819504Y-104475846D02*
G01*
X143099281Y-105755623D01*
X143126619Y-105807586D01*
X143129396Y-105822569D01*
X143130698Y-105823805D01*
X143146768Y-105827441D01*
X143145973Y-105830953D01*
X143185841Y-105843907D01*
X143197654Y-105853996D01*
X143207569Y-105863911D01*
X143211988Y-105867339D01*
X143219064Y-105873382D01*
X143253211Y-105905448D01*
X143258668Y-105908448D01*
X143273529Y-105916618D01*
X143286516Y-105925149D01*
X143299913Y-105935541D01*
X143299918Y-105935544D01*
X143304840Y-105939362D01*
X143317883Y-105945006D01*
X143363775Y-105985465D01*
X143377124Y-106045177D01*
X143352825Y-106101330D01*
X143338833Y-106114402D01*
X143296718Y-106146718D01*
X143292764Y-106151871D01*
X143266371Y-106186267D01*
X143215947Y-106220923D01*
X143187829Y-106225000D01*
X143140600Y-106225000D01*
X143127915Y-106229122D01*
X143126859Y-106230574D01*
X143126364Y-106235967D01*
X143131803Y-106277283D01*
X143135134Y-106289716D01*
X143148470Y-106321912D01*
X143153271Y-106382909D01*
X143148470Y-106397683D01*
X143139956Y-106418238D01*
X143139110Y-106424666D01*
X143139109Y-106424669D01*
X143128554Y-106504845D01*
X143124500Y-106535639D01*
X143124501Y-106814360D01*
X143124924Y-106817571D01*
X143124924Y-106817576D01*
X143133776Y-106884814D01*
X143139956Y-106931762D01*
X143142438Y-106937755D01*
X143142440Y-106937761D01*
X143152528Y-106962115D01*
X143157328Y-107023112D01*
X143152528Y-107037885D01*
X143142441Y-107062238D01*
X143139956Y-107068238D01*
X143124500Y-107185639D01*
X143124501Y-107464360D01*
X143124924Y-107467571D01*
X143124924Y-107467576D01*
X143133754Y-107534650D01*
X143139956Y-107581762D01*
X143142438Y-107587755D01*
X143142440Y-107587761D01*
X143152528Y-107612115D01*
X143157328Y-107673112D01*
X143152528Y-107687885D01*
X143142581Y-107711900D01*
X143139956Y-107718238D01*
X143129890Y-107794696D01*
X143126501Y-107820443D01*
X143124500Y-107835639D01*
X143124501Y-107927184D01*
X143124501Y-107957268D01*
X143105594Y-108015459D01*
X143069468Y-108043482D01*
X143070379Y-108045138D01*
X143064919Y-108048139D01*
X143059129Y-108050432D01*
X143054090Y-108054093D01*
X143021246Y-108077955D01*
X143013452Y-108083075D01*
X142973135Y-108106919D01*
X142956736Y-108123318D01*
X142944923Y-108133407D01*
X142939897Y-108137059D01*
X142926163Y-108147037D01*
X142922192Y-108151837D01*
X142922191Y-108151838D01*
X142896318Y-108183113D01*
X142890041Y-108190013D01*
X140031287Y-111048767D01*
X139976770Y-111076544D01*
X139916338Y-111066973D01*
X139873073Y-111023708D01*
X139863130Y-110991682D01*
X139862973Y-110990484D01*
X139862463Y-110986615D01*
X139860892Y-110974676D01*
X139860891Y-110974672D01*
X139860044Y-110968238D01*
X139851530Y-110947683D01*
X139846730Y-110886686D01*
X139851530Y-110871912D01*
X139864868Y-110839712D01*
X139868197Y-110827288D01*
X139873034Y-110790545D01*
X139870604Y-110777431D01*
X139869301Y-110776195D01*
X139864020Y-110775000D01*
X139812171Y-110775000D01*
X139753980Y-110756093D01*
X139733629Y-110736267D01*
X139707236Y-110701871D01*
X139703282Y-110696718D01*
X139647014Y-110653542D01*
X139612358Y-110603117D01*
X139613960Y-110541953D01*
X139647014Y-110496458D01*
X139691337Y-110462448D01*
X139703282Y-110453282D01*
X139723194Y-110427332D01*
X139733629Y-110413733D01*
X139784053Y-110379077D01*
X139812171Y-110375000D01*
X139859400Y-110375000D01*
X139872085Y-110370878D01*
X139873141Y-110369426D01*
X139873636Y-110364033D01*
X139868197Y-110322717D01*
X139864866Y-110310284D01*
X139851530Y-110278088D01*
X139846729Y-110217091D01*
X139851530Y-110202317D01*
X139857561Y-110187756D01*
X139860044Y-110181762D01*
X139861309Y-110172159D01*
X139875077Y-110067574D01*
X139875500Y-110064361D01*
X139875499Y-109785640D01*
X139869680Y-109741438D01*
X139880830Y-109681278D01*
X139897829Y-109658513D01*
X141402002Y-108154340D01*
X141408899Y-108148065D01*
X141412685Y-108144933D01*
X141417940Y-108141598D01*
X141422200Y-108137061D01*
X141422203Y-108137059D01*
X141466111Y-108090301D01*
X141468275Y-108088067D01*
X141488911Y-108067431D01*
X141492339Y-108063012D01*
X141498382Y-108055936D01*
X141530448Y-108021789D01*
X141540856Y-108002857D01*
X141541618Y-108001471D01*
X141550149Y-107988484D01*
X141560543Y-107975084D01*
X141560545Y-107975081D01*
X141564362Y-107970160D01*
X141582960Y-107927181D01*
X141587063Y-107918807D01*
X141606626Y-107883223D01*
X141606626Y-107883222D01*
X141609627Y-107877764D01*
X141611175Y-107871733D01*
X141611177Y-107871729D01*
X141615394Y-107855302D01*
X141620427Y-107840601D01*
X141627163Y-107825037D01*
X141627165Y-107825029D01*
X141629635Y-107819322D01*
X141636961Y-107773067D01*
X141638852Y-107763940D01*
X141648952Y-107724606D01*
X141648953Y-107724598D01*
X141650500Y-107718573D01*
X141650500Y-107695384D01*
X141651719Y-107679896D01*
X141654373Y-107663142D01*
X141654373Y-107663140D01*
X141655347Y-107656991D01*
X141650939Y-107610362D01*
X141650500Y-107601045D01*
X141650500Y-104545850D01*
X141669407Y-104487659D01*
X141718907Y-104451695D01*
X141780093Y-104451695D01*
X141819504Y-104475846D01*
G37*
%TD.AperFunction*%
%TD*%
M02*
