%TF.GenerationSoftware,KiCad,Pcbnew,(6.0.8-1)-1*%
%TF.CreationDate,2022-11-20T20:32:36+00:00*%
%TF.ProjectId,esp32-network-dac,65737033-322d-46e6-9574-776f726b2d64,0.1*%
%TF.SameCoordinates,Original*%
%TF.FileFunction,Copper,L2,Inr*%
%TF.FilePolarity,Positive*%
%FSLAX46Y46*%
G04 Gerber Fmt 4.6, Leading zero omitted, Abs format (unit mm)*
G04 Created by KiCad (PCBNEW (6.0.8-1)-1) date 2022-11-20 20:32:36*
%MOMM*%
%LPD*%
G01*
G04 APERTURE LIST*
%TA.AperFunction,ComponentPad*%
%ADD10O,3.200000X1.600000*%
%TD*%
%TA.AperFunction,ComponentPad*%
%ADD11O,1.600000X3.200000*%
%TD*%
%TA.AperFunction,ComponentPad*%
%ADD12R,1.700000X1.700000*%
%TD*%
%TA.AperFunction,ComponentPad*%
%ADD13O,1.700000X1.700000*%
%TD*%
%TA.AperFunction,ComponentPad*%
%ADD14O,2.000000X1.000000*%
%TD*%
%TA.AperFunction,ViaPad*%
%ADD15C,0.700000*%
%TD*%
G04 APERTURE END LIST*
D10*
%TO.N,GND*%
%TO.C,J2*%
X162357500Y-114675000D03*
%TO.N,/JACKL*%
X160357500Y-112275000D03*
%TO.N,/JACKR*%
X160357500Y-106775000D03*
D11*
%TO.N,GND*%
X166507500Y-113675000D03*
X166507500Y-104775000D03*
X157907500Y-104775000D03*
%TD*%
D12*
%TO.N,VBUS*%
%TO.C,J3*%
X113300000Y-102000000D03*
D13*
%TO.N,ESP32_Rx*%
X110760000Y-102000000D03*
%TO.N,ESP32_Tx*%
X108220000Y-102000000D03*
%TO.N,GND*%
X105680000Y-102000000D03*
%TD*%
D14*
%TO.N,unconnected-(J1-PadS1)*%
%TO.C,J1*%
X100700000Y-109180000D03*
X100700000Y-117820000D03*
X96900000Y-109180000D03*
X96900000Y-117820000D03*
%TD*%
D15*
%TO.N,GND*%
X102500000Y-99000000D03*
X121500000Y-118000000D03*
X119000000Y-109500000D03*
X119000000Y-107500000D03*
X121000000Y-112000000D03*
X138500000Y-97500000D03*
X137000000Y-103500000D03*
X153000000Y-87000000D03*
X142500000Y-111000000D03*
X147500000Y-117500000D03*
X139000000Y-87000000D03*
X106000000Y-83500000D03*
X123000000Y-95000000D03*
X107000000Y-117500000D03*
X121000000Y-82000000D03*
X131500000Y-99000000D03*
X142000000Y-107500000D03*
X130000000Y-112000000D03*
X139000000Y-76500000D03*
X150500000Y-99000000D03*
X104000000Y-108500000D03*
X154000000Y-99000000D03*
X154500000Y-117500000D03*
X109000000Y-113000000D03*
%TO.N,+3V3*%
X103007202Y-93992798D03*
X123500000Y-118000000D03*
X136500000Y-116500000D03*
X109000000Y-108500000D03*
%TO.N,+3.3VA*%
X147020000Y-99480000D03*
X147500000Y-114500000D03*
%TO.N,ESP32_Tx*%
X105500000Y-76500000D03*
%TO.N,ESP32_Rx*%
X107000000Y-76500000D03*
%TO.N,PCM_BCK*%
X113000000Y-76500000D03*
X140300500Y-106500000D03*
%TO.N,PCM_DIN*%
X136500000Y-106000000D03*
X114500000Y-89500000D03*
%TO.N,PCM_LRCK*%
X140000000Y-107500000D03*
X113000000Y-90000000D03*
%TD*%
%TA.AperFunction,Conductor*%
%TO.N,GND*%
G36*
X167958691Y-73518907D02*
G01*
X167994655Y-73568407D01*
X167999500Y-73599000D01*
X167999500Y-103753552D01*
X167980593Y-103811743D01*
X167931093Y-103847707D01*
X167869907Y-103847707D01*
X167820407Y-103811743D01*
X167801877Y-103762180D01*
X167800926Y-103751312D01*
X167799430Y-103742824D01*
X167742431Y-103530102D01*
X167739485Y-103522009D01*
X167646418Y-103322427D01*
X167642106Y-103314957D01*
X167515792Y-103134563D01*
X167510259Y-103127968D01*
X167354532Y-102972241D01*
X167347937Y-102966708D01*
X167167543Y-102840394D01*
X167160073Y-102836082D01*
X166960491Y-102743015D01*
X166952398Y-102740069D01*
X166776645Y-102692976D01*
X166764359Y-102693620D01*
X166761500Y-102703273D01*
X166761500Y-106845402D01*
X166765302Y-106857104D01*
X166775364Y-106857367D01*
X166952398Y-106809931D01*
X166960491Y-106806985D01*
X167160073Y-106713918D01*
X167167543Y-106709606D01*
X167347937Y-106583292D01*
X167354532Y-106577759D01*
X167510259Y-106422032D01*
X167515792Y-106415437D01*
X167642106Y-106235043D01*
X167646418Y-106227573D01*
X167739485Y-106027991D01*
X167742431Y-106019898D01*
X167799430Y-105807176D01*
X167800926Y-105798688D01*
X167801877Y-105787820D01*
X167825784Y-105731498D01*
X167878230Y-105699985D01*
X167939182Y-105705318D01*
X167985360Y-105745459D01*
X167999500Y-105796448D01*
X167999500Y-112653552D01*
X167980593Y-112711743D01*
X167931093Y-112747707D01*
X167869907Y-112747707D01*
X167820407Y-112711743D01*
X167801877Y-112662180D01*
X167800926Y-112651312D01*
X167799430Y-112642824D01*
X167742431Y-112430102D01*
X167739485Y-112422009D01*
X167646418Y-112222427D01*
X167642106Y-112214957D01*
X167515792Y-112034563D01*
X167510259Y-112027968D01*
X167354532Y-111872241D01*
X167347937Y-111866708D01*
X167167543Y-111740394D01*
X167160073Y-111736082D01*
X166960491Y-111643015D01*
X166952398Y-111640069D01*
X166776645Y-111592976D01*
X166764359Y-111593620D01*
X166761500Y-111603273D01*
X166761500Y-115745402D01*
X166765302Y-115757104D01*
X166775364Y-115757367D01*
X166952398Y-115709931D01*
X166960491Y-115706985D01*
X167160073Y-115613918D01*
X167167543Y-115609606D01*
X167347937Y-115483292D01*
X167354532Y-115477759D01*
X167510259Y-115322032D01*
X167515792Y-115315437D01*
X167642106Y-115135043D01*
X167646418Y-115127573D01*
X167739485Y-114927991D01*
X167742431Y-114919898D01*
X167799430Y-114707176D01*
X167800926Y-114698688D01*
X167801877Y-114687820D01*
X167825784Y-114631498D01*
X167878230Y-114599985D01*
X167939182Y-114605318D01*
X167985360Y-114645459D01*
X167999500Y-114696448D01*
X167999500Y-120901000D01*
X167980593Y-120959191D01*
X167931093Y-120995155D01*
X167900500Y-121000000D01*
X95599000Y-121000000D01*
X95540809Y-120981093D01*
X95504845Y-120931593D01*
X95500000Y-120901000D01*
X95500000Y-118573217D01*
X95518907Y-118515026D01*
X95568407Y-118479062D01*
X95629593Y-118479062D01*
X95670931Y-118505195D01*
X95742881Y-118581280D01*
X95746986Y-118584154D01*
X95746989Y-118584157D01*
X95830358Y-118642532D01*
X95909379Y-118697863D01*
X95913975Y-118699852D01*
X95913977Y-118699853D01*
X96001118Y-118737562D01*
X96095919Y-118778586D01*
X96294880Y-118820151D01*
X96299432Y-118820390D01*
X96300234Y-118820432D01*
X96300249Y-118820432D01*
X96301539Y-118820500D01*
X97450800Y-118820500D01*
X97453288Y-118820247D01*
X97453294Y-118820247D01*
X97521398Y-118813329D01*
X97602216Y-118805120D01*
X97796172Y-118744338D01*
X97973944Y-118645797D01*
X98128271Y-118513523D01*
X98252848Y-118352919D01*
X98342587Y-118170545D01*
X98387011Y-118000000D01*
X98392557Y-117978710D01*
X98392558Y-117978706D01*
X98393822Y-117973852D01*
X98399310Y-117869126D01*
X99195541Y-117869126D01*
X99225935Y-118070097D01*
X99296119Y-118260852D01*
X99403226Y-118433599D01*
X99542881Y-118581280D01*
X99546986Y-118584154D01*
X99546989Y-118584157D01*
X99630358Y-118642532D01*
X99709379Y-118697863D01*
X99713975Y-118699852D01*
X99713977Y-118699853D01*
X99801118Y-118737562D01*
X99895919Y-118778586D01*
X100094880Y-118820151D01*
X100099432Y-118820390D01*
X100100234Y-118820432D01*
X100100249Y-118820432D01*
X100101539Y-118820500D01*
X101250800Y-118820500D01*
X101253288Y-118820247D01*
X101253294Y-118820247D01*
X101321398Y-118813329D01*
X101402216Y-118805120D01*
X101596172Y-118744338D01*
X101773944Y-118645797D01*
X101928271Y-118513523D01*
X102052848Y-118352919D01*
X102142587Y-118170545D01*
X102187011Y-118000000D01*
X122644815Y-118000000D01*
X122663503Y-118177803D01*
X122665104Y-118182730D01*
X122665105Y-118182735D01*
X122717148Y-118342905D01*
X122718750Y-118347835D01*
X122721341Y-118352323D01*
X122721342Y-118352325D01*
X122768266Y-118433599D01*
X122808141Y-118502665D01*
X122927770Y-118635526D01*
X122931968Y-118638576D01*
X122931969Y-118638577D01*
X122945257Y-118648231D01*
X123072407Y-118740612D01*
X123153231Y-118776597D01*
X123230995Y-118811220D01*
X123230999Y-118811221D01*
X123235733Y-118813329D01*
X123240803Y-118814407D01*
X123240804Y-118814407D01*
X123264163Y-118819372D01*
X123410609Y-118850500D01*
X123589391Y-118850500D01*
X123735837Y-118819372D01*
X123759196Y-118814407D01*
X123759197Y-118814407D01*
X123764267Y-118813329D01*
X123769001Y-118811221D01*
X123769005Y-118811220D01*
X123846769Y-118776597D01*
X123927593Y-118740612D01*
X124054743Y-118648231D01*
X124068031Y-118638577D01*
X124068032Y-118638576D01*
X124072230Y-118635526D01*
X124191859Y-118502665D01*
X124231734Y-118433599D01*
X124278658Y-118352325D01*
X124278659Y-118352323D01*
X124281250Y-118347835D01*
X124282852Y-118342905D01*
X124334895Y-118182735D01*
X124334896Y-118182730D01*
X124336497Y-118177803D01*
X124355185Y-118000000D01*
X124336497Y-117822197D01*
X124334896Y-117817270D01*
X124334895Y-117817265D01*
X124282852Y-117657095D01*
X124282851Y-117657094D01*
X124281250Y-117652165D01*
X124191859Y-117497335D01*
X124072230Y-117364474D01*
X123927593Y-117259388D01*
X123808582Y-117206401D01*
X123769005Y-117188780D01*
X123769001Y-117188779D01*
X123764267Y-117186671D01*
X123759197Y-117185593D01*
X123759196Y-117185593D01*
X123725272Y-117178382D01*
X123589391Y-117149500D01*
X123410609Y-117149500D01*
X123274728Y-117178382D01*
X123240804Y-117185593D01*
X123240803Y-117185593D01*
X123235733Y-117186671D01*
X123230999Y-117188779D01*
X123230995Y-117188780D01*
X123077142Y-117257280D01*
X123077140Y-117257281D01*
X123072408Y-117259388D01*
X122927770Y-117364474D01*
X122924304Y-117368324D01*
X122924300Y-117368327D01*
X122837295Y-117464956D01*
X122808141Y-117497335D01*
X122718750Y-117652165D01*
X122717149Y-117657094D01*
X122717148Y-117657095D01*
X122665105Y-117817265D01*
X122665104Y-117817270D01*
X122663503Y-117822197D01*
X122644815Y-118000000D01*
X102187011Y-118000000D01*
X102192557Y-117978710D01*
X102192558Y-117978706D01*
X102193822Y-117973852D01*
X102204459Y-117770874D01*
X102174065Y-117569903D01*
X102103881Y-117379148D01*
X101996774Y-117206401D01*
X101857119Y-117058720D01*
X101853014Y-117055846D01*
X101853011Y-117055843D01*
X101694727Y-116945012D01*
X101690621Y-116942137D01*
X101686025Y-116940148D01*
X101686023Y-116940147D01*
X101508677Y-116863403D01*
X101508678Y-116863403D01*
X101504081Y-116861414D01*
X101305120Y-116819849D01*
X101300568Y-116819610D01*
X101299766Y-116819568D01*
X101299751Y-116819568D01*
X101298461Y-116819500D01*
X100149200Y-116819500D01*
X100146712Y-116819753D01*
X100146706Y-116819753D01*
X100086184Y-116825901D01*
X99997784Y-116834880D01*
X99803828Y-116895662D01*
X99626056Y-116994203D01*
X99471729Y-117126477D01*
X99347152Y-117287081D01*
X99257413Y-117469455D01*
X99206178Y-117666148D01*
X99195541Y-117869126D01*
X98399310Y-117869126D01*
X98404459Y-117770874D01*
X98374065Y-117569903D01*
X98303881Y-117379148D01*
X98196774Y-117206401D01*
X98057119Y-117058720D01*
X98053014Y-117055846D01*
X98053011Y-117055843D01*
X97894727Y-116945012D01*
X97890621Y-116942137D01*
X97886025Y-116940148D01*
X97886023Y-116940147D01*
X97708677Y-116863403D01*
X97708678Y-116863403D01*
X97704081Y-116861414D01*
X97505120Y-116819849D01*
X97500568Y-116819610D01*
X97499766Y-116819568D01*
X97499751Y-116819568D01*
X97498461Y-116819500D01*
X96349200Y-116819500D01*
X96346712Y-116819753D01*
X96346706Y-116819753D01*
X96286184Y-116825901D01*
X96197784Y-116834880D01*
X96003828Y-116895662D01*
X95826056Y-116994203D01*
X95763054Y-117048202D01*
X95675532Y-117123217D01*
X95675530Y-117123219D01*
X95671729Y-117126477D01*
X95670043Y-117128650D01*
X95616872Y-117157401D01*
X95556224Y-117149309D01*
X95511915Y-117107114D01*
X95500000Y-117060027D01*
X95500000Y-116500000D01*
X135644815Y-116500000D01*
X135663503Y-116677803D01*
X135665104Y-116682730D01*
X135665105Y-116682735D01*
X135715027Y-116836378D01*
X135718750Y-116847835D01*
X135721341Y-116852323D01*
X135721342Y-116852325D01*
X135805548Y-116998174D01*
X135808141Y-117002665D01*
X135927770Y-117135526D01*
X136072407Y-117240612D01*
X136154070Y-117276970D01*
X136230995Y-117311220D01*
X136230999Y-117311221D01*
X136235733Y-117313329D01*
X136240803Y-117314407D01*
X136240804Y-117314407D01*
X136274728Y-117321618D01*
X136410609Y-117350500D01*
X136589391Y-117350500D01*
X136725272Y-117321618D01*
X136759196Y-117314407D01*
X136759197Y-117314407D01*
X136764267Y-117313329D01*
X136769001Y-117311221D01*
X136769005Y-117311220D01*
X136845930Y-117276971D01*
X136927593Y-117240612D01*
X137072230Y-117135526D01*
X137191859Y-117002665D01*
X137194452Y-116998174D01*
X137278658Y-116852325D01*
X137278659Y-116852323D01*
X137281250Y-116847835D01*
X137284973Y-116836378D01*
X137334895Y-116682735D01*
X137334896Y-116682730D01*
X137336497Y-116677803D01*
X137355185Y-116500000D01*
X137336497Y-116322197D01*
X137334896Y-116317270D01*
X137334895Y-116317265D01*
X137282852Y-116157095D01*
X137282851Y-116157094D01*
X137281250Y-116152165D01*
X137191859Y-115997335D01*
X137072230Y-115864474D01*
X136927593Y-115759388D01*
X136845930Y-115723029D01*
X136769005Y-115688780D01*
X136769001Y-115688779D01*
X136764267Y-115686671D01*
X136759197Y-115685593D01*
X136759196Y-115685593D01*
X136722339Y-115677759D01*
X136589391Y-115649500D01*
X136410609Y-115649500D01*
X136277661Y-115677759D01*
X136240804Y-115685593D01*
X136240803Y-115685593D01*
X136235733Y-115686671D01*
X136230999Y-115688779D01*
X136230995Y-115688780D01*
X136077142Y-115757280D01*
X136077140Y-115757281D01*
X136072408Y-115759388D01*
X135927770Y-115864474D01*
X135924304Y-115868324D01*
X135924300Y-115868327D01*
X135821048Y-115983000D01*
X135808141Y-115997335D01*
X135718750Y-116152165D01*
X135717149Y-116157094D01*
X135717148Y-116157095D01*
X135665105Y-116317265D01*
X135665104Y-116317270D01*
X135663503Y-116322197D01*
X135644815Y-116500000D01*
X95500000Y-116500000D01*
X95500000Y-114500000D01*
X146644815Y-114500000D01*
X146663503Y-114677803D01*
X146665104Y-114682730D01*
X146665105Y-114682735D01*
X146717148Y-114842905D01*
X146718750Y-114847835D01*
X146721341Y-114852323D01*
X146721342Y-114852325D01*
X146774663Y-114944680D01*
X146808141Y-115002665D01*
X146927770Y-115135526D01*
X147072407Y-115240612D01*
X147154070Y-115276971D01*
X147230995Y-115311220D01*
X147230999Y-115311221D01*
X147235733Y-115313329D01*
X147240803Y-115314407D01*
X147240804Y-115314407D01*
X147245650Y-115315437D01*
X147410609Y-115350500D01*
X147589391Y-115350500D01*
X147754350Y-115315437D01*
X147759196Y-115314407D01*
X147759197Y-115314407D01*
X147764267Y-115313329D01*
X147769001Y-115311221D01*
X147769005Y-115311220D01*
X147845930Y-115276970D01*
X147927593Y-115240612D01*
X148072230Y-115135526D01*
X148191859Y-115002665D01*
X148225337Y-114944680D01*
X148226385Y-114942864D01*
X160275133Y-114942864D01*
X160322569Y-115119898D01*
X160325515Y-115127991D01*
X160418582Y-115327573D01*
X160422894Y-115335043D01*
X160549208Y-115515437D01*
X160554741Y-115522032D01*
X160710468Y-115677759D01*
X160717063Y-115683292D01*
X160897457Y-115809606D01*
X160904927Y-115813918D01*
X161104509Y-115906985D01*
X161112602Y-115909931D01*
X161325324Y-115966930D01*
X161333812Y-115968426D01*
X161498229Y-115982811D01*
X161502566Y-115983000D01*
X162087820Y-115983000D01*
X162100505Y-115978878D01*
X162103500Y-115974757D01*
X162103500Y-115967320D01*
X162611500Y-115967320D01*
X162615622Y-115980005D01*
X162619743Y-115983000D01*
X163212434Y-115983000D01*
X163216771Y-115982811D01*
X163381188Y-115968426D01*
X163389676Y-115966930D01*
X163602398Y-115909931D01*
X163610491Y-115906985D01*
X163810073Y-115813918D01*
X163817543Y-115809606D01*
X163997937Y-115683292D01*
X164004532Y-115677759D01*
X164160259Y-115522032D01*
X164165792Y-115515437D01*
X164292106Y-115335043D01*
X164296418Y-115327573D01*
X164389485Y-115127991D01*
X164392431Y-115119898D01*
X164439524Y-114944145D01*
X164438880Y-114931859D01*
X164429227Y-114929000D01*
X162627180Y-114929000D01*
X162614495Y-114933122D01*
X162611500Y-114937243D01*
X162611500Y-115967320D01*
X162103500Y-115967320D01*
X162103500Y-114944680D01*
X162099378Y-114931995D01*
X162095257Y-114929000D01*
X160287098Y-114929000D01*
X160275396Y-114932802D01*
X160275133Y-114942864D01*
X148226385Y-114942864D01*
X148278658Y-114852325D01*
X148278659Y-114852323D01*
X148281250Y-114847835D01*
X148282852Y-114842905D01*
X148334895Y-114682735D01*
X148334896Y-114682730D01*
X148336497Y-114677803D01*
X148352039Y-114529934D01*
X165199500Y-114529934D01*
X165199689Y-114534271D01*
X165214074Y-114698688D01*
X165215570Y-114707176D01*
X165272569Y-114919898D01*
X165275515Y-114927991D01*
X165368582Y-115127573D01*
X165372894Y-115135043D01*
X165499208Y-115315437D01*
X165504741Y-115322032D01*
X165660468Y-115477759D01*
X165667063Y-115483292D01*
X165847457Y-115609606D01*
X165854927Y-115613918D01*
X166054509Y-115706985D01*
X166062602Y-115709931D01*
X166238355Y-115757024D01*
X166250641Y-115756380D01*
X166253500Y-115746727D01*
X166253500Y-113944680D01*
X166249378Y-113931995D01*
X166245257Y-113929000D01*
X165215180Y-113929000D01*
X165202495Y-113933122D01*
X165199500Y-113937243D01*
X165199500Y-114529934D01*
X148352039Y-114529934D01*
X148355185Y-114500000D01*
X148336497Y-114322197D01*
X148334896Y-114317270D01*
X148334895Y-114317265D01*
X148282852Y-114157095D01*
X148282851Y-114157094D01*
X148281250Y-114152165D01*
X148191859Y-113997335D01*
X148072230Y-113864474D01*
X147927593Y-113759388D01*
X147805644Y-113705093D01*
X147769005Y-113688780D01*
X147769001Y-113688779D01*
X147764267Y-113686671D01*
X147759197Y-113685593D01*
X147759196Y-113685593D01*
X147696379Y-113672241D01*
X147589391Y-113649500D01*
X147410609Y-113649500D01*
X147303621Y-113672241D01*
X147240804Y-113685593D01*
X147240803Y-113685593D01*
X147235733Y-113686671D01*
X147230999Y-113688779D01*
X147230995Y-113688780D01*
X147077142Y-113757280D01*
X147077140Y-113757281D01*
X147072408Y-113759388D01*
X146927770Y-113864474D01*
X146924304Y-113868324D01*
X146924300Y-113868327D01*
X146865959Y-113933122D01*
X146808141Y-113997335D01*
X146718750Y-114152165D01*
X146717149Y-114157094D01*
X146717148Y-114157095D01*
X146665105Y-114317265D01*
X146665104Y-114317270D01*
X146663503Y-114322197D01*
X146644815Y-114500000D01*
X95500000Y-114500000D01*
X95500000Y-112275000D01*
X158252032Y-112275000D01*
X158271865Y-112501692D01*
X158330761Y-112721496D01*
X158426932Y-112927734D01*
X158557453Y-113114139D01*
X158718361Y-113275047D01*
X158721899Y-113277524D01*
X158721901Y-113277526D01*
X158872078Y-113382680D01*
X158904766Y-113405568D01*
X159111004Y-113501739D01*
X159200063Y-113525602D01*
X159326631Y-113559516D01*
X159326633Y-113559516D01*
X159330808Y-113560635D01*
X159375295Y-113564527D01*
X159498550Y-113575311D01*
X159498561Y-113575311D01*
X159500716Y-113575500D01*
X160568201Y-113575500D01*
X160626392Y-113594407D01*
X160662356Y-113643907D01*
X160662356Y-113705093D01*
X160638205Y-113744504D01*
X160554741Y-113827968D01*
X160549208Y-113834563D01*
X160422894Y-114014957D01*
X160418582Y-114022427D01*
X160325515Y-114222009D01*
X160322569Y-114230102D01*
X160275476Y-114405855D01*
X160276120Y-114418141D01*
X160285773Y-114421000D01*
X162087820Y-114421000D01*
X162100505Y-114416878D01*
X162103500Y-114412757D01*
X162103500Y-114405320D01*
X162611500Y-114405320D01*
X162615622Y-114418005D01*
X162619743Y-114421000D01*
X164427902Y-114421000D01*
X164439604Y-114417198D01*
X164439867Y-114407136D01*
X164392431Y-114230102D01*
X164389485Y-114222009D01*
X164296418Y-114022427D01*
X164292106Y-114014957D01*
X164165792Y-113834563D01*
X164160259Y-113827968D01*
X164004532Y-113672241D01*
X163997937Y-113666708D01*
X163817543Y-113540394D01*
X163810073Y-113536082D01*
X163610491Y-113443015D01*
X163602398Y-113440069D01*
X163472714Y-113405320D01*
X165199500Y-113405320D01*
X165203622Y-113418005D01*
X165207743Y-113421000D01*
X166237820Y-113421000D01*
X166250505Y-113416878D01*
X166253500Y-113412757D01*
X166253500Y-111604598D01*
X166249698Y-111592896D01*
X166239636Y-111592633D01*
X166062602Y-111640069D01*
X166054509Y-111643015D01*
X165854927Y-111736082D01*
X165847457Y-111740394D01*
X165667063Y-111866708D01*
X165660468Y-111872241D01*
X165504741Y-112027968D01*
X165499208Y-112034563D01*
X165372894Y-112214957D01*
X165368582Y-112222427D01*
X165275515Y-112422009D01*
X165272569Y-112430102D01*
X165215570Y-112642824D01*
X165214074Y-112651312D01*
X165199689Y-112815729D01*
X165199500Y-112820066D01*
X165199500Y-113405320D01*
X163472714Y-113405320D01*
X163389676Y-113383070D01*
X163381188Y-113381574D01*
X163216771Y-113367189D01*
X163212434Y-113367000D01*
X162627180Y-113367000D01*
X162614495Y-113371122D01*
X162611500Y-113375243D01*
X162611500Y-114405320D01*
X162103500Y-114405320D01*
X162103500Y-113382680D01*
X162099378Y-113369994D01*
X162078656Y-113354938D01*
X162042693Y-113305438D01*
X162042694Y-113244252D01*
X162066844Y-113204842D01*
X162157547Y-113114139D01*
X162288068Y-112927734D01*
X162384239Y-112721496D01*
X162443135Y-112501692D01*
X162462968Y-112275000D01*
X162443135Y-112048308D01*
X162384239Y-111828504D01*
X162288068Y-111622266D01*
X162157547Y-111435861D01*
X161996639Y-111274953D01*
X161810234Y-111144432D01*
X161603996Y-111048261D01*
X161514937Y-111024398D01*
X161388369Y-110990484D01*
X161388367Y-110990484D01*
X161384192Y-110989365D01*
X161339705Y-110985473D01*
X161216450Y-110974689D01*
X161216439Y-110974689D01*
X161214284Y-110974500D01*
X159500716Y-110974500D01*
X159498561Y-110974689D01*
X159498550Y-110974689D01*
X159375295Y-110985473D01*
X159330808Y-110989365D01*
X159326633Y-110990484D01*
X159326631Y-110990484D01*
X159200063Y-111024398D01*
X159111004Y-111048261D01*
X158904766Y-111144432D01*
X158718361Y-111274953D01*
X158557453Y-111435861D01*
X158426932Y-111622266D01*
X158330761Y-111828504D01*
X158271865Y-112048308D01*
X158252032Y-112275000D01*
X95500000Y-112275000D01*
X95500000Y-109933217D01*
X95518907Y-109875026D01*
X95568407Y-109839062D01*
X95629593Y-109839062D01*
X95670931Y-109865195D01*
X95742881Y-109941280D01*
X95746986Y-109944154D01*
X95746989Y-109944157D01*
X95830358Y-110002532D01*
X95909379Y-110057863D01*
X95913975Y-110059852D01*
X95913977Y-110059853D01*
X96011156Y-110101906D01*
X96095919Y-110138586D01*
X96294880Y-110180151D01*
X96299432Y-110180390D01*
X96300234Y-110180432D01*
X96300249Y-110180432D01*
X96301539Y-110180500D01*
X97450800Y-110180500D01*
X97453288Y-110180247D01*
X97453294Y-110180247D01*
X97513816Y-110174099D01*
X97602216Y-110165120D01*
X97796172Y-110104338D01*
X97973944Y-110005797D01*
X98128271Y-109873523D01*
X98252848Y-109712919D01*
X98342587Y-109530545D01*
X98370044Y-109425135D01*
X98392557Y-109338710D01*
X98392558Y-109338706D01*
X98393822Y-109333852D01*
X98399310Y-109229126D01*
X99195541Y-109229126D01*
X99225935Y-109430097D01*
X99296119Y-109620852D01*
X99403226Y-109793599D01*
X99542881Y-109941280D01*
X99546986Y-109944154D01*
X99546989Y-109944157D01*
X99630358Y-110002532D01*
X99709379Y-110057863D01*
X99713975Y-110059852D01*
X99713977Y-110059853D01*
X99811156Y-110101906D01*
X99895919Y-110138586D01*
X100094880Y-110180151D01*
X100099432Y-110180390D01*
X100100234Y-110180432D01*
X100100249Y-110180432D01*
X100101539Y-110180500D01*
X101250800Y-110180500D01*
X101253288Y-110180247D01*
X101253294Y-110180247D01*
X101313816Y-110174099D01*
X101402216Y-110165120D01*
X101596172Y-110104338D01*
X101773944Y-110005797D01*
X101928271Y-109873523D01*
X102052848Y-109712919D01*
X102142587Y-109530545D01*
X102170044Y-109425135D01*
X102192557Y-109338710D01*
X102192558Y-109338706D01*
X102193822Y-109333852D01*
X102204459Y-109130874D01*
X102174065Y-108929903D01*
X102103881Y-108739148D01*
X101996774Y-108566401D01*
X101933982Y-108500000D01*
X108144815Y-108500000D01*
X108163503Y-108677803D01*
X108165104Y-108682730D01*
X108165105Y-108682735D01*
X108182052Y-108734891D01*
X108218750Y-108847835D01*
X108221341Y-108852323D01*
X108221342Y-108852325D01*
X108266132Y-108929903D01*
X108308141Y-109002665D01*
X108427770Y-109135526D01*
X108572407Y-109240612D01*
X108654070Y-109276971D01*
X108730995Y-109311220D01*
X108730999Y-109311221D01*
X108735733Y-109313329D01*
X108740803Y-109314407D01*
X108740804Y-109314407D01*
X108774728Y-109321618D01*
X108910609Y-109350500D01*
X109089391Y-109350500D01*
X109225272Y-109321618D01*
X109259196Y-109314407D01*
X109259197Y-109314407D01*
X109264267Y-109313329D01*
X109269001Y-109311221D01*
X109269005Y-109311220D01*
X109345930Y-109276970D01*
X109427593Y-109240612D01*
X109572230Y-109135526D01*
X109691859Y-109002665D01*
X109733868Y-108929903D01*
X109778658Y-108852325D01*
X109778659Y-108852323D01*
X109781250Y-108847835D01*
X109817948Y-108734891D01*
X109834895Y-108682735D01*
X109834896Y-108682730D01*
X109836497Y-108677803D01*
X109855185Y-108500000D01*
X109853421Y-108483212D01*
X109837039Y-108327355D01*
X109836497Y-108322197D01*
X109834896Y-108317270D01*
X109834895Y-108317265D01*
X109782852Y-108157095D01*
X109782851Y-108157094D01*
X109781250Y-108152165D01*
X109771644Y-108135526D01*
X109694452Y-108001826D01*
X109694451Y-108001825D01*
X109691859Y-107997335D01*
X109572230Y-107864474D01*
X109427593Y-107759388D01*
X109345930Y-107723030D01*
X109269005Y-107688780D01*
X109269001Y-107688779D01*
X109264267Y-107686671D01*
X109259197Y-107685593D01*
X109259196Y-107685593D01*
X109222546Y-107677803D01*
X109089391Y-107649500D01*
X108910609Y-107649500D01*
X108777454Y-107677803D01*
X108740804Y-107685593D01*
X108740803Y-107685593D01*
X108735733Y-107686671D01*
X108730999Y-107688779D01*
X108730995Y-107688780D01*
X108577142Y-107757280D01*
X108577140Y-107757281D01*
X108572408Y-107759388D01*
X108427770Y-107864474D01*
X108424304Y-107868324D01*
X108424300Y-107868327D01*
X108316036Y-107988567D01*
X108308141Y-107997335D01*
X108305549Y-108001825D01*
X108305548Y-108001826D01*
X108228357Y-108135526D01*
X108218750Y-108152165D01*
X108217149Y-108157094D01*
X108217148Y-108157095D01*
X108165105Y-108317265D01*
X108165104Y-108317270D01*
X108163503Y-108322197D01*
X108162961Y-108327355D01*
X108146580Y-108483212D01*
X108144815Y-108500000D01*
X101933982Y-108500000D01*
X101857119Y-108418720D01*
X101853014Y-108415846D01*
X101853011Y-108415843D01*
X101694727Y-108305012D01*
X101690621Y-108302137D01*
X101686025Y-108300148D01*
X101686023Y-108300147D01*
X101508677Y-108223403D01*
X101508678Y-108223403D01*
X101504081Y-108221414D01*
X101305120Y-108179849D01*
X101300568Y-108179610D01*
X101299766Y-108179568D01*
X101299751Y-108179568D01*
X101298461Y-108179500D01*
X100149200Y-108179500D01*
X100146712Y-108179753D01*
X100146706Y-108179753D01*
X100086184Y-108185901D01*
X99997784Y-108194880D01*
X99993004Y-108196378D01*
X99851853Y-108240612D01*
X99803828Y-108255662D01*
X99626056Y-108354203D01*
X99471729Y-108486477D01*
X99347152Y-108647081D01*
X99257413Y-108829455D01*
X99251456Y-108852325D01*
X99213465Y-108998174D01*
X99206178Y-109026148D01*
X99195541Y-109229126D01*
X98399310Y-109229126D01*
X98404459Y-109130874D01*
X98374065Y-108929903D01*
X98303881Y-108739148D01*
X98196774Y-108566401D01*
X98057119Y-108418720D01*
X98053014Y-108415846D01*
X98053011Y-108415843D01*
X97894727Y-108305012D01*
X97890621Y-108302137D01*
X97886025Y-108300148D01*
X97886023Y-108300147D01*
X97708677Y-108223403D01*
X97708678Y-108223403D01*
X97704081Y-108221414D01*
X97505120Y-108179849D01*
X97500568Y-108179610D01*
X97499766Y-108179568D01*
X97499751Y-108179568D01*
X97498461Y-108179500D01*
X96349200Y-108179500D01*
X96346712Y-108179753D01*
X96346706Y-108179753D01*
X96286184Y-108185901D01*
X96197784Y-108194880D01*
X96193004Y-108196378D01*
X96051853Y-108240612D01*
X96003828Y-108255662D01*
X95826056Y-108354203D01*
X95822247Y-108357468D01*
X95675532Y-108483217D01*
X95675530Y-108483219D01*
X95671729Y-108486477D01*
X95670043Y-108488650D01*
X95616872Y-108517401D01*
X95556224Y-108509309D01*
X95511915Y-108467114D01*
X95500000Y-108420027D01*
X95500000Y-107500000D01*
X139144815Y-107500000D01*
X139163503Y-107677803D01*
X139165104Y-107682730D01*
X139165105Y-107682735D01*
X139195905Y-107777526D01*
X139218750Y-107847835D01*
X139221341Y-107852323D01*
X139221342Y-107852325D01*
X139302837Y-107993479D01*
X139308141Y-108002665D01*
X139427770Y-108135526D01*
X139572407Y-108240612D01*
X139654070Y-108276971D01*
X139730995Y-108311220D01*
X139730999Y-108311221D01*
X139735733Y-108313329D01*
X139740803Y-108314407D01*
X139740804Y-108314407D01*
X139754250Y-108317265D01*
X139910609Y-108350500D01*
X140089391Y-108350500D01*
X140245750Y-108317265D01*
X140259196Y-108314407D01*
X140259197Y-108314407D01*
X140264267Y-108313329D01*
X140269001Y-108311221D01*
X140269005Y-108311220D01*
X140345930Y-108276971D01*
X140427593Y-108240612D01*
X140572230Y-108135526D01*
X140691859Y-108002665D01*
X140697163Y-107993479D01*
X140778658Y-107852325D01*
X140778659Y-107852323D01*
X140781250Y-107847835D01*
X140804095Y-107777526D01*
X140834895Y-107682735D01*
X140834896Y-107682730D01*
X140836497Y-107677803D01*
X140855185Y-107500000D01*
X140836497Y-107322197D01*
X140834894Y-107317262D01*
X140816575Y-107260881D01*
X140816576Y-107199696D01*
X140852538Y-107150198D01*
X140868525Y-107138583D01*
X140868536Y-107138574D01*
X140872730Y-107135526D01*
X140992359Y-107002665D01*
X141035406Y-106928105D01*
X141079158Y-106852325D01*
X141079159Y-106852323D01*
X141081750Y-106847835D01*
X141083352Y-106842905D01*
X141135395Y-106682735D01*
X141135396Y-106682730D01*
X141136997Y-106677803D01*
X141155685Y-106500000D01*
X141136997Y-106322197D01*
X141135396Y-106317270D01*
X141135395Y-106317265D01*
X141083352Y-106157095D01*
X141083351Y-106157094D01*
X141081750Y-106152165D01*
X140992359Y-105997335D01*
X140872730Y-105864474D01*
X140728093Y-105759388D01*
X140646430Y-105723029D01*
X140569505Y-105688780D01*
X140569501Y-105688779D01*
X140564767Y-105686671D01*
X140559697Y-105685593D01*
X140559696Y-105685593D01*
X140525772Y-105678382D01*
X140389891Y-105649500D01*
X140211109Y-105649500D01*
X140075228Y-105678382D01*
X140041304Y-105685593D01*
X140041303Y-105685593D01*
X140036233Y-105686671D01*
X140031499Y-105688779D01*
X140031495Y-105688780D01*
X139877642Y-105757280D01*
X139877640Y-105757281D01*
X139872908Y-105759388D01*
X139728270Y-105864474D01*
X139724804Y-105868324D01*
X139724800Y-105868327D01*
X139660805Y-105939401D01*
X139608641Y-105997335D01*
X139519250Y-106152165D01*
X139517649Y-106157094D01*
X139517648Y-106157095D01*
X139465605Y-106317265D01*
X139465604Y-106317270D01*
X139464003Y-106322197D01*
X139445315Y-106500000D01*
X139464003Y-106677803D01*
X139465604Y-106682731D01*
X139465607Y-106682744D01*
X139483925Y-106739119D01*
X139483926Y-106800304D01*
X139447961Y-106849804D01*
X139427770Y-106864474D01*
X139308141Y-106997335D01*
X139305549Y-107001825D01*
X139305548Y-107001826D01*
X139226592Y-107138583D01*
X139218750Y-107152165D01*
X139217149Y-107157094D01*
X139217148Y-107157095D01*
X139165105Y-107317265D01*
X139165104Y-107317270D01*
X139163503Y-107322197D01*
X139144815Y-107500000D01*
X95500000Y-107500000D01*
X95500000Y-106000000D01*
X135644815Y-106000000D01*
X135663503Y-106177803D01*
X135665104Y-106182730D01*
X135665105Y-106182735D01*
X135712469Y-106328504D01*
X135718750Y-106347835D01*
X135721341Y-106352323D01*
X135721342Y-106352325D01*
X135803625Y-106494843D01*
X135808141Y-106502665D01*
X135927770Y-106635526D01*
X136072407Y-106740612D01*
X136139966Y-106770691D01*
X136230995Y-106811220D01*
X136230999Y-106811221D01*
X136235733Y-106813329D01*
X136240803Y-106814407D01*
X136240804Y-106814407D01*
X136274728Y-106821618D01*
X136410609Y-106850500D01*
X136589391Y-106850500D01*
X136725272Y-106821618D01*
X136759196Y-106814407D01*
X136759197Y-106814407D01*
X136764267Y-106813329D01*
X136769001Y-106811221D01*
X136769005Y-106811220D01*
X136860034Y-106770691D01*
X136927593Y-106740612D01*
X137072230Y-106635526D01*
X137191859Y-106502665D01*
X137196375Y-106494843D01*
X137278658Y-106352325D01*
X137278659Y-106352323D01*
X137281250Y-106347835D01*
X137287531Y-106328504D01*
X137334895Y-106182735D01*
X137334896Y-106182730D01*
X137336497Y-106177803D01*
X137355185Y-106000000D01*
X137336497Y-105822197D01*
X137334896Y-105817270D01*
X137334895Y-105817265D01*
X137282852Y-105657095D01*
X137282851Y-105657094D01*
X137281250Y-105652165D01*
X137278219Y-105646914D01*
X137268416Y-105629934D01*
X156599500Y-105629934D01*
X156599689Y-105634271D01*
X156614074Y-105798688D01*
X156615570Y-105807176D01*
X156672569Y-106019898D01*
X156675515Y-106027991D01*
X156768582Y-106227573D01*
X156772894Y-106235043D01*
X156899208Y-106415437D01*
X156904741Y-106422032D01*
X157060468Y-106577759D01*
X157067063Y-106583292D01*
X157247457Y-106709606D01*
X157254927Y-106713918D01*
X157454509Y-106806985D01*
X157462602Y-106809931D01*
X157638355Y-106857024D01*
X157650641Y-106856380D01*
X157653500Y-106846727D01*
X157653500Y-106845402D01*
X158161500Y-106845402D01*
X158165302Y-106857104D01*
X158171101Y-106857256D01*
X158228777Y-106877681D01*
X158263432Y-106928105D01*
X158267132Y-106947594D01*
X158271865Y-107001692D01*
X158330761Y-107221496D01*
X158426932Y-107427734D01*
X158429413Y-107431277D01*
X158429414Y-107431279D01*
X158481144Y-107505157D01*
X158557453Y-107614139D01*
X158718361Y-107775047D01*
X158721899Y-107777524D01*
X158721901Y-107777526D01*
X158841727Y-107861428D01*
X158904766Y-107905568D01*
X159111004Y-108001739D01*
X159128851Y-108006521D01*
X159326631Y-108059516D01*
X159326633Y-108059516D01*
X159330808Y-108060635D01*
X159375295Y-108064527D01*
X159498550Y-108075311D01*
X159498561Y-108075311D01*
X159500716Y-108075500D01*
X161214284Y-108075500D01*
X161216439Y-108075311D01*
X161216450Y-108075311D01*
X161339705Y-108064527D01*
X161384192Y-108060635D01*
X161388367Y-108059516D01*
X161388369Y-108059516D01*
X161586149Y-108006521D01*
X161603996Y-108001739D01*
X161810234Y-107905568D01*
X161873273Y-107861428D01*
X161993099Y-107777526D01*
X161993101Y-107777524D01*
X161996639Y-107775047D01*
X162157547Y-107614139D01*
X162233857Y-107505157D01*
X162285586Y-107431279D01*
X162285587Y-107431277D01*
X162288068Y-107427734D01*
X162384239Y-107221496D01*
X162443135Y-107001692D01*
X162462968Y-106775000D01*
X162443135Y-106548308D01*
X162384239Y-106328504D01*
X162288068Y-106122266D01*
X162200591Y-105997335D01*
X162160026Y-105939401D01*
X162160024Y-105939399D01*
X162157547Y-105935861D01*
X161996639Y-105774953D01*
X161978759Y-105762433D01*
X161813779Y-105646914D01*
X161813777Y-105646913D01*
X161810234Y-105644432D01*
X161779143Y-105629934D01*
X165199500Y-105629934D01*
X165199689Y-105634271D01*
X165214074Y-105798688D01*
X165215570Y-105807176D01*
X165272569Y-106019898D01*
X165275515Y-106027991D01*
X165368582Y-106227573D01*
X165372894Y-106235043D01*
X165499208Y-106415437D01*
X165504741Y-106422032D01*
X165660468Y-106577759D01*
X165667063Y-106583292D01*
X165847457Y-106709606D01*
X165854927Y-106713918D01*
X166054509Y-106806985D01*
X166062602Y-106809931D01*
X166238355Y-106857024D01*
X166250641Y-106856380D01*
X166253500Y-106846727D01*
X166253500Y-105044680D01*
X166249378Y-105031995D01*
X166245257Y-105029000D01*
X165215180Y-105029000D01*
X165202495Y-105033122D01*
X165199500Y-105037243D01*
X165199500Y-105629934D01*
X161779143Y-105629934D01*
X161603996Y-105548261D01*
X161514937Y-105524398D01*
X161388369Y-105490484D01*
X161388367Y-105490484D01*
X161384192Y-105489365D01*
X161339705Y-105485473D01*
X161216450Y-105474689D01*
X161216439Y-105474689D01*
X161214284Y-105474500D01*
X159500716Y-105474500D01*
X159498561Y-105474689D01*
X159498550Y-105474689D01*
X159335113Y-105488988D01*
X159335109Y-105488989D01*
X159330808Y-105489365D01*
X159330555Y-105489433D01*
X159271099Y-105481076D01*
X159227087Y-105438572D01*
X159215500Y-105392096D01*
X159215500Y-105044680D01*
X159211378Y-105031995D01*
X159207257Y-105029000D01*
X158177180Y-105029000D01*
X158164495Y-105033122D01*
X158161500Y-105037243D01*
X158161500Y-106845402D01*
X157653500Y-106845402D01*
X157653500Y-105044680D01*
X157649378Y-105031995D01*
X157645257Y-105029000D01*
X156615180Y-105029000D01*
X156602495Y-105033122D01*
X156599500Y-105037243D01*
X156599500Y-105629934D01*
X137268416Y-105629934D01*
X137194452Y-105501826D01*
X137194451Y-105501825D01*
X137191859Y-105497335D01*
X137072230Y-105364474D01*
X136927593Y-105259388D01*
X136845930Y-105223030D01*
X136769005Y-105188780D01*
X136769001Y-105188779D01*
X136764267Y-105186671D01*
X136759197Y-105185593D01*
X136759196Y-105185593D01*
X136725272Y-105178382D01*
X136589391Y-105149500D01*
X136410609Y-105149500D01*
X136274728Y-105178382D01*
X136240804Y-105185593D01*
X136240803Y-105185593D01*
X136235733Y-105186671D01*
X136230999Y-105188779D01*
X136230995Y-105188780D01*
X136077142Y-105257280D01*
X136077140Y-105257281D01*
X136072408Y-105259388D01*
X135927770Y-105364474D01*
X135924304Y-105368324D01*
X135924300Y-105368327D01*
X135828702Y-105474500D01*
X135808141Y-105497335D01*
X135805549Y-105501825D01*
X135805548Y-105501826D01*
X135721782Y-105646914D01*
X135718750Y-105652165D01*
X135717149Y-105657094D01*
X135717148Y-105657095D01*
X135665105Y-105817265D01*
X135665104Y-105817270D01*
X135663503Y-105822197D01*
X135644815Y-106000000D01*
X95500000Y-106000000D01*
X95500000Y-104505320D01*
X156599500Y-104505320D01*
X156603622Y-104518005D01*
X156607743Y-104521000D01*
X157637820Y-104521000D01*
X157650505Y-104516878D01*
X157653500Y-104512757D01*
X157653500Y-104505320D01*
X158161500Y-104505320D01*
X158165622Y-104518005D01*
X158169743Y-104521000D01*
X159199820Y-104521000D01*
X159212505Y-104516878D01*
X159215500Y-104512757D01*
X159215500Y-104505320D01*
X165199500Y-104505320D01*
X165203622Y-104518005D01*
X165207743Y-104521000D01*
X166237820Y-104521000D01*
X166250505Y-104516878D01*
X166253500Y-104512757D01*
X166253500Y-102704598D01*
X166249698Y-102692896D01*
X166239636Y-102692633D01*
X166062602Y-102740069D01*
X166054509Y-102743015D01*
X165854927Y-102836082D01*
X165847457Y-102840394D01*
X165667063Y-102966708D01*
X165660468Y-102972241D01*
X165504741Y-103127968D01*
X165499208Y-103134563D01*
X165372894Y-103314957D01*
X165368582Y-103322427D01*
X165275515Y-103522009D01*
X165272569Y-103530102D01*
X165215570Y-103742824D01*
X165214074Y-103751312D01*
X165199689Y-103915729D01*
X165199500Y-103920066D01*
X165199500Y-104505320D01*
X159215500Y-104505320D01*
X159215500Y-103920066D01*
X159215311Y-103915729D01*
X159200926Y-103751312D01*
X159199430Y-103742824D01*
X159142431Y-103530102D01*
X159139485Y-103522009D01*
X159046418Y-103322427D01*
X159042106Y-103314957D01*
X158915792Y-103134563D01*
X158910259Y-103127968D01*
X158754532Y-102972241D01*
X158747937Y-102966708D01*
X158567543Y-102840394D01*
X158560073Y-102836082D01*
X158360491Y-102743015D01*
X158352398Y-102740069D01*
X158176645Y-102692976D01*
X158164359Y-102693620D01*
X158161500Y-102703273D01*
X158161500Y-104505320D01*
X157653500Y-104505320D01*
X157653500Y-102704598D01*
X157649698Y-102692896D01*
X157639636Y-102692633D01*
X157462602Y-102740069D01*
X157454509Y-102743015D01*
X157254927Y-102836082D01*
X157247457Y-102840394D01*
X157067063Y-102966708D01*
X157060468Y-102972241D01*
X156904741Y-103127968D01*
X156899208Y-103134563D01*
X156772894Y-103314957D01*
X156768582Y-103322427D01*
X156675515Y-103522009D01*
X156672569Y-103530102D01*
X156615570Y-103742824D01*
X156614074Y-103751312D01*
X156599689Y-103915729D01*
X156599500Y-103920066D01*
X156599500Y-104505320D01*
X95500000Y-104505320D01*
X95500000Y-102267014D01*
X104348043Y-102267014D01*
X104378807Y-102403524D01*
X104381231Y-102411258D01*
X104462183Y-102610620D01*
X104465840Y-102617860D01*
X104578266Y-102801322D01*
X104583056Y-102807867D01*
X104723935Y-102970502D01*
X104729729Y-102976176D01*
X104895292Y-103113629D01*
X104901921Y-103118270D01*
X105087713Y-103226838D01*
X105095008Y-103230334D01*
X105296038Y-103307099D01*
X105303808Y-103309357D01*
X105410637Y-103331091D01*
X105423846Y-103329586D01*
X105426000Y-103321405D01*
X105426000Y-103320952D01*
X105934000Y-103320952D01*
X105938122Y-103333637D01*
X105939650Y-103334748D01*
X105944884Y-103335238D01*
X105959291Y-103333392D01*
X105967200Y-103331710D01*
X106173304Y-103269876D01*
X106180852Y-103266918D01*
X106374087Y-103172253D01*
X106381046Y-103168104D01*
X106556231Y-103043148D01*
X106562412Y-103037924D01*
X106714831Y-102886035D01*
X106720088Y-102879858D01*
X106845651Y-102705119D01*
X106849823Y-102698176D01*
X106864280Y-102668923D01*
X106907012Y-102625133D01*
X106967323Y-102614824D01*
X107022175Y-102641933D01*
X107042753Y-102670942D01*
X107045965Y-102677829D01*
X107048446Y-102681372D01*
X107048447Y-102681374D01*
X107089546Y-102740069D01*
X107181505Y-102871401D01*
X107348599Y-103038495D01*
X107416750Y-103086215D01*
X107533700Y-103168104D01*
X107542170Y-103174035D01*
X107756337Y-103273903D01*
X107984592Y-103335063D01*
X108220000Y-103355659D01*
X108455408Y-103335063D01*
X108683663Y-103273903D01*
X108897830Y-103174035D01*
X108906301Y-103168104D01*
X109023250Y-103086215D01*
X109091401Y-103038495D01*
X109258495Y-102871401D01*
X109350454Y-102740069D01*
X109391553Y-102681374D01*
X109391554Y-102681372D01*
X109394035Y-102677829D01*
X109400277Y-102664443D01*
X109442004Y-102619697D01*
X109502065Y-102608022D01*
X109557518Y-102633880D01*
X109579722Y-102664441D01*
X109585965Y-102677829D01*
X109588446Y-102681372D01*
X109588447Y-102681374D01*
X109629546Y-102740069D01*
X109721505Y-102871401D01*
X109888599Y-103038495D01*
X109956750Y-103086215D01*
X110073700Y-103168104D01*
X110082170Y-103174035D01*
X110296337Y-103273903D01*
X110524592Y-103335063D01*
X110760000Y-103355659D01*
X110995408Y-103335063D01*
X111223663Y-103273903D01*
X111437830Y-103174035D01*
X111446301Y-103168104D01*
X111563250Y-103086215D01*
X111631401Y-103038495D01*
X111786049Y-102883847D01*
X111840566Y-102856070D01*
X111900998Y-102865641D01*
X111944263Y-102908906D01*
X111954474Y-102943160D01*
X111956149Y-102958580D01*
X111978303Y-103017678D01*
X111987852Y-103043148D01*
X112006474Y-103092824D01*
X112092454Y-103207546D01*
X112207176Y-103293526D01*
X112213782Y-103296003D01*
X112213785Y-103296004D01*
X112264344Y-103314957D01*
X112341420Y-103343851D01*
X112402623Y-103350500D01*
X113299664Y-103350500D01*
X114197376Y-103350499D01*
X114200035Y-103350210D01*
X114200038Y-103350210D01*
X114252405Y-103344522D01*
X114252407Y-103344522D01*
X114258580Y-103343851D01*
X114335656Y-103314957D01*
X114386215Y-103296004D01*
X114386218Y-103296003D01*
X114392824Y-103293526D01*
X114507546Y-103207546D01*
X114593526Y-103092824D01*
X114643851Y-102958580D01*
X114650500Y-102897377D01*
X114650499Y-101102624D01*
X114643851Y-101041420D01*
X114613893Y-100961505D01*
X114596004Y-100913785D01*
X114596003Y-100913782D01*
X114593526Y-100907176D01*
X114507546Y-100792454D01*
X114392824Y-100706474D01*
X114386218Y-100703997D01*
X114386215Y-100703996D01*
X114323983Y-100680667D01*
X114258580Y-100656149D01*
X114197377Y-100649500D01*
X113300336Y-100649500D01*
X112402624Y-100649501D01*
X112399965Y-100649790D01*
X112399962Y-100649790D01*
X112347595Y-100655478D01*
X112347593Y-100655478D01*
X112341420Y-100656149D01*
X112303464Y-100670378D01*
X112213785Y-100703996D01*
X112213782Y-100703997D01*
X112207176Y-100706474D01*
X112092454Y-100792454D01*
X112006474Y-100907176D01*
X111956149Y-101041420D01*
X111955479Y-101047589D01*
X111954474Y-101056839D01*
X111929394Y-101112648D01*
X111876300Y-101143057D01*
X111815472Y-101136450D01*
X111786049Y-101116153D01*
X111631401Y-100961505D01*
X111490799Y-100863054D01*
X111441375Y-100828447D01*
X111441373Y-100828446D01*
X111437830Y-100825965D01*
X111223663Y-100726097D01*
X110995408Y-100664937D01*
X110760000Y-100644341D01*
X110524592Y-100664937D01*
X110296337Y-100726097D01*
X110082171Y-100825965D01*
X109888599Y-100961505D01*
X109721505Y-101128599D01*
X109585965Y-101322171D01*
X109579723Y-101335557D01*
X109537996Y-101380303D01*
X109477935Y-101391978D01*
X109422482Y-101366120D01*
X109400278Y-101335559D01*
X109394035Y-101322171D01*
X109258495Y-101128599D01*
X109091401Y-100961505D01*
X108950799Y-100863054D01*
X108901375Y-100828447D01*
X108901373Y-100828446D01*
X108897830Y-100825965D01*
X108683663Y-100726097D01*
X108455408Y-100664937D01*
X108220000Y-100644341D01*
X107984592Y-100664937D01*
X107756337Y-100726097D01*
X107542171Y-100825965D01*
X107348599Y-100961505D01*
X107181505Y-101128599D01*
X107045965Y-101322171D01*
X107043278Y-101327933D01*
X107042742Y-101328508D01*
X107041979Y-101329830D01*
X107041674Y-101329654D01*
X107001556Y-101372683D01*
X106941496Y-101384363D01*
X106886041Y-101358510D01*
X106870430Y-101339874D01*
X106761826Y-101171997D01*
X106756880Y-101165575D01*
X106612065Y-101006426D01*
X106606139Y-101000899D01*
X106437269Y-100867534D01*
X106430525Y-100863054D01*
X106242141Y-100759060D01*
X106234749Y-100755738D01*
X106031920Y-100683912D01*
X106024081Y-100681841D01*
X105949436Y-100668545D01*
X105936226Y-100670378D01*
X105935805Y-100670782D01*
X105934000Y-100677996D01*
X105934000Y-103320952D01*
X105426000Y-103320952D01*
X105426000Y-102269680D01*
X105421878Y-102256995D01*
X105417757Y-102254000D01*
X104360790Y-102254000D01*
X104348460Y-102258006D01*
X104348043Y-102267014D01*
X95500000Y-102267014D01*
X95500000Y-101735384D01*
X104344056Y-101735384D01*
X104345756Y-101743462D01*
X104347566Y-101745098D01*
X104351792Y-101746000D01*
X105410320Y-101746000D01*
X105423005Y-101741878D01*
X105426000Y-101737757D01*
X105426000Y-100680667D01*
X105421878Y-100667982D01*
X105420877Y-100667254D01*
X105414549Y-100666739D01*
X105368220Y-100673829D01*
X105360348Y-100675705D01*
X105155807Y-100742558D01*
X105148350Y-100745693D01*
X104957479Y-100845054D01*
X104950627Y-100849369D01*
X104778544Y-100978573D01*
X104772491Y-100983947D01*
X104623830Y-101139513D01*
X104618727Y-101145814D01*
X104497466Y-101323575D01*
X104493468Y-101330613D01*
X104402871Y-101525790D01*
X104400073Y-101533394D01*
X104344056Y-101735384D01*
X95500000Y-101735384D01*
X95500000Y-99480000D01*
X146164815Y-99480000D01*
X146183503Y-99657803D01*
X146185104Y-99662730D01*
X146185105Y-99662735D01*
X146237148Y-99822905D01*
X146238750Y-99827835D01*
X146328141Y-99982665D01*
X146447770Y-100115526D01*
X146592407Y-100220612D01*
X146674070Y-100256970D01*
X146750995Y-100291220D01*
X146750999Y-100291221D01*
X146755733Y-100293329D01*
X146760803Y-100294407D01*
X146760804Y-100294407D01*
X146794728Y-100301618D01*
X146930609Y-100330500D01*
X147109391Y-100330500D01*
X147245272Y-100301618D01*
X147279196Y-100294407D01*
X147279197Y-100294407D01*
X147284267Y-100293329D01*
X147289001Y-100291221D01*
X147289005Y-100291220D01*
X147365930Y-100256970D01*
X147447593Y-100220612D01*
X147592230Y-100115526D01*
X147711859Y-99982665D01*
X147801250Y-99827835D01*
X147802852Y-99822905D01*
X147854895Y-99662735D01*
X147854896Y-99662730D01*
X147856497Y-99657803D01*
X147875185Y-99480000D01*
X147856497Y-99302197D01*
X147854896Y-99297270D01*
X147854895Y-99297265D01*
X147802852Y-99137095D01*
X147802851Y-99137094D01*
X147801250Y-99132165D01*
X147711859Y-98977335D01*
X147592230Y-98844474D01*
X147447593Y-98739388D01*
X147365930Y-98703029D01*
X147289005Y-98668780D01*
X147289001Y-98668779D01*
X147284267Y-98666671D01*
X147279197Y-98665593D01*
X147279196Y-98665593D01*
X147245272Y-98658382D01*
X147109391Y-98629500D01*
X146930609Y-98629500D01*
X146794728Y-98658382D01*
X146760804Y-98665593D01*
X146760803Y-98665593D01*
X146755733Y-98666671D01*
X146750999Y-98668779D01*
X146750995Y-98668780D01*
X146597142Y-98737280D01*
X146597140Y-98737281D01*
X146592408Y-98739388D01*
X146447770Y-98844474D01*
X146444304Y-98848324D01*
X146444300Y-98848327D01*
X146336036Y-98968567D01*
X146328141Y-98977335D01*
X146238750Y-99132165D01*
X146237149Y-99137094D01*
X146237148Y-99137095D01*
X146185105Y-99297265D01*
X146185104Y-99297270D01*
X146183503Y-99302197D01*
X146164815Y-99480000D01*
X95500000Y-99480000D01*
X95500000Y-93992798D01*
X102152017Y-93992798D01*
X102170705Y-94170601D01*
X102172306Y-94175528D01*
X102172307Y-94175533D01*
X102224350Y-94335703D01*
X102225952Y-94340633D01*
X102315343Y-94495463D01*
X102434972Y-94628324D01*
X102579609Y-94733410D01*
X102661272Y-94769769D01*
X102738197Y-94804018D01*
X102738201Y-94804019D01*
X102742935Y-94806127D01*
X102748005Y-94807205D01*
X102748006Y-94807205D01*
X102781930Y-94814416D01*
X102917811Y-94843298D01*
X103096593Y-94843298D01*
X103232474Y-94814416D01*
X103266398Y-94807205D01*
X103266399Y-94807205D01*
X103271469Y-94806127D01*
X103276203Y-94804019D01*
X103276207Y-94804018D01*
X103353132Y-94769769D01*
X103434795Y-94733410D01*
X103579432Y-94628324D01*
X103699061Y-94495463D01*
X103788452Y-94340633D01*
X103790054Y-94335703D01*
X103842097Y-94175533D01*
X103842098Y-94175528D01*
X103843699Y-94170601D01*
X103862387Y-93992798D01*
X103843699Y-93814995D01*
X103842098Y-93810068D01*
X103842097Y-93810063D01*
X103790054Y-93649893D01*
X103790053Y-93649892D01*
X103788452Y-93644963D01*
X103699061Y-93490133D01*
X103579432Y-93357272D01*
X103434795Y-93252186D01*
X103353132Y-93215828D01*
X103276207Y-93181578D01*
X103276203Y-93181577D01*
X103271469Y-93179469D01*
X103266399Y-93178391D01*
X103266398Y-93178391D01*
X103232474Y-93171180D01*
X103096593Y-93142298D01*
X102917811Y-93142298D01*
X102781930Y-93171180D01*
X102748006Y-93178391D01*
X102748005Y-93178391D01*
X102742935Y-93179469D01*
X102738201Y-93181577D01*
X102738197Y-93181578D01*
X102584344Y-93250078D01*
X102584342Y-93250079D01*
X102579610Y-93252186D01*
X102434972Y-93357272D01*
X102431506Y-93361122D01*
X102431502Y-93361125D01*
X102323238Y-93481365D01*
X102315343Y-93490133D01*
X102225952Y-93644963D01*
X102224351Y-93649892D01*
X102224350Y-93649893D01*
X102172307Y-93810063D01*
X102172306Y-93810068D01*
X102170705Y-93814995D01*
X102152017Y-93992798D01*
X95500000Y-93992798D01*
X95500000Y-90000000D01*
X112144815Y-90000000D01*
X112163503Y-90177803D01*
X112165104Y-90182730D01*
X112165105Y-90182735D01*
X112217145Y-90342896D01*
X112218750Y-90347835D01*
X112308141Y-90502665D01*
X112427770Y-90635526D01*
X112572407Y-90740612D01*
X112654070Y-90776970D01*
X112730995Y-90811220D01*
X112730999Y-90811221D01*
X112735733Y-90813329D01*
X112740803Y-90814407D01*
X112740804Y-90814407D01*
X112774728Y-90821618D01*
X112910609Y-90850500D01*
X113089391Y-90850500D01*
X113225272Y-90821618D01*
X113259196Y-90814407D01*
X113259197Y-90814407D01*
X113264267Y-90813329D01*
X113269001Y-90811221D01*
X113269005Y-90811220D01*
X113345930Y-90776970D01*
X113427593Y-90740612D01*
X113572230Y-90635526D01*
X113691859Y-90502665D01*
X113781250Y-90347835D01*
X113782852Y-90342905D01*
X113782856Y-90342896D01*
X113822936Y-90219544D01*
X113858900Y-90170044D01*
X113917091Y-90151137D01*
X113975281Y-90170045D01*
X114072407Y-90240612D01*
X114154070Y-90276970D01*
X114230995Y-90311220D01*
X114230999Y-90311221D01*
X114235733Y-90313329D01*
X114240803Y-90314407D01*
X114240804Y-90314407D01*
X114274728Y-90321618D01*
X114410609Y-90350500D01*
X114589391Y-90350500D01*
X114725272Y-90321618D01*
X114759196Y-90314407D01*
X114759197Y-90314407D01*
X114764267Y-90313329D01*
X114769001Y-90311221D01*
X114769005Y-90311220D01*
X114845930Y-90276970D01*
X114927593Y-90240612D01*
X115072230Y-90135526D01*
X115191859Y-90002665D01*
X115281250Y-89847835D01*
X115282852Y-89842905D01*
X115334895Y-89682735D01*
X115334896Y-89682730D01*
X115336497Y-89677803D01*
X115355185Y-89500000D01*
X115336497Y-89322197D01*
X115334896Y-89317270D01*
X115334895Y-89317265D01*
X115282852Y-89157095D01*
X115282851Y-89157094D01*
X115281250Y-89152165D01*
X115191859Y-88997335D01*
X115072230Y-88864474D01*
X114927593Y-88759388D01*
X114845930Y-88723029D01*
X114769005Y-88688780D01*
X114769001Y-88688779D01*
X114764267Y-88686671D01*
X114759197Y-88685593D01*
X114759196Y-88685593D01*
X114725272Y-88678382D01*
X114589391Y-88649500D01*
X114410609Y-88649500D01*
X114274728Y-88678382D01*
X114240804Y-88685593D01*
X114240803Y-88685593D01*
X114235733Y-88686671D01*
X114230999Y-88688779D01*
X114230995Y-88688780D01*
X114077142Y-88757280D01*
X114077140Y-88757281D01*
X114072408Y-88759388D01*
X113927770Y-88864474D01*
X113924304Y-88868324D01*
X113924300Y-88868327D01*
X113816036Y-88988567D01*
X113808141Y-88997335D01*
X113718750Y-89152165D01*
X113717148Y-89157094D01*
X113717144Y-89157104D01*
X113677064Y-89280456D01*
X113641100Y-89329956D01*
X113582909Y-89348863D01*
X113524719Y-89329955D01*
X113427593Y-89259388D01*
X113345930Y-89223029D01*
X113269005Y-89188780D01*
X113269001Y-89188779D01*
X113264267Y-89186671D01*
X113259197Y-89185593D01*
X113259196Y-89185593D01*
X113225272Y-89178382D01*
X113089391Y-89149500D01*
X112910609Y-89149500D01*
X112774728Y-89178382D01*
X112740804Y-89185593D01*
X112740803Y-89185593D01*
X112735733Y-89186671D01*
X112730999Y-89188779D01*
X112730995Y-89188780D01*
X112577142Y-89257280D01*
X112577140Y-89257281D01*
X112572408Y-89259388D01*
X112427770Y-89364474D01*
X112424304Y-89368324D01*
X112424300Y-89368327D01*
X112350017Y-89450827D01*
X112308141Y-89497335D01*
X112218750Y-89652165D01*
X112217149Y-89657094D01*
X112217148Y-89657095D01*
X112165105Y-89817265D01*
X112165104Y-89817270D01*
X112163503Y-89822197D01*
X112144815Y-90000000D01*
X95500000Y-90000000D01*
X95500000Y-76500000D01*
X104644815Y-76500000D01*
X104663503Y-76677803D01*
X104665104Y-76682730D01*
X104665105Y-76682735D01*
X104717148Y-76842905D01*
X104718750Y-76847835D01*
X104808141Y-77002665D01*
X104927770Y-77135526D01*
X105072407Y-77240612D01*
X105154070Y-77276970D01*
X105230995Y-77311220D01*
X105230999Y-77311221D01*
X105235733Y-77313329D01*
X105240803Y-77314407D01*
X105240804Y-77314407D01*
X105274728Y-77321618D01*
X105410609Y-77350500D01*
X105589391Y-77350500D01*
X105725272Y-77321618D01*
X105759196Y-77314407D01*
X105759197Y-77314407D01*
X105764267Y-77313329D01*
X105769001Y-77311221D01*
X105769005Y-77311220D01*
X105845930Y-77276971D01*
X105927593Y-77240612D01*
X106072230Y-77135526D01*
X106176428Y-77019802D01*
X106229417Y-76989209D01*
X106290267Y-76995605D01*
X106323571Y-77019802D01*
X106427770Y-77135526D01*
X106572407Y-77240612D01*
X106654070Y-77276970D01*
X106730995Y-77311220D01*
X106730999Y-77311221D01*
X106735733Y-77313329D01*
X106740803Y-77314407D01*
X106740804Y-77314407D01*
X106774728Y-77321618D01*
X106910609Y-77350500D01*
X107089391Y-77350500D01*
X107225272Y-77321618D01*
X107259196Y-77314407D01*
X107259197Y-77314407D01*
X107264267Y-77313329D01*
X107269001Y-77311221D01*
X107269005Y-77311220D01*
X107345930Y-77276971D01*
X107427593Y-77240612D01*
X107572230Y-77135526D01*
X107691859Y-77002665D01*
X107781250Y-76847835D01*
X107782852Y-76842905D01*
X107834895Y-76682735D01*
X107834896Y-76682730D01*
X107836497Y-76677803D01*
X107855185Y-76500000D01*
X112144815Y-76500000D01*
X112163503Y-76677803D01*
X112165104Y-76682730D01*
X112165105Y-76682735D01*
X112217148Y-76842905D01*
X112218750Y-76847835D01*
X112308141Y-77002665D01*
X112427770Y-77135526D01*
X112572407Y-77240612D01*
X112654070Y-77276970D01*
X112730995Y-77311220D01*
X112730999Y-77311221D01*
X112735733Y-77313329D01*
X112740803Y-77314407D01*
X112740804Y-77314407D01*
X112774728Y-77321618D01*
X112910609Y-77350500D01*
X113089391Y-77350500D01*
X113225272Y-77321618D01*
X113259196Y-77314407D01*
X113259197Y-77314407D01*
X113264267Y-77313329D01*
X113269001Y-77311221D01*
X113269005Y-77311220D01*
X113345930Y-77276971D01*
X113427593Y-77240612D01*
X113572230Y-77135526D01*
X113691859Y-77002665D01*
X113781250Y-76847835D01*
X113782852Y-76842905D01*
X113834895Y-76682735D01*
X113834896Y-76682730D01*
X113836497Y-76677803D01*
X113855185Y-76500000D01*
X113836497Y-76322197D01*
X113834896Y-76317270D01*
X113834895Y-76317265D01*
X113782852Y-76157095D01*
X113782851Y-76157094D01*
X113781250Y-76152165D01*
X113691859Y-75997335D01*
X113572230Y-75864474D01*
X113427593Y-75759388D01*
X113345930Y-75723029D01*
X113269005Y-75688780D01*
X113269001Y-75688779D01*
X113264267Y-75686671D01*
X113259197Y-75685593D01*
X113259196Y-75685593D01*
X113225272Y-75678382D01*
X113089391Y-75649500D01*
X112910609Y-75649500D01*
X112774728Y-75678382D01*
X112740804Y-75685593D01*
X112740803Y-75685593D01*
X112735733Y-75686671D01*
X112730999Y-75688779D01*
X112730995Y-75688780D01*
X112577142Y-75757280D01*
X112577140Y-75757281D01*
X112572408Y-75759388D01*
X112427770Y-75864474D01*
X112424304Y-75868324D01*
X112424300Y-75868327D01*
X112323571Y-75980198D01*
X112308141Y-75997335D01*
X112218750Y-76152165D01*
X112217149Y-76157094D01*
X112217148Y-76157095D01*
X112165105Y-76317265D01*
X112165104Y-76317270D01*
X112163503Y-76322197D01*
X112144815Y-76500000D01*
X107855185Y-76500000D01*
X107836497Y-76322197D01*
X107834896Y-76317270D01*
X107834895Y-76317265D01*
X107782852Y-76157095D01*
X107782851Y-76157094D01*
X107781250Y-76152165D01*
X107691859Y-75997335D01*
X107572230Y-75864474D01*
X107427593Y-75759388D01*
X107345930Y-75723029D01*
X107269005Y-75688780D01*
X107269001Y-75688779D01*
X107264267Y-75686671D01*
X107259197Y-75685593D01*
X107259196Y-75685593D01*
X107225272Y-75678382D01*
X107089391Y-75649500D01*
X106910609Y-75649500D01*
X106774728Y-75678382D01*
X106740804Y-75685593D01*
X106740803Y-75685593D01*
X106735733Y-75686671D01*
X106730999Y-75688779D01*
X106730995Y-75688780D01*
X106577142Y-75757280D01*
X106577140Y-75757281D01*
X106572408Y-75759388D01*
X106427770Y-75864474D01*
X106424301Y-75868327D01*
X106424300Y-75868328D01*
X106323571Y-75980198D01*
X106270583Y-76010791D01*
X106209733Y-76004395D01*
X106176429Y-75980198D01*
X106075702Y-75868330D01*
X106075699Y-75868327D01*
X106072230Y-75864474D01*
X105927593Y-75759388D01*
X105845930Y-75723029D01*
X105769005Y-75688780D01*
X105769001Y-75688779D01*
X105764267Y-75686671D01*
X105759197Y-75685593D01*
X105759196Y-75685593D01*
X105725272Y-75678382D01*
X105589391Y-75649500D01*
X105410609Y-75649500D01*
X105274728Y-75678382D01*
X105240804Y-75685593D01*
X105240803Y-75685593D01*
X105235733Y-75686671D01*
X105230999Y-75688779D01*
X105230995Y-75688780D01*
X105077142Y-75757280D01*
X105077140Y-75757281D01*
X105072408Y-75759388D01*
X104927770Y-75864474D01*
X104924304Y-75868324D01*
X104924300Y-75868327D01*
X104823571Y-75980198D01*
X104808141Y-75997335D01*
X104718750Y-76152165D01*
X104717149Y-76157094D01*
X104717148Y-76157095D01*
X104665105Y-76317265D01*
X104665104Y-76317270D01*
X104663503Y-76322197D01*
X104644815Y-76500000D01*
X95500000Y-76500000D01*
X95500000Y-73599000D01*
X95518907Y-73540809D01*
X95568407Y-73504845D01*
X95599000Y-73500000D01*
X167900500Y-73500000D01*
X167958691Y-73518907D01*
G37*
%TD.AperFunction*%
%TD*%
M02*
