%TF.GenerationSoftware,KiCad,Pcbnew,(6.0.8-1)-1*%
%TF.CreationDate,2022-11-20T20:32:36+00:00*%
%TF.ProjectId,esp32-network-dac,65737033-322d-46e6-9574-776f726b2d64,0.1*%
%TF.SameCoordinates,Original*%
%TF.FileFunction,Copper,L4,Bot*%
%TF.FilePolarity,Positive*%
%FSLAX46Y46*%
G04 Gerber Fmt 4.6, Leading zero omitted, Abs format (unit mm)*
G04 Created by KiCad (PCBNEW (6.0.8-1)-1) date 2022-11-20 20:32:36*
%MOMM*%
%LPD*%
G01*
G04 APERTURE LIST*
%TA.AperFunction,ComponentPad*%
%ADD10O,3.200000X1.600000*%
%TD*%
%TA.AperFunction,ComponentPad*%
%ADD11O,1.600000X3.200000*%
%TD*%
%TA.AperFunction,ComponentPad*%
%ADD12R,1.700000X1.700000*%
%TD*%
%TA.AperFunction,ComponentPad*%
%ADD13O,1.700000X1.700000*%
%TD*%
%TA.AperFunction,ComponentPad*%
%ADD14O,2.000000X1.000000*%
%TD*%
%TA.AperFunction,ViaPad*%
%ADD15C,0.700000*%
%TD*%
%TA.AperFunction,Conductor*%
%ADD16C,0.300000*%
%TD*%
G04 APERTURE END LIST*
D10*
%TO.P,J2,1*%
%TO.N,GND*%
X162357500Y-114675000D03*
%TO.P,J2,2*%
%TO.N,/JACKL*%
X160357500Y-112275000D03*
%TO.P,J2,3*%
%TO.N,/JACKR*%
X160357500Y-106775000D03*
D11*
%TO.P,J2,S1,SHIELD*%
%TO.N,GND*%
X166507500Y-113675000D03*
%TO.P,J2,S2,SHIELD*%
X166507500Y-104775000D03*
%TO.P,J2,S3,SHIELD*%
X157907500Y-104775000D03*
%TD*%
D12*
%TO.P,J3,1,Pin_1*%
%TO.N,VBUS*%
X113300000Y-102000000D03*
D13*
%TO.P,J3,2,Pin_2*%
%TO.N,ESP32_Rx*%
X110760000Y-102000000D03*
%TO.P,J3,3,Pin_3*%
%TO.N,ESP32_Tx*%
X108220000Y-102000000D03*
%TO.P,J3,4,Pin_4*%
%TO.N,GND*%
X105680000Y-102000000D03*
%TD*%
D14*
%TO.P,J1,S1,SHIELD*%
%TO.N,unconnected-(J1-PadS1)*%
X100700000Y-109180000D03*
%TO.P,J1,S2,SHIELD*%
X100700000Y-117820000D03*
%TO.P,J1,S3,SHIELD*%
X96900000Y-109180000D03*
%TO.P,J1,S4,SHIELD*%
X96900000Y-117820000D03*
%TD*%
D15*
%TO.N,GND*%
X102500000Y-99000000D03*
X121500000Y-118000000D03*
X119000000Y-109500000D03*
X119000000Y-107500000D03*
X121000000Y-112000000D03*
X138500000Y-97500000D03*
X137000000Y-103500000D03*
X153000000Y-87000000D03*
X142500000Y-111000000D03*
X147500000Y-117500000D03*
X139000000Y-87000000D03*
X106000000Y-83500000D03*
X123000000Y-95000000D03*
X107000000Y-117500000D03*
X121000000Y-82000000D03*
X131500000Y-99000000D03*
X142000000Y-107500000D03*
X130000000Y-112000000D03*
X139000000Y-76500000D03*
X150500000Y-99000000D03*
X104000000Y-108500000D03*
X154000000Y-99000000D03*
X154500000Y-117500000D03*
X109000000Y-113000000D03*
%TO.N,+3V3*%
X103007202Y-93992798D03*
X123500000Y-118000000D03*
X136500000Y-116500000D03*
X109000000Y-108500000D03*
%TO.N,+3.3VA*%
X147020000Y-99480000D03*
X147500000Y-114500000D03*
%TO.N,ESP32_Tx*%
X105500000Y-76500000D03*
%TO.N,ESP32_Rx*%
X107000000Y-76500000D03*
%TO.N,PCM_BCK*%
X113000000Y-76500000D03*
X140300500Y-106500000D03*
%TO.N,PCM_DIN*%
X136500000Y-106000000D03*
X114500000Y-89500000D03*
%TO.N,PCM_LRCK*%
X140000000Y-107500000D03*
X113000000Y-90000000D03*
%TD*%
D16*
%TO.N,ESP32_Tx*%
X108220000Y-79220000D02*
X108220000Y-102000000D01*
X105500000Y-76500000D02*
X108220000Y-79220000D01*
%TO.N,ESP32_Rx*%
X107000000Y-76500000D02*
X110760000Y-80260000D01*
X110760000Y-80260000D02*
X110760000Y-102000000D01*
%TO.N,PCM_BCK*%
X113000000Y-78510050D02*
X113000000Y-76500000D01*
X140300500Y-105810550D02*
X113000000Y-78510050D01*
X140300500Y-106500000D02*
X140300500Y-105810550D01*
%TO.N,PCM_DIN*%
X114500000Y-89500000D02*
X120000000Y-89500000D01*
X120000000Y-89500000D02*
X136500000Y-106000000D01*
%TO.N,PCM_LRCK*%
X113000000Y-90000000D02*
X130500000Y-107500000D01*
X130500000Y-107500000D02*
X140000000Y-107500000D01*
%TD*%
%TA.AperFunction,Conductor*%
%TO.N,GND*%
G36*
X167941621Y-73520002D02*
G01*
X167988114Y-73573658D01*
X167999500Y-73626000D01*
X167999500Y-103532430D01*
X167979498Y-103600551D01*
X167925842Y-103647044D01*
X167855568Y-103657148D01*
X167790988Y-103627654D01*
X167751793Y-103565041D01*
X167742736Y-103531239D01*
X167738990Y-103520947D01*
X167646914Y-103323489D01*
X167641431Y-103313993D01*
X167516472Y-103135533D01*
X167509416Y-103127125D01*
X167355375Y-102973084D01*
X167346967Y-102966028D01*
X167168507Y-102841069D01*
X167159011Y-102835586D01*
X166961553Y-102743510D01*
X166951261Y-102739764D01*
X166778997Y-102693606D01*
X166764901Y-102693942D01*
X166761500Y-102701884D01*
X166761500Y-106842967D01*
X166765473Y-106856498D01*
X166774022Y-106857727D01*
X166951261Y-106810236D01*
X166961553Y-106806490D01*
X167159011Y-106714414D01*
X167168507Y-106708931D01*
X167346967Y-106583972D01*
X167355375Y-106576916D01*
X167509416Y-106422875D01*
X167516472Y-106414467D01*
X167641431Y-106236007D01*
X167646914Y-106226511D01*
X167738990Y-106029053D01*
X167742736Y-106018761D01*
X167751793Y-105984959D01*
X167788745Y-105924336D01*
X167852605Y-105893315D01*
X167923100Y-105901743D01*
X167977847Y-105946946D01*
X167999500Y-106017570D01*
X167999500Y-112432430D01*
X167979498Y-112500551D01*
X167925842Y-112547044D01*
X167855568Y-112557148D01*
X167790988Y-112527654D01*
X167751793Y-112465041D01*
X167742736Y-112431239D01*
X167738990Y-112420947D01*
X167646914Y-112223489D01*
X167641431Y-112213993D01*
X167516472Y-112035533D01*
X167509416Y-112027125D01*
X167355375Y-111873084D01*
X167346967Y-111866028D01*
X167168507Y-111741069D01*
X167159011Y-111735586D01*
X166961553Y-111643510D01*
X166951261Y-111639764D01*
X166778997Y-111593606D01*
X166764901Y-111593942D01*
X166761500Y-111601884D01*
X166761500Y-115742967D01*
X166765473Y-115756498D01*
X166774022Y-115757727D01*
X166951261Y-115710236D01*
X166961553Y-115706490D01*
X167159011Y-115614414D01*
X167168507Y-115608931D01*
X167346967Y-115483972D01*
X167355375Y-115476916D01*
X167509416Y-115322875D01*
X167516472Y-115314467D01*
X167641431Y-115136007D01*
X167646914Y-115126511D01*
X167738990Y-114929053D01*
X167742736Y-114918761D01*
X167751793Y-114884959D01*
X167788745Y-114824336D01*
X167852605Y-114793315D01*
X167923100Y-114801743D01*
X167977847Y-114846946D01*
X167999500Y-114917570D01*
X167999500Y-120874000D01*
X167979498Y-120942121D01*
X167925842Y-120988614D01*
X167873500Y-121000000D01*
X95626000Y-121000000D01*
X95557879Y-120979998D01*
X95511386Y-120926342D01*
X95500000Y-120874000D01*
X95500000Y-118641064D01*
X95520002Y-118572943D01*
X95573658Y-118526450D01*
X95643932Y-118516346D01*
X95708512Y-118545840D01*
X95717537Y-118554480D01*
X95742881Y-118581280D01*
X95909379Y-118697863D01*
X96095919Y-118778586D01*
X96141947Y-118788202D01*
X96290144Y-118819162D01*
X96290149Y-118819163D01*
X96294880Y-118820151D01*
X96299762Y-118820407D01*
X96299871Y-118820413D01*
X96299887Y-118820413D01*
X96301539Y-118820500D01*
X97450800Y-118820500D01*
X97507891Y-118814701D01*
X97595868Y-118805765D01*
X97595870Y-118805765D01*
X97602216Y-118805120D01*
X97796172Y-118744338D01*
X97973944Y-118645797D01*
X98128271Y-118513523D01*
X98132887Y-118507573D01*
X98248939Y-118357958D01*
X98252848Y-118352919D01*
X98342587Y-118170545D01*
X98368752Y-118070097D01*
X98392212Y-117980034D01*
X98392212Y-117980031D01*
X98393822Y-117973852D01*
X98399311Y-117869126D01*
X99195541Y-117869126D01*
X99225935Y-118070097D01*
X99296119Y-118260852D01*
X99299479Y-118266272D01*
X99299480Y-118266273D01*
X99399863Y-118428176D01*
X99399866Y-118428180D01*
X99403226Y-118433599D01*
X99542881Y-118581280D01*
X99709379Y-118697863D01*
X99895919Y-118778586D01*
X99941947Y-118788202D01*
X100090144Y-118819162D01*
X100090149Y-118819163D01*
X100094880Y-118820151D01*
X100099762Y-118820407D01*
X100099871Y-118820413D01*
X100099887Y-118820413D01*
X100101539Y-118820500D01*
X101250800Y-118820500D01*
X101307891Y-118814701D01*
X101395868Y-118805765D01*
X101395870Y-118805765D01*
X101402216Y-118805120D01*
X101596172Y-118744338D01*
X101773944Y-118645797D01*
X101928271Y-118513523D01*
X101932887Y-118507573D01*
X102048939Y-118357958D01*
X102052848Y-118352919D01*
X102142587Y-118170545D01*
X102168752Y-118070097D01*
X102187011Y-118000000D01*
X122644815Y-118000000D01*
X122663503Y-118177803D01*
X122718750Y-118347835D01*
X122722053Y-118353557D01*
X122722054Y-118353558D01*
X122797878Y-118484888D01*
X122808141Y-118502665D01*
X122812559Y-118507572D01*
X122812560Y-118507573D01*
X122878927Y-118581280D01*
X122927770Y-118635526D01*
X122941907Y-118645797D01*
X123013569Y-118697863D01*
X123072407Y-118740612D01*
X123078435Y-118743296D01*
X123078437Y-118743297D01*
X123213007Y-118803211D01*
X123235733Y-118813329D01*
X123323171Y-118831915D01*
X123404152Y-118849128D01*
X123404156Y-118849128D01*
X123410609Y-118850500D01*
X123589391Y-118850500D01*
X123595844Y-118849128D01*
X123595848Y-118849128D01*
X123676829Y-118831915D01*
X123764267Y-118813329D01*
X123786993Y-118803211D01*
X123921563Y-118743297D01*
X123921565Y-118743296D01*
X123927593Y-118740612D01*
X123986432Y-118697863D01*
X124058093Y-118645797D01*
X124072230Y-118635526D01*
X124121074Y-118581280D01*
X124187440Y-118507573D01*
X124187441Y-118507572D01*
X124191859Y-118502665D01*
X124202122Y-118484888D01*
X124277946Y-118353558D01*
X124277947Y-118353557D01*
X124281250Y-118347835D01*
X124336497Y-118177803D01*
X124355185Y-118000000D01*
X124342094Y-117875444D01*
X124337187Y-117828761D01*
X124337187Y-117828760D01*
X124336497Y-117822197D01*
X124281250Y-117652165D01*
X124191859Y-117497335D01*
X124085443Y-117379148D01*
X124076645Y-117369377D01*
X124076643Y-117369376D01*
X124072230Y-117364474D01*
X123927593Y-117259388D01*
X123921565Y-117256704D01*
X123921563Y-117256703D01*
X123770298Y-117189356D01*
X123770297Y-117189356D01*
X123764267Y-117186671D01*
X123676829Y-117168085D01*
X123595848Y-117150872D01*
X123595844Y-117150872D01*
X123589391Y-117149500D01*
X123410609Y-117149500D01*
X123404156Y-117150872D01*
X123404152Y-117150872D01*
X123323171Y-117168085D01*
X123235733Y-117186671D01*
X123229703Y-117189356D01*
X123229702Y-117189356D01*
X123078438Y-117256703D01*
X123078436Y-117256704D01*
X123072408Y-117259388D01*
X123067067Y-117263268D01*
X123067066Y-117263269D01*
X123034292Y-117287081D01*
X122927770Y-117364474D01*
X122923357Y-117369376D01*
X122923355Y-117369377D01*
X122914557Y-117379148D01*
X122808141Y-117497335D01*
X122718750Y-117652165D01*
X122663503Y-117822197D01*
X122662813Y-117828760D01*
X122662813Y-117828761D01*
X122657906Y-117875444D01*
X122644815Y-118000000D01*
X102187011Y-118000000D01*
X102192212Y-117980034D01*
X102192212Y-117980031D01*
X102193822Y-117973852D01*
X102199645Y-117862744D01*
X102204125Y-117777256D01*
X102204125Y-117777252D01*
X102204459Y-117770874D01*
X102174065Y-117569903D01*
X102103881Y-117379148D01*
X102085268Y-117349128D01*
X102000137Y-117211824D01*
X102000134Y-117211820D01*
X101996774Y-117206401D01*
X101857119Y-117058720D01*
X101690621Y-116942137D01*
X101504081Y-116861414D01*
X101439082Y-116847835D01*
X101309856Y-116820838D01*
X101309851Y-116820837D01*
X101305120Y-116819849D01*
X101300238Y-116819593D01*
X101300129Y-116819587D01*
X101300113Y-116819587D01*
X101298461Y-116819500D01*
X100149200Y-116819500D01*
X100101207Y-116824375D01*
X100004132Y-116834235D01*
X100004130Y-116834235D01*
X99997784Y-116834880D01*
X99803828Y-116895662D01*
X99626056Y-116994203D01*
X99621208Y-116998359D01*
X99621207Y-116998359D01*
X99616183Y-117002665D01*
X99471729Y-117126477D01*
X99467822Y-117131514D01*
X99467820Y-117131516D01*
X99452806Y-117150872D01*
X99347152Y-117287081D01*
X99257413Y-117469455D01*
X99255804Y-117475633D01*
X99255803Y-117475635D01*
X99229603Y-117576220D01*
X99206178Y-117666148D01*
X99195541Y-117869126D01*
X98399311Y-117869126D01*
X98399645Y-117862744D01*
X98404125Y-117777256D01*
X98404125Y-117777252D01*
X98404459Y-117770874D01*
X98374065Y-117569903D01*
X98303881Y-117379148D01*
X98285268Y-117349128D01*
X98200137Y-117211824D01*
X98200134Y-117211820D01*
X98196774Y-117206401D01*
X98057119Y-117058720D01*
X97890621Y-116942137D01*
X97704081Y-116861414D01*
X97639082Y-116847835D01*
X97509856Y-116820838D01*
X97509851Y-116820837D01*
X97505120Y-116819849D01*
X97500238Y-116819593D01*
X97500129Y-116819587D01*
X97500113Y-116819587D01*
X97498461Y-116819500D01*
X96349200Y-116819500D01*
X96301207Y-116824375D01*
X96204132Y-116834235D01*
X96204130Y-116834235D01*
X96197784Y-116834880D01*
X96003828Y-116895662D01*
X95826056Y-116994203D01*
X95707995Y-117095393D01*
X95643259Y-117124536D01*
X95573040Y-117114054D01*
X95519636Y-117067272D01*
X95500000Y-116999724D01*
X95500000Y-116500000D01*
X135644815Y-116500000D01*
X135663503Y-116677803D01*
X135718750Y-116847835D01*
X135722053Y-116853557D01*
X135722054Y-116853558D01*
X135771732Y-116939602D01*
X135808141Y-117002665D01*
X135812559Y-117007572D01*
X135812560Y-117007573D01*
X135917875Y-117124536D01*
X135927770Y-117135526D01*
X136072407Y-117240612D01*
X136078435Y-117243296D01*
X136078437Y-117243297D01*
X136189628Y-117292802D01*
X136235733Y-117313329D01*
X136323171Y-117331914D01*
X136404152Y-117349128D01*
X136404156Y-117349128D01*
X136410609Y-117350500D01*
X136589391Y-117350500D01*
X136595844Y-117349128D01*
X136595848Y-117349128D01*
X136676829Y-117331914D01*
X136764267Y-117313329D01*
X136810372Y-117292802D01*
X136921563Y-117243297D01*
X136921565Y-117243296D01*
X136927593Y-117240612D01*
X137072230Y-117135526D01*
X137082126Y-117124536D01*
X137187440Y-117007573D01*
X137187441Y-117007572D01*
X137191859Y-117002665D01*
X137228268Y-116939602D01*
X137277946Y-116853558D01*
X137277947Y-116853557D01*
X137281250Y-116847835D01*
X137336497Y-116677803D01*
X137355185Y-116500000D01*
X137336497Y-116322197D01*
X137281250Y-116152165D01*
X137191859Y-115997335D01*
X137178952Y-115983000D01*
X137076645Y-115869377D01*
X137076643Y-115869376D01*
X137072230Y-115864474D01*
X137003329Y-115814414D01*
X136932935Y-115763269D01*
X136932933Y-115763268D01*
X136927593Y-115759388D01*
X136921565Y-115756704D01*
X136921563Y-115756703D01*
X136770298Y-115689356D01*
X136770297Y-115689356D01*
X136764267Y-115686671D01*
X136676829Y-115668086D01*
X136595848Y-115650872D01*
X136595844Y-115650872D01*
X136589391Y-115649500D01*
X136410609Y-115649500D01*
X136404156Y-115650872D01*
X136404152Y-115650872D01*
X136323171Y-115668086D01*
X136235733Y-115686671D01*
X136229703Y-115689356D01*
X136229702Y-115689356D01*
X136078438Y-115756703D01*
X136078436Y-115756704D01*
X136072408Y-115759388D01*
X135927770Y-115864474D01*
X135923357Y-115869376D01*
X135923355Y-115869377D01*
X135821048Y-115983000D01*
X135808141Y-115997335D01*
X135718750Y-116152165D01*
X135663503Y-116322197D01*
X135644815Y-116500000D01*
X95500000Y-116500000D01*
X95500000Y-114500000D01*
X146644815Y-114500000D01*
X146663503Y-114677803D01*
X146718750Y-114847835D01*
X146722053Y-114853557D01*
X146722054Y-114853558D01*
X146765641Y-114929053D01*
X146808141Y-115002665D01*
X146812559Y-115007572D01*
X146812560Y-115007573D01*
X146921942Y-115129053D01*
X146927770Y-115135526D01*
X147072407Y-115240612D01*
X147078435Y-115243296D01*
X147078437Y-115243297D01*
X147229702Y-115310644D01*
X147235733Y-115313329D01*
X147297750Y-115326511D01*
X147404152Y-115349128D01*
X147404156Y-115349128D01*
X147410609Y-115350500D01*
X147589391Y-115350500D01*
X147595844Y-115349128D01*
X147595848Y-115349128D01*
X147702250Y-115326511D01*
X147764267Y-115313329D01*
X147770298Y-115310644D01*
X147921563Y-115243297D01*
X147921565Y-115243296D01*
X147927593Y-115240612D01*
X148072230Y-115135526D01*
X148078059Y-115129053D01*
X148187440Y-115007573D01*
X148187441Y-115007572D01*
X148191859Y-115002665D01*
X148227160Y-114941522D01*
X160274773Y-114941522D01*
X160322264Y-115118761D01*
X160326010Y-115129053D01*
X160418086Y-115326511D01*
X160423569Y-115336007D01*
X160548528Y-115514467D01*
X160555584Y-115522875D01*
X160709625Y-115676916D01*
X160718033Y-115683972D01*
X160896493Y-115808931D01*
X160905989Y-115814414D01*
X161103447Y-115906490D01*
X161113739Y-115910236D01*
X161324188Y-115966625D01*
X161334981Y-115968528D01*
X161497670Y-115982762D01*
X161503135Y-115983000D01*
X162085385Y-115983000D01*
X162100624Y-115978525D01*
X162101829Y-115977135D01*
X162103500Y-115969452D01*
X162103500Y-115964885D01*
X162611500Y-115964885D01*
X162615975Y-115980124D01*
X162617365Y-115981329D01*
X162625048Y-115983000D01*
X163211865Y-115983000D01*
X163217330Y-115982762D01*
X163380019Y-115968528D01*
X163390812Y-115966625D01*
X163601261Y-115910236D01*
X163611553Y-115906490D01*
X163809011Y-115814414D01*
X163818507Y-115808931D01*
X163996967Y-115683972D01*
X164005375Y-115676916D01*
X164159416Y-115522875D01*
X164166472Y-115514467D01*
X164291431Y-115336007D01*
X164296914Y-115326511D01*
X164388990Y-115129053D01*
X164392736Y-115118761D01*
X164438894Y-114946497D01*
X164438558Y-114932401D01*
X164430616Y-114929000D01*
X162629615Y-114929000D01*
X162614376Y-114933475D01*
X162613171Y-114934865D01*
X162611500Y-114942548D01*
X162611500Y-115964885D01*
X162103500Y-115964885D01*
X162103500Y-114947115D01*
X162099025Y-114931876D01*
X162097635Y-114930671D01*
X162089952Y-114929000D01*
X160289533Y-114929000D01*
X160276002Y-114932973D01*
X160274773Y-114941522D01*
X148227160Y-114941522D01*
X148234359Y-114929053D01*
X148277946Y-114853558D01*
X148277947Y-114853557D01*
X148281250Y-114847835D01*
X148336497Y-114677803D01*
X148352099Y-114529365D01*
X165199500Y-114529365D01*
X165199738Y-114534830D01*
X165213972Y-114697519D01*
X165215875Y-114708312D01*
X165272264Y-114918761D01*
X165276010Y-114929053D01*
X165368086Y-115126511D01*
X165373569Y-115136007D01*
X165498528Y-115314467D01*
X165505584Y-115322875D01*
X165659625Y-115476916D01*
X165668033Y-115483972D01*
X165846493Y-115608931D01*
X165855989Y-115614414D01*
X166053447Y-115706490D01*
X166063739Y-115710236D01*
X166236003Y-115756394D01*
X166250099Y-115756058D01*
X166253500Y-115748116D01*
X166253500Y-113947115D01*
X166249025Y-113931876D01*
X166247635Y-113930671D01*
X166239952Y-113929000D01*
X165217615Y-113929000D01*
X165202376Y-113933475D01*
X165201171Y-113934865D01*
X165199500Y-113942548D01*
X165199500Y-114529365D01*
X148352099Y-114529365D01*
X148355185Y-114500000D01*
X148336497Y-114322197D01*
X148281250Y-114152165D01*
X148191859Y-113997335D01*
X148146641Y-113947115D01*
X148076645Y-113869377D01*
X148076643Y-113869376D01*
X148072230Y-113864474D01*
X148020824Y-113827125D01*
X147932935Y-113763269D01*
X147932933Y-113763268D01*
X147927593Y-113759388D01*
X147921565Y-113756704D01*
X147921563Y-113756703D01*
X147770298Y-113689356D01*
X147770297Y-113689356D01*
X147764267Y-113686671D01*
X147667149Y-113666028D01*
X147595848Y-113650872D01*
X147595844Y-113650872D01*
X147589391Y-113649500D01*
X147410609Y-113649500D01*
X147404156Y-113650872D01*
X147404152Y-113650872D01*
X147332851Y-113666028D01*
X147235733Y-113686671D01*
X147229703Y-113689356D01*
X147229702Y-113689356D01*
X147078438Y-113756703D01*
X147078436Y-113756704D01*
X147072408Y-113759388D01*
X146927770Y-113864474D01*
X146923357Y-113869376D01*
X146923355Y-113869377D01*
X146853359Y-113947115D01*
X146808141Y-113997335D01*
X146718750Y-114152165D01*
X146663503Y-114322197D01*
X146644815Y-114500000D01*
X95500000Y-114500000D01*
X95500000Y-112275000D01*
X158252032Y-112275000D01*
X158271865Y-112501692D01*
X158273289Y-112507005D01*
X158273289Y-112507007D01*
X158312269Y-112652481D01*
X158330761Y-112721496D01*
X158333083Y-112726476D01*
X158333084Y-112726478D01*
X158376991Y-112820635D01*
X158426932Y-112927734D01*
X158557453Y-113114139D01*
X158718361Y-113275047D01*
X158904766Y-113405568D01*
X158909744Y-113407889D01*
X158909747Y-113407891D01*
X158978099Y-113439764D01*
X159111004Y-113501739D01*
X159116312Y-113503161D01*
X159116314Y-113503162D01*
X159325493Y-113559211D01*
X159325495Y-113559211D01*
X159330808Y-113560635D01*
X159429802Y-113569296D01*
X159497992Y-113575262D01*
X159497999Y-113575262D01*
X159500716Y-113575500D01*
X160503019Y-113575500D01*
X160571140Y-113595502D01*
X160617633Y-113649158D01*
X160627737Y-113719432D01*
X160598243Y-113784012D01*
X160592114Y-113790595D01*
X160555584Y-113827125D01*
X160548528Y-113835533D01*
X160423569Y-114013993D01*
X160418086Y-114023489D01*
X160326010Y-114220947D01*
X160322264Y-114231239D01*
X160276106Y-114403503D01*
X160276442Y-114417599D01*
X160284384Y-114421000D01*
X162085385Y-114421000D01*
X162100624Y-114416525D01*
X162101829Y-114415135D01*
X162103500Y-114407452D01*
X162103500Y-114402885D01*
X162611500Y-114402885D01*
X162615975Y-114418124D01*
X162617365Y-114419329D01*
X162625048Y-114421000D01*
X164425467Y-114421000D01*
X164438998Y-114417027D01*
X164440227Y-114408478D01*
X164392736Y-114231239D01*
X164388990Y-114220947D01*
X164296914Y-114023489D01*
X164291431Y-114013993D01*
X164166472Y-113835533D01*
X164159416Y-113827125D01*
X164005375Y-113673084D01*
X163996967Y-113666028D01*
X163818507Y-113541069D01*
X163809011Y-113535586D01*
X163611553Y-113443510D01*
X163601261Y-113439764D01*
X163463625Y-113402885D01*
X165199500Y-113402885D01*
X165203975Y-113418124D01*
X165205365Y-113419329D01*
X165213048Y-113421000D01*
X166235385Y-113421000D01*
X166250624Y-113416525D01*
X166251829Y-113415135D01*
X166253500Y-113407452D01*
X166253500Y-111607033D01*
X166249527Y-111593502D01*
X166240978Y-111592273D01*
X166063739Y-111639764D01*
X166053447Y-111643510D01*
X165855989Y-111735586D01*
X165846493Y-111741069D01*
X165668033Y-111866028D01*
X165659625Y-111873084D01*
X165505584Y-112027125D01*
X165498528Y-112035533D01*
X165373569Y-112213993D01*
X165368086Y-112223489D01*
X165276010Y-112420947D01*
X165272264Y-112431239D01*
X165215875Y-112641688D01*
X165213972Y-112652481D01*
X165199738Y-112815170D01*
X165199500Y-112820635D01*
X165199500Y-113402885D01*
X163463625Y-113402885D01*
X163390812Y-113383375D01*
X163380019Y-113381472D01*
X163217330Y-113367238D01*
X163211865Y-113367000D01*
X162629615Y-113367000D01*
X162614376Y-113371475D01*
X162613171Y-113372865D01*
X162611500Y-113380548D01*
X162611500Y-114402885D01*
X162103500Y-114402885D01*
X162103500Y-113385115D01*
X162099026Y-113369877D01*
X162095644Y-113366947D01*
X162057259Y-113307221D01*
X162057258Y-113236225D01*
X162089060Y-113182626D01*
X162157547Y-113114139D01*
X162288068Y-112927734D01*
X162338010Y-112820635D01*
X162381916Y-112726478D01*
X162381917Y-112726476D01*
X162384239Y-112721496D01*
X162402732Y-112652481D01*
X162441711Y-112507007D01*
X162441711Y-112507005D01*
X162443135Y-112501692D01*
X162462968Y-112275000D01*
X162443135Y-112048308D01*
X162396184Y-111873084D01*
X162385662Y-111833814D01*
X162385661Y-111833812D01*
X162384239Y-111828504D01*
X162343467Y-111741069D01*
X162290391Y-111627247D01*
X162290389Y-111627244D01*
X162288068Y-111622266D01*
X162157547Y-111435861D01*
X161996639Y-111274953D01*
X161810234Y-111144432D01*
X161805256Y-111142111D01*
X161805253Y-111142109D01*
X161608978Y-111050584D01*
X161608976Y-111050583D01*
X161603996Y-111048261D01*
X161598688Y-111046839D01*
X161598686Y-111046838D01*
X161389507Y-110990789D01*
X161389505Y-110990789D01*
X161384192Y-110989365D01*
X161285198Y-110980704D01*
X161217008Y-110974738D01*
X161217001Y-110974738D01*
X161214284Y-110974500D01*
X159500716Y-110974500D01*
X159497999Y-110974738D01*
X159497992Y-110974738D01*
X159429802Y-110980704D01*
X159330808Y-110989365D01*
X159325495Y-110990789D01*
X159325493Y-110990789D01*
X159116314Y-111046838D01*
X159116312Y-111046839D01*
X159111004Y-111048261D01*
X159106024Y-111050583D01*
X159106022Y-111050584D01*
X158909747Y-111142109D01*
X158909744Y-111142111D01*
X158904766Y-111144432D01*
X158718361Y-111274953D01*
X158557453Y-111435861D01*
X158426932Y-111622266D01*
X158424611Y-111627244D01*
X158424609Y-111627247D01*
X158371533Y-111741069D01*
X158330761Y-111828504D01*
X158329339Y-111833812D01*
X158329338Y-111833814D01*
X158318816Y-111873084D01*
X158271865Y-112048308D01*
X158252032Y-112275000D01*
X95500000Y-112275000D01*
X95500000Y-110001064D01*
X95520002Y-109932943D01*
X95573658Y-109886450D01*
X95643932Y-109876346D01*
X95708512Y-109905840D01*
X95717537Y-109914480D01*
X95742881Y-109941280D01*
X95909379Y-110057863D01*
X96095919Y-110138586D01*
X96141947Y-110148202D01*
X96290144Y-110179162D01*
X96290149Y-110179163D01*
X96294880Y-110180151D01*
X96299762Y-110180407D01*
X96299871Y-110180413D01*
X96299887Y-110180413D01*
X96301539Y-110180500D01*
X97450800Y-110180500D01*
X97498793Y-110175625D01*
X97595868Y-110165765D01*
X97595870Y-110165765D01*
X97602216Y-110165120D01*
X97796172Y-110104338D01*
X97973944Y-110005797D01*
X98128271Y-109873523D01*
X98252848Y-109712919D01*
X98342587Y-109530545D01*
X98368752Y-109430097D01*
X98392212Y-109340034D01*
X98392212Y-109340031D01*
X98393822Y-109333852D01*
X98399310Y-109229126D01*
X99195541Y-109229126D01*
X99225935Y-109430097D01*
X99296119Y-109620852D01*
X99299479Y-109626272D01*
X99299480Y-109626273D01*
X99399863Y-109788176D01*
X99399866Y-109788180D01*
X99403226Y-109793599D01*
X99542881Y-109941280D01*
X99709379Y-110057863D01*
X99895919Y-110138586D01*
X99941947Y-110148202D01*
X100090144Y-110179162D01*
X100090149Y-110179163D01*
X100094880Y-110180151D01*
X100099762Y-110180407D01*
X100099871Y-110180413D01*
X100099887Y-110180413D01*
X100101539Y-110180500D01*
X101250800Y-110180500D01*
X101298793Y-110175625D01*
X101395868Y-110165765D01*
X101395870Y-110165765D01*
X101402216Y-110165120D01*
X101596172Y-110104338D01*
X101773944Y-110005797D01*
X101928271Y-109873523D01*
X102052848Y-109712919D01*
X102142587Y-109530545D01*
X102168752Y-109430097D01*
X102192212Y-109340034D01*
X102192212Y-109340031D01*
X102193822Y-109333852D01*
X102204459Y-109130874D01*
X102174065Y-108929903D01*
X102103881Y-108739148D01*
X102050345Y-108652802D01*
X102000137Y-108571824D01*
X102000134Y-108571820D01*
X101996774Y-108566401D01*
X101933982Y-108500000D01*
X108144815Y-108500000D01*
X108163503Y-108677803D01*
X108218750Y-108847835D01*
X108308141Y-109002665D01*
X108312559Y-109007572D01*
X108312560Y-109007573D01*
X108417893Y-109124556D01*
X108427770Y-109135526D01*
X108572407Y-109240612D01*
X108578435Y-109243296D01*
X108578437Y-109243297D01*
X108729702Y-109310644D01*
X108735733Y-109313329D01*
X108823171Y-109331914D01*
X108904152Y-109349128D01*
X108904156Y-109349128D01*
X108910609Y-109350500D01*
X109089391Y-109350500D01*
X109095844Y-109349128D01*
X109095848Y-109349128D01*
X109176829Y-109331914D01*
X109264267Y-109313329D01*
X109270298Y-109310644D01*
X109421563Y-109243297D01*
X109421565Y-109243296D01*
X109427593Y-109240612D01*
X109572230Y-109135526D01*
X109582108Y-109124556D01*
X109687440Y-109007573D01*
X109687441Y-109007572D01*
X109691859Y-109002665D01*
X109781250Y-108847835D01*
X109836497Y-108677803D01*
X109855185Y-108500000D01*
X109852458Y-108474054D01*
X109837187Y-108328761D01*
X109837187Y-108328760D01*
X109836497Y-108322197D01*
X109834062Y-108314701D01*
X109783292Y-108158450D01*
X109781250Y-108152165D01*
X109771644Y-108135526D01*
X109695162Y-108003056D01*
X109691859Y-107997335D01*
X109687440Y-107992427D01*
X109576645Y-107869377D01*
X109576643Y-107869376D01*
X109572230Y-107864474D01*
X109540678Y-107841550D01*
X109432935Y-107763269D01*
X109432933Y-107763268D01*
X109427593Y-107759388D01*
X109421565Y-107756704D01*
X109421563Y-107756703D01*
X109270298Y-107689356D01*
X109270297Y-107689356D01*
X109264267Y-107686671D01*
X109176829Y-107668086D01*
X109095848Y-107650872D01*
X109095844Y-107650872D01*
X109089391Y-107649500D01*
X108910609Y-107649500D01*
X108904156Y-107650872D01*
X108904152Y-107650872D01*
X108823171Y-107668086D01*
X108735733Y-107686671D01*
X108729703Y-107689356D01*
X108729702Y-107689356D01*
X108578438Y-107756703D01*
X108578436Y-107756704D01*
X108572408Y-107759388D01*
X108427770Y-107864474D01*
X108423357Y-107869376D01*
X108423355Y-107869377D01*
X108312560Y-107992427D01*
X108308141Y-107997335D01*
X108304838Y-108003056D01*
X108228357Y-108135526D01*
X108218750Y-108152165D01*
X108216708Y-108158450D01*
X108165939Y-108314701D01*
X108163503Y-108322197D01*
X108162813Y-108328760D01*
X108162813Y-108328761D01*
X108147542Y-108474054D01*
X108144815Y-108500000D01*
X101933982Y-108500000D01*
X101861508Y-108423361D01*
X101861507Y-108423360D01*
X101857119Y-108418720D01*
X101690621Y-108302137D01*
X101504081Y-108221414D01*
X101458053Y-108211798D01*
X101309856Y-108180838D01*
X101309851Y-108180837D01*
X101305120Y-108179849D01*
X101300238Y-108179593D01*
X101300129Y-108179587D01*
X101300113Y-108179587D01*
X101298461Y-108179500D01*
X100149200Y-108179500D01*
X100101207Y-108184375D01*
X100004132Y-108194235D01*
X100004130Y-108194235D01*
X99997784Y-108194880D01*
X99803828Y-108255662D01*
X99626056Y-108354203D01*
X99621208Y-108358359D01*
X99621207Y-108358359D01*
X99604150Y-108372978D01*
X99471729Y-108486477D01*
X99467822Y-108491514D01*
X99467820Y-108491516D01*
X99456147Y-108506565D01*
X99347152Y-108647081D01*
X99257413Y-108829455D01*
X99255804Y-108835633D01*
X99255803Y-108835635D01*
X99229603Y-108936220D01*
X99206178Y-109026148D01*
X99195541Y-109229126D01*
X98399310Y-109229126D01*
X98404459Y-109130874D01*
X98374065Y-108929903D01*
X98303881Y-108739148D01*
X98250345Y-108652802D01*
X98200137Y-108571824D01*
X98200134Y-108571820D01*
X98196774Y-108566401D01*
X98133982Y-108500000D01*
X98061508Y-108423361D01*
X98061507Y-108423360D01*
X98057119Y-108418720D01*
X97890621Y-108302137D01*
X97704081Y-108221414D01*
X97658053Y-108211798D01*
X97509856Y-108180838D01*
X97509851Y-108180837D01*
X97505120Y-108179849D01*
X97500238Y-108179593D01*
X97500129Y-108179587D01*
X97500113Y-108179587D01*
X97498461Y-108179500D01*
X96349200Y-108179500D01*
X96301207Y-108184375D01*
X96204132Y-108194235D01*
X96204130Y-108194235D01*
X96197784Y-108194880D01*
X96003828Y-108255662D01*
X95826056Y-108354203D01*
X95707995Y-108455393D01*
X95643259Y-108484536D01*
X95573040Y-108474054D01*
X95519636Y-108427272D01*
X95500000Y-108359724D01*
X95500000Y-102267966D01*
X104348257Y-102267966D01*
X104378565Y-102402446D01*
X104381645Y-102412275D01*
X104461770Y-102609603D01*
X104466413Y-102618794D01*
X104577694Y-102800388D01*
X104583777Y-102808699D01*
X104723213Y-102969667D01*
X104730580Y-102976883D01*
X104894434Y-103112916D01*
X104902881Y-103118831D01*
X105086756Y-103226279D01*
X105096042Y-103230729D01*
X105295001Y-103306703D01*
X105304899Y-103309579D01*
X105408250Y-103330606D01*
X105422299Y-103329410D01*
X105426000Y-103319065D01*
X105426000Y-102272115D01*
X105421525Y-102256876D01*
X105420135Y-102255671D01*
X105412452Y-102254000D01*
X104363225Y-102254000D01*
X104349694Y-102257973D01*
X104348257Y-102267966D01*
X95500000Y-102267966D01*
X95500000Y-101734183D01*
X104344389Y-101734183D01*
X104345912Y-101742607D01*
X104358292Y-101746000D01*
X105407885Y-101746000D01*
X105423124Y-101741525D01*
X105424329Y-101740135D01*
X105426000Y-101732452D01*
X105426000Y-100683102D01*
X105422082Y-100669758D01*
X105407806Y-100667771D01*
X105369324Y-100673660D01*
X105359288Y-100676051D01*
X105156868Y-100742212D01*
X105147359Y-100746209D01*
X104958463Y-100844542D01*
X104949738Y-100850036D01*
X104779433Y-100977905D01*
X104771726Y-100984748D01*
X104624590Y-101138717D01*
X104618104Y-101146727D01*
X104498098Y-101322649D01*
X104493000Y-101331623D01*
X104403338Y-101524783D01*
X104399775Y-101534470D01*
X104344389Y-101734183D01*
X95500000Y-101734183D01*
X95500000Y-93992798D01*
X102152017Y-93992798D01*
X102170705Y-94170601D01*
X102225952Y-94340633D01*
X102315343Y-94495463D01*
X102434972Y-94628324D01*
X102579609Y-94733410D01*
X102585637Y-94736094D01*
X102585639Y-94736095D01*
X102736904Y-94803442D01*
X102742935Y-94806127D01*
X102830373Y-94824713D01*
X102911354Y-94841926D01*
X102911358Y-94841926D01*
X102917811Y-94843298D01*
X103096593Y-94843298D01*
X103103046Y-94841926D01*
X103103050Y-94841926D01*
X103184031Y-94824713D01*
X103271469Y-94806127D01*
X103277500Y-94803442D01*
X103428765Y-94736095D01*
X103428767Y-94736094D01*
X103434795Y-94733410D01*
X103579432Y-94628324D01*
X103699061Y-94495463D01*
X103788452Y-94340633D01*
X103843699Y-94170601D01*
X103862387Y-93992798D01*
X103843699Y-93814995D01*
X103788452Y-93644963D01*
X103699061Y-93490133D01*
X103579432Y-93357272D01*
X103434795Y-93252186D01*
X103428767Y-93249502D01*
X103428765Y-93249501D01*
X103277500Y-93182154D01*
X103277499Y-93182154D01*
X103271469Y-93179469D01*
X103184031Y-93160884D01*
X103103050Y-93143670D01*
X103103046Y-93143670D01*
X103096593Y-93142298D01*
X102917811Y-93142298D01*
X102911358Y-93143670D01*
X102911354Y-93143670D01*
X102830373Y-93160883D01*
X102742935Y-93179469D01*
X102736905Y-93182154D01*
X102736904Y-93182154D01*
X102585640Y-93249501D01*
X102585638Y-93249502D01*
X102579610Y-93252186D01*
X102434972Y-93357272D01*
X102315343Y-93490133D01*
X102225952Y-93644963D01*
X102170705Y-93814995D01*
X102152017Y-93992798D01*
X95500000Y-93992798D01*
X95500000Y-76500000D01*
X104644815Y-76500000D01*
X104663503Y-76677803D01*
X104718750Y-76847835D01*
X104808141Y-77002665D01*
X104927770Y-77135526D01*
X105072407Y-77240612D01*
X105078435Y-77243296D01*
X105078437Y-77243297D01*
X105229702Y-77310644D01*
X105235733Y-77313329D01*
X105399433Y-77348124D01*
X105462330Y-77382276D01*
X107532595Y-79452541D01*
X107566621Y-79514853D01*
X107569500Y-79541636D01*
X107569500Y-100741238D01*
X107549498Y-100809359D01*
X107515770Y-100844451D01*
X107348599Y-100961505D01*
X107181505Y-101128599D01*
X107058803Y-101303836D01*
X107056121Y-101307667D01*
X107000664Y-101351995D01*
X106930045Y-101359304D01*
X106866684Y-101327273D01*
X106847116Y-101303836D01*
X106762427Y-101172926D01*
X106756136Y-101164757D01*
X106612806Y-101007240D01*
X106605273Y-101000215D01*
X106438139Y-100868222D01*
X106429552Y-100862517D01*
X106243117Y-100759599D01*
X106233705Y-100755369D01*
X106032959Y-100684280D01*
X106022988Y-100681646D01*
X105951837Y-100668972D01*
X105938540Y-100670432D01*
X105934000Y-100684989D01*
X105934000Y-103318517D01*
X105938064Y-103332359D01*
X105951478Y-103334393D01*
X105958184Y-103333534D01*
X105968262Y-103331392D01*
X106172255Y-103270191D01*
X106181842Y-103266433D01*
X106373095Y-103172739D01*
X106381945Y-103167464D01*
X106555328Y-103043792D01*
X106563200Y-103037139D01*
X106714052Y-102886812D01*
X106720730Y-102878965D01*
X106845002Y-102706022D01*
X106847003Y-102702692D01*
X106899237Y-102654606D01*
X106969175Y-102642394D01*
X107034613Y-102669931D01*
X107058215Y-102695324D01*
X107181505Y-102871401D01*
X107348599Y-103038495D01*
X107353107Y-103041652D01*
X107353110Y-103041654D01*
X107537661Y-103170878D01*
X107542170Y-103174035D01*
X107547152Y-103176358D01*
X107547157Y-103176361D01*
X107751355Y-103271580D01*
X107756337Y-103273903D01*
X107761645Y-103275325D01*
X107761647Y-103275326D01*
X107979277Y-103333639D01*
X107984592Y-103335063D01*
X108220000Y-103355659D01*
X108455408Y-103335063D01*
X108460723Y-103333639D01*
X108678353Y-103275326D01*
X108678355Y-103275325D01*
X108683663Y-103273903D01*
X108688645Y-103271580D01*
X108892843Y-103176361D01*
X108892848Y-103176358D01*
X108897830Y-103174035D01*
X108902339Y-103170878D01*
X109086890Y-103041654D01*
X109086893Y-103041652D01*
X109091401Y-103038495D01*
X109258495Y-102871401D01*
X109386787Y-102688180D01*
X109442244Y-102643851D01*
X109512863Y-102636542D01*
X109576224Y-102668572D01*
X109593212Y-102688179D01*
X109721505Y-102871401D01*
X109888599Y-103038495D01*
X109893107Y-103041652D01*
X109893110Y-103041654D01*
X110077661Y-103170878D01*
X110082170Y-103174035D01*
X110087152Y-103176358D01*
X110087157Y-103176361D01*
X110291355Y-103271580D01*
X110296337Y-103273903D01*
X110301645Y-103275325D01*
X110301647Y-103275326D01*
X110519277Y-103333639D01*
X110524592Y-103335063D01*
X110760000Y-103355659D01*
X110995408Y-103335063D01*
X111000723Y-103333639D01*
X111218353Y-103275326D01*
X111218355Y-103275325D01*
X111223663Y-103273903D01*
X111228645Y-103271580D01*
X111432843Y-103176361D01*
X111432848Y-103176358D01*
X111437830Y-103174035D01*
X111442339Y-103170878D01*
X111626890Y-103041654D01*
X111626893Y-103041652D01*
X111631401Y-103038495D01*
X111751011Y-102918885D01*
X111813323Y-102884859D01*
X111884138Y-102889924D01*
X111940974Y-102932471D01*
X111958088Y-102963752D01*
X111987292Y-103041654D01*
X112006474Y-103092824D01*
X112011854Y-103100003D01*
X112011856Y-103100006D01*
X112069082Y-103176361D01*
X112092454Y-103207546D01*
X112099635Y-103212928D01*
X112199994Y-103288144D01*
X112199997Y-103288146D01*
X112207176Y-103293526D01*
X112287104Y-103323489D01*
X112334025Y-103341079D01*
X112334027Y-103341079D01*
X112341420Y-103343851D01*
X112349270Y-103344704D01*
X112349271Y-103344704D01*
X112399217Y-103350130D01*
X112402623Y-103350500D01*
X113299868Y-103350500D01*
X114197376Y-103350499D01*
X114200770Y-103350130D01*
X114200776Y-103350130D01*
X114250722Y-103344705D01*
X114250726Y-103344704D01*
X114258580Y-103343851D01*
X114392824Y-103293526D01*
X114400003Y-103288146D01*
X114400006Y-103288144D01*
X114500365Y-103212928D01*
X114507546Y-103207546D01*
X114530918Y-103176361D01*
X114588144Y-103100006D01*
X114588146Y-103100003D01*
X114593526Y-103092824D01*
X114643851Y-102958580D01*
X114646688Y-102932471D01*
X114650131Y-102900774D01*
X114650131Y-102900773D01*
X114650500Y-102897377D01*
X114650499Y-101102624D01*
X114643851Y-101041420D01*
X114593526Y-100907176D01*
X114588146Y-100899997D01*
X114588144Y-100899994D01*
X114512928Y-100799635D01*
X114507546Y-100792454D01*
X114440509Y-100742212D01*
X114400006Y-100711856D01*
X114400003Y-100711854D01*
X114392824Y-100706474D01*
X114303439Y-100672966D01*
X114265975Y-100658921D01*
X114265973Y-100658921D01*
X114258580Y-100656149D01*
X114250730Y-100655296D01*
X114250729Y-100655296D01*
X114200774Y-100649869D01*
X114200773Y-100649869D01*
X114197377Y-100649500D01*
X113300132Y-100649500D01*
X112402624Y-100649501D01*
X112399230Y-100649870D01*
X112399224Y-100649870D01*
X112349278Y-100655295D01*
X112349274Y-100655296D01*
X112341420Y-100656149D01*
X112207176Y-100706474D01*
X112199997Y-100711854D01*
X112199994Y-100711856D01*
X112159491Y-100742212D01*
X112092454Y-100792454D01*
X112087072Y-100799635D01*
X112011856Y-100899994D01*
X112011854Y-100899997D01*
X112006474Y-100907176D01*
X112003324Y-100915580D01*
X112003323Y-100915581D01*
X111986107Y-100961505D01*
X111958924Y-101034019D01*
X111958088Y-101036248D01*
X111915447Y-101093013D01*
X111848886Y-101117714D01*
X111779537Y-101102507D01*
X111751011Y-101081115D01*
X111631401Y-100961505D01*
X111626893Y-100958348D01*
X111626890Y-100958346D01*
X111498179Y-100868222D01*
X111464229Y-100844450D01*
X111419901Y-100788993D01*
X111410500Y-100741237D01*
X111410500Y-90000000D01*
X112144815Y-90000000D01*
X112163503Y-90177803D01*
X112218750Y-90347835D01*
X112222053Y-90353557D01*
X112222054Y-90353558D01*
X112267613Y-90432468D01*
X112308141Y-90502665D01*
X112312559Y-90507572D01*
X112312560Y-90507573D01*
X112364804Y-90565595D01*
X112427770Y-90635526D01*
X112572407Y-90740612D01*
X112578435Y-90743296D01*
X112578437Y-90743297D01*
X112729702Y-90810644D01*
X112735733Y-90813329D01*
X112899433Y-90848124D01*
X112962330Y-90882276D01*
X129982752Y-107902698D01*
X129990593Y-107911315D01*
X129994798Y-107917940D01*
X130000577Y-107923367D01*
X130000578Y-107923368D01*
X130045816Y-107965849D01*
X130048658Y-107968604D01*
X130068965Y-107988911D01*
X130072096Y-107991340D01*
X130072102Y-107991345D01*
X130072377Y-107991558D01*
X130081390Y-107999255D01*
X130114607Y-108030448D01*
X130121554Y-108034267D01*
X130133066Y-108040596D01*
X130149590Y-108051450D01*
X130166236Y-108064362D01*
X130191424Y-108075262D01*
X130208041Y-108082453D01*
X130218700Y-108087675D01*
X130251686Y-108105809D01*
X130251690Y-108105810D01*
X130258632Y-108109627D01*
X130266305Y-108111597D01*
X130266307Y-108111598D01*
X130279036Y-108114866D01*
X130297740Y-108121270D01*
X130309793Y-108126486D01*
X130309802Y-108126489D01*
X130317073Y-108129635D01*
X130324901Y-108130875D01*
X130324902Y-108130875D01*
X130362067Y-108136761D01*
X130373693Y-108139169D01*
X130410146Y-108148529D01*
X130410147Y-108148529D01*
X130417823Y-108150500D01*
X130438890Y-108150500D01*
X130458602Y-108152051D01*
X130479405Y-108155346D01*
X130487297Y-108154600D01*
X130524756Y-108151059D01*
X130536614Y-108150500D01*
X139407439Y-108150500D01*
X139475560Y-108170502D01*
X139481501Y-108174564D01*
X139545984Y-108221414D01*
X139572407Y-108240612D01*
X139578434Y-108243295D01*
X139578435Y-108243296D01*
X139606210Y-108255662D01*
X139735733Y-108313329D01*
X139808335Y-108328761D01*
X139904152Y-108349128D01*
X139904156Y-108349128D01*
X139910609Y-108350500D01*
X140089391Y-108350500D01*
X140095844Y-108349128D01*
X140095848Y-108349128D01*
X140191665Y-108328761D01*
X140264267Y-108313329D01*
X140386832Y-108258760D01*
X140421563Y-108243297D01*
X140421565Y-108243296D01*
X140427593Y-108240612D01*
X140511574Y-108179596D01*
X140566891Y-108139405D01*
X140572230Y-108135526D01*
X140577535Y-108129635D01*
X140687440Y-108007573D01*
X140687441Y-108007572D01*
X140691859Y-108002665D01*
X140749575Y-107902698D01*
X140777946Y-107853558D01*
X140777947Y-107853557D01*
X140781250Y-107847835D01*
X140833616Y-107686671D01*
X140834457Y-107684082D01*
X140834457Y-107684080D01*
X140836497Y-107677803D01*
X140855185Y-107500000D01*
X140848063Y-107432239D01*
X140837187Y-107328761D01*
X140837187Y-107328760D01*
X140836497Y-107322197D01*
X140822636Y-107279537D01*
X140820608Y-107208571D01*
X140857270Y-107147773D01*
X140866268Y-107140416D01*
X140867390Y-107139406D01*
X140872730Y-107135526D01*
X140992359Y-107002665D01*
X141076039Y-106857727D01*
X141078446Y-106853558D01*
X141078447Y-106853557D01*
X141081750Y-106847835D01*
X141132933Y-106690312D01*
X141134957Y-106684082D01*
X141134958Y-106684079D01*
X141136997Y-106677803D01*
X141140867Y-106640988D01*
X141154995Y-106506565D01*
X141155685Y-106500000D01*
X141136997Y-106322197D01*
X141081750Y-106152165D01*
X140992359Y-105997335D01*
X140983364Y-105987345D01*
X140952646Y-105923338D01*
X140951000Y-105903035D01*
X140951000Y-105891549D01*
X140951549Y-105879909D01*
X140953260Y-105872253D01*
X140951062Y-105802318D01*
X140951000Y-105798361D01*
X140951000Y-105769625D01*
X140950461Y-105765357D01*
X140949528Y-105753514D01*
X140948346Y-105715905D01*
X140948097Y-105707980D01*
X140942222Y-105687758D01*
X140938211Y-105668392D01*
X140936565Y-105655356D01*
X140936564Y-105655351D01*
X140935571Y-105647492D01*
X140928394Y-105629365D01*
X156599500Y-105629365D01*
X156599738Y-105634830D01*
X156613972Y-105797519D01*
X156615875Y-105808312D01*
X156672264Y-106018761D01*
X156676010Y-106029053D01*
X156768086Y-106226511D01*
X156773569Y-106236007D01*
X156898528Y-106414467D01*
X156905584Y-106422875D01*
X157059625Y-106576916D01*
X157068033Y-106583972D01*
X157246493Y-106708931D01*
X157255989Y-106714414D01*
X157453447Y-106806490D01*
X157463739Y-106810236D01*
X157636003Y-106856394D01*
X157650099Y-106856058D01*
X157653500Y-106848116D01*
X157653500Y-106842967D01*
X158161500Y-106842967D01*
X158165897Y-106857943D01*
X158226055Y-106885417D01*
X158264438Y-106945143D01*
X158269061Y-106969657D01*
X158271384Y-106996201D01*
X158271385Y-106996208D01*
X158271865Y-107001692D01*
X158273289Y-107007005D01*
X158273289Y-107007007D01*
X158307726Y-107135526D01*
X158330761Y-107221496D01*
X158426932Y-107427734D01*
X158557453Y-107614139D01*
X158718361Y-107775047D01*
X158904766Y-107905568D01*
X158909744Y-107907889D01*
X158909747Y-107907891D01*
X159105696Y-107999264D01*
X159111004Y-108001739D01*
X159116312Y-108003161D01*
X159116314Y-108003162D01*
X159325493Y-108059211D01*
X159325495Y-108059211D01*
X159330808Y-108060635D01*
X159429802Y-108069296D01*
X159497992Y-108075262D01*
X159497999Y-108075262D01*
X159500716Y-108075500D01*
X161214284Y-108075500D01*
X161217001Y-108075262D01*
X161217008Y-108075262D01*
X161285198Y-108069296D01*
X161384192Y-108060635D01*
X161389505Y-108059211D01*
X161389507Y-108059211D01*
X161598686Y-108003162D01*
X161598688Y-108003161D01*
X161603996Y-108001739D01*
X161609304Y-107999264D01*
X161805253Y-107907891D01*
X161805256Y-107907889D01*
X161810234Y-107905568D01*
X161996639Y-107775047D01*
X162157547Y-107614139D01*
X162288068Y-107427734D01*
X162384239Y-107221496D01*
X162407275Y-107135526D01*
X162441711Y-107007007D01*
X162441711Y-107007005D01*
X162443135Y-107001692D01*
X162462968Y-106775000D01*
X162443135Y-106548308D01*
X162384239Y-106328504D01*
X162336679Y-106226511D01*
X162290391Y-106127247D01*
X162290389Y-106127244D01*
X162288068Y-106122266D01*
X162157547Y-105935861D01*
X161996639Y-105774953D01*
X161810234Y-105644432D01*
X161805256Y-105642111D01*
X161805253Y-105642109D01*
X161777924Y-105629365D01*
X165199500Y-105629365D01*
X165199738Y-105634830D01*
X165213972Y-105797519D01*
X165215875Y-105808312D01*
X165272264Y-106018761D01*
X165276010Y-106029053D01*
X165368086Y-106226511D01*
X165373569Y-106236007D01*
X165498528Y-106414467D01*
X165505584Y-106422875D01*
X165659625Y-106576916D01*
X165668033Y-106583972D01*
X165846493Y-106708931D01*
X165855989Y-106714414D01*
X166053447Y-106806490D01*
X166063739Y-106810236D01*
X166236003Y-106856394D01*
X166250099Y-106856058D01*
X166253500Y-106848116D01*
X166253500Y-105047115D01*
X166249025Y-105031876D01*
X166247635Y-105030671D01*
X166239952Y-105029000D01*
X165217615Y-105029000D01*
X165202376Y-105033475D01*
X165201171Y-105034865D01*
X165199500Y-105042548D01*
X165199500Y-105629365D01*
X161777924Y-105629365D01*
X161608978Y-105550584D01*
X161608976Y-105550583D01*
X161603996Y-105548261D01*
X161598688Y-105546839D01*
X161598686Y-105546838D01*
X161389507Y-105490789D01*
X161389505Y-105490789D01*
X161384192Y-105489365D01*
X161285198Y-105480704D01*
X161217008Y-105474738D01*
X161217001Y-105474738D01*
X161214284Y-105474500D01*
X159500716Y-105474500D01*
X159497999Y-105474738D01*
X159497992Y-105474738D01*
X159412890Y-105482184D01*
X159352481Y-105487469D01*
X159282877Y-105473480D01*
X159231885Y-105424081D01*
X159215500Y-105361948D01*
X159215500Y-105047115D01*
X159211025Y-105031876D01*
X159209635Y-105030671D01*
X159201952Y-105029000D01*
X158179615Y-105029000D01*
X158164376Y-105033475D01*
X158163171Y-105034865D01*
X158161500Y-105042548D01*
X158161500Y-106842967D01*
X157653500Y-106842967D01*
X157653500Y-105047115D01*
X157649025Y-105031876D01*
X157647635Y-105030671D01*
X157639952Y-105029000D01*
X156617615Y-105029000D01*
X156602376Y-105033475D01*
X156601171Y-105034865D01*
X156599500Y-105042548D01*
X156599500Y-105629365D01*
X140928394Y-105629365D01*
X140918797Y-105605124D01*
X140914958Y-105593911D01*
X140904455Y-105557761D01*
X140902244Y-105550151D01*
X140891519Y-105532016D01*
X140882820Y-105514259D01*
X140877986Y-105502048D01*
X140877985Y-105502046D01*
X140875068Y-105494679D01*
X140848288Y-105457819D01*
X140841772Y-105447899D01*
X140827686Y-105424081D01*
X140818581Y-105408685D01*
X140803688Y-105393792D01*
X140790847Y-105378758D01*
X140783123Y-105368127D01*
X140778463Y-105361713D01*
X140743356Y-105332670D01*
X140734577Y-105324681D01*
X139912781Y-104502885D01*
X156599500Y-104502885D01*
X156603975Y-104518124D01*
X156605365Y-104519329D01*
X156613048Y-104521000D01*
X157635385Y-104521000D01*
X157650624Y-104516525D01*
X157651829Y-104515135D01*
X157653500Y-104507452D01*
X157653500Y-104502885D01*
X158161500Y-104502885D01*
X158165975Y-104518124D01*
X158167365Y-104519329D01*
X158175048Y-104521000D01*
X159197385Y-104521000D01*
X159212624Y-104516525D01*
X159213829Y-104515135D01*
X159215500Y-104507452D01*
X159215500Y-104502885D01*
X165199500Y-104502885D01*
X165203975Y-104518124D01*
X165205365Y-104519329D01*
X165213048Y-104521000D01*
X166235385Y-104521000D01*
X166250624Y-104516525D01*
X166251829Y-104515135D01*
X166253500Y-104507452D01*
X166253500Y-102707033D01*
X166249527Y-102693502D01*
X166240978Y-102692273D01*
X166063739Y-102739764D01*
X166053447Y-102743510D01*
X165855989Y-102835586D01*
X165846493Y-102841069D01*
X165668033Y-102966028D01*
X165659625Y-102973084D01*
X165505584Y-103127125D01*
X165498528Y-103135533D01*
X165373569Y-103313993D01*
X165368086Y-103323489D01*
X165276010Y-103520947D01*
X165272264Y-103531239D01*
X165215875Y-103741688D01*
X165213972Y-103752481D01*
X165199738Y-103915170D01*
X165199500Y-103920635D01*
X165199500Y-104502885D01*
X159215500Y-104502885D01*
X159215500Y-103920635D01*
X159215262Y-103915170D01*
X159201028Y-103752481D01*
X159199125Y-103741688D01*
X159142736Y-103531239D01*
X159138990Y-103520947D01*
X159046914Y-103323489D01*
X159041431Y-103313993D01*
X158916472Y-103135533D01*
X158909416Y-103127125D01*
X158755375Y-102973084D01*
X158746967Y-102966028D01*
X158568507Y-102841069D01*
X158559011Y-102835586D01*
X158361553Y-102743510D01*
X158351261Y-102739764D01*
X158178997Y-102693606D01*
X158164901Y-102693942D01*
X158161500Y-102701884D01*
X158161500Y-104502885D01*
X157653500Y-104502885D01*
X157653500Y-102707033D01*
X157649527Y-102693502D01*
X157640978Y-102692273D01*
X157463739Y-102739764D01*
X157453447Y-102743510D01*
X157255989Y-102835586D01*
X157246493Y-102841069D01*
X157068033Y-102966028D01*
X157059625Y-102973084D01*
X156905584Y-103127125D01*
X156898528Y-103135533D01*
X156773569Y-103313993D01*
X156768086Y-103323489D01*
X156676010Y-103520947D01*
X156672264Y-103531239D01*
X156615875Y-103741688D01*
X156613972Y-103752481D01*
X156599738Y-103915170D01*
X156599500Y-103920635D01*
X156599500Y-104502885D01*
X139912781Y-104502885D01*
X134889896Y-99480000D01*
X146164815Y-99480000D01*
X146183503Y-99657803D01*
X146238750Y-99827835D01*
X146328141Y-99982665D01*
X146447770Y-100115526D01*
X146592407Y-100220612D01*
X146598435Y-100223296D01*
X146598437Y-100223297D01*
X146749702Y-100290644D01*
X146755733Y-100293329D01*
X146843171Y-100311914D01*
X146924152Y-100329128D01*
X146924156Y-100329128D01*
X146930609Y-100330500D01*
X147109391Y-100330500D01*
X147115844Y-100329128D01*
X147115848Y-100329128D01*
X147196829Y-100311914D01*
X147284267Y-100293329D01*
X147290298Y-100290644D01*
X147441563Y-100223297D01*
X147441565Y-100223296D01*
X147447593Y-100220612D01*
X147592230Y-100115526D01*
X147711859Y-99982665D01*
X147801250Y-99827835D01*
X147856497Y-99657803D01*
X147875185Y-99480000D01*
X147856497Y-99302197D01*
X147801250Y-99132165D01*
X147711859Y-98977335D01*
X147592230Y-98844474D01*
X147447593Y-98739388D01*
X147441565Y-98736704D01*
X147441563Y-98736703D01*
X147290298Y-98669356D01*
X147290297Y-98669356D01*
X147284267Y-98666671D01*
X147196829Y-98648086D01*
X147115848Y-98630872D01*
X147115844Y-98630872D01*
X147109391Y-98629500D01*
X146930609Y-98629500D01*
X146924156Y-98630872D01*
X146924152Y-98630872D01*
X146843171Y-98648086D01*
X146755733Y-98666671D01*
X146749703Y-98669356D01*
X146749702Y-98669356D01*
X146598438Y-98736703D01*
X146598436Y-98736704D01*
X146592408Y-98739388D01*
X146447770Y-98844474D01*
X146328141Y-98977335D01*
X146238750Y-99132165D01*
X146183503Y-99302197D01*
X146164815Y-99480000D01*
X134889896Y-99480000D01*
X113687405Y-78277509D01*
X113653379Y-78215197D01*
X113650500Y-78188414D01*
X113650500Y-77096965D01*
X113670502Y-77028844D01*
X113682864Y-77012655D01*
X113687440Y-77007573D01*
X113687441Y-77007572D01*
X113691859Y-77002665D01*
X113781250Y-76847835D01*
X113836497Y-76677803D01*
X113855185Y-76500000D01*
X113836497Y-76322197D01*
X113781250Y-76152165D01*
X113691859Y-75997335D01*
X113572230Y-75864474D01*
X113427593Y-75759388D01*
X113421565Y-75756704D01*
X113421563Y-75756703D01*
X113270298Y-75689356D01*
X113270297Y-75689356D01*
X113264267Y-75686671D01*
X113176829Y-75668085D01*
X113095848Y-75650872D01*
X113095844Y-75650872D01*
X113089391Y-75649500D01*
X112910609Y-75649500D01*
X112904156Y-75650872D01*
X112904152Y-75650872D01*
X112823171Y-75668085D01*
X112735733Y-75686671D01*
X112729703Y-75689356D01*
X112729702Y-75689356D01*
X112578438Y-75756703D01*
X112578436Y-75756704D01*
X112572408Y-75759388D01*
X112427770Y-75864474D01*
X112308141Y-75997335D01*
X112218750Y-76152165D01*
X112163503Y-76322197D01*
X112144815Y-76500000D01*
X112163503Y-76677803D01*
X112218750Y-76847835D01*
X112308141Y-77002665D01*
X112312559Y-77007572D01*
X112312560Y-77007573D01*
X112317136Y-77012655D01*
X112347854Y-77076662D01*
X112349500Y-77096965D01*
X112349500Y-78429050D01*
X112348951Y-78440690D01*
X112347240Y-78448346D01*
X112347489Y-78456269D01*
X112349438Y-78518280D01*
X112349500Y-78522238D01*
X112349500Y-78550975D01*
X112349995Y-78554892D01*
X112350039Y-78555241D01*
X112350971Y-78567074D01*
X112352403Y-78612619D01*
X112354615Y-78620233D01*
X112354616Y-78620238D01*
X112358278Y-78632842D01*
X112362289Y-78652206D01*
X112364929Y-78673108D01*
X112367848Y-78680479D01*
X112367848Y-78680481D01*
X112381702Y-78715470D01*
X112385541Y-78726681D01*
X112398256Y-78770448D01*
X112408981Y-78788583D01*
X112417676Y-78806331D01*
X112425432Y-78825921D01*
X112452218Y-78862788D01*
X112458725Y-78872696D01*
X112477883Y-78905092D01*
X112477887Y-78905097D01*
X112481919Y-78911915D01*
X112496812Y-78926808D01*
X112509653Y-78941842D01*
X112522037Y-78958887D01*
X112528145Y-78963940D01*
X112557143Y-78987929D01*
X112565923Y-78995919D01*
X139525158Y-105955154D01*
X139559184Y-106017466D01*
X139554119Y-106088281D01*
X139545183Y-106107247D01*
X139519250Y-106152165D01*
X139464003Y-106322197D01*
X139445315Y-106500000D01*
X139446005Y-106506565D01*
X139460134Y-106640988D01*
X139464003Y-106677803D01*
X139466042Y-106684077D01*
X139466042Y-106684079D01*
X139466202Y-106684571D01*
X139466211Y-106684871D01*
X139467416Y-106690542D01*
X139466378Y-106690763D01*
X139468225Y-106755539D01*
X139431558Y-106816335D01*
X139367844Y-106847656D01*
X139346366Y-106849500D01*
X137161798Y-106849500D01*
X137093677Y-106829498D01*
X137047184Y-106775842D01*
X137037080Y-106705568D01*
X137066574Y-106640988D01*
X137071196Y-106636277D01*
X137072230Y-106635526D01*
X137075538Y-106631852D01*
X137075545Y-106631845D01*
X137187440Y-106507573D01*
X137187441Y-106507572D01*
X137191859Y-106502665D01*
X137281250Y-106347835D01*
X137336497Y-106177803D01*
X137355185Y-106000000D01*
X137347127Y-105923338D01*
X137337187Y-105828761D01*
X137337187Y-105828760D01*
X137336497Y-105822197D01*
X137331986Y-105808312D01*
X137283292Y-105658450D01*
X137281250Y-105652165D01*
X137276786Y-105644432D01*
X137195162Y-105503056D01*
X137191859Y-105497335D01*
X137184683Y-105489365D01*
X137076645Y-105369377D01*
X137076643Y-105369376D01*
X137072230Y-105364474D01*
X136927593Y-105259388D01*
X136921565Y-105256704D01*
X136921563Y-105256703D01*
X136770298Y-105189356D01*
X136770297Y-105189356D01*
X136764267Y-105186671D01*
X136600567Y-105151876D01*
X136537670Y-105117724D01*
X120517248Y-89097302D01*
X120509407Y-89088685D01*
X120505202Y-89082060D01*
X120454183Y-89034150D01*
X120451342Y-89031396D01*
X120431035Y-89011089D01*
X120427904Y-89008660D01*
X120427898Y-89008655D01*
X120427623Y-89008442D01*
X120418610Y-89000745D01*
X120385393Y-88969552D01*
X120376071Y-88964427D01*
X120366934Y-88959404D01*
X120350410Y-88948550D01*
X120340027Y-88940496D01*
X120340026Y-88940495D01*
X120333764Y-88935638D01*
X120291952Y-88917545D01*
X120281307Y-88912330D01*
X120241368Y-88890373D01*
X120233689Y-88888402D01*
X120233688Y-88888401D01*
X120220959Y-88885133D01*
X120202250Y-88878727D01*
X120190200Y-88873512D01*
X120190195Y-88873510D01*
X120182926Y-88870365D01*
X120137930Y-88863238D01*
X120126310Y-88860831D01*
X120089860Y-88851472D01*
X120089855Y-88851471D01*
X120082177Y-88849500D01*
X120061116Y-88849500D01*
X120041404Y-88847949D01*
X120040098Y-88847742D01*
X120020595Y-88844653D01*
X120012704Y-88845399D01*
X119975235Y-88848941D01*
X119963377Y-88849500D01*
X115092561Y-88849500D01*
X115024440Y-88829498D01*
X115018499Y-88825436D01*
X114932931Y-88763266D01*
X114932929Y-88763265D01*
X114927593Y-88759388D01*
X114921563Y-88756703D01*
X114770298Y-88689356D01*
X114770297Y-88689356D01*
X114764267Y-88686671D01*
X114676829Y-88668085D01*
X114595848Y-88650872D01*
X114595844Y-88650872D01*
X114589391Y-88649500D01*
X114410609Y-88649500D01*
X114404156Y-88650872D01*
X114404152Y-88650872D01*
X114323171Y-88668085D01*
X114235733Y-88686671D01*
X114229703Y-88689356D01*
X114229702Y-88689356D01*
X114078438Y-88756703D01*
X114078436Y-88756704D01*
X114072408Y-88759388D01*
X113927770Y-88864474D01*
X113923357Y-88869376D01*
X113923355Y-88869377D01*
X113833157Y-88969552D01*
X113808141Y-88997335D01*
X113718750Y-89152165D01*
X113716709Y-89158447D01*
X113688549Y-89245113D01*
X113648475Y-89303718D01*
X113583078Y-89331355D01*
X113513121Y-89319248D01*
X113494661Y-89308116D01*
X113427593Y-89259388D01*
X113421565Y-89256704D01*
X113421563Y-89256703D01*
X113270298Y-89189356D01*
X113270297Y-89189356D01*
X113264267Y-89186671D01*
X113176829Y-89168085D01*
X113095848Y-89150872D01*
X113095844Y-89150872D01*
X113089391Y-89149500D01*
X112910609Y-89149500D01*
X112904156Y-89150872D01*
X112904152Y-89150872D01*
X112823171Y-89168085D01*
X112735733Y-89186671D01*
X112729703Y-89189356D01*
X112729702Y-89189356D01*
X112578438Y-89256703D01*
X112578436Y-89256704D01*
X112572408Y-89259388D01*
X112427770Y-89364474D01*
X112308141Y-89497335D01*
X112218750Y-89652165D01*
X112163503Y-89822197D01*
X112144815Y-90000000D01*
X111410500Y-90000000D01*
X111410500Y-80341000D01*
X111411049Y-80329360D01*
X111412760Y-80321704D01*
X111410562Y-80251769D01*
X111410500Y-80247812D01*
X111410500Y-80219075D01*
X111409961Y-80214804D01*
X111409028Y-80202966D01*
X111407846Y-80165356D01*
X111407597Y-80157431D01*
X111405385Y-80149817D01*
X111405384Y-80149812D01*
X111401722Y-80137208D01*
X111397711Y-80117843D01*
X111396064Y-80104807D01*
X111395071Y-80096942D01*
X111378297Y-80054577D01*
X111374459Y-80043369D01*
X111361744Y-79999602D01*
X111351018Y-79981464D01*
X111342323Y-79963716D01*
X111337487Y-79951501D01*
X111337486Y-79951500D01*
X111334568Y-79944129D01*
X111307782Y-79907262D01*
X111301275Y-79897354D01*
X111282117Y-79864958D01*
X111282113Y-79864953D01*
X111278081Y-79858135D01*
X111263188Y-79843242D01*
X111250347Y-79828208D01*
X111242623Y-79817577D01*
X111237963Y-79811163D01*
X111202856Y-79782120D01*
X111194077Y-79774131D01*
X107879130Y-76459184D01*
X107845104Y-76396872D01*
X107842915Y-76383260D01*
X107837187Y-76328761D01*
X107837187Y-76328760D01*
X107836497Y-76322197D01*
X107781250Y-76152165D01*
X107691859Y-75997335D01*
X107572230Y-75864474D01*
X107427593Y-75759388D01*
X107421565Y-75756704D01*
X107421563Y-75756703D01*
X107270298Y-75689356D01*
X107270297Y-75689356D01*
X107264267Y-75686671D01*
X107176829Y-75668085D01*
X107095848Y-75650872D01*
X107095844Y-75650872D01*
X107089391Y-75649500D01*
X106910609Y-75649500D01*
X106904156Y-75650872D01*
X106904152Y-75650872D01*
X106823171Y-75668085D01*
X106735733Y-75686671D01*
X106729703Y-75689356D01*
X106729702Y-75689356D01*
X106578438Y-75756703D01*
X106578436Y-75756704D01*
X106572408Y-75759388D01*
X106427770Y-75864474D01*
X106423357Y-75869376D01*
X106423355Y-75869377D01*
X106343636Y-75957914D01*
X106283190Y-75995153D01*
X106212206Y-75993801D01*
X106156364Y-75957914D01*
X106076645Y-75869377D01*
X106076643Y-75869376D01*
X106072230Y-75864474D01*
X105927593Y-75759388D01*
X105921565Y-75756704D01*
X105921563Y-75756703D01*
X105770298Y-75689356D01*
X105770297Y-75689356D01*
X105764267Y-75686671D01*
X105676829Y-75668085D01*
X105595848Y-75650872D01*
X105595844Y-75650872D01*
X105589391Y-75649500D01*
X105410609Y-75649500D01*
X105404156Y-75650872D01*
X105404152Y-75650872D01*
X105323171Y-75668085D01*
X105235733Y-75686671D01*
X105229703Y-75689356D01*
X105229702Y-75689356D01*
X105078438Y-75756703D01*
X105078436Y-75756704D01*
X105072408Y-75759388D01*
X104927770Y-75864474D01*
X104808141Y-75997335D01*
X104718750Y-76152165D01*
X104663503Y-76322197D01*
X104644815Y-76500000D01*
X95500000Y-76500000D01*
X95500000Y-73626000D01*
X95520002Y-73557879D01*
X95573658Y-73511386D01*
X95626000Y-73500000D01*
X167873500Y-73500000D01*
X167941621Y-73520002D01*
G37*
%TD.AperFunction*%
%TA.AperFunction,Conductor*%
G36*
X119746485Y-90170502D02*
G01*
X119767459Y-90187405D01*
X135620870Y-106040815D01*
X135654896Y-106103127D01*
X135657085Y-106116739D01*
X135663503Y-106177803D01*
X135718750Y-106347835D01*
X135808141Y-106502665D01*
X135812559Y-106507572D01*
X135812560Y-106507573D01*
X135927770Y-106635526D01*
X135926632Y-106636551D01*
X135959753Y-106690312D01*
X135958400Y-106761296D01*
X135918884Y-106820280D01*
X135853753Y-106848537D01*
X135838202Y-106849500D01*
X130821636Y-106849500D01*
X130753515Y-106829498D01*
X130732541Y-106812595D01*
X114485541Y-90565595D01*
X114451515Y-90503283D01*
X114456580Y-90432468D01*
X114499127Y-90375632D01*
X114565647Y-90350821D01*
X114574636Y-90350500D01*
X114589391Y-90350500D01*
X114595844Y-90349128D01*
X114595848Y-90349128D01*
X114676829Y-90331914D01*
X114764267Y-90313329D01*
X114927593Y-90240612D01*
X115018499Y-90174564D01*
X115085367Y-90150706D01*
X115092561Y-90150500D01*
X119678364Y-90150500D01*
X119746485Y-90170502D01*
G37*
%TD.AperFunction*%
%TD*%
M02*
