%TF.GenerationSoftware,KiCad,Pcbnew,(6.0.8-1)-1*%
%TF.CreationDate,2022-11-20T20:32:36+00:00*%
%TF.ProjectId,esp32-network-dac,65737033-322d-46e6-9574-776f726b2d64,0.1*%
%TF.SameCoordinates,Original*%
%TF.FileFunction,Paste,Top*%
%TF.FilePolarity,Positive*%
%FSLAX46Y46*%
G04 Gerber Fmt 4.6, Leading zero omitted, Abs format (unit mm)*
G04 Created by KiCad (PCBNEW (6.0.8-1)-1) date 2022-11-20 20:32:36*
%MOMM*%
%LPD*%
G01*
G04 APERTURE LIST*
G04 Aperture macros list*
%AMRoundRect*
0 Rectangle with rounded corners*
0 $1 Rounding radius*
0 $2 $3 $4 $5 $6 $7 $8 $9 X,Y pos of 4 corners*
0 Add a 4 corners polygon primitive as box body*
4,1,4,$2,$3,$4,$5,$6,$7,$8,$9,$2,$3,0*
0 Add four circle primitives for the rounded corners*
1,1,$1+$1,$2,$3*
1,1,$1+$1,$4,$5*
1,1,$1+$1,$6,$7*
1,1,$1+$1,$8,$9*
0 Add four rect primitives between the rounded corners*
20,1,$1+$1,$2,$3,$4,$5,0*
20,1,$1+$1,$4,$5,$6,$7,0*
20,1,$1+$1,$6,$7,$8,$9,0*
20,1,$1+$1,$8,$9,$2,$3,0*%
G04 Aperture macros list end*
%ADD10RoundRect,0.200000X0.200000X0.275000X-0.200000X0.275000X-0.200000X-0.275000X0.200000X-0.275000X0*%
%ADD11RoundRect,0.200000X-0.275000X0.200000X-0.275000X-0.200000X0.275000X-0.200000X0.275000X0.200000X0*%
%ADD12R,2.500000X1.600000*%
%ADD13R,1.500000X2.000000*%
%ADD14R,3.800000X2.000000*%
%ADD15RoundRect,0.250000X-0.475000X0.250000X-0.475000X-0.250000X0.475000X-0.250000X0.475000X0.250000X0*%
%ADD16RoundRect,0.250000X0.475000X-0.250000X0.475000X0.250000X-0.475000X0.250000X-0.475000X-0.250000X0*%
%ADD17RoundRect,0.200000X-0.200000X-0.275000X0.200000X-0.275000X0.200000X0.275000X-0.200000X0.275000X0*%
%ADD18RoundRect,0.225000X-0.250000X0.225000X-0.250000X-0.225000X0.250000X-0.225000X0.250000X0.225000X0*%
%ADD19RoundRect,0.225000X0.225000X0.250000X-0.225000X0.250000X-0.225000X-0.250000X0.225000X-0.250000X0*%
%ADD20RoundRect,0.225000X-0.225000X-0.250000X0.225000X-0.250000X0.225000X0.250000X-0.225000X0.250000X0*%
%ADD21R,1.400000X1.600000*%
%ADD22R,0.889000X1.498600*%
%ADD23R,0.889000X0.889000*%
%ADD24RoundRect,0.250000X0.250000X0.475000X-0.250000X0.475000X-0.250000X-0.475000X0.250000X-0.475000X0*%
%ADD25RoundRect,0.250000X-0.250000X-0.475000X0.250000X-0.475000X0.250000X0.475000X-0.250000X0.475000X0*%
%ADD26RoundRect,0.250000X-0.325000X-0.650000X0.325000X-0.650000X0.325000X0.650000X-0.325000X0.650000X0*%
%ADD27RoundRect,0.225000X0.250000X-0.225000X0.250000X0.225000X-0.250000X0.225000X-0.250000X-0.225000X0*%
%ADD28R,1.150000X0.700000*%
%ADD29R,1.150000X0.800000*%
%ADD30R,1.150000X0.900000*%
%ADD31R,0.600000X0.450000*%
%ADD32RoundRect,0.250000X0.325000X0.650000X-0.325000X0.650000X-0.325000X-0.650000X0.325000X-0.650000X0*%
%ADD33RoundRect,0.218750X0.218750X0.256250X-0.218750X0.256250X-0.218750X-0.256250X0.218750X-0.256250X0*%
%ADD34R,2.000000X1.500000*%
%ADD35R,2.000000X3.800000*%
%ADD36R,1.212799X2.406599*%
%ADD37RoundRect,0.100000X0.637500X0.100000X-0.637500X0.100000X-0.637500X-0.100000X0.637500X-0.100000X0*%
%ADD38RoundRect,0.250000X-0.650000X0.325000X-0.650000X-0.325000X0.650000X-0.325000X0.650000X0.325000X0*%
G04 APERTURE END LIST*
D10*
%TO.C,R4*%
X149825000Y-108500000D03*
X148175000Y-108500000D03*
%TD*%
%TO.C,R3*%
X107325000Y-114000000D03*
X105675000Y-114000000D03*
%TD*%
D11*
%TO.C,RV1*%
X105500000Y-115675000D03*
X105500000Y-117325000D03*
%TD*%
D10*
%TO.C,R2*%
X105675000Y-112000000D03*
X107325000Y-112000000D03*
%TD*%
D12*
%TO.C,C9*%
X142720000Y-93540000D03*
X139220000Y-93540000D03*
%TD*%
D13*
%TO.C,U3*%
X120417000Y-115650000D03*
X122717000Y-115650000D03*
D14*
X122717000Y-109350000D03*
D13*
X125017000Y-115650000D03*
%TD*%
D15*
%TO.C,C12*%
X145500000Y-113000000D03*
X145500000Y-114900000D03*
%TD*%
D16*
%TO.C,C21*%
X117500000Y-116500000D03*
X117500000Y-114600000D03*
%TD*%
D17*
%TO.C,R10*%
X112567000Y-95500000D03*
X114217000Y-95500000D03*
%TD*%
D16*
%TO.C,C8*%
X136500000Y-109400000D03*
X136500000Y-107500000D03*
%TD*%
D18*
%TO.C,C14*%
X143500000Y-113225000D03*
X143500000Y-114775000D03*
%TD*%
D19*
%TO.C,C19*%
X114267000Y-97500000D03*
X112717000Y-97500000D03*
%TD*%
D20*
%TO.C,C16*%
X125167000Y-118000000D03*
X126717000Y-118000000D03*
%TD*%
D15*
%TO.C,C23*%
X102717000Y-95550000D03*
X102717000Y-97450000D03*
%TD*%
D17*
%TO.C,R7*%
X138175000Y-101000000D03*
X139825000Y-101000000D03*
%TD*%
D21*
%TO.C,S1*%
X129250000Y-95700000D03*
X133750000Y-95700000D03*
X129250000Y-87300000D03*
X133750000Y-87300000D03*
%TD*%
D17*
%TO.C,R8*%
X110892000Y-108500000D03*
X112542000Y-108500000D03*
%TD*%
D22*
%TO.C,U2*%
X101737202Y-92250000D03*
X103007202Y-92250000D03*
X104277202Y-92250000D03*
X105547202Y-92250000D03*
X106817202Y-92250000D03*
X108087202Y-92250000D03*
X109357202Y-92250000D03*
X110627202Y-92250000D03*
X111897202Y-92250000D03*
X113167202Y-92250000D03*
X114437202Y-92250000D03*
X115707202Y-92250000D03*
X116977202Y-92250000D03*
X118247202Y-92250000D03*
X119517202Y-92250000D03*
X120787202Y-92250000D03*
X122057202Y-92250000D03*
X123327202Y-92250000D03*
X124597202Y-92250000D03*
X124597202Y-74750000D03*
X123327202Y-74750000D03*
X122057202Y-74750000D03*
X120787202Y-74750000D03*
X119517202Y-74750000D03*
X118247202Y-74750000D03*
X116977202Y-74750000D03*
X115707202Y-74750000D03*
X114437202Y-74750000D03*
X113167202Y-74750000D03*
X111897202Y-74750000D03*
X110627202Y-74750000D03*
X109357202Y-74750000D03*
X108087202Y-74750000D03*
X106817202Y-74750000D03*
X105547202Y-74750000D03*
X104277202Y-74750000D03*
X103007202Y-74750000D03*
X101737202Y-74750000D03*
D23*
X109537212Y-85004290D03*
X109537212Y-83604290D03*
X108137215Y-83604140D03*
X108137215Y-85004188D03*
X108137215Y-86404236D03*
X109537212Y-86404289D03*
X110937336Y-86404236D03*
X110937336Y-85004188D03*
X110937336Y-83604140D03*
%TD*%
D24*
%TO.C,C6*%
X136450000Y-112000000D03*
X134550000Y-112000000D03*
%TD*%
D17*
%TO.C,R6*%
X141675000Y-101000000D03*
X143325000Y-101000000D03*
%TD*%
D25*
%TO.C,C10*%
X147020000Y-97040000D03*
X148920000Y-97040000D03*
%TD*%
D17*
%TO.C,R5*%
X148175000Y-106500000D03*
X149825000Y-106500000D03*
%TD*%
D26*
%TO.C,C11*%
X146525000Y-104500000D03*
X149475000Y-104500000D03*
%TD*%
D27*
%TO.C,C15*%
X115500000Y-116500000D03*
X115500000Y-114950000D03*
%TD*%
D28*
%TO.C,J1*%
X100705000Y-113000000D03*
D29*
X100705000Y-115020000D03*
D30*
X100705000Y-116250000D03*
D28*
X100705000Y-114000000D03*
D29*
X100705000Y-111980000D03*
D30*
X100705000Y-110750000D03*
%TD*%
D25*
%TO.C,C13*%
X146600000Y-102000000D03*
X148500000Y-102000000D03*
%TD*%
D31*
%TO.C,D3*%
X110550000Y-117500000D03*
X108450000Y-117500000D03*
%TD*%
D16*
%TO.C,C2*%
X154500000Y-105950000D03*
X154500000Y-104050000D03*
%TD*%
%TO.C,C1*%
X154500000Y-110450000D03*
X154500000Y-108550000D03*
%TD*%
%TO.C,C20*%
X112717000Y-116400000D03*
X112717000Y-114500000D03*
%TD*%
D17*
%TO.C,R1*%
X116175000Y-95000000D03*
X117825000Y-95000000D03*
%TD*%
D32*
%TO.C,C5*%
X136475000Y-114500000D03*
X133525000Y-114500000D03*
%TD*%
D19*
%TO.C,C17*%
X146775000Y-87500000D03*
X145225000Y-87500000D03*
%TD*%
D21*
%TO.C,S2*%
X129250000Y-83700000D03*
X133750000Y-83700000D03*
X129250000Y-75300000D03*
X133750000Y-75300000D03*
%TD*%
D33*
%TO.C,D2*%
X116504500Y-108500000D03*
X114929500Y-108500000D03*
%TD*%
D17*
%TO.C,FB1*%
X112392000Y-119000000D03*
X114042000Y-119000000D03*
%TD*%
D34*
%TO.C,U4*%
X146350000Y-89700000D03*
X146350000Y-92000000D03*
D35*
X152650000Y-92000000D03*
D34*
X146350000Y-94300000D03*
%TD*%
D16*
%TO.C,C7*%
X134500000Y-109400000D03*
X134500000Y-107500000D03*
%TD*%
D19*
%TO.C,C18*%
X145275000Y-97000000D03*
X143725000Y-97000000D03*
%TD*%
D36*
%TO.C,C3*%
X150730000Y-115298599D03*
X150730000Y-111701401D03*
%TD*%
%TO.C,C4*%
X140230000Y-119226399D03*
X140230000Y-115629201D03*
%TD*%
D37*
%TO.C,U1*%
X144362500Y-111225000D03*
X144362500Y-110575000D03*
X144362500Y-109925000D03*
X144362500Y-109275000D03*
X144362500Y-108625000D03*
X144362500Y-107975000D03*
X144362500Y-107325000D03*
X144362500Y-106675000D03*
X144362500Y-106025000D03*
X144362500Y-105375000D03*
X144362500Y-104725000D03*
X144362500Y-104075000D03*
X144362500Y-103425000D03*
X144362500Y-102775000D03*
X138637500Y-102775000D03*
X138637500Y-103425000D03*
X138637500Y-104075000D03*
X138637500Y-104725000D03*
X138637500Y-105375000D03*
X138637500Y-106025000D03*
X138637500Y-106675000D03*
X138637500Y-107325000D03*
X138637500Y-107975000D03*
X138637500Y-108625000D03*
X138637500Y-109275000D03*
X138637500Y-109925000D03*
X138637500Y-110575000D03*
X138637500Y-111225000D03*
%TD*%
D33*
%TO.C,D1*%
X121287500Y-95000000D03*
X119712500Y-95000000D03*
%TD*%
D38*
%TO.C,C22*%
X105217000Y-95525000D03*
X105217000Y-98475000D03*
%TD*%
M02*
