%TF.GenerationSoftware,KiCad,Pcbnew,(6.0.8-1)-1*%
%TF.CreationDate,2022-11-20T20:32:36+00:00*%
%TF.ProjectId,esp32-network-dac,65737033-322d-46e6-9574-776f726b2d64,0.1*%
%TF.SameCoordinates,Original*%
%TF.FileFunction,Legend,Bot*%
%TF.FilePolarity,Positive*%
%FSLAX46Y46*%
G04 Gerber Fmt 4.6, Leading zero omitted, Abs format (unit mm)*
G04 Created by KiCad (PCBNEW (6.0.8-1)-1) date 2022-11-20 20:32:36*
%MOMM*%
%LPD*%
G01*
G04 APERTURE LIST*
%ADD10C,0.150000*%
%ADD11C,0.120000*%
G04 APERTURE END LIST*
D10*
X158619047Y-69452380D02*
X158619047Y-70166666D01*
X158666666Y-70309523D01*
X158761904Y-70404761D01*
X158904761Y-70452380D01*
X159000000Y-70452380D01*
X157666666Y-70452380D02*
X158142857Y-70452380D01*
X158142857Y-69452380D01*
X156761904Y-70357142D02*
X156809523Y-70404761D01*
X156952380Y-70452380D01*
X157047619Y-70452380D01*
X157190476Y-70404761D01*
X157285714Y-70309523D01*
X157333333Y-70214285D01*
X157380952Y-70023809D01*
X157380952Y-69880952D01*
X157333333Y-69690476D01*
X157285714Y-69595238D01*
X157190476Y-69500000D01*
X157047619Y-69452380D01*
X156952380Y-69452380D01*
X156809523Y-69500000D01*
X156761904Y-69547619D01*
X156047619Y-69452380D02*
X156047619Y-70166666D01*
X156095238Y-70309523D01*
X156190476Y-70404761D01*
X156333333Y-70452380D01*
X156428571Y-70452380D01*
X155095238Y-70452380D02*
X155571428Y-70452380D01*
X155571428Y-69452380D01*
X154190476Y-70357142D02*
X154238095Y-70404761D01*
X154380952Y-70452380D01*
X154476190Y-70452380D01*
X154619047Y-70404761D01*
X154714285Y-70309523D01*
X154761904Y-70214285D01*
X154809523Y-70023809D01*
X154809523Y-69880952D01*
X154761904Y-69690476D01*
X154714285Y-69595238D01*
X154619047Y-69500000D01*
X154476190Y-69452380D01*
X154380952Y-69452380D01*
X154238095Y-69500000D01*
X154190476Y-69547619D01*
X153476190Y-69452380D02*
X153476190Y-70166666D01*
X153523809Y-70309523D01*
X153619047Y-70404761D01*
X153761904Y-70452380D01*
X153857142Y-70452380D01*
X152523809Y-70452380D02*
X153000000Y-70452380D01*
X153000000Y-69452380D01*
X151619047Y-70357142D02*
X151666666Y-70404761D01*
X151809523Y-70452380D01*
X151904761Y-70452380D01*
X152047619Y-70404761D01*
X152142857Y-70309523D01*
X152190476Y-70214285D01*
X152238095Y-70023809D01*
X152238095Y-69880952D01*
X152190476Y-69690476D01*
X152142857Y-69595238D01*
X152047619Y-69500000D01*
X151904761Y-69452380D01*
X151809523Y-69452380D01*
X151666666Y-69500000D01*
X151619047Y-69547619D01*
X150904761Y-69452380D02*
X150904761Y-70166666D01*
X150952380Y-70309523D01*
X151047619Y-70404761D01*
X151190476Y-70452380D01*
X151285714Y-70452380D01*
X149952380Y-70452380D02*
X150428571Y-70452380D01*
X150428571Y-69452380D01*
X149047619Y-70357142D02*
X149095238Y-70404761D01*
X149238095Y-70452380D01*
X149333333Y-70452380D01*
X149476190Y-70404761D01*
X149571428Y-70309523D01*
X149619047Y-70214285D01*
X149666666Y-70023809D01*
X149666666Y-69880952D01*
X149619047Y-69690476D01*
X149571428Y-69595238D01*
X149476190Y-69500000D01*
X149333333Y-69452380D01*
X149238095Y-69452380D01*
X149095238Y-69500000D01*
X149047619Y-69547619D01*
D11*
%TO.C,U2*%
X102118202Y-93266300D02*
G75*
G03*
X102118202Y-93266300I-381000J0D01*
G01*
%TD*%
M02*
