%TF.GenerationSoftware,KiCad,Pcbnew,(6.0.8-1)-1*%
%TF.CreationDate,2022-11-20T20:32:36+00:00*%
%TF.ProjectId,esp32-network-dac,65737033-322d-46e6-9574-776f726b2d64,0.1*%
%TF.SameCoordinates,Original*%
%TF.FileFunction,Copper,L3,Inr*%
%TF.FilePolarity,Positive*%
%FSLAX46Y46*%
G04 Gerber Fmt 4.6, Leading zero omitted, Abs format (unit mm)*
G04 Created by KiCad (PCBNEW (6.0.8-1)-1) date 2022-11-20 20:32:36*
%MOMM*%
%LPD*%
G01*
G04 APERTURE LIST*
%TA.AperFunction,ComponentPad*%
%ADD10O,3.200000X1.600000*%
%TD*%
%TA.AperFunction,ComponentPad*%
%ADD11O,1.600000X3.200000*%
%TD*%
%TA.AperFunction,ComponentPad*%
%ADD12R,1.700000X1.700000*%
%TD*%
%TA.AperFunction,ComponentPad*%
%ADD13O,1.700000X1.700000*%
%TD*%
%TA.AperFunction,ComponentPad*%
%ADD14O,2.000000X1.000000*%
%TD*%
%TA.AperFunction,ViaPad*%
%ADD15C,0.700000*%
%TD*%
G04 APERTURE END LIST*
D10*
%TO.N,GND*%
%TO.C,J2*%
X162357500Y-114675000D03*
%TO.N,/JACKL*%
X160357500Y-112275000D03*
%TO.N,/JACKR*%
X160357500Y-106775000D03*
D11*
%TO.N,GND*%
X166507500Y-113675000D03*
X166507500Y-104775000D03*
X157907500Y-104775000D03*
%TD*%
D12*
%TO.N,VBUS*%
%TO.C,J3*%
X113300000Y-102000000D03*
D13*
%TO.N,ESP32_Rx*%
X110760000Y-102000000D03*
%TO.N,ESP32_Tx*%
X108220000Y-102000000D03*
%TO.N,GND*%
X105680000Y-102000000D03*
%TD*%
D14*
%TO.N,unconnected-(J1-PadS1)*%
%TO.C,J1*%
X100700000Y-109180000D03*
X100700000Y-117820000D03*
X96900000Y-109180000D03*
X96900000Y-117820000D03*
%TD*%
D15*
%TO.N,GND*%
X102500000Y-99000000D03*
X121500000Y-118000000D03*
X119000000Y-109500000D03*
X119000000Y-107500000D03*
X121000000Y-112000000D03*
X138500000Y-97500000D03*
X137000000Y-103500000D03*
X153000000Y-87000000D03*
X142500000Y-111000000D03*
X147500000Y-117500000D03*
X139000000Y-87000000D03*
X106000000Y-83500000D03*
X123000000Y-95000000D03*
X107000000Y-117500000D03*
X121000000Y-82000000D03*
X131500000Y-99000000D03*
X142000000Y-107500000D03*
X130000000Y-112000000D03*
X139000000Y-76500000D03*
X150500000Y-99000000D03*
X104000000Y-108500000D03*
X154000000Y-99000000D03*
X154500000Y-117500000D03*
X109000000Y-113000000D03*
%TO.N,+3V3*%
X103007202Y-93992798D03*
X123500000Y-118000000D03*
X136500000Y-116500000D03*
X109000000Y-108500000D03*
%TO.N,+3.3VA*%
X147020000Y-99480000D03*
X147500000Y-114500000D03*
%TO.N,ESP32_Tx*%
X105500000Y-76500000D03*
%TO.N,ESP32_Rx*%
X107000000Y-76500000D03*
%TO.N,PCM_BCK*%
X113000000Y-76500000D03*
X140300500Y-106500000D03*
%TO.N,PCM_DIN*%
X136500000Y-106000000D03*
X114500000Y-89500000D03*
%TO.N,PCM_LRCK*%
X140000000Y-107500000D03*
X113000000Y-90000000D03*
%TD*%
%TA.AperFunction,Conductor*%
%TO.N,GND*%
G36*
X143942121Y-73520002D02*
G01*
X143988614Y-73573658D01*
X144000000Y-73626000D01*
X144000000Y-120874000D01*
X143979998Y-120942121D01*
X143926342Y-120988614D01*
X143874000Y-121000000D01*
X140126000Y-121000000D01*
X140057879Y-120979998D01*
X140011386Y-120926342D01*
X140000000Y-120874000D01*
X140000000Y-109500000D01*
X133626000Y-109500000D01*
X133557879Y-109479998D01*
X133511386Y-109426342D01*
X133500000Y-109374000D01*
X133500000Y-107500000D01*
X139144815Y-107500000D01*
X139163503Y-107677803D01*
X139218750Y-107847835D01*
X139222053Y-107853557D01*
X139222054Y-107853558D01*
X139297878Y-107984888D01*
X139308141Y-108002665D01*
X139427770Y-108135526D01*
X139572407Y-108240612D01*
X139578435Y-108243296D01*
X139578437Y-108243297D01*
X139710595Y-108302137D01*
X139735733Y-108313329D01*
X139823171Y-108331915D01*
X139904152Y-108349128D01*
X139904156Y-108349128D01*
X139910609Y-108350500D01*
X140089391Y-108350500D01*
X140095844Y-108349128D01*
X140095848Y-108349128D01*
X140176829Y-108331915D01*
X140264267Y-108313329D01*
X140289405Y-108302137D01*
X140421563Y-108243297D01*
X140421565Y-108243296D01*
X140427593Y-108240612D01*
X140572230Y-108135526D01*
X140691859Y-108002665D01*
X140702122Y-107984888D01*
X140777946Y-107853558D01*
X140777947Y-107853557D01*
X140781250Y-107847835D01*
X140836497Y-107677803D01*
X140855185Y-107500000D01*
X140836497Y-107322197D01*
X140822636Y-107279537D01*
X140820608Y-107208571D01*
X140857270Y-107147773D01*
X140866268Y-107140416D01*
X140867390Y-107139406D01*
X140872730Y-107135526D01*
X140992359Y-107002665D01*
X141069310Y-106869382D01*
X141078446Y-106853558D01*
X141078447Y-106853557D01*
X141081750Y-106847835D01*
X141136997Y-106677803D01*
X141155685Y-106500000D01*
X141136997Y-106322197D01*
X141081750Y-106152165D01*
X140992359Y-105997335D01*
X140872730Y-105864474D01*
X140728093Y-105759388D01*
X140722065Y-105756704D01*
X140722063Y-105756703D01*
X140570798Y-105689356D01*
X140570797Y-105689356D01*
X140564767Y-105686671D01*
X140477329Y-105668085D01*
X140396348Y-105650872D01*
X140396344Y-105650872D01*
X140389891Y-105649500D01*
X140211109Y-105649500D01*
X140204656Y-105650872D01*
X140204652Y-105650872D01*
X140123671Y-105668086D01*
X140036233Y-105686671D01*
X140030203Y-105689356D01*
X140030202Y-105689356D01*
X139878938Y-105756703D01*
X139878936Y-105756704D01*
X139872908Y-105759388D01*
X139867567Y-105763268D01*
X139867566Y-105763269D01*
X139747346Y-105850614D01*
X139728270Y-105864474D01*
X139608641Y-105997335D01*
X139519250Y-106152165D01*
X139464003Y-106322197D01*
X139445315Y-106500000D01*
X139464003Y-106677803D01*
X139477864Y-106720463D01*
X139479892Y-106791428D01*
X139443230Y-106852226D01*
X139434239Y-106859579D01*
X139433117Y-106860589D01*
X139427770Y-106864474D01*
X139308141Y-106997335D01*
X139304838Y-107003056D01*
X139228357Y-107135526D01*
X139218750Y-107152165D01*
X139163503Y-107322197D01*
X139144815Y-107500000D01*
X133500000Y-107500000D01*
X133500000Y-106000000D01*
X135644815Y-106000000D01*
X135663503Y-106177803D01*
X135718750Y-106347835D01*
X135808141Y-106502665D01*
X135927770Y-106635526D01*
X136072407Y-106740612D01*
X136078435Y-106743296D01*
X136078437Y-106743297D01*
X136186542Y-106791428D01*
X136235733Y-106813329D01*
X136323171Y-106831915D01*
X136404152Y-106849128D01*
X136404156Y-106849128D01*
X136410609Y-106850500D01*
X136589391Y-106850500D01*
X136595844Y-106849128D01*
X136595848Y-106849128D01*
X136676829Y-106831914D01*
X136764267Y-106813329D01*
X136813458Y-106791428D01*
X136921563Y-106743297D01*
X136921565Y-106743296D01*
X136927593Y-106740612D01*
X137072230Y-106635526D01*
X137191859Y-106502665D01*
X137281250Y-106347835D01*
X137336497Y-106177803D01*
X137355185Y-106000000D01*
X137336497Y-105822197D01*
X137281250Y-105652165D01*
X137191859Y-105497335D01*
X137072230Y-105364474D01*
X136927593Y-105259388D01*
X136921565Y-105256704D01*
X136921563Y-105256703D01*
X136770298Y-105189356D01*
X136770297Y-105189356D01*
X136764267Y-105186671D01*
X136676829Y-105168086D01*
X136595848Y-105150872D01*
X136595844Y-105150872D01*
X136589391Y-105149500D01*
X136410609Y-105149500D01*
X136404156Y-105150872D01*
X136404152Y-105150872D01*
X136323171Y-105168085D01*
X136235733Y-105186671D01*
X136229703Y-105189356D01*
X136229702Y-105189356D01*
X136078438Y-105256703D01*
X136078436Y-105256704D01*
X136072408Y-105259388D01*
X135927770Y-105364474D01*
X135808141Y-105497335D01*
X135718750Y-105652165D01*
X135663503Y-105822197D01*
X135644815Y-106000000D01*
X133500000Y-106000000D01*
X133500000Y-105000000D01*
X127626000Y-105000000D01*
X127557879Y-104979998D01*
X127511386Y-104926342D01*
X127500000Y-104874000D01*
X127500000Y-89000000D01*
X115250358Y-89000000D01*
X115182237Y-88979998D01*
X115156722Y-88958311D01*
X115076645Y-88869377D01*
X115076643Y-88869376D01*
X115072230Y-88864474D01*
X114927593Y-88759388D01*
X114921565Y-88756704D01*
X114921563Y-88756703D01*
X114770298Y-88689356D01*
X114770297Y-88689356D01*
X114764267Y-88686671D01*
X114676829Y-88668085D01*
X114595848Y-88650872D01*
X114595844Y-88650872D01*
X114589391Y-88649500D01*
X114410609Y-88649500D01*
X114404156Y-88650872D01*
X114404152Y-88650872D01*
X114323171Y-88668085D01*
X114235733Y-88686671D01*
X114229703Y-88689356D01*
X114229702Y-88689356D01*
X114078438Y-88756703D01*
X114078436Y-88756704D01*
X114072408Y-88759388D01*
X113927770Y-88864474D01*
X113923357Y-88869376D01*
X113923355Y-88869377D01*
X113843278Y-88958311D01*
X113782832Y-88995550D01*
X113749642Y-89000000D01*
X95626000Y-89000000D01*
X95557879Y-88979998D01*
X95511386Y-88926342D01*
X95500000Y-88874000D01*
X95500000Y-76500000D01*
X104644815Y-76500000D01*
X104663503Y-76677803D01*
X104718750Y-76847835D01*
X104808141Y-77002665D01*
X104927770Y-77135526D01*
X105072407Y-77240612D01*
X105078435Y-77243296D01*
X105078437Y-77243297D01*
X105229702Y-77310644D01*
X105235733Y-77313329D01*
X105323171Y-77331915D01*
X105404152Y-77349128D01*
X105404156Y-77349128D01*
X105410609Y-77350500D01*
X105589391Y-77350500D01*
X105595844Y-77349128D01*
X105595848Y-77349128D01*
X105676829Y-77331915D01*
X105764267Y-77313329D01*
X105770298Y-77310644D01*
X105921563Y-77243297D01*
X105921565Y-77243296D01*
X105927593Y-77240612D01*
X106072230Y-77135526D01*
X106156364Y-77042086D01*
X106216810Y-77004847D01*
X106287794Y-77006199D01*
X106343636Y-77042086D01*
X106427770Y-77135526D01*
X106572407Y-77240612D01*
X106578435Y-77243296D01*
X106578437Y-77243297D01*
X106729702Y-77310644D01*
X106735733Y-77313329D01*
X106823171Y-77331915D01*
X106904152Y-77349128D01*
X106904156Y-77349128D01*
X106910609Y-77350500D01*
X107089391Y-77350500D01*
X107095844Y-77349128D01*
X107095848Y-77349128D01*
X107176829Y-77331915D01*
X107264267Y-77313329D01*
X107270298Y-77310644D01*
X107421563Y-77243297D01*
X107421565Y-77243296D01*
X107427593Y-77240612D01*
X107572230Y-77135526D01*
X107691859Y-77002665D01*
X107781250Y-76847835D01*
X107836497Y-76677803D01*
X107855185Y-76500000D01*
X112144815Y-76500000D01*
X112163503Y-76677803D01*
X112218750Y-76847835D01*
X112308141Y-77002665D01*
X112427770Y-77135526D01*
X112572407Y-77240612D01*
X112578435Y-77243296D01*
X112578437Y-77243297D01*
X112729702Y-77310644D01*
X112735733Y-77313329D01*
X112823171Y-77331915D01*
X112904152Y-77349128D01*
X112904156Y-77349128D01*
X112910609Y-77350500D01*
X113089391Y-77350500D01*
X113095844Y-77349128D01*
X113095848Y-77349128D01*
X113176829Y-77331915D01*
X113264267Y-77313329D01*
X113270298Y-77310644D01*
X113421563Y-77243297D01*
X113421565Y-77243296D01*
X113427593Y-77240612D01*
X113572230Y-77135526D01*
X113691859Y-77002665D01*
X113781250Y-76847835D01*
X113836497Y-76677803D01*
X113855185Y-76500000D01*
X113836497Y-76322197D01*
X113781250Y-76152165D01*
X113691859Y-75997335D01*
X113572230Y-75864474D01*
X113427593Y-75759388D01*
X113421565Y-75756704D01*
X113421563Y-75756703D01*
X113270298Y-75689356D01*
X113270297Y-75689356D01*
X113264267Y-75686671D01*
X113176829Y-75668085D01*
X113095848Y-75650872D01*
X113095844Y-75650872D01*
X113089391Y-75649500D01*
X112910609Y-75649500D01*
X112904156Y-75650872D01*
X112904152Y-75650872D01*
X112823171Y-75668085D01*
X112735733Y-75686671D01*
X112729703Y-75689356D01*
X112729702Y-75689356D01*
X112578438Y-75756703D01*
X112578436Y-75756704D01*
X112572408Y-75759388D01*
X112427770Y-75864474D01*
X112308141Y-75997335D01*
X112218750Y-76152165D01*
X112163503Y-76322197D01*
X112144815Y-76500000D01*
X107855185Y-76500000D01*
X107836497Y-76322197D01*
X107781250Y-76152165D01*
X107691859Y-75997335D01*
X107572230Y-75864474D01*
X107427593Y-75759388D01*
X107421565Y-75756704D01*
X107421563Y-75756703D01*
X107270298Y-75689356D01*
X107270297Y-75689356D01*
X107264267Y-75686671D01*
X107176829Y-75668085D01*
X107095848Y-75650872D01*
X107095844Y-75650872D01*
X107089391Y-75649500D01*
X106910609Y-75649500D01*
X106904156Y-75650872D01*
X106904152Y-75650872D01*
X106823171Y-75668085D01*
X106735733Y-75686671D01*
X106729703Y-75689356D01*
X106729702Y-75689356D01*
X106578438Y-75756703D01*
X106578436Y-75756704D01*
X106572408Y-75759388D01*
X106427770Y-75864474D01*
X106423357Y-75869376D01*
X106423355Y-75869377D01*
X106343636Y-75957914D01*
X106283190Y-75995153D01*
X106212206Y-75993801D01*
X106156364Y-75957914D01*
X106076645Y-75869377D01*
X106076643Y-75869376D01*
X106072230Y-75864474D01*
X105927593Y-75759388D01*
X105921565Y-75756704D01*
X105921563Y-75756703D01*
X105770298Y-75689356D01*
X105770297Y-75689356D01*
X105764267Y-75686671D01*
X105676829Y-75668085D01*
X105595848Y-75650872D01*
X105595844Y-75650872D01*
X105589391Y-75649500D01*
X105410609Y-75649500D01*
X105404156Y-75650872D01*
X105404152Y-75650872D01*
X105323171Y-75668085D01*
X105235733Y-75686671D01*
X105229703Y-75689356D01*
X105229702Y-75689356D01*
X105078438Y-75756703D01*
X105078436Y-75756704D01*
X105072408Y-75759388D01*
X104927770Y-75864474D01*
X104808141Y-75997335D01*
X104718750Y-76152165D01*
X104663503Y-76322197D01*
X104644815Y-76500000D01*
X95500000Y-76500000D01*
X95500000Y-73626000D01*
X95520002Y-73557879D01*
X95573658Y-73511386D01*
X95626000Y-73500000D01*
X143874000Y-73500000D01*
X143942121Y-73520002D01*
G37*
%TD.AperFunction*%
%TD*%
%TA.AperFunction,Conductor*%
%TO.N,+3V3*%
G36*
X112162888Y-89520002D02*
G01*
X112209381Y-89573658D01*
X112219485Y-89643932D01*
X112214600Y-89664936D01*
X112208379Y-89684082D01*
X112163503Y-89822197D01*
X112144815Y-90000000D01*
X112163503Y-90177803D01*
X112165543Y-90184080D01*
X112165543Y-90184082D01*
X112169507Y-90196282D01*
X112218750Y-90347835D01*
X112308141Y-90502665D01*
X112427770Y-90635526D01*
X112572407Y-90740612D01*
X112578435Y-90743296D01*
X112578437Y-90743297D01*
X112729702Y-90810644D01*
X112735733Y-90813329D01*
X112823171Y-90831915D01*
X112904152Y-90849128D01*
X112904156Y-90849128D01*
X112910609Y-90850500D01*
X113089391Y-90850500D01*
X113095844Y-90849128D01*
X113095848Y-90849128D01*
X113176829Y-90831914D01*
X113264267Y-90813329D01*
X113270298Y-90810644D01*
X113421563Y-90743297D01*
X113421565Y-90743296D01*
X113427593Y-90740612D01*
X113572230Y-90635526D01*
X113691859Y-90502665D01*
X113781250Y-90347835D01*
X113811451Y-90254887D01*
X113851525Y-90196282D01*
X113916922Y-90168645D01*
X113986879Y-90180752D01*
X114005339Y-90191884D01*
X114072407Y-90240612D01*
X114078435Y-90243296D01*
X114078437Y-90243297D01*
X114104469Y-90254887D01*
X114235733Y-90313329D01*
X114323171Y-90331914D01*
X114404152Y-90349128D01*
X114404156Y-90349128D01*
X114410609Y-90350500D01*
X114589391Y-90350500D01*
X114595844Y-90349128D01*
X114595848Y-90349128D01*
X114676829Y-90331914D01*
X114764267Y-90313329D01*
X114895531Y-90254887D01*
X114921563Y-90243297D01*
X114921565Y-90243296D01*
X114927593Y-90240612D01*
X114988608Y-90196282D01*
X115066891Y-90139405D01*
X115072230Y-90135526D01*
X115191859Y-90002665D01*
X115281250Y-89847835D01*
X115336497Y-89677803D01*
X115343326Y-89612829D01*
X115370339Y-89547173D01*
X115428561Y-89506543D01*
X115468636Y-89500000D01*
X126874000Y-89500000D01*
X126942121Y-89520002D01*
X126988614Y-89573658D01*
X127000000Y-89626000D01*
X127000000Y-105500000D01*
X132874000Y-105500000D01*
X132942121Y-105520002D01*
X132988614Y-105573658D01*
X133000000Y-105626000D01*
X133000000Y-110000000D01*
X139374000Y-110000000D01*
X139442121Y-110020002D01*
X139488614Y-110073658D01*
X139500000Y-110126000D01*
X139500000Y-120874000D01*
X139479998Y-120942121D01*
X139426342Y-120988614D01*
X139374000Y-121000000D01*
X95626000Y-121000000D01*
X95557879Y-120979998D01*
X95511386Y-120926342D01*
X95500000Y-120874000D01*
X95500000Y-118641064D01*
X95520002Y-118572943D01*
X95573658Y-118526450D01*
X95643932Y-118516346D01*
X95708512Y-118545840D01*
X95717537Y-118554480D01*
X95742881Y-118581280D01*
X95909379Y-118697863D01*
X96095919Y-118778586D01*
X96141947Y-118788202D01*
X96290144Y-118819162D01*
X96290149Y-118819163D01*
X96294880Y-118820151D01*
X96299762Y-118820407D01*
X96299871Y-118820413D01*
X96299887Y-118820413D01*
X96301539Y-118820500D01*
X97450800Y-118820500D01*
X97507891Y-118814701D01*
X97595868Y-118805765D01*
X97595870Y-118805765D01*
X97602216Y-118805120D01*
X97796172Y-118744338D01*
X97973944Y-118645797D01*
X98128271Y-118513523D01*
X98132887Y-118507573D01*
X98248939Y-118357958D01*
X98252848Y-118352919D01*
X98342587Y-118170545D01*
X98344197Y-118164365D01*
X98392212Y-117980034D01*
X98392212Y-117980031D01*
X98393822Y-117973852D01*
X98399310Y-117869126D01*
X99195541Y-117869126D01*
X99225935Y-118070097D01*
X99296119Y-118260852D01*
X99299479Y-118266272D01*
X99299480Y-118266273D01*
X99399863Y-118428176D01*
X99399866Y-118428180D01*
X99403226Y-118433599D01*
X99542881Y-118581280D01*
X99709379Y-118697863D01*
X99895919Y-118778586D01*
X99941947Y-118788202D01*
X100090144Y-118819162D01*
X100090149Y-118819163D01*
X100094880Y-118820151D01*
X100099762Y-118820407D01*
X100099871Y-118820413D01*
X100099887Y-118820413D01*
X100101539Y-118820500D01*
X101250800Y-118820500D01*
X101307891Y-118814701D01*
X101395868Y-118805765D01*
X101395870Y-118805765D01*
X101402216Y-118805120D01*
X101596172Y-118744338D01*
X101773944Y-118645797D01*
X101928271Y-118513523D01*
X101932887Y-118507573D01*
X102048939Y-118357958D01*
X102052848Y-118352919D01*
X102142587Y-118170545D01*
X102144197Y-118164365D01*
X102192212Y-117980034D01*
X102192212Y-117980031D01*
X102193822Y-117973852D01*
X102200755Y-117841550D01*
X102204125Y-117777256D01*
X102204125Y-117777252D01*
X102204459Y-117770874D01*
X102174065Y-117569903D01*
X102148346Y-117500000D01*
X106144815Y-117500000D01*
X106163503Y-117677803D01*
X106218750Y-117847835D01*
X106308141Y-118002665D01*
X106427770Y-118135526D01*
X106572407Y-118240612D01*
X106578435Y-118243296D01*
X106578437Y-118243297D01*
X106729702Y-118310644D01*
X106735733Y-118313329D01*
X106823171Y-118331915D01*
X106904152Y-118349128D01*
X106904156Y-118349128D01*
X106910609Y-118350500D01*
X107089391Y-118350500D01*
X107095844Y-118349128D01*
X107095848Y-118349128D01*
X107176829Y-118331915D01*
X107264267Y-118313329D01*
X107270298Y-118310644D01*
X107421563Y-118243297D01*
X107421565Y-118243296D01*
X107427593Y-118240612D01*
X107572230Y-118135526D01*
X107691859Y-118002665D01*
X107693398Y-118000000D01*
X120644815Y-118000000D01*
X120663503Y-118177803D01*
X120718750Y-118347835D01*
X120722053Y-118353557D01*
X120722054Y-118353558D01*
X120797878Y-118484888D01*
X120808141Y-118502665D01*
X120812559Y-118507572D01*
X120812560Y-118507573D01*
X120878927Y-118581280D01*
X120927770Y-118635526D01*
X120941907Y-118645797D01*
X121013569Y-118697863D01*
X121072407Y-118740612D01*
X121078435Y-118743296D01*
X121078437Y-118743297D01*
X121213007Y-118803211D01*
X121235733Y-118813329D01*
X121323171Y-118831915D01*
X121404152Y-118849128D01*
X121404156Y-118849128D01*
X121410609Y-118850500D01*
X121589391Y-118850500D01*
X121595844Y-118849128D01*
X121595848Y-118849128D01*
X121676829Y-118831915D01*
X121764267Y-118813329D01*
X121786993Y-118803211D01*
X121921563Y-118743297D01*
X121921565Y-118743296D01*
X121927593Y-118740612D01*
X121986432Y-118697863D01*
X122058093Y-118645797D01*
X122072230Y-118635526D01*
X122121074Y-118581280D01*
X122187440Y-118507573D01*
X122187441Y-118507572D01*
X122191859Y-118502665D01*
X122202122Y-118484888D01*
X122277946Y-118353558D01*
X122277947Y-118353557D01*
X122281250Y-118347835D01*
X122336497Y-118177803D01*
X122355185Y-118000000D01*
X122342094Y-117875444D01*
X122337187Y-117828761D01*
X122337187Y-117828760D01*
X122336497Y-117822197D01*
X122281250Y-117652165D01*
X122191859Y-117497335D01*
X122085443Y-117379148D01*
X122076645Y-117369377D01*
X122076643Y-117369376D01*
X122072230Y-117364474D01*
X121927593Y-117259388D01*
X121921565Y-117256704D01*
X121921563Y-117256703D01*
X121770298Y-117189356D01*
X121770297Y-117189356D01*
X121764267Y-117186671D01*
X121676829Y-117168085D01*
X121595848Y-117150872D01*
X121595844Y-117150872D01*
X121589391Y-117149500D01*
X121410609Y-117149500D01*
X121404156Y-117150872D01*
X121404152Y-117150872D01*
X121323171Y-117168085D01*
X121235733Y-117186671D01*
X121229703Y-117189356D01*
X121229702Y-117189356D01*
X121078438Y-117256703D01*
X121078436Y-117256704D01*
X121072408Y-117259388D01*
X121067067Y-117263268D01*
X121067066Y-117263269D01*
X120946846Y-117350614D01*
X120927770Y-117364474D01*
X120923357Y-117369376D01*
X120923355Y-117369377D01*
X120914557Y-117379148D01*
X120808141Y-117497335D01*
X120718750Y-117652165D01*
X120663503Y-117822197D01*
X120662813Y-117828760D01*
X120662813Y-117828761D01*
X120657906Y-117875444D01*
X120644815Y-118000000D01*
X107693398Y-118000000D01*
X107781250Y-117847835D01*
X107836497Y-117677803D01*
X107855185Y-117500000D01*
X107836497Y-117322197D01*
X107781250Y-117152165D01*
X107765299Y-117124536D01*
X107695162Y-117003056D01*
X107691859Y-116997335D01*
X107645456Y-116945799D01*
X107576645Y-116869377D01*
X107576643Y-116869376D01*
X107572230Y-116864474D01*
X107427593Y-116759388D01*
X107421565Y-116756704D01*
X107421563Y-116756703D01*
X107270298Y-116689356D01*
X107270297Y-116689356D01*
X107264267Y-116686671D01*
X107176829Y-116668086D01*
X107095848Y-116650872D01*
X107095844Y-116650872D01*
X107089391Y-116649500D01*
X106910609Y-116649500D01*
X106904156Y-116650872D01*
X106904152Y-116650872D01*
X106823171Y-116668086D01*
X106735733Y-116686671D01*
X106729703Y-116689356D01*
X106729702Y-116689356D01*
X106578438Y-116756703D01*
X106578436Y-116756704D01*
X106572408Y-116759388D01*
X106567067Y-116763268D01*
X106567066Y-116763269D01*
X106465875Y-116836789D01*
X106427770Y-116864474D01*
X106423357Y-116869376D01*
X106423355Y-116869377D01*
X106354544Y-116945799D01*
X106308141Y-116997335D01*
X106304838Y-117003056D01*
X106234702Y-117124536D01*
X106218750Y-117152165D01*
X106163503Y-117322197D01*
X106144815Y-117500000D01*
X102148346Y-117500000D01*
X102103881Y-117379148D01*
X102050345Y-117292802D01*
X102000137Y-117211824D01*
X102000134Y-117211820D01*
X101996774Y-117206401D01*
X101857119Y-117058720D01*
X101690621Y-116942137D01*
X101504081Y-116861414D01*
X101458053Y-116851798D01*
X101309856Y-116820838D01*
X101309851Y-116820837D01*
X101305120Y-116819849D01*
X101300238Y-116819593D01*
X101300129Y-116819587D01*
X101300113Y-116819587D01*
X101298461Y-116819500D01*
X100149200Y-116819500D01*
X100101207Y-116824375D01*
X100004132Y-116834235D01*
X100004130Y-116834235D01*
X99997784Y-116834880D01*
X99803828Y-116895662D01*
X99626056Y-116994203D01*
X99621208Y-116998359D01*
X99621207Y-116998359D01*
X99615727Y-117003056D01*
X99471729Y-117126477D01*
X99467822Y-117131514D01*
X99467820Y-117131516D01*
X99452806Y-117150872D01*
X99347152Y-117287081D01*
X99257413Y-117469455D01*
X99255804Y-117475633D01*
X99255803Y-117475635D01*
X99229603Y-117576220D01*
X99206178Y-117666148D01*
X99205844Y-117672527D01*
X99196357Y-117853558D01*
X99195541Y-117869126D01*
X98399310Y-117869126D01*
X98400755Y-117841550D01*
X98404125Y-117777256D01*
X98404125Y-117777252D01*
X98404459Y-117770874D01*
X98374065Y-117569903D01*
X98303881Y-117379148D01*
X98250345Y-117292802D01*
X98200137Y-117211824D01*
X98200134Y-117211820D01*
X98196774Y-117206401D01*
X98057119Y-117058720D01*
X97890621Y-116942137D01*
X97704081Y-116861414D01*
X97658053Y-116851798D01*
X97509856Y-116820838D01*
X97509851Y-116820837D01*
X97505120Y-116819849D01*
X97500238Y-116819593D01*
X97500129Y-116819587D01*
X97500113Y-116819587D01*
X97498461Y-116819500D01*
X96349200Y-116819500D01*
X96301207Y-116824375D01*
X96204132Y-116834235D01*
X96204130Y-116834235D01*
X96197784Y-116834880D01*
X96003828Y-116895662D01*
X95826056Y-116994203D01*
X95707995Y-117095393D01*
X95643259Y-117124536D01*
X95573040Y-117114054D01*
X95519636Y-117067272D01*
X95500000Y-116999724D01*
X95500000Y-113000000D01*
X108144815Y-113000000D01*
X108163503Y-113177803D01*
X108218750Y-113347835D01*
X108308141Y-113502665D01*
X108427770Y-113635526D01*
X108572407Y-113740612D01*
X108578435Y-113743296D01*
X108578437Y-113743297D01*
X108729702Y-113810644D01*
X108735733Y-113813329D01*
X108823171Y-113831915D01*
X108904152Y-113849128D01*
X108904156Y-113849128D01*
X108910609Y-113850500D01*
X109089391Y-113850500D01*
X109095844Y-113849128D01*
X109095848Y-113849128D01*
X109176829Y-113831915D01*
X109264267Y-113813329D01*
X109270298Y-113810644D01*
X109421563Y-113743297D01*
X109421565Y-113743296D01*
X109427593Y-113740612D01*
X109572230Y-113635526D01*
X109691859Y-113502665D01*
X109781250Y-113347835D01*
X109836497Y-113177803D01*
X109855185Y-113000000D01*
X109836497Y-112822197D01*
X109834062Y-112814701D01*
X109783292Y-112658450D01*
X109781250Y-112652165D01*
X109771644Y-112635526D01*
X109695162Y-112503056D01*
X109691859Y-112497335D01*
X109572230Y-112364474D01*
X109427593Y-112259388D01*
X109421565Y-112256704D01*
X109421563Y-112256703D01*
X109270298Y-112189356D01*
X109270297Y-112189356D01*
X109264267Y-112186671D01*
X109176829Y-112168085D01*
X109095848Y-112150872D01*
X109095844Y-112150872D01*
X109089391Y-112149500D01*
X108910609Y-112149500D01*
X108904156Y-112150872D01*
X108904152Y-112150872D01*
X108823171Y-112168086D01*
X108735733Y-112186671D01*
X108729703Y-112189356D01*
X108729702Y-112189356D01*
X108578438Y-112256703D01*
X108578436Y-112256704D01*
X108572408Y-112259388D01*
X108427770Y-112364474D01*
X108308141Y-112497335D01*
X108304838Y-112503056D01*
X108228357Y-112635526D01*
X108218750Y-112652165D01*
X108216708Y-112658450D01*
X108165939Y-112814701D01*
X108163503Y-112822197D01*
X108144815Y-113000000D01*
X95500000Y-113000000D01*
X95500000Y-112000000D01*
X120144815Y-112000000D01*
X120163503Y-112177803D01*
X120165543Y-112184080D01*
X120165543Y-112184082D01*
X120166384Y-112186671D01*
X120218750Y-112347835D01*
X120222053Y-112353557D01*
X120222054Y-112353558D01*
X120231187Y-112369377D01*
X120308141Y-112502665D01*
X120427770Y-112635526D01*
X120572407Y-112740612D01*
X120578435Y-112743296D01*
X120578437Y-112743297D01*
X120729702Y-112810644D01*
X120735733Y-112813329D01*
X120808335Y-112828761D01*
X120904152Y-112849128D01*
X120904156Y-112849128D01*
X120910609Y-112850500D01*
X121089391Y-112850500D01*
X121095844Y-112849128D01*
X121095848Y-112849128D01*
X121191665Y-112828761D01*
X121264267Y-112813329D01*
X121270298Y-112810644D01*
X121421563Y-112743297D01*
X121421565Y-112743296D01*
X121427593Y-112740612D01*
X121572230Y-112635526D01*
X121691859Y-112502665D01*
X121768813Y-112369377D01*
X121777946Y-112353558D01*
X121777947Y-112353557D01*
X121781250Y-112347835D01*
X121833616Y-112186671D01*
X121834457Y-112184082D01*
X121834457Y-112184080D01*
X121836497Y-112177803D01*
X121855185Y-112000000D01*
X129144815Y-112000000D01*
X129163503Y-112177803D01*
X129165543Y-112184080D01*
X129165543Y-112184082D01*
X129166384Y-112186671D01*
X129218750Y-112347835D01*
X129222053Y-112353557D01*
X129222054Y-112353558D01*
X129231187Y-112369377D01*
X129308141Y-112502665D01*
X129427770Y-112635526D01*
X129572407Y-112740612D01*
X129578435Y-112743296D01*
X129578437Y-112743297D01*
X129729702Y-112810644D01*
X129735733Y-112813329D01*
X129808335Y-112828761D01*
X129904152Y-112849128D01*
X129904156Y-112849128D01*
X129910609Y-112850500D01*
X130089391Y-112850500D01*
X130095844Y-112849128D01*
X130095848Y-112849128D01*
X130191665Y-112828761D01*
X130264267Y-112813329D01*
X130270298Y-112810644D01*
X130421563Y-112743297D01*
X130421565Y-112743296D01*
X130427593Y-112740612D01*
X130572230Y-112635526D01*
X130691859Y-112502665D01*
X130768813Y-112369377D01*
X130777946Y-112353558D01*
X130777947Y-112353557D01*
X130781250Y-112347835D01*
X130833616Y-112186671D01*
X130834457Y-112184082D01*
X130834457Y-112184080D01*
X130836497Y-112177803D01*
X130855185Y-112000000D01*
X130836497Y-111822197D01*
X130781250Y-111652165D01*
X130691859Y-111497335D01*
X130572230Y-111364474D01*
X130427593Y-111259388D01*
X130421565Y-111256704D01*
X130421563Y-111256703D01*
X130270298Y-111189356D01*
X130270297Y-111189356D01*
X130264267Y-111186671D01*
X130176829Y-111168085D01*
X130095848Y-111150872D01*
X130095844Y-111150872D01*
X130089391Y-111149500D01*
X129910609Y-111149500D01*
X129904156Y-111150872D01*
X129904152Y-111150872D01*
X129823171Y-111168085D01*
X129735733Y-111186671D01*
X129729703Y-111189356D01*
X129729702Y-111189356D01*
X129578438Y-111256703D01*
X129578436Y-111256704D01*
X129572408Y-111259388D01*
X129427770Y-111364474D01*
X129308141Y-111497335D01*
X129218750Y-111652165D01*
X129163503Y-111822197D01*
X129144815Y-112000000D01*
X121855185Y-112000000D01*
X121836497Y-111822197D01*
X121781250Y-111652165D01*
X121691859Y-111497335D01*
X121572230Y-111364474D01*
X121427593Y-111259388D01*
X121421565Y-111256704D01*
X121421563Y-111256703D01*
X121270298Y-111189356D01*
X121270297Y-111189356D01*
X121264267Y-111186671D01*
X121176829Y-111168085D01*
X121095848Y-111150872D01*
X121095844Y-111150872D01*
X121089391Y-111149500D01*
X120910609Y-111149500D01*
X120904156Y-111150872D01*
X120904152Y-111150872D01*
X120823171Y-111168085D01*
X120735733Y-111186671D01*
X120729703Y-111189356D01*
X120729702Y-111189356D01*
X120578438Y-111256703D01*
X120578436Y-111256704D01*
X120572408Y-111259388D01*
X120427770Y-111364474D01*
X120308141Y-111497335D01*
X120218750Y-111652165D01*
X120163503Y-111822197D01*
X120144815Y-112000000D01*
X95500000Y-112000000D01*
X95500000Y-110001064D01*
X95520002Y-109932943D01*
X95573658Y-109886450D01*
X95643932Y-109876346D01*
X95708512Y-109905840D01*
X95717537Y-109914480D01*
X95742881Y-109941280D01*
X95909379Y-110057863D01*
X96095919Y-110138586D01*
X96141947Y-110148202D01*
X96290144Y-110179162D01*
X96290149Y-110179163D01*
X96294880Y-110180151D01*
X96299762Y-110180407D01*
X96299871Y-110180413D01*
X96299887Y-110180413D01*
X96301539Y-110180500D01*
X97450800Y-110180500D01*
X97498793Y-110175625D01*
X97595868Y-110165765D01*
X97595870Y-110165765D01*
X97602216Y-110165120D01*
X97796172Y-110104338D01*
X97973944Y-110005797D01*
X97980708Y-110000000D01*
X98058944Y-109932943D01*
X98128271Y-109873523D01*
X98143758Y-109853558D01*
X98248939Y-109717958D01*
X98252848Y-109712919D01*
X98342587Y-109530545D01*
X98344197Y-109524365D01*
X98392212Y-109340034D01*
X98392212Y-109340031D01*
X98393822Y-109333852D01*
X98399310Y-109229126D01*
X99195541Y-109229126D01*
X99225935Y-109430097D01*
X99296119Y-109620852D01*
X99299479Y-109626272D01*
X99299480Y-109626273D01*
X99399863Y-109788176D01*
X99399866Y-109788180D01*
X99403226Y-109793599D01*
X99542881Y-109941280D01*
X99709379Y-110057863D01*
X99895919Y-110138586D01*
X99941947Y-110148202D01*
X100090144Y-110179162D01*
X100090149Y-110179163D01*
X100094880Y-110180151D01*
X100099762Y-110180407D01*
X100099871Y-110180413D01*
X100099887Y-110180413D01*
X100101539Y-110180500D01*
X101250800Y-110180500D01*
X101298793Y-110175625D01*
X101395868Y-110165765D01*
X101395870Y-110165765D01*
X101402216Y-110165120D01*
X101596172Y-110104338D01*
X101773944Y-110005797D01*
X101780708Y-110000000D01*
X101858944Y-109932943D01*
X101928271Y-109873523D01*
X101943758Y-109853558D01*
X102048939Y-109717958D01*
X102052848Y-109712919D01*
X102142587Y-109530545D01*
X102144197Y-109524365D01*
X102150544Y-109500000D01*
X118144815Y-109500000D01*
X118163503Y-109677803D01*
X118218750Y-109847835D01*
X118308141Y-110002665D01*
X118312559Y-110007572D01*
X118312560Y-110007573D01*
X118419193Y-110126000D01*
X118427770Y-110135526D01*
X118572407Y-110240612D01*
X118578435Y-110243296D01*
X118578437Y-110243297D01*
X118729702Y-110310644D01*
X118735733Y-110313329D01*
X118823171Y-110331915D01*
X118904152Y-110349128D01*
X118904156Y-110349128D01*
X118910609Y-110350500D01*
X119089391Y-110350500D01*
X119095844Y-110349128D01*
X119095848Y-110349128D01*
X119176829Y-110331915D01*
X119264267Y-110313329D01*
X119270298Y-110310644D01*
X119421563Y-110243297D01*
X119421565Y-110243296D01*
X119427593Y-110240612D01*
X119572230Y-110135526D01*
X119580808Y-110126000D01*
X119687440Y-110007573D01*
X119687441Y-110007572D01*
X119691859Y-110002665D01*
X119781250Y-109847835D01*
X119836497Y-109677803D01*
X119855185Y-109500000D01*
X119836497Y-109322197D01*
X119834062Y-109314701D01*
X119783292Y-109158450D01*
X119781250Y-109152165D01*
X119771644Y-109135526D01*
X119695162Y-109003056D01*
X119691859Y-108997335D01*
X119572230Y-108864474D01*
X119427593Y-108759388D01*
X119421565Y-108756704D01*
X119421563Y-108756703D01*
X119270298Y-108689356D01*
X119270297Y-108689356D01*
X119264267Y-108686671D01*
X119176829Y-108668085D01*
X119095848Y-108650872D01*
X119095844Y-108650872D01*
X119089391Y-108649500D01*
X118910609Y-108649500D01*
X118904156Y-108650872D01*
X118904152Y-108650872D01*
X118823171Y-108668085D01*
X118735733Y-108686671D01*
X118729703Y-108689356D01*
X118729702Y-108689356D01*
X118578438Y-108756703D01*
X118578436Y-108756704D01*
X118572408Y-108759388D01*
X118427770Y-108864474D01*
X118308141Y-108997335D01*
X118304838Y-109003056D01*
X118228357Y-109135526D01*
X118218750Y-109152165D01*
X118216708Y-109158450D01*
X118165939Y-109314701D01*
X118163503Y-109322197D01*
X118144815Y-109500000D01*
X102150544Y-109500000D01*
X102192212Y-109340034D01*
X102192212Y-109340031D01*
X102193822Y-109333852D01*
X102203014Y-109158450D01*
X102204125Y-109137256D01*
X102204125Y-109137252D01*
X102204459Y-109130874D01*
X102174065Y-108929903D01*
X102103881Y-108739148D01*
X102071344Y-108686671D01*
X102000137Y-108571824D01*
X102000134Y-108571820D01*
X101996774Y-108566401D01*
X101933982Y-108500000D01*
X103144815Y-108500000D01*
X103163503Y-108677803D01*
X103165543Y-108684080D01*
X103165543Y-108684082D01*
X103166384Y-108686671D01*
X103218750Y-108847835D01*
X103222053Y-108853557D01*
X103222054Y-108853558D01*
X103231187Y-108869377D01*
X103308141Y-109002665D01*
X103312559Y-109007572D01*
X103312560Y-109007573D01*
X103417893Y-109124556D01*
X103427770Y-109135526D01*
X103572407Y-109240612D01*
X103578435Y-109243296D01*
X103578437Y-109243297D01*
X103729702Y-109310644D01*
X103735733Y-109313329D01*
X103808335Y-109328761D01*
X103904152Y-109349128D01*
X103904156Y-109349128D01*
X103910609Y-109350500D01*
X104089391Y-109350500D01*
X104095844Y-109349128D01*
X104095848Y-109349128D01*
X104191665Y-109328761D01*
X104264267Y-109313329D01*
X104270298Y-109310644D01*
X104421563Y-109243297D01*
X104421565Y-109243296D01*
X104427593Y-109240612D01*
X104572230Y-109135526D01*
X104582108Y-109124556D01*
X104687440Y-109007573D01*
X104687441Y-109007572D01*
X104691859Y-109002665D01*
X104768813Y-108869377D01*
X104777946Y-108853558D01*
X104777947Y-108853557D01*
X104781250Y-108847835D01*
X104833616Y-108686671D01*
X104834457Y-108684082D01*
X104834457Y-108684080D01*
X104836497Y-108677803D01*
X104855185Y-108500000D01*
X104852458Y-108474054D01*
X104837187Y-108328761D01*
X104837187Y-108328760D01*
X104836497Y-108322197D01*
X104834062Y-108314701D01*
X104783292Y-108158450D01*
X104781250Y-108152165D01*
X104771644Y-108135526D01*
X104695162Y-108003056D01*
X104691859Y-107997335D01*
X104572230Y-107864474D01*
X104427593Y-107759388D01*
X104421565Y-107756704D01*
X104421563Y-107756703D01*
X104270298Y-107689356D01*
X104270297Y-107689356D01*
X104264267Y-107686671D01*
X104176829Y-107668086D01*
X104095848Y-107650872D01*
X104095844Y-107650872D01*
X104089391Y-107649500D01*
X103910609Y-107649500D01*
X103904156Y-107650872D01*
X103904152Y-107650872D01*
X103823171Y-107668086D01*
X103735733Y-107686671D01*
X103729703Y-107689356D01*
X103729702Y-107689356D01*
X103578438Y-107756703D01*
X103578436Y-107756704D01*
X103572408Y-107759388D01*
X103427770Y-107864474D01*
X103308141Y-107997335D01*
X103304838Y-108003056D01*
X103228357Y-108135526D01*
X103218750Y-108152165D01*
X103216708Y-108158450D01*
X103165939Y-108314701D01*
X103163503Y-108322197D01*
X103162813Y-108328760D01*
X103162813Y-108328761D01*
X103147542Y-108474054D01*
X103144815Y-108500000D01*
X101933982Y-108500000D01*
X101861508Y-108423361D01*
X101861507Y-108423360D01*
X101857119Y-108418720D01*
X101690621Y-108302137D01*
X101504081Y-108221414D01*
X101458053Y-108211798D01*
X101309856Y-108180838D01*
X101309851Y-108180837D01*
X101305120Y-108179849D01*
X101300238Y-108179593D01*
X101300129Y-108179587D01*
X101300113Y-108179587D01*
X101298461Y-108179500D01*
X100149200Y-108179500D01*
X100101207Y-108184375D01*
X100004132Y-108194235D01*
X100004130Y-108194235D01*
X99997784Y-108194880D01*
X99803828Y-108255662D01*
X99626056Y-108354203D01*
X99621208Y-108358359D01*
X99621207Y-108358359D01*
X99604150Y-108372978D01*
X99471729Y-108486477D01*
X99467822Y-108491514D01*
X99467820Y-108491516D01*
X99456147Y-108506565D01*
X99347152Y-108647081D01*
X99257413Y-108829455D01*
X99255804Y-108835633D01*
X99255803Y-108835635D01*
X99214962Y-108992427D01*
X99206178Y-109026148D01*
X99195541Y-109229126D01*
X98399310Y-109229126D01*
X98403014Y-109158450D01*
X98404125Y-109137256D01*
X98404125Y-109137252D01*
X98404459Y-109130874D01*
X98374065Y-108929903D01*
X98303881Y-108739148D01*
X98271344Y-108686671D01*
X98200137Y-108571824D01*
X98200134Y-108571820D01*
X98196774Y-108566401D01*
X98133982Y-108500000D01*
X98061508Y-108423361D01*
X98061507Y-108423360D01*
X98057119Y-108418720D01*
X97890621Y-108302137D01*
X97704081Y-108221414D01*
X97658053Y-108211798D01*
X97509856Y-108180838D01*
X97509851Y-108180837D01*
X97505120Y-108179849D01*
X97500238Y-108179593D01*
X97500129Y-108179587D01*
X97500113Y-108179587D01*
X97498461Y-108179500D01*
X96349200Y-108179500D01*
X96301207Y-108184375D01*
X96204132Y-108194235D01*
X96204130Y-108194235D01*
X96197784Y-108194880D01*
X96003828Y-108255662D01*
X95826056Y-108354203D01*
X95707995Y-108455393D01*
X95643259Y-108484536D01*
X95573040Y-108474054D01*
X95519636Y-108427272D01*
X95500000Y-108359724D01*
X95500000Y-107500000D01*
X118144815Y-107500000D01*
X118163503Y-107677803D01*
X118165543Y-107684080D01*
X118165543Y-107684082D01*
X118166384Y-107686671D01*
X118218750Y-107847835D01*
X118222053Y-107853557D01*
X118222054Y-107853558D01*
X118231187Y-107869377D01*
X118308141Y-108002665D01*
X118427770Y-108135526D01*
X118433109Y-108139405D01*
X118488427Y-108179596D01*
X118572407Y-108240612D01*
X118578435Y-108243296D01*
X118578437Y-108243297D01*
X118613168Y-108258760D01*
X118735733Y-108313329D01*
X118808335Y-108328761D01*
X118904152Y-108349128D01*
X118904156Y-108349128D01*
X118910609Y-108350500D01*
X119089391Y-108350500D01*
X119095844Y-108349128D01*
X119095848Y-108349128D01*
X119191665Y-108328761D01*
X119264267Y-108313329D01*
X119386832Y-108258760D01*
X119421563Y-108243297D01*
X119421565Y-108243296D01*
X119427593Y-108240612D01*
X119511574Y-108179596D01*
X119566891Y-108139405D01*
X119572230Y-108135526D01*
X119691859Y-108002665D01*
X119768813Y-107869377D01*
X119777946Y-107853558D01*
X119777947Y-107853557D01*
X119781250Y-107847835D01*
X119833616Y-107686671D01*
X119834457Y-107684082D01*
X119834457Y-107684080D01*
X119836497Y-107677803D01*
X119855185Y-107500000D01*
X119836497Y-107322197D01*
X119781250Y-107152165D01*
X119771644Y-107135526D01*
X119695162Y-107003056D01*
X119691859Y-106997335D01*
X119572230Y-106864474D01*
X119427593Y-106759388D01*
X119421565Y-106756704D01*
X119421563Y-106756703D01*
X119270298Y-106689356D01*
X119270297Y-106689356D01*
X119264267Y-106686671D01*
X119176829Y-106668086D01*
X119095848Y-106650872D01*
X119095844Y-106650872D01*
X119089391Y-106649500D01*
X118910609Y-106649500D01*
X118904156Y-106650872D01*
X118904152Y-106650872D01*
X118823171Y-106668085D01*
X118735733Y-106686671D01*
X118729703Y-106689356D01*
X118729702Y-106689356D01*
X118578438Y-106756703D01*
X118578436Y-106756704D01*
X118572408Y-106759388D01*
X118427770Y-106864474D01*
X118308141Y-106997335D01*
X118304838Y-107003056D01*
X118228357Y-107135526D01*
X118218750Y-107152165D01*
X118163503Y-107322197D01*
X118144815Y-107500000D01*
X95500000Y-107500000D01*
X95500000Y-102000000D01*
X104324341Y-102000000D01*
X104344937Y-102235408D01*
X104406097Y-102463663D01*
X104408419Y-102468643D01*
X104408420Y-102468645D01*
X104490121Y-102643851D01*
X104505965Y-102677829D01*
X104641505Y-102871401D01*
X104808599Y-103038495D01*
X104813107Y-103041652D01*
X104813110Y-103041654D01*
X104970936Y-103152165D01*
X105002170Y-103174035D01*
X105007152Y-103176358D01*
X105007157Y-103176361D01*
X105211355Y-103271580D01*
X105216337Y-103273903D01*
X105221645Y-103275325D01*
X105221647Y-103275326D01*
X105439277Y-103333639D01*
X105444592Y-103335063D01*
X105680000Y-103355659D01*
X105915408Y-103335063D01*
X105920723Y-103333639D01*
X106138353Y-103275326D01*
X106138355Y-103275325D01*
X106143663Y-103273903D01*
X106148645Y-103271580D01*
X106352843Y-103176361D01*
X106352848Y-103176358D01*
X106357830Y-103174035D01*
X106389064Y-103152165D01*
X106546890Y-103041654D01*
X106546893Y-103041652D01*
X106551401Y-103038495D01*
X106718495Y-102871401D01*
X106846787Y-102688180D01*
X106902244Y-102643851D01*
X106972863Y-102636542D01*
X107036224Y-102668572D01*
X107053212Y-102688179D01*
X107181505Y-102871401D01*
X107348599Y-103038495D01*
X107353107Y-103041652D01*
X107353110Y-103041654D01*
X107510936Y-103152165D01*
X107542170Y-103174035D01*
X107547152Y-103176358D01*
X107547157Y-103176361D01*
X107751355Y-103271580D01*
X107756337Y-103273903D01*
X107761645Y-103275325D01*
X107761647Y-103275326D01*
X107979277Y-103333639D01*
X107984592Y-103335063D01*
X108220000Y-103355659D01*
X108455408Y-103335063D01*
X108460723Y-103333639D01*
X108678353Y-103275326D01*
X108678355Y-103275325D01*
X108683663Y-103273903D01*
X108688645Y-103271580D01*
X108892843Y-103176361D01*
X108892848Y-103176358D01*
X108897830Y-103174035D01*
X108929064Y-103152165D01*
X109086890Y-103041654D01*
X109086893Y-103041652D01*
X109091401Y-103038495D01*
X109258495Y-102871401D01*
X109386787Y-102688180D01*
X109442244Y-102643851D01*
X109512863Y-102636542D01*
X109576224Y-102668572D01*
X109593212Y-102688179D01*
X109721505Y-102871401D01*
X109888599Y-103038495D01*
X109893107Y-103041652D01*
X109893110Y-103041654D01*
X110050936Y-103152165D01*
X110082170Y-103174035D01*
X110087152Y-103176358D01*
X110087157Y-103176361D01*
X110291355Y-103271580D01*
X110296337Y-103273903D01*
X110301645Y-103275325D01*
X110301647Y-103275326D01*
X110519277Y-103333639D01*
X110524592Y-103335063D01*
X110760000Y-103355659D01*
X110995408Y-103335063D01*
X111000723Y-103333639D01*
X111218353Y-103275326D01*
X111218355Y-103275325D01*
X111223663Y-103273903D01*
X111228645Y-103271580D01*
X111432843Y-103176361D01*
X111432848Y-103176358D01*
X111437830Y-103174035D01*
X111469064Y-103152165D01*
X111626890Y-103041654D01*
X111626893Y-103041652D01*
X111631401Y-103038495D01*
X111751011Y-102918885D01*
X111813323Y-102884859D01*
X111884138Y-102889924D01*
X111940974Y-102932471D01*
X111958088Y-102963752D01*
X111987292Y-103041654D01*
X112006474Y-103092824D01*
X112011854Y-103100003D01*
X112011856Y-103100006D01*
X112069082Y-103176361D01*
X112092454Y-103207546D01*
X112099635Y-103212928D01*
X112199994Y-103288144D01*
X112199997Y-103288146D01*
X112207176Y-103293526D01*
X112283657Y-103322197D01*
X112334025Y-103341079D01*
X112334027Y-103341079D01*
X112341420Y-103343851D01*
X112349270Y-103344704D01*
X112349271Y-103344704D01*
X112399217Y-103350130D01*
X112402623Y-103350500D01*
X113299868Y-103350500D01*
X114197376Y-103350499D01*
X114200770Y-103350130D01*
X114200776Y-103350130D01*
X114250722Y-103344705D01*
X114250726Y-103344704D01*
X114258580Y-103343851D01*
X114392824Y-103293526D01*
X114400003Y-103288146D01*
X114400006Y-103288144D01*
X114500365Y-103212928D01*
X114507546Y-103207546D01*
X114530918Y-103176361D01*
X114588144Y-103100006D01*
X114588146Y-103100003D01*
X114593526Y-103092824D01*
X114643851Y-102958580D01*
X114646688Y-102932471D01*
X114650131Y-102900774D01*
X114650131Y-102900773D01*
X114650500Y-102897377D01*
X114650499Y-101102624D01*
X114643851Y-101041420D01*
X114593526Y-100907176D01*
X114588146Y-100899997D01*
X114588144Y-100899994D01*
X114512928Y-100799635D01*
X114507546Y-100792454D01*
X114500365Y-100787072D01*
X114400006Y-100711856D01*
X114400003Y-100711854D01*
X114392824Y-100706474D01*
X114285821Y-100666361D01*
X114265975Y-100658921D01*
X114265973Y-100658921D01*
X114258580Y-100656149D01*
X114250730Y-100655296D01*
X114250729Y-100655296D01*
X114200774Y-100649869D01*
X114200773Y-100649869D01*
X114197377Y-100649500D01*
X113300132Y-100649500D01*
X112402624Y-100649501D01*
X112399230Y-100649870D01*
X112399224Y-100649870D01*
X112349278Y-100655295D01*
X112349274Y-100655296D01*
X112341420Y-100656149D01*
X112207176Y-100706474D01*
X112199997Y-100711854D01*
X112199994Y-100711856D01*
X112099635Y-100787072D01*
X112092454Y-100792454D01*
X112087072Y-100799635D01*
X112011856Y-100899994D01*
X112011854Y-100899997D01*
X112006474Y-100907176D01*
X112003324Y-100915580D01*
X112003323Y-100915581D01*
X111986107Y-100961505D01*
X111958924Y-101034019D01*
X111958088Y-101036248D01*
X111915447Y-101093013D01*
X111848886Y-101117714D01*
X111779537Y-101102507D01*
X111751011Y-101081115D01*
X111631401Y-100961505D01*
X111626893Y-100958348D01*
X111626890Y-100958346D01*
X111442339Y-100829122D01*
X111442336Y-100829120D01*
X111437830Y-100825965D01*
X111432848Y-100823642D01*
X111432843Y-100823639D01*
X111228645Y-100728420D01*
X111228644Y-100728419D01*
X111223663Y-100726097D01*
X111218355Y-100724675D01*
X111218353Y-100724674D01*
X111000723Y-100666361D01*
X111000722Y-100666361D01*
X110995408Y-100664937D01*
X110760000Y-100644341D01*
X110524592Y-100664937D01*
X110519278Y-100666361D01*
X110519277Y-100666361D01*
X110301647Y-100724674D01*
X110301645Y-100724675D01*
X110296337Y-100726097D01*
X110291357Y-100728419D01*
X110291355Y-100728420D01*
X110087152Y-100823642D01*
X110087149Y-100823644D01*
X110082171Y-100825965D01*
X109888599Y-100961505D01*
X109721505Y-101128599D01*
X109718346Y-101133111D01*
X109593213Y-101311820D01*
X109537756Y-101356149D01*
X109467137Y-101363458D01*
X109403776Y-101331428D01*
X109386787Y-101311820D01*
X109261654Y-101133111D01*
X109258495Y-101128599D01*
X109091401Y-100961505D01*
X109086893Y-100958348D01*
X109086890Y-100958346D01*
X108902339Y-100829122D01*
X108902336Y-100829120D01*
X108897830Y-100825965D01*
X108892848Y-100823642D01*
X108892843Y-100823639D01*
X108688645Y-100728420D01*
X108688644Y-100728419D01*
X108683663Y-100726097D01*
X108678355Y-100724675D01*
X108678353Y-100724674D01*
X108460723Y-100666361D01*
X108460722Y-100666361D01*
X108455408Y-100664937D01*
X108220000Y-100644341D01*
X107984592Y-100664937D01*
X107979278Y-100666361D01*
X107979277Y-100666361D01*
X107761647Y-100724674D01*
X107761645Y-100724675D01*
X107756337Y-100726097D01*
X107751357Y-100728419D01*
X107751355Y-100728420D01*
X107547152Y-100823642D01*
X107547149Y-100823644D01*
X107542171Y-100825965D01*
X107348599Y-100961505D01*
X107181505Y-101128599D01*
X107178346Y-101133111D01*
X107053213Y-101311820D01*
X106997756Y-101356149D01*
X106927137Y-101363458D01*
X106863776Y-101331428D01*
X106846787Y-101311820D01*
X106721654Y-101133111D01*
X106718495Y-101128599D01*
X106551401Y-100961505D01*
X106546893Y-100958348D01*
X106546890Y-100958346D01*
X106362339Y-100829122D01*
X106362336Y-100829120D01*
X106357830Y-100825965D01*
X106352848Y-100823642D01*
X106352843Y-100823639D01*
X106148645Y-100728420D01*
X106148644Y-100728419D01*
X106143663Y-100726097D01*
X106138355Y-100724675D01*
X106138353Y-100724674D01*
X105920723Y-100666361D01*
X105920722Y-100666361D01*
X105915408Y-100664937D01*
X105680000Y-100644341D01*
X105444592Y-100664937D01*
X105439278Y-100666361D01*
X105439277Y-100666361D01*
X105221647Y-100724674D01*
X105221645Y-100724675D01*
X105216337Y-100726097D01*
X105211357Y-100728419D01*
X105211355Y-100728420D01*
X105007152Y-100823642D01*
X105007149Y-100823644D01*
X105002171Y-100825965D01*
X104808599Y-100961505D01*
X104641505Y-101128599D01*
X104505965Y-101322171D01*
X104503644Y-101327149D01*
X104503642Y-101327152D01*
X104486712Y-101363458D01*
X104406097Y-101536337D01*
X104344937Y-101764592D01*
X104324341Y-102000000D01*
X95500000Y-102000000D01*
X95500000Y-99000000D01*
X101644815Y-99000000D01*
X101663503Y-99177803D01*
X101718750Y-99347835D01*
X101808141Y-99502665D01*
X101927770Y-99635526D01*
X102072407Y-99740612D01*
X102078435Y-99743296D01*
X102078437Y-99743297D01*
X102229702Y-99810644D01*
X102235733Y-99813329D01*
X102323171Y-99831915D01*
X102404152Y-99849128D01*
X102404156Y-99849128D01*
X102410609Y-99850500D01*
X102589391Y-99850500D01*
X102595844Y-99849128D01*
X102595848Y-99849128D01*
X102676829Y-99831915D01*
X102764267Y-99813329D01*
X102770298Y-99810644D01*
X102921563Y-99743297D01*
X102921565Y-99743296D01*
X102927593Y-99740612D01*
X103072230Y-99635526D01*
X103191859Y-99502665D01*
X103281250Y-99347835D01*
X103336497Y-99177803D01*
X103355185Y-99000000D01*
X103336497Y-98822197D01*
X103281250Y-98652165D01*
X103191859Y-98497335D01*
X103072230Y-98364474D01*
X102927593Y-98259388D01*
X102921565Y-98256704D01*
X102921563Y-98256703D01*
X102770298Y-98189356D01*
X102770297Y-98189356D01*
X102764267Y-98186671D01*
X102676829Y-98168086D01*
X102595848Y-98150872D01*
X102595844Y-98150872D01*
X102589391Y-98149500D01*
X102410609Y-98149500D01*
X102404156Y-98150872D01*
X102404152Y-98150872D01*
X102323171Y-98168085D01*
X102235733Y-98186671D01*
X102229703Y-98189356D01*
X102229702Y-98189356D01*
X102078438Y-98256703D01*
X102078436Y-98256704D01*
X102072408Y-98259388D01*
X101927770Y-98364474D01*
X101808141Y-98497335D01*
X101718750Y-98652165D01*
X101663503Y-98822197D01*
X101644815Y-99000000D01*
X95500000Y-99000000D01*
X95500000Y-95000000D01*
X122144815Y-95000000D01*
X122163503Y-95177803D01*
X122218750Y-95347835D01*
X122308141Y-95502665D01*
X122427770Y-95635526D01*
X122572407Y-95740612D01*
X122578435Y-95743296D01*
X122578437Y-95743297D01*
X122729702Y-95810644D01*
X122735733Y-95813329D01*
X122823171Y-95831915D01*
X122904152Y-95849128D01*
X122904156Y-95849128D01*
X122910609Y-95850500D01*
X123089391Y-95850500D01*
X123095844Y-95849128D01*
X123095848Y-95849128D01*
X123176829Y-95831915D01*
X123264267Y-95813329D01*
X123270298Y-95810644D01*
X123421563Y-95743297D01*
X123421565Y-95743296D01*
X123427593Y-95740612D01*
X123572230Y-95635526D01*
X123691859Y-95502665D01*
X123781250Y-95347835D01*
X123836497Y-95177803D01*
X123855185Y-95000000D01*
X123836497Y-94822197D01*
X123781250Y-94652165D01*
X123691859Y-94497335D01*
X123572230Y-94364474D01*
X123427593Y-94259388D01*
X123421565Y-94256704D01*
X123421563Y-94256703D01*
X123270298Y-94189356D01*
X123270297Y-94189356D01*
X123264267Y-94186671D01*
X123176829Y-94168085D01*
X123095848Y-94150872D01*
X123095844Y-94150872D01*
X123089391Y-94149500D01*
X122910609Y-94149500D01*
X122904156Y-94150872D01*
X122904152Y-94150872D01*
X122823171Y-94168085D01*
X122735733Y-94186671D01*
X122729703Y-94189356D01*
X122729702Y-94189356D01*
X122578438Y-94256703D01*
X122578436Y-94256704D01*
X122572408Y-94259388D01*
X122427770Y-94364474D01*
X122308141Y-94497335D01*
X122218750Y-94652165D01*
X122163503Y-94822197D01*
X122144815Y-95000000D01*
X95500000Y-95000000D01*
X95500000Y-89626000D01*
X95520002Y-89557879D01*
X95573658Y-89511386D01*
X95626000Y-89500000D01*
X112094767Y-89500000D01*
X112162888Y-89520002D01*
G37*
%TD.AperFunction*%
%TD*%
%TA.AperFunction,Conductor*%
%TO.N,+3.3VA*%
G36*
X156442121Y-93020002D02*
G01*
X156488614Y-93073658D01*
X156500000Y-93126000D01*
X156500000Y-120874000D01*
X156479998Y-120942121D01*
X156426342Y-120988614D01*
X156374000Y-121000000D01*
X145126000Y-121000000D01*
X145057879Y-120979998D01*
X145011386Y-120926342D01*
X145000000Y-120874000D01*
X145000000Y-117500000D01*
X146644815Y-117500000D01*
X146663503Y-117677803D01*
X146718750Y-117847835D01*
X146808141Y-118002665D01*
X146927770Y-118135526D01*
X147072407Y-118240612D01*
X147078435Y-118243296D01*
X147078437Y-118243297D01*
X147229702Y-118310644D01*
X147235733Y-118313329D01*
X147323171Y-118331915D01*
X147404152Y-118349128D01*
X147404156Y-118349128D01*
X147410609Y-118350500D01*
X147589391Y-118350500D01*
X147595844Y-118349128D01*
X147595848Y-118349128D01*
X147676829Y-118331915D01*
X147764267Y-118313329D01*
X147770298Y-118310644D01*
X147921563Y-118243297D01*
X147921565Y-118243296D01*
X147927593Y-118240612D01*
X148072230Y-118135526D01*
X148191859Y-118002665D01*
X148281250Y-117847835D01*
X148336497Y-117677803D01*
X148355185Y-117500000D01*
X153644815Y-117500000D01*
X153663503Y-117677803D01*
X153718750Y-117847835D01*
X153808141Y-118002665D01*
X153927770Y-118135526D01*
X154072407Y-118240612D01*
X154078435Y-118243296D01*
X154078437Y-118243297D01*
X154229702Y-118310644D01*
X154235733Y-118313329D01*
X154323171Y-118331915D01*
X154404152Y-118349128D01*
X154404156Y-118349128D01*
X154410609Y-118350500D01*
X154589391Y-118350500D01*
X154595844Y-118349128D01*
X154595848Y-118349128D01*
X154676829Y-118331915D01*
X154764267Y-118313329D01*
X154770298Y-118310644D01*
X154921563Y-118243297D01*
X154921565Y-118243296D01*
X154927593Y-118240612D01*
X155072230Y-118135526D01*
X155191859Y-118002665D01*
X155281250Y-117847835D01*
X155336497Y-117677803D01*
X155355185Y-117500000D01*
X155336497Y-117322197D01*
X155281250Y-117152165D01*
X155191859Y-116997335D01*
X155072230Y-116864474D01*
X154927593Y-116759388D01*
X154921565Y-116756704D01*
X154921563Y-116756703D01*
X154770298Y-116689356D01*
X154770297Y-116689356D01*
X154764267Y-116686671D01*
X154676829Y-116668086D01*
X154595848Y-116650872D01*
X154595844Y-116650872D01*
X154589391Y-116649500D01*
X154410609Y-116649500D01*
X154404156Y-116650872D01*
X154404152Y-116650872D01*
X154323171Y-116668086D01*
X154235733Y-116686671D01*
X154229703Y-116689356D01*
X154229702Y-116689356D01*
X154078438Y-116756703D01*
X154078436Y-116756704D01*
X154072408Y-116759388D01*
X153927770Y-116864474D01*
X153808141Y-116997335D01*
X153718750Y-117152165D01*
X153663503Y-117322197D01*
X153644815Y-117500000D01*
X148355185Y-117500000D01*
X148336497Y-117322197D01*
X148281250Y-117152165D01*
X148191859Y-116997335D01*
X148072230Y-116864474D01*
X147927593Y-116759388D01*
X147921565Y-116756704D01*
X147921563Y-116756703D01*
X147770298Y-116689356D01*
X147770297Y-116689356D01*
X147764267Y-116686671D01*
X147676829Y-116668086D01*
X147595848Y-116650872D01*
X147595844Y-116650872D01*
X147589391Y-116649500D01*
X147410609Y-116649500D01*
X147404156Y-116650872D01*
X147404152Y-116650872D01*
X147323171Y-116668086D01*
X147235733Y-116686671D01*
X147229703Y-116689356D01*
X147229702Y-116689356D01*
X147078438Y-116756703D01*
X147078436Y-116756704D01*
X147072408Y-116759388D01*
X146927770Y-116864474D01*
X146808141Y-116997335D01*
X146718750Y-117152165D01*
X146663503Y-117322197D01*
X146644815Y-117500000D01*
X145000000Y-117500000D01*
X145000000Y-99000000D01*
X149644815Y-99000000D01*
X149663503Y-99177803D01*
X149718750Y-99347835D01*
X149808141Y-99502665D01*
X149927770Y-99635526D01*
X150072407Y-99740612D01*
X150078435Y-99743296D01*
X150078437Y-99743297D01*
X150229702Y-99810644D01*
X150235733Y-99813329D01*
X150323171Y-99831915D01*
X150404152Y-99849128D01*
X150404156Y-99849128D01*
X150410609Y-99850500D01*
X150589391Y-99850500D01*
X150595844Y-99849128D01*
X150595848Y-99849128D01*
X150676829Y-99831915D01*
X150764267Y-99813329D01*
X150770298Y-99810644D01*
X150921563Y-99743297D01*
X150921565Y-99743296D01*
X150927593Y-99740612D01*
X151072230Y-99635526D01*
X151191859Y-99502665D01*
X151281250Y-99347835D01*
X151336497Y-99177803D01*
X151355185Y-99000000D01*
X153144815Y-99000000D01*
X153163503Y-99177803D01*
X153218750Y-99347835D01*
X153308141Y-99502665D01*
X153427770Y-99635526D01*
X153572407Y-99740612D01*
X153578435Y-99743296D01*
X153578437Y-99743297D01*
X153729702Y-99810644D01*
X153735733Y-99813329D01*
X153823171Y-99831915D01*
X153904152Y-99849128D01*
X153904156Y-99849128D01*
X153910609Y-99850500D01*
X154089391Y-99850500D01*
X154095844Y-99849128D01*
X154095848Y-99849128D01*
X154176829Y-99831915D01*
X154264267Y-99813329D01*
X154270298Y-99810644D01*
X154421563Y-99743297D01*
X154421565Y-99743296D01*
X154427593Y-99740612D01*
X154572230Y-99635526D01*
X154691859Y-99502665D01*
X154781250Y-99347835D01*
X154836497Y-99177803D01*
X154855185Y-99000000D01*
X154836497Y-98822197D01*
X154781250Y-98652165D01*
X154691859Y-98497335D01*
X154572230Y-98364474D01*
X154427593Y-98259388D01*
X154421565Y-98256704D01*
X154421563Y-98256703D01*
X154270298Y-98189356D01*
X154270297Y-98189356D01*
X154264267Y-98186671D01*
X154176829Y-98168086D01*
X154095848Y-98150872D01*
X154095844Y-98150872D01*
X154089391Y-98149500D01*
X153910609Y-98149500D01*
X153904156Y-98150872D01*
X153904152Y-98150872D01*
X153823171Y-98168085D01*
X153735733Y-98186671D01*
X153729703Y-98189356D01*
X153729702Y-98189356D01*
X153578438Y-98256703D01*
X153578436Y-98256704D01*
X153572408Y-98259388D01*
X153427770Y-98364474D01*
X153308141Y-98497335D01*
X153218750Y-98652165D01*
X153163503Y-98822197D01*
X153144815Y-99000000D01*
X151355185Y-99000000D01*
X151336497Y-98822197D01*
X151281250Y-98652165D01*
X151191859Y-98497335D01*
X151072230Y-98364474D01*
X150927593Y-98259388D01*
X150921565Y-98256704D01*
X150921563Y-98256703D01*
X150770298Y-98189356D01*
X150770297Y-98189356D01*
X150764267Y-98186671D01*
X150676829Y-98168086D01*
X150595848Y-98150872D01*
X150595844Y-98150872D01*
X150589391Y-98149500D01*
X150410609Y-98149500D01*
X150404156Y-98150872D01*
X150404152Y-98150872D01*
X150323171Y-98168085D01*
X150235733Y-98186671D01*
X150229703Y-98189356D01*
X150229702Y-98189356D01*
X150078438Y-98256703D01*
X150078436Y-98256704D01*
X150072408Y-98259388D01*
X149927770Y-98364474D01*
X149808141Y-98497335D01*
X149718750Y-98652165D01*
X149663503Y-98822197D01*
X149644815Y-99000000D01*
X145000000Y-99000000D01*
X145000000Y-93126000D01*
X145020002Y-93057879D01*
X145073658Y-93011386D01*
X145126000Y-93000000D01*
X156374000Y-93000000D01*
X156442121Y-93020002D01*
G37*
%TD.AperFunction*%
%TD*%
M02*
