M48
; DRILL file {KiCad (6.0.8-1)-1} date Sunday, 20 November 2022 at 20:32:16
; FORMAT={-:-/ absolute / metric / decimal}
; #@! TF.CreationDate,2022-11-20T20:32:16+00:00
; #@! TF.GenerationSoftware,Kicad,Pcbnew,(6.0.8-1)-1
; #@! TF.FileFunction,MixedPlating,1,4
FMAT,2
METRIC
; #@! TA.AperFunction,Plated,PTH,ViaDrill
T1C0.300
; #@! TA.AperFunction,Plated,PTH,ComponentDrill
T2C0.500
; #@! TA.AperFunction,Plated,PTH,ComponentDrill
T3C1.000
; #@! TA.AperFunction,NonPlated,NPTH,ComponentDrill
T4C2.200
%
G90
G05
T1
X102.5Y-99.0
X103.007Y-93.993
X104.0Y-108.5
X105.5Y-76.5
X106.0Y-83.5
X107.0Y-76.5
X107.0Y-117.5
X109.0Y-108.5
X109.0Y-113.0
X113.0Y-76.5
X113.0Y-90.0
X114.5Y-89.5
X119.0Y-107.5
X119.0Y-109.5
X121.0Y-82.0
X121.0Y-112.0
X121.5Y-118.0
X123.0Y-95.0
X123.5Y-118.0
X130.0Y-112.0
X131.5Y-99.0
X136.5Y-106.0
X136.5Y-116.5
X137.0Y-103.5
X138.5Y-97.5
X139.0Y-76.5
X139.0Y-87.0
X140.0Y-107.5
X140.3Y-106.5
X142.0Y-107.5
X142.5Y-111.0
X147.02Y-99.48
X147.5Y-114.5
X147.5Y-117.5
X150.5Y-99.0
X153.0Y-87.0
X154.0Y-99.0
X154.5Y-117.5
T3
X105.68Y-102.0
X108.22Y-102.0
X110.76Y-102.0
X113.3Y-102.0
T4
X97.0Y-70.0
X97.0Y-123.0
X165.0Y-70.0
X165.0Y-123.0
T2
G00X97.25Y-109.18
M15
G01X96.55Y-109.18
M16
G05
G00X97.25Y-117.82
M15
G01X96.55Y-117.82
M16
G05
G00X101.05Y-109.18
M15
G01X100.35Y-109.18
M16
G05
G00X101.05Y-117.82
M15
G01X100.35Y-117.82
M16
G05
T3
G00X157.907Y-105.275
M15
G01X157.907Y-104.275
M16
G05
G00X159.857Y-106.775
M15
G01X160.857Y-106.775
M16
G05
G00X159.857Y-112.275
M15
G01X160.857Y-112.275
M16
G05
G00X161.857Y-114.675
M15
G01X162.857Y-114.675
M16
G05
G00X166.507Y-105.275
M15
G01X166.507Y-104.275
M16
G05
G00X166.507Y-114.175
M15
G01X166.507Y-113.175
M16
G05
T0
M30
